<svg width="171" height="411" viewBox="0 0 171 411" fill="none" xmlns="http://www.w3.org/2000/svg">
<path d="M0.0450439 402.286L3.37039 406.026H18.75L22.0754 410.804L38.4942 404.156L112.067 401.248L127.863 402.702L143.242 384.835L149.893 370.501L151.763 335.806V332.482L39.7412 336.845L39.3255 348.479L34.961 356.581V367.592H31.6357V392.107L6.6957 392.522L1.91553 395.431L0.0450439 402.286ZM74.0337 4.02976L76.9434 50.1503L87.9585 54.9285L106.248 57.837L121.628 56.7983V52.4355L143.658 52.02L150.932 54.9285L165.273 55.344V52.4355H170.676V12.132L170.261 0.70578L74.0337 4.02976Z" fill="#EEEEEE"/>
</svg>
