<svg width="232" height="693" viewBox="0 0 232 693" fill="none" xmlns="http://www.w3.org/2000/svg">
<path d="M214.011 5.67275V33.0957M37.5605 639.103H40.8859L44.2112 638.687L51.9011 638.272L62.0849 637.856H64.5789H67.0729L74.7627 637.441H78.7116L87.8563 637.025H90.7659L94.7147 636.609L110.51 636.194H113.835L117.576 635.779L37.5605 639.103ZM133.787 641.388H129.423L114.043 643.258L108.224 642.219L102.405 642.634H97.2088L86.6092 643.05L77.4646 643.465L73.5157 643.881H68.3199L64.3711 644.296H61.4614H58.5517H54.3951L46.7052 644.712L41.3016 645.751L37.5605 645.335L133.787 641.388ZM199.671 18.5532H208.4H220.87L227.105 19.592L199.671 18.5532ZM228.975 31.0182H223.156H217.336H211.101H209.231L201.541 31.4337V28.1097V21.8772L201.957 14.1905V3.59525L228.975 31.0182ZM75.1784 302.547L77.4646 304.417L78.9194 305.456L83.2839 307.949L94.2991 315.22L103.444 321.037L108.224 323.946L115.498 328.308L122.149 332.256L123.604 333.71L126.929 335.58L75.1784 302.547ZM146.673 293.407L144.387 293.822L129.007 294.237L127.552 295.276L121.733 294.861H118.823L111.134 296.315L109.679 295.276L107.808 296.315H104.483L93.8834 296.73L77.4646 297.146H75.1784L146.673 293.407ZM86.6092 339.527L96.1696 339.112H98.0401H103.236L115.29 338.073L121.941 337.657L86.6092 339.527Z" stroke="white" stroke-width="2.5175"/>
<path d="M117.369 685.639L109.263 686.054L103.028 686.47L77.0488 687.508H74.5549L60.63 688.547H56.4734L48.7835 688.963L7.42468 690.832H4.93069L0.150513 691.248M111.134 690.832L107.808 689.378L103.028 686.47L95.3382 682.107L93.4677 680.653L91.5972 679.614L89.1032 678.575L87.2327 677.121L81.829 673.797L79.9585 673.381L77.0488 671.927L74.5549 670.473L73.1 669.434L70.1904 667.564L66.865 665.694L65.8259 665.279L64.7867 664.863L60.0065 661.955L53.7715 658.631L38.8075 649.906L111.134 690.832Z" stroke="white" stroke-width="2.5175"/>
</svg>
