<svg width="30" height="28" viewBox="0 0 30 28" fill="none" xmlns="http://www.w3.org/2000/svg">
<path d="M8.11784 11.4092L6.36909 13.1233H8.81784H24.5882C24.8313 13.1233 25 13.3171 25 13.5072C25 13.6973 24.8313 13.8911 24.5882 13.8911H8.81784H6.36909L8.11784 15.6053L15.0076 22.3587C15.0446 22.3949 15.0728 22.4368 15.0917 22.4815C15.1105 22.5261 15.1199 22.5732 15.1199 22.6202C15.1199 22.6673 15.1105 22.7144 15.0917 22.759C15.0728 22.8036 15.0446 22.8455 15.0076 22.8817C14.9707 22.918 14.9257 22.9478 14.8748 22.9684C14.8238 22.9891 14.7686 23 14.7123 23C14.656 23 14.6007 22.9891 14.5498 22.9684C14.4989 22.9478 14.4539 22.918 14.417 22.8817L5.11289 13.7618L5.11216 13.7611C5.07527 13.725 5.04709 13.6832 5.02825 13.6387C5.00942 13.5942 5 13.5472 5 13.5003C5 13.4534 5.00942 13.4064 5.02825 13.3619C5.04709 13.3174 5.07527 13.2756 5.11216 13.2395L5.11289 13.2388L14.417 4.11885L14.4177 4.11813C14.4545 4.08194 14.4994 4.05219 14.5502 4.03154L14.1756 3.11027L14.5502 4.03154C14.601 4.01088 14.6561 4 14.7123 4C14.7685 4 14.8236 4.01088 14.8744 4.03154C14.9252 4.0522 14.9701 4.08195 15.0069 4.11813L15.0076 4.11885C15.1583 4.2665 15.1583 4.50807 15.0076 4.65572L8.11784 11.4092Z" fill="white" stroke="white" stroke-width="2"/>
</svg>
