<svg width="701" height="679" viewBox="0 0 701 679" fill="none" xmlns="http://www.w3.org/2000/svg">
<path d="M0.904663 623.323L2.983 679H3.39866L0.904663 623.323ZM389.345 0.904007L510.928 7.13651L573.901 56.1655L609.441 101.871L609.856 102.078L610.48 102.909H611.311L613.182 103.948H641.031L648.306 102.286L657.866 102.078V100.209L651.007 101.247L621.495 102.286L611.935 102.078L569.537 50.3485L584.501 47.8555L584.916 45.9858L591.567 47.44L592.606 39.7533L592.191 33.5208H589.697V37.0525L587.203 33.7285L572.239 34.144L561.639 44.7393L509.681 5.26675L389.345 0.904007ZM671.999 529.212L673.038 530.667L700.472 513.423L671.999 529.212Z" fill="#292929"/>
</svg>
