<svg width="30" height="28" viewBox="0 0 30 28" fill="none" xmlns="http://www.w3.org/2000/svg">
<path d="M20.0443 6.64645L19.6907 6.29289L19.3372 6.64645L14.5 11.4836L9.66284 6.64645L9.30929 6.29289L8.95573 6.64645L7.64645 7.95573L7.29289 8.30929L7.64645 8.66284L12.4836 13.5L7.64645 18.3372L7.29289 18.6907L7.64645 19.0443L8.95573 20.3536L9.30929 20.7071L9.66284 20.3536L14.5 15.5164L19.3372 20.3536L19.6907 20.7071L20.0443 20.3536L21.3536 19.0443L21.7071 18.6907L21.3536 18.3372L16.5164 13.5L21.3536 8.66284L21.7071 8.30929L21.3536 7.95573L20.0443 6.64645Z" fill="white" stroke="white"/>
</svg>
