<svg width="12" height="11" viewBox="0 0 12 11" fill="none" xmlns="http://www.w3.org/2000/svg">
<path d="M5.8634 9.83051C3.16156 9.83051 1.08325 7.75299 1.08325 5.05223C1.08325 2.35147 3.16156 0.273987 5.8634 0.273987C8.56524 0.273987 10.6436 2.35147 10.6436 5.05223C10.6436 7.96074 8.56524 9.83051 5.8634 9.83051Z" fill="black"/>
<path d="M5.86334 10.4537C2.95366 10.4537 0.66748 8.16848 0.66748 5.25998C0.66748 2.35148 2.95366 0.0662231 5.86334 0.0662231C8.77303 0.0662231 11.0592 2.35148 11.0592 5.25998C11.0592 8.16848 8.98086 10.4537 5.86334 10.4537ZM5.86334 0.897211C3.36933 0.897211 1.49881 2.76698 1.49881 5.25998C1.49881 7.75298 3.36933 9.62275 5.86334 9.62275C8.35736 9.62275 10.2279 7.75298 10.2279 5.25998C10.2279 2.76698 8.35736 0.897211 5.86334 0.897211Z" fill="black"/>
</svg>
