<svg width="12" height="11" viewBox="0 0 12 11" fill="none" xmlns="http://www.w3.org/2000/svg">
<path d="M5.91409 10.078C3.21225 10.078 1.13391 8.00049 1.13391 5.29973C1.13391 2.59897 3.21225 0.521484 5.91409 0.521484C8.61592 0.521484 10.6943 2.59897 10.6943 5.29973C10.6943 8.00049 8.61592 10.078 5.91409 10.078Z" fill="black"/>
<path d="M5.9141 10.4935C3.00443 10.4935 0.718262 8.20822 0.718262 5.29971C0.718262 2.39121 3.00443 0.105957 5.9141 0.105957C8.82377 0.105957 11.1099 2.39121 11.1099 5.29971C11.1099 8.20822 8.82377 10.4935 5.9141 10.4935ZM5.9141 0.936977C3.4201 0.936977 1.5496 2.80671 1.5496 5.29971C1.5496 7.79272 3.4201 9.66248 5.9141 9.66248C8.4081 9.66248 10.2786 7.79272 10.2786 5.29971C10.2786 2.80671 8.4081 0.936977 5.9141 0.936977Z" fill="black"/>
</svg>
