<svg width="11" height="11" viewBox="0 0 11 11" fill="none" xmlns="http://www.w3.org/2000/svg">
<path d="M5.60964 9.77026C2.90781 9.77026 0.829468 7.69276 0.829468 4.992C0.829468 2.29125 2.90781 0.213745 5.60964 0.213745C8.31147 0.213745 10.3898 2.29125 10.3898 4.992C10.3898 7.69276 8.31147 9.77026 5.60964 9.77026Z" fill="black"/>
<path d="M5.60965 10.3935C2.69998 10.3935 0.413818 8.10822 0.413818 5.19972C0.413818 2.29123 2.69998 0.00598145 5.60965 0.00598145C8.51931 0.00598145 10.8055 2.29123 10.8055 5.19972C10.8055 8.10822 8.51931 10.3935 5.60965 10.3935ZM5.60965 0.836999C3.11565 0.836999 1.24515 2.70673 1.24515 5.19972C1.24515 7.69272 3.11565 9.56248 5.60965 9.56248C8.10365 9.56248 9.97414 7.69272 9.97414 5.19972C9.97414 2.70673 8.10365 0.836999 5.60965 0.836999Z" fill="black"/>
</svg>
