<svg width="11" height="11" viewBox="0 0 11 11" fill="none" xmlns="http://www.w3.org/2000/svg">
<path d="M5.4718 10.0682C2.76996 10.0682 0.69165 7.99073 0.69165 5.28998C0.69165 2.58923 2.76996 0.511719 5.4718 0.511719C8.17364 0.511719 10.252 2.58923 10.252 5.28998C10.0441 7.99073 8.17364 10.0682 5.4718 10.0682Z" fill="black"/>
<path d="M5.47174 10.4837C2.56206 10.4837 0.275879 8.1985 0.275879 5.29002C0.275879 2.38155 2.56206 0.0963135 5.47174 0.0963135C8.38142 0.0963135 10.6676 2.38155 10.6676 5.29002C10.6676 8.1985 8.38142 10.4837 5.47174 10.4837ZM5.47174 0.927294C2.97773 0.927294 1.1072 2.79704 1.1072 5.29002C1.1072 7.783 2.97773 9.65275 5.47174 9.65275C7.96575 9.65275 9.83628 7.783 9.83628 5.29002C9.83628 2.79704 7.75792 0.927294 5.47174 0.927294Z" fill="black"/>
</svg>
