<svg width="11" height="11" viewBox="0 0 11 11" fill="none" xmlns="http://www.w3.org/2000/svg">
<path d="M5.77905 9.9118C3.07723 9.9118 0.998901 7.83426 0.998901 5.13351C0.998901 2.43276 3.07723 0.355286 5.77905 0.355286C8.48087 0.355286 10.5592 2.43276 10.5592 5.13351C10.5592 8.04202 8.48087 9.9118 5.77905 9.9118Z" fill="black"/>
<path d="M5.77908 10.535C2.86942 10.535 0.583252 8.24978 0.583252 5.34128C0.583252 2.43277 2.86942 0.147522 5.77908 0.147522C8.68875 0.147522 10.9749 2.43277 10.9749 5.34128C10.9749 8.24978 8.68875 10.535 5.77908 10.535ZM5.77908 0.97851C3.28508 0.97851 1.41457 2.84828 1.41457 5.34128C1.41457 7.83428 3.28508 9.70405 5.77908 9.70405C8.27308 9.70405 10.1436 7.83428 10.1436 5.34128C10.1436 2.84828 8.06525 0.97851 5.77908 0.97851Z" fill="black"/>
</svg>
