<svg width="12" height="12" viewBox="0 0 12 12" fill="none" xmlns="http://www.w3.org/2000/svg">
<path d="M5.88908 10.8687C3.18724 10.8687 1.10889 8.79125 1.10889 6.09052C1.10889 3.38978 3.18724 1.31226 5.88908 1.31226C8.59093 1.31226 10.6693 3.38978 10.6693 6.09052C10.6693 8.79125 8.59093 10.8687 5.88908 10.8687Z" fill="black"/>
<path d="M5.88907 11.2843C2.9794 11.2843 0.693237 8.99904 0.693237 6.09052C0.693237 3.18199 2.9794 0.896729 5.88907 0.896729C8.79873 0.896729 11.0849 3.18199 11.0849 6.09052C11.0849 8.99904 8.79873 11.2843 5.88907 11.2843ZM5.88907 1.72772C3.39507 1.72772 1.52459 3.5975 1.52459 6.09052C1.52459 8.58353 3.39507 10.4532 5.88907 10.4532C8.38307 10.4532 10.2536 8.58353 10.2536 6.09052C10.2536 3.5975 8.38307 1.72772 5.88907 1.72772Z" fill="black"/>
</svg>
