<svg width="32" height="32" viewBox="0 0 32 32" fill="none" xmlns="http://www.w3.org/2000/svg">
<path d="M5.43739 27.2122L5.85305 25.5502L1.07292 23.4727L2.3199 22.2262L7.51573 21.8107L9.1784 19.7332L15.4134 13.5007L0.657227 6.22945L2.52774 4.35971L22.064 6.85273L26.8442 1.86675L27.2599 1.45123C27.6755 1.03573 28.5069 0.620239 29.3382 0.620239C30.1695 0.620239 30.793 0.827964 31.4165 1.24346C31.8322 1.65896 32.04 2.28221 31.8322 3.32096C31.8322 4.15196 31.4165 4.77521 31.0009 5.39846L30.5852 5.81399L25.5972 10.5922L28.0912 30.1207L26.2207 31.9905L18.9465 17.2402L12.7116 23.4727L10.6332 25.1347L10.2176 30.3284L9.1784 31.575L7.10007 26.7967L5.43739 27.2122Z" fill="black"/>
</svg>
