<svg width="12" height="11" viewBox="0 0 12 11" fill="none" xmlns="http://www.w3.org/2000/svg">
<path d="M5.86532 9.99774C3.1635 9.99774 1.08521 7.92024 1.08521 5.21949C1.08521 2.51874 3.1635 0.441246 5.86532 0.441246C8.56715 0.441246 10.6455 2.51874 10.6455 5.21949C10.6455 7.92024 8.56715 9.99774 5.86532 9.99774Z" fill="black"/>
<path d="M5.86526 10.4133C2.9556 10.4133 0.669434 8.128 0.669434 5.2195C0.669434 2.311 2.9556 0.0257492 5.86526 0.0257492C8.77493 0.0257492 11.0611 2.311 11.0611 5.2195C11.0611 8.128 8.77493 10.4133 5.86526 10.4133ZM5.86526 1.0645C3.37127 1.0645 1.50082 2.93426 1.50082 5.42726C1.50082 7.92026 3.37127 9.79 5.86526 9.79C8.35926 9.79 10.2298 7.92026 10.2298 5.42726C10.2298 2.93426 8.35926 1.0645 5.86526 1.0645Z" fill="black"/>
</svg>
