<svg width="12" height="11" viewBox="0 0 12 11" fill="none" xmlns="http://www.w3.org/2000/svg">
<path d="M5.81384 10.4185C3.112 10.4185 1.03369 8.34102 1.03369 5.64026C1.03369 2.9395 3.112 0.862 5.81384 0.862C8.51568 0.862 10.594 2.9395 10.594 5.64026C10.594 8.34102 8.51568 10.4185 5.81384 10.4185Z" fill="black"/>
<path d="M5.81384 10.834C2.90419 10.834 0.618042 8.54876 0.618042 5.64026C0.618042 2.73176 2.90419 0.446503 5.81384 0.446503C8.72349 0.446503 11.0096 2.73176 11.0096 5.64026C11.0096 8.54876 8.72349 10.834 5.81384 10.834ZM5.81384 1.27751C3.31986 1.27751 1.44939 3.14726 1.44939 5.64026C1.44939 8.13326 3.31986 10.003 5.81384 10.003C8.30783 10.003 10.1783 8.13326 10.1783 5.64026C10.1783 3.14726 8.30783 1.27751 5.81384 1.27751Z" fill="black"/>
</svg>
