<svg width="11" height="12" viewBox="0 0 11 12" fill="none" xmlns="http://www.w3.org/2000/svg">
<path d="M5.23669 10.655C2.53486 10.655 0.456543 8.5775 0.456543 5.87675C0.456543 3.17601 2.53486 1.09851 5.23669 1.09851C7.93853 1.09851 10.0168 3.17601 10.0168 5.87675C9.80901 8.5775 7.7307 10.655 5.23669 10.655Z" fill="black"/>
<path d="M5.2366 11.0705C2.32694 11.0705 0.0407715 8.78523 0.0407715 5.87674C0.0407715 2.96825 2.32694 0.683014 5.2366 0.683014C8.14627 0.683014 10.4324 2.96825 10.4324 5.87674C10.4324 8.78523 8.14627 11.0705 5.2366 11.0705ZM5.2366 1.51403C2.7426 1.51403 0.872092 3.38375 0.872092 5.87674C0.872092 8.36973 2.7426 10.2395 5.2366 10.2395C7.7306 10.2395 9.60111 8.36973 9.60111 5.87674C9.60111 3.38375 7.52277 1.51403 5.2366 1.51403Z" fill="black"/>
</svg>
