<svg width="12" height="12" viewBox="0 0 12 12" fill="none" xmlns="http://www.w3.org/2000/svg">
<path d="M6.05865 10.6355C3.35685 10.6355 1.27856 8.55799 1.27856 5.85724C1.27856 3.15649 3.35685 1.07901 6.05865 1.07901C8.76046 1.07901 10.8388 3.15649 10.8388 5.85724C10.8388 8.55799 8.76046 10.6355 6.05865 10.6355Z" fill="black"/>
<path d="M6.05862 11.051C3.14896 11.051 0.862793 8.76576 0.862793 5.85724C0.862793 2.94872 3.14896 0.663452 6.05862 0.663452C8.96829 0.663452 11.2545 2.94872 11.2545 5.85724C11.2545 8.76576 8.96829 11.051 6.05862 11.051ZM6.05862 1.70221C3.56463 1.70221 1.69418 3.57199 1.69418 6.065C1.69418 8.55802 3.56463 10.4278 6.05862 10.4278C8.55262 10.4278 10.4231 8.55802 10.4231 6.065C10.4231 3.57199 8.34479 1.70221 6.05862 1.70221Z" fill="black"/>
</svg>
