<svg width="11" height="11" viewBox="0 0 11 11" fill="none" xmlns="http://www.w3.org/2000/svg">
<path d="M5.61877 10.5703C2.91693 10.5703 0.838623 8.49276 0.838623 5.792C0.838623 3.09124 2.91693 1.01373 5.61877 1.01373C8.32061 1.01373 10.399 3.09124 10.399 5.792C10.399 8.49276 8.32061 10.5703 5.61877 10.5703Z" fill="black"/>
<path d="M5.61871 10.9857C2.70903 10.9857 0.422852 8.70049 0.422852 5.792C0.422852 2.88351 2.70903 0.598267 5.61871 0.598267C8.5284 0.598267 10.8146 2.88351 10.8146 5.792C10.8146 8.70049 8.5284 10.9857 5.61871 10.9857ZM5.61871 1.42925C3.1247 1.42925 1.25418 3.29901 1.25418 5.792C1.25418 8.28499 3.1247 10.1547 5.61871 10.1547C8.11273 10.1547 9.98325 8.28499 9.98325 5.792C9.98325 3.29901 8.11273 1.42925 5.61871 1.42925Z" fill="black"/>
</svg>
