<svg width="11" height="12" viewBox="0 0 11 12" fill="none" xmlns="http://www.w3.org/2000/svg">
<path d="M5.39343 10.6908C2.69159 10.6908 0.613281 8.61325 0.613281 5.9125C0.613281 3.21175 2.69159 1.13425 5.39343 1.13425C8.09527 1.13425 10.1736 3.21175 10.1736 5.9125C10.1736 8.61325 8.09527 10.6908 5.39343 10.6908Z" fill="black"/>
<path d="M5.39334 11.1063C2.48368 11.1063 0.19751 8.82101 0.19751 5.91251C0.19751 3.004 2.48368 0.71875 5.39334 0.71875C8.30301 0.71875 10.5892 3.004 10.5892 5.91251C10.5892 8.82101 8.51084 11.1063 5.39334 11.1063ZM5.39334 1.7575C2.89934 1.7575 1.02883 3.62725 1.02883 6.12025C1.02883 8.61326 2.89934 10.483 5.39334 10.483C7.88734 10.483 9.75785 8.61326 9.75785 6.12025C9.75785 3.62725 7.88734 1.7575 5.39334 1.7575Z" fill="black"/>
</svg>
