<svg width="12" height="12" viewBox="0 0 12 12" fill="none" xmlns="http://www.w3.org/2000/svg">
<path d="M6.0112 10.6328C3.30935 10.6328 1.23096 8.55526 1.23096 5.85451C1.23096 3.15376 3.30935 1.07625 6.0112 1.07625C8.71306 1.07625 10.7914 3.15376 10.7914 5.85451C10.7914 8.55526 8.71306 10.6328 6.0112 10.6328Z" fill="black"/>
<path d="M6.01102 11.0482C3.10135 11.0482 0.815186 8.763 0.815186 5.85451C0.815186 2.94601 3.10135 0.660767 6.01102 0.660767C8.92068 0.660767 11.2068 2.94601 11.2068 5.85451C11.2068 8.763 8.92068 11.0482 6.01102 11.0482ZM6.01102 1.69951C3.51702 1.69951 1.64651 3.56926 1.64651 6.06225C1.64651 8.55525 3.51702 10.425 6.01102 10.425C8.50502 10.425 10.3755 8.55525 10.3755 6.06225C10.3755 3.56926 8.29718 1.69951 6.01102 1.69951Z" fill="black"/>
</svg>
