<svg width="11" height="11" viewBox="0 0 11 11" fill="none" xmlns="http://www.w3.org/2000/svg">
<path d="M5.59975 10.1973C2.8979 10.1973 0.81958 8.11984 0.81958 5.41907C0.81958 2.7183 2.8979 0.640747 5.59975 0.640747C8.30159 0.640747 10.3799 2.7183 10.3799 5.41907C10.3799 8.11984 8.30159 10.1973 5.59975 10.1973Z" fill="black"/>
<path d="M5.59975 10.6128C2.69009 10.6128 0.403931 8.32753 0.403931 5.41901C0.403931 2.51049 2.69009 0.22522 5.59975 0.22522C8.5094 0.22522 10.7956 2.51049 10.7956 5.41901C10.7956 8.32753 8.5094 10.6128 5.59975 10.6128ZM5.59975 1.26398C3.10575 1.26398 1.23528 3.13375 1.23528 5.62677C1.23528 8.11979 3.10575 9.9895 5.59975 9.9895C8.09374 9.9895 9.96424 8.11979 9.96424 5.62677C9.96424 3.13375 8.09374 1.26398 5.59975 1.26398Z" fill="black"/>
</svg>
