<svg width="12" height="11" viewBox="0 0 12 11" fill="none" xmlns="http://www.w3.org/2000/svg">
<path d="M6.01392 10.2531C3.31209 10.2531 1.23376 8.17551 1.23376 5.47476C1.23376 2.77401 3.31209 0.696533 6.01392 0.696533C8.71576 0.696533 10.7941 2.77401 10.7941 5.47476C10.7941 8.17551 8.71576 10.2531 6.01392 10.2531Z" fill="black"/>
<path d="M6.01396 10.6685C3.10429 10.6685 0.818115 8.38327 0.818115 5.47476C0.818115 2.56626 3.10429 0.281006 6.01396 0.281006C8.92364 0.281006 11.2098 2.56626 11.2098 5.47476C11.2098 8.38327 9.13147 10.6685 6.01396 10.6685ZM6.01396 1.11199C3.51996 1.11199 1.64945 2.98176 1.64945 5.47476C1.64945 7.96777 3.51996 9.83753 6.01396 9.83753C8.50797 9.83753 10.3785 7.96777 10.3785 5.47476C10.3785 2.98176 8.50797 1.11199 6.01396 1.11199Z" fill="black"/>
</svg>
