<svg width="12" height="12" viewBox="0 0 12 12" fill="none" xmlns="http://www.w3.org/2000/svg">
<path d="M6.13754 10.9277C3.43572 10.9277 1.35742 8.85025 1.35742 6.1495C1.35742 3.44876 3.43572 1.37126 6.13754 1.37126C8.83937 1.37126 10.9177 3.44876 10.9177 6.1495C10.9177 8.85025 8.83937 10.9277 6.13754 10.9277Z" fill="black"/>
<path d="M6.13751 11.3432C3.22783 11.3432 0.94165 9.058 0.94165 6.1495C0.94165 3.241 3.22783 0.95575 6.13751 0.95575C9.0472 0.95575 11.3334 3.241 11.3334 6.1495C11.3334 9.058 9.0472 11.3432 6.13751 11.3432ZM6.13751 1.9945C3.6435 1.9945 1.77298 3.86425 1.77298 6.35725C1.77298 8.85025 3.6435 10.72 6.13751 10.72C8.63153 10.72 10.502 8.85025 10.502 6.35725C10.502 3.86425 8.63153 1.9945 6.13751 1.9945Z" fill="black"/>
</svg>
