<svg width="11" height="11" viewBox="0 0 11 11" fill="none" xmlns="http://www.w3.org/2000/svg">
<path d="M5.70084 9.99426C2.999 9.99426 0.920654 7.91675 0.920654 5.21599C0.920654 2.51523 2.999 0.437744 5.70084 0.437744C8.40267 0.437744 10.481 2.51523 10.481 5.21599C10.481 7.91675 8.40267 9.99426 5.70084 9.99426Z" fill="black"/>
<path d="M5.70096 10.4097C2.79129 10.4097 0.505127 8.12449 0.505127 5.216C0.505127 2.30752 2.79129 0.0222778 5.70096 0.0222778C8.61062 0.0222778 10.8968 2.30752 10.8968 5.216C10.8968 8.12449 8.81846 10.4097 5.70096 10.4097ZM5.70096 1.06102C3.20696 1.06102 1.33645 2.93078 1.33645 5.42377C1.33645 7.91675 3.20696 9.78651 5.70096 9.78651C8.19496 9.78651 10.0655 7.91675 10.0655 5.42377C10.0655 2.93078 8.19496 1.06102 5.70096 1.06102Z" fill="black"/>
</svg>
