<svg width="11" height="12" viewBox="0 0 11 12" fill="none" xmlns="http://www.w3.org/2000/svg">
<path d="M5.47768 10.7225C2.77585 10.7225 0.69751 8.64507 0.69751 5.94434C0.69751 3.2436 2.77585 1.16608 5.47768 1.16608C8.17952 1.16608 10.2578 3.2436 10.2578 5.94434C10.05 8.64507 8.17952 10.7225 5.47768 10.7225Z" fill="black"/>
<path d="M5.47768 11.1381C2.56802 11.1381 0.28186 8.85281 0.28186 5.94431C0.28186 3.0358 2.56802 0.750549 5.47768 0.750549C8.38735 0.750549 10.6735 3.0358 10.6735 5.94431C10.6735 8.85281 8.38735 11.1381 5.47768 11.1381ZM5.47768 1.7893C2.98369 1.7893 1.11318 3.659 1.11318 6.15201C1.11318 8.64501 2.98369 10.5148 5.47768 10.5148C7.97168 10.5148 9.84217 8.64501 9.84217 6.15201C9.84217 3.659 7.76385 1.7893 5.47768 1.7893Z" fill="black"/>
</svg>
