<svg width="32" height="32" viewBox="0 0 32 32" fill="none" xmlns="http://www.w3.org/2000/svg">
<path d="M5.36803 26.7375L5.78372 25.0755L1.00352 22.998L2.25053 21.7515L7.44637 21.336L9.10907 19.2585L15.3441 13.026L0.587891 5.75477L2.45838 3.88503L21.9947 6.37805L26.7749 1.39201L27.1905 0.976554C27.6062 0.561055 28.4375 0.145569 29.2689 0.145569C30.1002 0.145569 30.7237 0.353293 31.3472 0.768792C31.7629 1.18429 31.9707 1.80754 31.7629 2.84629C31.7629 3.67728 31.3472 4.30053 30.9316 4.92378L30.5159 5.33931L25.5279 10.1175L28.0219 29.646L26.1514 31.5157L18.8772 16.7655L12.6422 22.998L10.5639 24.66L10.1482 29.8537L8.90122 31.1002L6.82289 26.322L5.36803 26.7375Z" fill="black"/>
</svg>
