<svg width="12" height="11" viewBox="0 0 12 11" fill="none" xmlns="http://www.w3.org/2000/svg">
<path d="M5.91815 10.0411C3.21631 10.0411 1.13794 7.96359 1.13794 5.26282C1.13794 2.56205 3.21631 0.484497 5.91815 0.484497C8.61999 0.484497 10.6983 2.56205 10.6983 5.26282C10.6983 7.96359 8.61999 10.0411 5.91815 10.0411Z" fill="black"/>
<path d="M5.91827 10.4565C3.00859 10.4565 0.722412 8.17129 0.722412 5.26279C0.722412 2.35428 3.00859 0.0690308 5.91827 0.0690308C8.82796 0.0690308 11.1141 2.35428 11.1141 5.26279C11.1141 8.17129 8.82796 10.4565 5.91827 10.4565ZM5.91827 0.900019C3.42426 0.900019 1.55374 2.76978 1.55374 5.26279C1.55374 7.75579 3.42426 9.62556 5.91827 9.62556C8.41229 9.62556 10.2827 7.75579 10.2827 5.26279C10.2827 2.76978 8.20445 0.900019 5.91827 0.900019Z" fill="black"/>
</svg>
