<svg width="529" height="510" viewBox="0 0 529 510" fill="none" xmlns="http://www.w3.org/2000/svg">
<path d="M206.782 163.465L204.288 163.049M203.872 163.465H206.782L217.381 163.049L203.872 163.465Z" stroke="#7F7F7F" stroke-width="3.68" stroke-linejoin="round"/>
<path d="M180.387 408.609V413.388M181.426 421.49L180.387 408.609V405.701L180.802 399.468L181.218 395.106L182.257 393.236L181.218 391.782L180.802 388.458L179.763 382.225V380.356L181.426 421.49ZM179.971 382.225L181.01 386.173V388.666L180.595 390.951L180.179 394.898L183.089 397.391L181.218 399.884L182.257 400.923L181.842 403.416L181.426 405.701V407.571L181.01 409.025L179.971 382.225ZM180.387 413.388L179.971 415.258V419.62L180.387 423.568V413.388Z" stroke="#7F7F7F" stroke-width="3.68" stroke-linejoin="round"/>
<path d="M327.117 31.7509L312.777 44.216L299.267 57.7197M298.228 57.7197L312.569 44.216L314.439 43.1772L322.129 38.399L326.494 32.582L298.228 57.7197ZM296.773 59.174L282.849 70.1847L278.068 74.5475L260.195 84.7272L243.776 94.2837L237.957 97.1922L296.773 59.174ZM278.068 74.5475L264.559 81.8187L260.195 84.7272L258.324 85.766L256.454 86.8047L247.309 91.9985L241.074 99.6853L238.58 104.048L238.996 107.372L278.068 74.5475ZM282.849 70.1847L297.189 59.174L282.849 70.1847Z" stroke="#7F7F7F" stroke-width="3.68" stroke-linejoin="round"/>
<path d="M346.654 12.638L345.614 15.131L341.666 19.9092L337.717 23.2333L333.768 27.1805L333.352 27.596L331.066 29.0502L328.572 31.3355L326.078 32.7897L323.792 41.5153L321.921 36.737L326.702 31.9587L328.572 31.5433H333.768L337.093 31.1278L341.458 25.934L341.873 24.4797L345.199 22.61L347.485 19.286L347.069 15.3387M347.693 8.27524L346.238 2.45825L347.277 8.69075L347.693 8.27524Z" stroke="#7F7F7F" stroke-width="3.68" stroke-linejoin="round"/>
<path d="M100.163 293.308L109.308 294.347L100.163 292.893M18.9003 293.308L21.81 294.347L23.2648 293.308H25.1353H18.9003ZM65.8706 294.763L61.5061 295.178H59.6356H52.985L41.3463 295.594L24.9275 293.1L65.8706 294.763ZM94.3438 291.438L69.8195 293.308L94.3438 291.854V291.438ZM41.3463 295.594L27.0058 293.1L22.2256 292.062L15.575 293.1H18.9003L41.3463 295.594ZM54.4398 295.594L58.8043 296.632L61.7139 295.178L65.455 294.139L54.4398 295.594Z" stroke="#7F7F7F" stroke-width="3.68" stroke-linejoin="round"/>
<path d="M490.89 503.344L463.04 490.463L467.82 492.956L490.89 503.967" stroke="#7F7F7F" stroke-width="3.68" stroke-linejoin="round"/>
<path d="M180.387 420.244V424.606L181.426 428.969L180.387 439.564V436.033L180.803 427.93L180.387 424.606L180.803 419.413L180.387 420.244ZM179.971 441.849L181.01 460.131L181.426 463.04L181.842 465.948L180.387 467.403L181.426 469.272V472.181V475.089L181.842 468.857L181.426 463.04V459.093L179.971 441.849Z" stroke="#7F7F7F" stroke-width="3.68" stroke-linejoin="round"/>
<path d="M3.52064 429.384H0.195312M391.545 481.114L395.494 481.53H398.82L401.314 481.114H391.545ZM457.844 506.667L442.88 500.019L441.841 499.604L440.386 499.188L431.657 495.241L427.293 494.202L421.473 488.386L424.799 490.878L425.214 491.294H425.63L427.085 492.333L457.844 506.667ZM443.919 498.981L441.01 497.526L432.904 493.579L443.919 498.981ZM392.792 484.023L395.286 481.53L401.106 480.491L392.792 484.023ZM453.064 503.343L445.79 500.019L453.064 503.343ZM59.22 438.941L58.8043 431.67V438.941H59.22Z" stroke="#7F7F7F" stroke-width="3.68" stroke-linejoin="round"/>
<path d="M502.528 507.083L506.893 505.629M507.309 506.252L504.399 507.706L502.528 507.291L496.709 506.252L494.839 505.836L465.118 490.878L507.309 506.252ZM524.559 499.396H527.053L524.143 498.981L524.559 499.396Z" stroke="#7F7F7F" stroke-width="3.68" stroke-linejoin="round"/>
<path d="M463.04 490.255L493.384 504.59L494.839 505.629" stroke="#7F7F7F" stroke-width="3.68" stroke-linejoin="round"/>
</svg>
