<svg width="531" height="509" viewBox="0 0 531 509" fill="none" xmlns="http://www.w3.org/2000/svg">
<path d="M208.782 162.465L206.288 162.049M205.872 162.465H208.782L219.381 162.049L205.872 162.465Z" stroke="#737373" stroke-width="2.76" stroke-linecap="round" stroke-linejoin="round"/>
<path d="M182.387 407.609V412.388M183.426 420.49L182.387 407.609V404.701L182.802 398.468L183.218 394.106L184.257 392.236L183.218 390.782L182.802 387.458L181.763 381.225V379.356L183.426 420.49ZM181.971 381.225L183.01 385.173V387.666L182.595 389.951L182.179 393.898L185.089 396.391L183.218 398.884L184.257 399.923L183.842 402.416L183.426 404.701V406.571L183.01 408.025L181.971 381.225ZM182.387 412.388L181.971 414.258V418.62L182.387 422.568V412.388Z" stroke="#737373" stroke-width="2.76" stroke-linecap="round" stroke-linejoin="round"/>
<path d="M329.117 30.7509L314.777 43.216L301.267 56.7197M300.228 56.7197L314.569 43.216L316.439 42.1772L324.129 37.399L328.494 31.582L300.228 56.7197ZM298.773 58.174L284.849 69.1847L280.068 73.5475L262.195 83.7272L245.776 93.2837L239.957 96.1922L298.773 58.174ZM280.068 73.5475L266.559 80.8187L262.195 83.7272L260.324 84.766L258.454 85.8047L249.309 90.9985L243.074 98.6853L240.58 103.048L240.996 106.372L280.068 73.5475ZM284.849 69.1847L299.189 58.174L284.849 69.1847Z" stroke="#737373" stroke-width="2.76" stroke-linecap="round" stroke-linejoin="round"/>
<path d="M348.654 11.638L347.614 14.131L343.666 18.9092L339.717 22.2333L335.768 26.1805L335.352 26.596L333.066 28.0502L330.572 30.3355L328.078 31.7897L325.792 40.5153L323.921 35.737L328.702 30.9587L330.572 30.5433H335.768L339.093 30.1278L343.458 24.934L343.873 23.4797L347.199 21.61L349.485 18.286L349.069 14.3387M349.693 7.27524L348.238 1.45825L349.277 7.69075L349.693 7.27524Z" stroke="#737373" stroke-width="2.76" stroke-linecap="round" stroke-linejoin="round"/>
<path d="M102.163 292.308L111.308 293.347L102.163 291.893M20.9003 292.308L23.81 293.347L25.2648 292.308H27.1353H20.9003ZM67.8706 293.763L63.5061 294.178H61.6356H54.985L43.3463 294.594L26.9275 292.1L67.8706 293.763ZM96.3438 290.438L71.8195 292.308L96.3438 290.854V290.438ZM43.3463 294.594L29.0058 292.1L24.2256 291.062L17.575 292.1H20.9003L43.3463 294.594ZM56.4398 294.594L60.8043 295.632L63.7139 294.178L67.455 293.139L56.4398 294.594Z" stroke="#737373" stroke-width="2.76" stroke-linecap="round" stroke-linejoin="round"/>
<path d="M492.89 502.344L465.04 489.463L469.82 491.956L492.89 502.967" stroke="#737373" stroke-width="2.76" stroke-linecap="round" stroke-linejoin="round"/>
<path d="M182.387 419.244V423.606L183.426 427.969L182.387 438.564V435.033L182.803 426.93L182.387 423.606L182.803 418.413L182.387 419.244ZM181.971 440.849L183.01 459.131L183.426 462.04L183.842 464.948L182.387 466.403L183.426 468.272V471.181V474.089L183.842 467.857L183.426 462.04V458.093L181.971 440.849Z" stroke="#737373" stroke-width="2.76" stroke-linecap="round" stroke-linejoin="round"/>
<path d="M5.52064 428.384H2.19531M393.545 480.114L397.494 480.53H400.82L403.314 480.114H393.545ZM459.844 505.667L444.88 499.019L443.841 498.604L442.386 498.188L433.657 494.241L429.293 493.202L423.473 487.386L426.799 489.878L427.214 490.294H427.63L429.085 491.333L459.844 505.667ZM445.919 497.981L443.01 496.526L434.904 492.579L445.919 497.981ZM394.792 483.023L397.286 480.53L403.106 479.491L394.792 483.023ZM455.064 502.343L447.79 499.019L455.064 502.343ZM61.22 437.941L60.8043 430.67V437.941H61.22Z" stroke="#737373" stroke-width="2.76" stroke-linecap="round" stroke-linejoin="round"/>
<path d="M504.528 506.083L508.893 504.629M509.309 505.252L506.399 506.706L504.528 506.291L498.709 505.252L496.839 504.836L467.118 489.878L509.309 505.252ZM526.559 498.396H529.053L526.143 497.981L526.559 498.396Z" stroke="#737373" stroke-width="2.76" stroke-linecap="round" stroke-linejoin="round"/>
<path d="M465.04 489.255L495.384 503.59L496.839 504.629" stroke="#737373" stroke-width="2.76" stroke-linecap="round" stroke-linejoin="round"/>
</svg>
