<svg width="475" height="502" viewBox="0 0 475 502" fill="none" xmlns="http://www.w3.org/2000/svg">
<path d="M296.693 8.92326V2.27525M296.277 2.69076V4.5605L295.861 6.43025L296.277 2.69076Z" stroke="#737373" stroke-width="2.76" stroke-linecap="round" stroke-linejoin="round"/>
<path d="M247.228 51.7197L245.773 53.174M246.189 53.174L248.06 51.7197L246.189 53.174Z" stroke="#737373" stroke-width="2.76" stroke-linecap="round" stroke-linejoin="round"/>
<path d="M49.1631 286.893L43.3438 285.438M14.8706 288.763L18.6117 287.308L14.2471 288.347L14.8706 288.763ZM1.98499 289.178L3.43981 289.594L1.98499 289.178ZM43.3438 285.854L46.6692 286.27L49.1631 287.308L43.3438 285.854Z" stroke="#737373" stroke-width="2.76" stroke-linecap="round" stroke-linejoin="round"/>
<path d="M350.106 475.114H353.847M381.904 487.787L376.708 486.333L381.904 487.787ZM394.79 494.019L392.919 492.981L394.79 494.019ZM370.681 482.385L353.847 475.114L350.106 474.699L370.681 482.385Z" stroke="#737373" stroke-width="2.76" stroke-linecap="round" stroke-linejoin="round"/>
<path d="M128.971 435.849L129.387 433.357" stroke="#737373" stroke-width="2.76" stroke-linecap="round" stroke-linejoin="round"/>
<path d="M455.893 499.629L471.688 493.812L473.143 492.773M456.309 500.252L471.688 494.019L473.559 493.604L456.309 500.252Z" stroke="#737373" stroke-width="2.76" stroke-linecap="round" stroke-linejoin="round"/>
</svg>
