<svg width="474" height="500" viewBox="0 0 474 500" fill="none" xmlns="http://www.w3.org/2000/svg">
<path d="M295.693 6.92326V0.275253M295.277 0.690763V2.5605L294.861 4.43025L295.277 0.690763Z" stroke="#7F7F7F" stroke-width="3.68" stroke-linejoin="bevel"/>
<path d="M246.228 49.7197L244.773 51.174M245.189 51.174L247.06 49.7197L245.189 51.174Z" stroke="#7F7F7F" stroke-width="3.68" stroke-linejoin="bevel"/>
<path d="M48.1631 284.893L42.3438 283.438M13.8706 286.763L17.6117 285.308L13.2471 286.347L13.8706 286.763ZM0.984985 287.178L2.43981 287.594L0.984985 287.178ZM42.3438 283.854L45.6692 284.27L48.1631 285.308L42.3438 283.854Z" stroke="#7F7F7F" stroke-width="3.68" stroke-linejoin="bevel"/>
<path d="M349.106 473.114H352.847M380.904 485.787L375.708 484.333L380.904 485.787ZM393.79 492.019L391.919 490.981L393.79 492.019ZM369.681 480.385L352.847 473.114L349.106 472.699L369.681 480.385Z" stroke="#7F7F7F" stroke-width="3.68" stroke-linejoin="bevel"/>
<path d="M127.971 433.849L128.387 431.357" stroke="#7F7F7F" stroke-width="3.68" stroke-linejoin="bevel"/>
<path d="M454.893 497.629L470.688 491.812L472.143 490.773M455.309 498.252L470.688 492.019L472.559 491.604L455.309 498.252Z" stroke="#7F7F7F" stroke-width="3.68" stroke-linejoin="bevel"/>
</svg>
