<svg width="865" height="831" viewBox="0 0 865 831" fill="none" xmlns="http://www.w3.org/2000/svg">
<path d="M0 831H596.897V829.13L602.717 823.313L622.045 815.211L632.229 802.331L657.169 785.918L659.871 753.717H660.079L662.573 745.615L668.808 743.33L668.392 731.28L673.588 721.1L672.133 719.646L669.223 725.463L665.275 724.009L667.768 710.09L658 709.674L657.585 707.804L667.768 707.389V704.065L667.353 671.864L666.937 668.539L662.573 665.631L667.353 663.761L667.768 648.388L667.353 645.064H663.404V643.194L667.353 642.779L667.768 610.577L674.419 603.306L669.223 591.672L672.549 588.763L687.513 588.348L687.928 585.024L681.693 557.186H681.07L680.862 555.939V555.731L684.187 540.358L683.356 538.696L683.148 537.034L686.474 535.995L697.904 525.815L694.579 523.945L694.995 519.167L685.85 515.428L683.356 509.611L666.106 511.481L659.871 506.702L666.522 511.065L684.811 509.195L698.736 515.428L702.061 513.558L704.555 495.276H699.775L704.555 494.861L704.971 491.952H692.085L705.594 489.459L706.633 484.265H694.995L706.633 483.85L707.049 477.202L700.814 476.994L707.049 476.786V473.462L694.579 473.047L707.049 472.631L707.465 445.832L718.896 440.015L724.715 433.367L689.591 434.405L725.13 432.536L728.04 411.968L732.82 407.605L728.456 406.567H733.236L734.691 404.074L725.13 402.62L739.055 404.074L741.757 402.62H743.004L745.498 400.75L739.055 393.063L740.51 394.31L746.33 400.334L748.2 398.88L739.471 389.739L749.031 397.841L750.486 395.972L742.381 387.246L751.941 395.348L752.98 393.479L744.875 384.753L754.019 392.855L755.474 390.362L747.369 381.637L756.513 389.739L764.619 375.82L734.899 376.235L760.462 374.781L756.098 366.679L760.878 371.042L761.294 374.989L765.242 374.573L768.152 365.432L756.098 364.393V366.263L736.354 367.718L754.643 364.809L754.227 361.901L737.808 361.485L738.224 356.707V361.07H741.134V356.707L741.549 360.654H744.459L744.875 357.33V360.654H747.369L747.784 357.33V360.654H750.07L750.486 357.33L750.902 360.238H753.812L754.227 356.915L737.808 355.253L741.549 354.214L735.73 347.981L739.055 349.851L739.471 347.981L741.965 353.383L741.549 345.696L786.857 342.372L787.896 340.502H784.987L787.896 337.594L792.261 338.009L807.225 331.777L809.095 325.96L803.276 325.544L800.782 317.858L803.692 311.625L797.872 299.576L805.562 310.171L807.432 309.755L811.797 292.512L810.758 303.523L816.785 303.107L809.303 315.572L814.499 318.065L813.46 323.259L816.369 326.168L822.189 322.844L825.098 306.847L826.969 302.692L827.385 294.174V293.966L827.8 284.825L820.526 273.191L819.487 253.663V251.585L819.071 243.899L804.107 243.483L819.071 243.068L818.656 240.575L808.056 240.159L818.656 239.536L818.24 237.043L802.86 236.627L818.24 236.212L817.824 234.342L802.86 233.927L817.824 233.511L817.409 231.018L807.64 230.603L817.409 229.979L816.993 228.11L802.652 227.694L816.577 226.24L793.923 225.824L793.508 227.694L800.158 228.11L793.508 228.525L793.092 231.018H800.366L793.092 232.057L792.676 234.342L800.366 233.927L792.261 235.381V237.251H800.366L792.261 238.289L791.845 240.782H800.99L790.806 241.821L790.39 244.314L799.119 243.899L789.975 245.353V248.261L790.182 248.677H789.975L791.014 250.547L792.261 253.871L789.559 250.131L789.975 255.948L787.065 253.663V256.987L782.285 255.948L780.414 257.818L777.505 255.948L777.089 258.441L777.297 254.286L778.544 254.909L777.505 250.131L769.815 251.585L769.607 251.793L766.489 252.416L768.568 240.367L771.685 238.497L772.101 241.821L772.517 239.328L772.101 236.835L765.45 237.251L765.866 232.888L771.685 232.472V227.279L770.646 230.603L767.736 224.786L776.881 220.838L784.155 223.747H785.61L786.441 224.162L789.351 223.955L793.092 224.162V223.747H793.508V220.215L789.559 219.384V218.969L792.884 216.891V213.152L790.598 212.736L786.234 217.93L781.453 217.307L781.661 216.06H782.492V208.581L782.908 204.842L784.779 204.218H785.61L793.508 205.88L796.625 216.683L799.951 215.645L800.99 208.165L803.276 215.645L803.484 218.138H796.417V224.37H796.833L812.213 223.955L813.668 221.462L808.472 211.905L807.432 203.803L802.86 205.673L802.652 205.257V203.803L807.432 203.387V194.246L787.273 193.831L809.927 192.377L810.342 188.014H809.927V186.975L795.586 186.352L808.68 185.729L807.64 182.82L810.134 181.781L811.589 185.521H814.083L814.707 184.69L815.122 184.482L815.538 183.443L817.616 180.327L817.409 178.042L818.24 175.549L816.785 173.056H825.93L827.385 156.644L836.529 157.059L838.4 151.865L839.439 133.999H812.628L838.608 132.545V127.766L824.683 126.728L823.228 119.456L829.047 118.418L830.918 125.066L838.608 126.104L839.647 112.601L814.083 112.185L839.647 111.146L840.062 108.238L815.954 108.653L817.409 102.005L816.993 93.903L818.448 90.1635L822.812 85.3853L822.397 80.1915L826.761 80.607L837.153 79.1527L843.596 78.7373L845.05 69.5963V65.649L840.27 63.7793L834.451 65.649L831.333 69.3885L830.502 69.804L830.918 65.0257L824.059 52.5608L821.773 27.0075L821.357 19.3208L832.372 19.7363L828.632 21.606L823.436 20.1518L823.851 28.8773H824.267V29.2928L826.761 29.085L828.008 29.2928L841.933 28.254L845.258 20.1518H851.493L852.117 14.5425H844.011L842.556 8.31L822.189 10.1798L820.526 9.141L819.487 6.648L819.903 5.19375L842.556 4.36275L842.972 1.03875H843.18L853.987 0.62325V0H0V831ZM789.559 247.638L803.068 244.73L804.523 249.092L802.237 246.184L799.743 247.223L801.613 251.17L796.833 247.846L798.703 252.624L795.378 247.846L793.716 248.261L793.3 247.846L793.508 248.261L792.884 248.469L795.794 254.702L791.845 248.469H789.975L789.559 247.638ZM776.05 216.476L779.375 216.06L781.038 217.099L776.05 216.476ZM792.053 256.987L794.963 256.571L793.716 257.195L792.053 256.987ZM816.993 302.484L817.409 299.576L820.734 301.445L816.993 302.484ZM623.292 819.574L625.163 822.067L630.982 823.937L638.672 824.352H646.777L648.648 823.937L655.922 822.898L655.506 820.405L634.723 821.444L625.163 818.535L623.292 819.574ZM661.326 750.393L670.055 767.221L674.835 751.432L673.796 749.562L661.326 750.393ZM667.976 616.81L668.392 622.004H683.356L667.976 616.81ZM670.886 594.165L675.25 602.891L686.681 588.971H672.757L670.886 594.165ZM677.121 722.97L685.227 733.981L735.314 758.911L779.998 759.326L771.27 752.055L745.706 740.006L736.977 738.967L682.109 712.998L678.784 718.192L678.576 718.607L677.329 720.685L677.537 721.1L677.121 722.97ZM683.772 683.498L684.187 687.445L703.932 688.484L705.802 686.614L704.763 682.251L683.772 683.498ZM684.395 692.639L688.344 706.558L777.712 749.354L771.893 740.213L765.658 741.668L705.594 713.414L701.645 695.547H701.23L701.022 695.132L684.395 692.639ZM684.811 822.482L699.151 831H710.374L708.296 829.13L704.347 828.092L694.787 816.042L693.332 817.081L698.528 823.937L696.865 823.521L690.838 820.405H684.603V822.482H684.811ZM685.227 510.857L686.681 514.181L695.41 517.921L696.45 524.153H698.32L700.814 516.882L685.227 510.857ZM688.136 662.307L692.501 660.022L691.462 657.113L688.136 662.307ZM691.046 548.46L695.41 548.876L696.865 545.552L694.371 542.228L692.501 543.682L691.046 548.46ZM691.462 565.288L691.877 569.651L693.332 567.781V564.872L691.462 565.288ZM700.19 622.004L703.516 623.873L765.658 622.835L760.878 619.511L747.369 620.549V618.68L745.498 620.549L701.23 620.134L700.19 622.004ZM702.685 806.486L727.209 831H784.155L787.273 823.313L786.857 812.303L788.728 811.887L785.402 808.563L780.206 817.704L785.402 819.158L776.673 822.482L782.492 810.433L777.712 807.109L776.673 796.098L770.023 786.957L765.658 786.542L764.203 790.281L759.007 798.383L750.278 803.162V810.848L747.992 812.303L751.318 817.081L744.043 813.134L740.095 819.782L740.51 824.975L728.04 819.158L719.311 818.12L702.685 806.486ZM706.01 603.306L708.92 599.982L706.425 595.619L706.01 603.306ZM707.465 683.913L710.374 687.653L719.519 687.237L722.013 684.952L719.519 681.005L709.959 681.42L707.465 683.913ZM709.751 582.116L710.167 583.985L713.492 578.168L711.206 574.844L709.751 582.116ZM710.79 504.625L716.194 506.495L713.7 508.988H720.35L721.39 505.04H733.444V503.171L722.013 503.586L720.974 501.716L725.338 501.301L720.974 499.847H717.648L719.103 503.171L710.79 504.625ZM713.076 535.995L715.986 536.411L714.531 528.724L713.076 535.995ZM714.115 525.815L714.531 527.685L715.986 526.646V522.907L714.115 525.815ZM715.57 709.466L717.025 713.829L746.33 726.71L747.784 722.347L746.745 720.893L719.311 708.012L715.57 709.466ZM722.221 702.818L724.715 704.688L746.745 715.699L750.07 714.66L750.486 710.713L748.823 709.882L748.616 709.051L727.001 699.079L725.338 699.91L723.26 699.079L722.637 701.364L722.221 701.572L722.429 701.779L722.221 702.818ZM726.585 682.043L728.04 691.184L731.989 691.6L733.444 689.107L732.405 676.226L727.625 675.811L726.585 682.043ZM726.585 489.251L727.001 492.16L728.456 490.706L731.781 485.304L729.911 483.85L726.585 489.251ZM736.354 484.058L737.808 504.625L738.224 517.505L746.953 517.921V504.002L745.914 482.811L743.628 483.227L744.043 496.73L740.095 498.185L739.679 483.85H736.354V484.058ZM737.185 671.033L738.64 695.963L743.836 697.001L744.875 694.508L743.42 670.409L739.471 668.539L737.185 671.033ZM737.808 795.059L742.173 803.162L747.369 802.123L746.33 796.929L737.808 795.059ZM742.589 347.981L743.004 354.629H745.498L745.914 347.981V354.629H748.823V351.305L749.239 354.629H751.733L752.149 347.358L752.565 354.629H754.435L755.474 347.358L756.513 362.732L768.983 362.316L770.023 359.408L757.968 359.823L758.384 354.006L759.423 358.784H762.333L762.748 354.006V358.784H765.658L766.074 353.591L766.489 358.784H768.983L769.399 353.591L769.815 358.369H772.309L785.194 343.411L780.414 342.995L779.998 347.773L779.583 342.995H777.089L776.673 351.098L776.258 343.411L773.763 343.826V352.967L772.724 344.242H770.854L770.438 352.967L769.399 344.865H767.529L766.697 351.513H763.58L766.697 351.098V349.228L761.086 348.605L763.372 348.189H765.866V347.773H766.282V345.904H765.866V345.488L757.968 346.319L742.796 346.943V347.981H742.589ZM743.42 465.36L747.161 464.321L745.29 462.452L743.42 465.36ZM745.29 462.452L752.98 454.765L751.11 453.726L745.29 462.452ZM748.823 674.772L749.863 691.184L754.227 692.639L755.682 690.769L754.643 673.941L751.733 672.071L748.823 674.772ZM750.278 420.071L754.227 414.877L752.357 413.838L750.278 420.071ZM750.694 497.977L751.11 508.157L752.149 517.713L770.438 517.298L779.998 516.882L779.583 504.833L776.258 501.509H754.227V498.185H750.694V497.977ZM759.423 718.607L761.917 733.981L765.866 735.851L769.815 732.527V729.203L767.944 716.738L764.619 713.414L759.423 718.607ZM765.035 681.628L766.905 685.991L773.14 688.899L777.92 684.536L773.971 678.719L767.736 676.849L765.035 681.628ZM765.658 377.897L787.273 383.714L783.324 380.806L765.658 377.897ZM767.944 392.855L770.438 394.31L772.309 391.817L771.893 389.947L767.944 392.855ZM769.399 771.999L779.998 780.724L781.453 773.453L785.402 773.038L785.818 779.686L781.453 781.556L794.339 793.19L801.613 789.866L804.938 779.686L807.225 775.946L811.589 771.999L814.083 773.038L798.703 765.351L791.014 765.767V769.714L789.559 765.767H782.908L782.492 767.636L782.077 765.767L769.607 766.182V771.999H769.399ZM772.309 646.103L774.179 653.374L790.598 651.504L789.559 645.272L772.309 646.103ZM773.348 656.075L775.634 659.398L790.598 657.944L788.728 653.582L774.803 653.997L773.348 656.075ZM774.179 641.117L775.634 642.986L789.559 642.571L790.598 640.078L789.559 636.131L784.779 634.676L780.414 635.092L774.179 641.117ZM774.179 623.458L801.821 625.328H801.198L791.637 636.338V640.701L794.547 642.571V658.983L791.637 659.398L790.598 663.969L789.559 659.814H778.128L776.673 662.099L779.583 665.423L790.598 663.969L790.39 664.592L790.182 665.423L779.583 666.462L779.998 680.797L808.264 665.008L780.83 682.251L777.92 692.846L778.544 694.093L778.336 695.132L784.155 704.688L787.065 729.618L787.896 730.865L788.104 732.527L800.158 753.302H800.574L803.484 758.495L836.113 772.83L821.15 765.559L820.318 752.263L831.749 684.329L836.529 654.413L845.258 634.676L845.466 633.638L845.882 632.807L846.297 627.405L846.505 626.574L852.325 556.354H851.078L853.779 509.819L853.364 437.729L845.258 351.721L846.713 345.073L830.918 345.488L823.228 355.668L825.098 360.862L826.553 356.499L829.047 357.953L824.683 364.186L830.502 394.517L819.903 419.447L823.851 422.771L824.267 429.419L838.608 428.381V432.743L839.647 445.624L827.592 462.036L829.878 465.776L826.969 466.191L825.93 470.138L830.294 476.371H836.113L830.294 477.41L839.439 487.589L845.674 508.157L845.258 555.731H844.219L845.258 570.066L837.568 628.236L832.788 636.962L835.698 626.782L839.023 599.359L837.984 584.401L841.309 575.26V571.936H836.529L831.749 582.947L823.02 583.985L812.421 623.458L805.978 624.081L812.005 622.004L821.15 585.855L820.734 580.661L810.55 573.39L804.731 577.753L800.366 585.855L802.237 592.088L797.872 602.683L780.622 618.472L774.387 620.342V623.458H774.179ZM828.632 654.205L829.463 649.011L831.125 642.155L832.58 650.881L828.632 654.205ZM775.634 741.668L780.83 749.354L783.74 747.484L779.375 740.213L775.634 741.668ZM778.128 485.096L779.583 488.005L797.457 485.096L817.616 475.54L825.722 475.124L819.487 465.568L795.378 464.529L783.324 469.931L778.544 478.656L778.128 485.096ZM778.544 489.251L789.143 500.885L798.703 502.755L807.432 500.262L818.448 492.575L832.788 491.121L834.659 488.628L826.553 475.124L816.369 476.579L804.731 483.85L778.544 489.251ZM785.402 455.803L788.728 459.543V452.895L785.402 455.803ZM787.688 416.747L788.728 426.303L793.923 429.627L801.613 429.212L809.303 425.888L818.032 417.785L819.487 412.592L820.526 405.944L813.252 401.581H805.146L802.652 396.803L794.963 393.063L791.637 392.648L787.688 416.747ZM788.104 383.091L796.833 386L798.703 389.324L808.887 394.102L809.303 367.094L807.432 364.186L802.652 366.679L796.417 383.922L788.104 383.091ZM789.143 456.219L789.559 459.543H815.538L824.683 464.945L824.267 455.388L804.107 455.803L824.891 454.765V450.402L825.306 467.23L827.177 462.867L837.361 446.455L836.321 433.99H826.761L820.526 437.729L799.327 438.768L800.782 441.677H823.851L824.267 445.001L815.122 451.233L789.143 452.687V455.596H803.068L789.143 456.219ZM802.652 347.15L805.562 347.566L813.252 338.425L812.836 335.516L807.017 336.971L802.652 347.15ZM809.719 209.62L812.628 212.528L816.577 206.296L809.719 209.62ZM810.758 362.524L812.213 394.31L819.903 401.581L822.812 403.451L827.177 394.31L818.448 363.563L816.162 361.693L810.758 362.524ZM811.797 573.39L818.448 580.038L831.333 581.492L833.204 573.39L840.478 571.52L841.933 548.876L841.517 533.087L834.243 510.442H828.839L813.875 524.777V539.111L821.15 551.992L820.734 558.224L811.589 570.274V573.39H811.797ZM814.707 506.079L816.577 510.857L820.318 511.273L833.204 508.988V506.495L828.424 498.808L818.863 500.678L814.707 506.079ZM815.538 425.472L817.409 430.25L823.228 429.835L822.812 426.926L818.863 426.511L821.357 423.187L818.863 421.317L815.538 425.472ZM816.577 200.894L820.942 201.933L822.397 195.701L820.11 192.792L816.577 200.894ZM816.993 94.3185L829.878 95.3573L830.294 92.8643L816.993 94.3185ZM817.616 107.822H828.632L829.047 105.953L818.032 104.914L817.616 107.822ZM817.616 102.421L829.047 103.46L829.463 100.551L817.616 102.421ZM817.616 98.058L829.671 99.5123L830.71 97.6425L817.616 98.058ZM818.448 180.743H830.086L835.282 164.33L836.321 159.137L829.047 157.682L830.918 159.137L829.463 167.239L827.177 166.2L827.592 174.302L818.448 174.718V180.743ZM818.448 90.3713L826.138 91.41L823.228 87.0473L818.448 90.3713ZM819.487 227.486L820.942 234.758L822.812 231.849L840.062 230.81L830.502 232.265V244.314L824.683 246.807L832.788 247.846L826.138 248.261L822.812 251.585L824.683 253.455L843.388 253.04V254.909L834.243 254.494L836.529 256.987L843.18 255.948L842.141 267.998H831.541L824.891 270.906H842.141L840.27 272.776H825.306L835.49 277.97L836.945 288.149L840.27 290.642L838.4 292.512L836.945 290.019L837.361 319.312L833.412 334.27L834.867 341.957H844.427L853.572 163.084V160.175L856.065 87.0473L863.755 7.27125L864.587 0H856.481L851.701 55.8848L848.376 65.0257L842.556 108.238L847.337 113.016L846.921 124.027L841.725 126.935L846.505 130.883L846.09 143.348L840.894 145.84L846.09 150.619L845.674 162.253L843.18 163.292L837.984 165.161L833.412 186.56L842.556 197.155L842.141 201.518H838.815L830.71 226.032L819.487 227.486ZM822.812 262.388L841.517 260.934V257.61L833.412 258.026V255.533H830.502L822.812 262.388ZM823.228 80.8148L823.643 86.0085L826.969 90.3713L835.074 91.8255L842.349 85.593V79.776L839.023 80.1915L838.608 84.9698L833.827 88.2938L829.878 87.8783L826.553 80.607H823.228V80.8148ZM824.267 34.2788L824.683 50.0678L832.372 65.0257L836.737 63.156L834.867 60.663L840.062 42.7965L837.776 29.916L824.267 30.3315V34.2788ZM826.138 267.374L841.102 266.336L840.686 262.596L833.412 263.012L826.761 264.881L826.138 267.374ZM829.463 106.368H832.372L834.243 93.903L831.333 93.4875L830.294 97.8503L829.463 106.368ZM833.412 106.368L836.321 106.784L838.192 99.0968L837.153 105.745L840.062 106.784L841.933 91.8255V89.3325L839.023 91.2023L837.984 98.4735V92.241L835.074 92.6565L833.412 106.368ZM835.282 498.392L840.062 524.777H842.556L842.972 521.868L840.062 501.301L839.023 497.977L835.282 498.392ZM838.192 57.7545L840.062 58.17L839.647 61.9095L846.297 62.9482L849.207 55.2615L851.701 21.1905H848.791L845.882 29.2928L838.608 30.3315L841.102 42.7965L838.192 57.7545ZM841.102 162.045L842.972 163.084L844.843 151.45L843.803 149.58L840.894 151.45V162.045H841.102ZM841.517 138.985L842.556 143.348L845.466 141.478V130.883L842.556 131.298L841.517 138.985ZM842.556 122.157L845.882 123.611L846.297 119.872L844.427 112.601L842.556 122.157Z" fill="#FEFFFE"/>
</svg>
