<svg width="829" height="835" viewBox="0 0 829 835" fill="none" xmlns="http://www.w3.org/2000/svg">
<path d="M728.459 45.8353L736.565 45.4197M770.649 44.381L765.869 44.7965L770.649 44.381ZM725.965 45.8353H728.459H725.965ZM721.808 45.8353H726.173H728.667H721.808ZM728.459 45.8353L736.565 45.4197H745.709L751.529 45.0043H754.438H766.077L728.459 45.8353Z" stroke="#7F7F7F" stroke-width="2.43" stroke-linejoin="round"/>
<path d="M566.349 48.7437H570.09H572.584H566.349ZM566.349 48.7437H563.855L559.906 49.1593H555.957L566.349 48.7437ZM685.645 47.2895L696.66 46.874M594.822 49.7825L620.801 49.367H627.036L634.31 48.9515H636.597H639.091H641.585H647.82H650.314L594.822 49.7825ZM496.101 50.6135L476.357 51.029L487.372 50.6135H496.101ZM553.463 49.1593H550.969L533.719 50.198H539.538L553.463 49.1593ZM515.846 50.6135H526.029H515.846ZM576.533 48.7437L582.352 49.1593H584.223H590.458H608.331L576.533 48.7437ZM646.157 48.1205L641.377 48.536L646.157 48.1205ZM656.341 48.1205H660.705H664.654H666.525L682.943 47.705L685.853 47.2895L702.272 46.874L704.142 46.4585L707.468 46.874L656.341 48.1205ZM679.41 47.2895L666.525 48.3282L679.41 47.2895ZM634.31 48.7437H631.401L627.036 49.1593L634.31 48.7437ZM511.689 50.198L496.309 50.6135H513.559L511.689 50.198ZM545.15 49.7825L550.969 49.367L545.15 49.7825ZM620.801 49.1593H614.982H620.801ZM718.275 46.2507L721.6 45.8353L718.275 46.2507ZM721.808 45.8353L711.624 46.2507H703.935L702.064 46.6662H696.868L721.808 45.8353ZM679.41 47.2895L682.736 47.705L685.645 47.2895H679.41Z" stroke="#7F7F7F" stroke-width="2.43" stroke-linejoin="round"/>
<path d="M390.522 124.572V129.351L390.938 134.544V144.101V147.009L390.522 151.788V155.112L390.938 163.214V169.446V177.549L391.353 185.651L391.769 190.014L392.185 199.155V203.517L392.6 207.257V209.75M391.769 222.215L392.808 210.165L391.769 222.215Z" stroke="#7F7F7F" stroke-width="2.43" stroke-linejoin="round"/>
<path d="M526.029 50.6135L527.9 50.198H530.81H533.719M513.559 50.6135H516.053L517.924 50.198L513.559 50.6135Z" stroke="#7F7F7F" stroke-width="2.43" stroke-linejoin="round"/>
<path d="M553.463 49.1593H556.373M594.822 49.7825L590.458 49.367L587.132 48.9515L584.223 49.367L576.533 48.9515H572.584L594.822 49.7825ZM646.157 48.1205L650.106 48.536L656.341 48.1205H646.157ZM707.26 46.874L711.624 46.4585H718.275L707.26 46.874ZM539.538 50.198L542.448 49.7825H543.487H545.358L539.538 50.198ZM511.689 50.198L513.559 50.6135H516.053L517.924 50.198L526.029 50.6135L527.9 50.198H530.809H533.719H511.689ZM614.982 49.1593H608.331H614.982Z" stroke="#7F7F7F" stroke-width="2.43" stroke-linejoin="round"/>
<path d="M648.235 378.858H642.832M657.38 363.07L660.705 358.291L665.07 353.097L669.85 346.865L673.799 341.671L675.254 340.217L707.052 306.146L711.417 300.329L713.287 299.913L733.863 276.438L657.38 363.07ZM636.597 386.545L640.545 382.182L648.651 381.767L648.235 378.858L647.82 375.95L649.274 374.08L636.597 386.545ZM640.545 382.182L643.039 378.858L640.545 382.182ZM655.302 365.355L650.937 371.172L655.302 365.355ZM650.937 371.172L649.067 374.08L650.937 371.172ZM655.302 365.355L655.717 364.939L656.756 363.485L657.172 363.07L655.302 365.355ZM628.907 394.232H629.946L630.985 393.193L631.401 392.778L631.816 391.739L633.271 390.285L634.726 388.83L628.907 394.232ZM633.271 390.492L635.142 387.999L636.597 386.545L633.271 390.492Z" stroke="#7F7F7F" stroke-width="2.43" stroke-linejoin="round"/>
<path d="M585.677 378.443L582.352 379.482H579.442M742.384 378.443H714.534H742.384ZM585.677 378.443L628.907 376.989L647.612 375.95L692.296 374.496L702.895 379.274L711.624 378.858L585.677 378.443ZM711.624 378.858L714.534 378.443L711.624 378.858Z" stroke="#7F7F7F" stroke-width="2.43" stroke-linejoin="round"/>
<path d="M587.964 442.222L602.928 440.768L616.437 440.353L627.868 439.937L650.522 438.898" stroke="#7F7F7F" stroke-width="2.43" stroke-linejoin="round"/>
<path d="M648.651 386.961V387.376L649.067 398.387V404.204V404.62M652.392 481.695L651.976 471.515L650.522 438.898L649.067 414.384L650.106 412.93L650.522 411.06L649.067 404.827L652.392 481.695ZM646.78 341.879L643.04 256.701L642.624 242.367L646.78 341.879ZM648.651 386.961V381.767V386.961ZM647.196 351.436V347.488V344.788V351.436ZM647.196 351.436V353.305L647.612 361.408V365.147V369.925V375.742L647.196 351.436ZM641.793 229.486V226.162V222.215L640.338 217.437L641.793 229.486ZM646.78 341.879L647.196 344.788L646.78 341.879Z" stroke="#7F7F7F" stroke-width="2.43" stroke-linejoin="round"/>
<path d="M603.343 395.271L611.033 394.855M586.093 397.141L603.343 395.271L586.093 397.141ZM620.178 394.232L611.033 394.647L620.178 394.232ZM620.178 394.232H622.464H625.789H628.699H620.178Z" stroke="#7F7F7F" stroke-width="2.43" stroke-linejoin="round"/>
<path d="M629.946 348.527L635.142 348.112M476.565 354.759L464.926 355.175L446.637 356.214H442.272L420.658 356.629L398.627 357.045L476.565 354.759ZM635.142 348.112L647.196 347.696L669.85 346.657L713.495 344.788L715.365 345.203L720.146 345.618L635.142 348.112ZM601.473 349.981L624.542 348.527H629.738L601.473 349.981Z" stroke="#7F7F7F" stroke-width="2.43" stroke-linejoin="round"/>
<path d="M421.281 374.496L421.697 401.919L422.113 412.929M422.113 416.461V413.137V402.542L421.074 374.704L420.658 359.33V356.837L422.113 416.461Z" stroke="#7F7F7F" stroke-width="2.43" stroke-linejoin="round"/>
<path d="M456.197 583.7H462.017M416.501 584.946H419.411H421.905H427.724L432.504 584.531H435.414H439.155L416.501 584.946ZM385.118 586.608L388.028 586.193L404.863 585.777L416.501 585.362L385.118 586.608ZM646.781 577.467L632.856 577.883L593.367 579.337H590.458H587.548L564.894 580.376L529.77 581.415L518.34 581.83L495.686 583.284H473.032L462.017 583.7L646.781 577.467ZM438.947 584.531L445.182 584.115L456.197 583.7L438.947 584.531Z" stroke="#7F7F7F" stroke-width="2.43" stroke-linejoin="round"/>
<path d="M566.972 644.155L566.557 631.69M565.518 619.225L565.933 616.317L565.518 619.225ZM566.972 659.529V646.025V644.155V639.377V634.183L566.557 631.69L566.141 626.497L566.972 659.529ZM567.388 658.074V649.349L566.972 646.025L567.388 658.074Z" stroke="#7F7F7F" stroke-width="2.43" stroke-linejoin="round"/>
<path d="M546.605 348.112H544.734L534.551 348.527H533.096M490.49 354.344H487.996H490.49ZM573.208 351.435L578.403 351.02L573.208 351.435Z" stroke="#7F7F7F" stroke-width="2.43" stroke-linejoin="round"/>
<path d="M578.403 351.02H581.729L584.223 351.435L597.108 350.397L601.473 349.981L600.018 348.527L597.524 346.034H583.599H581.105L578.196 347.073L546.397 348.111M352.489 349.981L364.959 354.76L367.453 355.175H373.688L377.429 356.214L379.923 357.253L382.417 357.668H382.832L398.628 357.253L352.489 349.981ZM490.49 354.344L510.65 353.305H533.719L550.138 352.267L573.208 351.228L490.49 354.344ZM487.996 354.344H482.177H479.683L476.357 354.76L487.996 354.344ZM533.304 348.527L511.273 351.435L487.788 351.851L484.878 352.267H484.463L482.592 354.136L533.304 348.527Z" stroke="#7F7F7F" stroke-width="2.43" stroke-linejoin="round"/>
<path d="M292.425 601.982L290.554 538.618M290.346 532.594V535.918V538.203L291.801 575.182L292.217 601.567V611.746L292.632 620.472L293.048 627.743V632.106V640.208V643.117V657.036L293.464 660.36L290.346 532.594ZM292.84 620.679V632.313L293.256 640.416L292.84 620.679Z" stroke="#7F7F7F" stroke-width="2.43" stroke-linejoin="round"/>
<path d="M642.416 232.187L642 229.279M640.545 217.437L641.585 216.398L640.545 217.437ZM642.416 232.187V235.511V232.187ZM642.416 242.367V239.458V242.367ZM642.416 239.458V235.719V239.458Z" stroke="#7F7F7F" stroke-width="2.43" stroke-linejoin="round"/>
<path d="M534.758 377.82V386.961M393.847 226.993L394.263 237.589L395.302 267.297L393.847 226.993ZM534.135 374.08V364.524L533.719 353.513L533.304 348.735L534.135 374.08ZM627.036 413.968L627.452 424.148V426.018L627.036 413.968ZM221.138 439.937L220.722 437.029V432.25L219.683 402.958L219.267 395.271H215.942L221.138 439.937ZM618.307 492.29L618.723 498.523L618.307 492.29ZM311.545 528.854L311.13 529.27L310.091 529.685L301.985 532.178L311.545 528.854ZM222.593 505.794L223.008 530.308L222.593 505.794Z" stroke="#7F7F7F" stroke-width="2.43" stroke-linejoin="round"/>
<path d="M466.381 400.049V385.714L465.965 378.028L464.926 355.383L466.381 400.049ZM466.381 400.049L466.797 412.93L467.212 425.81V426.849V435.574L467.628 442.222V446.17L466.381 400.049ZM290.346 522.206V527.4M286.605 394.855L281.41 395.271L277.045 395.686L274.551 395.271L270.81 395.686H268.316H263.951H262.081L257.716 395.271L286.605 394.855ZM72.7449 94.4488V101.097H140.499H162.529V75.128L155.878 47.2895L152.137 36.6943L153.176 27.1378L156.917 17.1658V10.9333L157.957 2L72.7449 94.4488ZM262.081 395.686H266.445H268.316H262.081ZM216.981 352.89L218.02 361.615L217.605 352.474L216.981 352.89ZM70.2509 2V10.7255L70.6665 14.0495V17.789L71.7057 48.9515V50.4058V55.184V58.508L70.2509 2ZM215.319 305.731V308.639L215.734 319.234L216.15 330.868V331.284V335.647V341.879L216.566 349.981L215.319 305.731ZM544.319 466.321L547.644 465.906H543.695L541.201 466.321H544.319ZM268.316 574.975L266.445 575.39L264.991 574.975L257.716 575.39H260.626H266.445H269.355H275.59H280.37L276.421 574.975H273.512L269.147 575.39L268.316 574.975ZM303.855 277.892L303.44 269.79L303.024 267.297V255.871L304.479 240.913L307.804 234.68L311.13 223.046L310.714 221.176V213.905L310.298 199.986L309.883 195.208L300.738 172.563L300.322 145.555L299.907 125.819L298.867 100.266L297.828 59.339L303.855 277.892ZM131.77 485.019L132.185 488.966V490.836L132.601 511.403V515.766L133.64 530.724V552.745V553.161L134.056 567.08V571.858L134.471 588.686V590.556L134.887 608.422V612.37V621.095L135.926 626.289L131.77 485.019ZM226.542 657.659L225.502 629.821L225.087 625.873L225.502 622.965L224.463 594.088V589.933L224.048 575.598L226.542 657.659ZM309.675 318.403L306.765 318.819H305.31H303.44L301.569 318.403L298.244 316.118L296.789 314.664L293.048 311.755L282.033 315.079H279.539L277.669 314.664L274.343 312.794L273.928 312.379L272.888 311.34L266.238 304.692H261.873H254.599H217.605L309.675 318.403ZM281.825 314.872L293.464 310.924L296.789 314.248L281.825 314.872ZM254.391 304.484H257.716H261.458L272.473 311.132L254.391 304.484ZM293.256 55.3918H297.62H307.804H323.184L341.889 55.8073L342.305 58.3003L342.72 64.1173L332.536 84.269L342.72 68.48V64.1173L341.681 56.015L341.265 38.7718L340.85 19.0355V17.9968L340.434 15.0883V10.31V2.20775V2L293.256 55.3918ZM427.932 52.4833H432.712H444.766L447.676 52.0678H450.586L464.095 51.6523L476.565 51.2368L427.932 52.4833ZM298.66 100.681V65.987L299.699 64.1173L298.66 100.681ZM303.855 279.97L304.271 285.787L304.687 294.512V299.706L303.648 304.9L304.063 310.093L305.518 313.833L306.557 318.611L306.142 332.53L303.855 279.97ZM519.794 616.732V613.824V610.5L518.339 581.623L517.3 558.978V548.383L516.261 530.101L515.845 512.857L514.391 467.152L513.975 444.508V438.275V434.328L513.559 420.824L512.52 399.218V390.493L511.481 370.341L510.442 357.876V353.098V349.358L508.987 321.52L508.571 296.59L505.662 217.229L508.987 296.59V321.52L519.794 616.732ZM223.216 530.308V535.502V530.308ZM304.271 279.97V285.787V279.97ZM390.522 117.509L389.483 94.8643L389.067 76.5823L388.028 53.9375V44.381L387.612 26.5145L386.573 8.648V2L390.522 117.509ZM435.206 123.742L434.79 120.002V111.9L433.336 93.6178L432.296 30.254V29.8385L431.881 18.4123L431.465 7.817L431.257 2L435.206 123.742ZM432.296 30.0463L432.712 52.691L433.128 93.6178L432.296 30.0463ZM362.465 54.9763L374.103 54.5608L388.028 54.1453L398.212 53.7298H402.161L414.215 53.3143L362.465 54.9763ZM348.54 55.3918L341.889 55.8073L348.54 55.3918ZM305.934 55.3918H297.828H305.934ZM157.957 2L156.917 4.0775V10.7255L157.957 2ZM379.922 53.9375L374.103 54.353H366.829L354.775 55.3918L379.922 53.9375ZM436.661 52.0678L432.712 52.4833L421.073 52.8988L436.661 52.0678ZM300.53 269.79H303.44H307.804H300.53ZM306.765 267.297H303.024H306.765ZM565.933 616.317L557.204 617.356H552.84H548.475L542.656 617.771L565.933 616.317ZM261.665 304.484L261.25 296.797L261.665 304.484ZM577.364 616.317L575.494 617.356L569.259 616.94L577.364 616.317ZM542.864 619.641L562.608 619.225H565.518L542.864 619.641ZM446.221 561.055L444.351 561.471H442.48L446.221 561.055ZM310.714 221.176L307.804 234.68L310.714 221.176ZM360.178 622.134V618.187L380.754 591.802L386.989 588.894L388.028 585.985L360.178 622.134ZM441.441 630.652L446.845 635.014L441.441 630.652ZM212.617 55.3918H207.213L187.053 56.015H195.782L212.617 55.3918ZM227.996 55.3918H217.397H227.996ZM419.203 584.947H421.697H419.203ZM382.209 403.373L394.263 402.958L382.209 403.373ZM323.184 55.3918H319.443H323.184ZM221.138 451.987V457.18V460.089V469.645L221.554 476.293L221.138 451.987ZM380.754 591.802L382.624 589.933L384.079 588.063L380.754 591.802ZM622.672 394.232L625.997 398.595L622.672 394.232ZM432.296 584.531H435.206H432.296ZM723.679 3.45425H738.019H723.679ZM594.822 553.784L593.367 556.069L592.952 560.432L590.458 579.13L594.822 553.784ZM389.067 266.05L395.302 267.505L397.796 268.543L389.067 266.05ZM399.043 266.05L395.094 267.505L389.898 268.543L399.043 266.05ZM510.65 358.291L511.065 351.643L510.65 349.774V358.291ZM590.873 556.277H593.159L606.045 555.862H608.955L619.554 555.446H621.009L631.193 555.031L643.663 556.069L654.678 555.654L590.873 556.277ZM641.377 618.187L637.428 617.148L640.338 615.278L641.377 618.187ZM654.886 553.369H643.871L635.142 553.784L631.193 554.823L654.886 553.369ZM517.3 548.59V530.308L516.261 512.442L514.391 467.36L517.3 548.59ZM586.509 556.277L567.388 557.316H563.439H563.024L553.879 557.731H552.008L542.448 558.147L540.993 558.562H529.562H526.445L517.3 558.978H514.806L503.791 559.393H503.375L494.646 560.432H470.33H467.836L586.509 556.277ZM371.193 403.373H363.504L365.79 403.789L371.193 403.373ZM536.629 443.677L537.044 445.546V448.87V454.687L537.46 459.05V461.959V466.321L536.629 443.677ZM430.426 401.919H421.697L412.968 402.334H411.097L400.082 402.75L430.426 401.919ZM589.003 465.906L588.587 463.621L585.677 464.659H583.183L589.003 465.906ZM623.711 632.106V636.469V638.754V640.208L624.127 644.571L623.711 632.106ZM635.557 626.289L634.518 623.796L635.557 626.289ZM369.323 403.789L375.974 403.373L388.028 402.958L369.323 403.789ZM342.928 394.232L354.567 394.648H358.308L342.928 394.232ZM585.677 381.352V378.443V381.352ZM537.668 459.05V454.895L537.252 449.078L537.668 459.05ZM467.836 442.222V435.574L467.42 426.849L467.836 442.222ZM494.854 560.64L472.2 560.224L470.33 560.64H494.854ZM584.223 351.436L583.807 346.034L583.391 343.126L584.223 351.436ZM581.313 344.372V346.242L581.729 351.02L581.313 344.372ZM593.367 579.337L594.822 561.471L593.367 556.069V579.337ZM136.55 660.568L136.134 647.687V645.817V643.948V643.532L136.55 660.568ZM136.134 658.49V647.479V658.49ZM404.447 53.1065L401.953 53.522L404.447 53.1065ZM398.212 53.522H395.302H398.212ZM447.676 52.0678H442.272H447.676ZM422.113 402.542H412.968H422.113ZM216.358 331.284V341.879V331.284ZM530.394 615.901H526.445H530.394ZM405.278 402.958L411.097 402.542L405.278 402.958ZM317.78 310.717H315.91L315.494 311.132L315.079 311.548L317.78 310.717ZM225.087 625.873L224.671 621.095V594.088L225.087 625.873ZM381.793 561.055L381.377 558.147V550.876L380.962 544.228V541.319V540.904V538.411V536.125L381.793 561.055ZM225.502 629.821L225.918 657.659L225.502 629.821ZM212.617 56.015H203.888H212.617ZM217.397 56.015L278.915 55.5995L217.397 56.015ZM152.969 27.1378L152.553 36.6943L155.878 47.2895L157.333 62.2475L162.113 75.128L162.529 101.097L152.969 27.1378ZM221.138 443.677L220.099 446.17L220.514 449.078L221.138 443.677Z" stroke="#7F7F7F" stroke-width="2.43" stroke-linejoin="round"/>
<path d="M624.542 657.659L624.127 644.779M623.711 632.106L623.295 624.419V622.134V619.641L621.425 555.238L618.515 509.118L618.931 502.47V498.523L623.711 632.106ZM312.585 526.984L311.13 450.117L310.714 440.56L308.844 395.478L307.389 351.643L306.35 332.946L312.585 526.984ZM223.216 535.502L224.255 575.39H257.924L258.964 628.159L260.418 665.554L223.216 535.502ZM440.402 264.388L438.532 220.138L436.661 175.471L435.622 153.45L435.206 123.742L440.402 264.388ZM391.769 222.215L393.64 226.993L391.769 222.215ZM290.346 532.594V530.101V527.192V532.594ZM303.44 534.048L301.985 532.178L300.53 530.308H290.346L303.44 534.048ZM217.397 304.484L215.526 305.938L217.397 304.484ZM380.754 536.125L379.715 529.893L380.13 528.023L377.221 449.286V437.652L375.766 403.581L380.754 536.125ZM526.445 615.901L519.794 616.94L520.21 622.134V627.951L522.081 680.304L526.445 615.901ZM314.871 311.548L309.675 318.195L314.871 311.548ZM565.933 616.317L564.894 580.168L563.439 557.108L562.4 532.178L565.933 616.317ZM491.945 467.776L514.599 467.36L537.668 466.321L539.123 512.026L539.539 529.893L540.993 558.77L542.864 615.486L530.394 615.901L491.945 467.776ZM359.139 564.795L381.793 563.756L403.823 562.925L426.893 561.886L442.273 561.471L359.139 564.795ZM627.036 413.968L625.997 398.595V394.232L627.036 413.968ZM381.793 561.055V563.964V584.116V561.055ZM625.997 398.595L628.907 394.232L625.997 398.595ZM405.278 602.813L404.863 585.57L403.823 562.925L402.784 527.815L424.815 527.4L405.278 602.813ZM390.522 117.509V124.573V117.509ZM342.928 394.232L308.844 395.271L286.813 394.855L288.268 440.56L288.684 449.701L290.139 507.871V511.195L290.554 522.206L342.928 394.232ZM627.452 426.018L627.868 439.937L628.907 462.582L629.323 470.269L629.738 490.42L630.154 509.118L631.193 554.823L632.648 577.883L634.518 617.356H637.428L627.452 426.018ZM363.504 403.373L358.1 394.648L363.504 403.373ZM634.726 617.148V623.796V617.148ZM618.307 492.29L617.892 475.462L617.476 462.997L616.437 440.353L618.307 492.29ZM588.587 463.413L617.476 462.997L628.907 462.582L588.587 463.413ZM541.409 466.321H537.46H541.409ZM136.134 626.289V643.117V626.289ZM544.734 659.944L543.28 627.328L542.864 619.641V617.771V615.486L544.734 659.944ZM280.37 575.39H292.009H280.37ZM130.73 440.353L131.77 485.019L130.73 440.353ZM258.756 484.188L256.885 499.146L252.936 506.417V530.516L258.756 484.188ZM221.761 476.501L222.801 505.794L221.761 476.501ZM562.608 525.53L562.192 511.611L561.777 505.378L562.608 525.53ZM217.813 361.615L219.267 395.271H257.717L217.813 361.615ZM402.369 518.259L400.914 438.067L399.875 402.958L402.369 518.259ZM221.138 439.937V443.884V439.937ZM586.509 556.277H590.873H586.509ZM446.637 635.014L475.526 658.075L474.487 626.912L473.032 583.284L471.993 560.224L470.538 526.984L468.667 514.519L467.628 446.377L446.637 635.014ZM187.053 56.015L71.7057 55.5995L187.053 56.015ZM536.629 443.677L534.758 386.961L536.629 443.677ZM534.135 374.08L534.551 377.82L534.135 374.08ZM72.7449 94.4488L71.7057 58.9235L72.7449 94.4488ZM220.722 449.078L221.138 451.987L220.722 449.078ZM583.184 464.452L547.644 465.906L583.184 464.452ZM350.618 315.495H335.238L317.988 310.717L350.618 315.495ZM446.221 561.055L467.836 560.64L446.221 561.055ZM635.558 626.289L635.973 670.124L635.558 626.289Z" stroke="#7F7F7F" stroke-width="2.43" stroke-linejoin="round"/>
<path d="M195.782 56.015H203.888M319.235 55.3917H307.597H305.726H319.235ZM427.932 52.4832L421.281 52.8987H414.007H404.447L427.932 52.4832ZM365.998 403.788H369.323H365.998ZM293.256 55.3917H285.566H278.916H227.996H293.256ZM360.178 633.56V622.134V633.56ZM371.194 403.373H375.974H382.209H371.194ZM422.113 402.542L430.218 402.126L422.113 402.542ZM388.028 402.957H394.263H400.082H405.278H388.028ZM442.273 52.0677H436.453H442.273ZM348.54 55.3917H354.775L362.465 54.9762L348.54 55.3917ZM379.923 53.9375H388.028L395.302 53.522L379.923 53.9375ZM215.942 395.271H184.144H215.942Z" stroke="#7F7F7F" stroke-width="2.43" stroke-linejoin="round"/>
<path d="M181.857 101.097L175.207 100.681L162.737 101.097H167.517L173.336 101.512L177.701 101.928" stroke="#7F7F7F" stroke-width="2.43" stroke-linejoin="round"/>
<path d="M258.756 484.188L260.626 483.772M268.732 393.817L268.316 395.686L268.732 393.817ZM224.671 619.225V621.095L225.71 622.965L224.671 619.225ZM340.85 17.9967L340.434 15.0882L340.85 17.9967ZM311.13 223.254L310.714 221.384L311.13 223.254ZM650.106 412.93L650.521 411.06L650.106 412.93ZM647.612 48.7438H650.106H647.612ZM636.597 48.7438H639.091H641.585H636.597ZM582.352 49.1593H584.223H582.352ZM631.401 48.7438L627.036 49.1593L631.401 48.7438ZM623.711 632.106V636.469V638.754V632.106ZM597.108 350.605L600.018 348.735L597.108 350.605ZM484.67 352.474H484.255L482.384 354.344L484.67 352.474ZM631.401 554.823L635.35 553.784L631.401 554.823ZM550.969 49.1593H553.463H550.969ZM556.373 49.1593H560.322H556.373ZM570.298 48.7438H572.792H570.298Z" stroke="#7F7F7F" stroke-width="2.43" stroke-linejoin="round"/>
<path d="M752.983 380.313L750.074 379.274M752.983 380.313L766.908 384.26L752.983 380.313ZM809.722 386.545L803.071 386.961L795.797 387.376L809.722 386.545ZM795.797 386.961H803.071H795.797ZM812.632 386.545L819.906 386.13L812.632 386.545ZM793.303 387.584L787.484 388H782.288L793.303 387.584ZM782.288 388L780.417 387.584L782.288 388ZM730.33 378.858L748.203 379.274L730.33 378.858Z" stroke="#7F7F7F" stroke-width="2.43" stroke-linejoin="round"/>
<path d="M826.556 386.13H824.062H821.776M821.776 386.13H819.906L816.996 386.545H812.632L821.776 386.13Z" stroke="#7F7F7F" stroke-width="2.43" stroke-linejoin="round"/>
<path d="M713.495 298.667L733.655 276.645L733.239 264.596" stroke="#7F7F7F" stroke-width="2.43" stroke-linejoin="round"/>
<path d="M816.996 649.972L812.216 662.022L808.89 670.747L797.875 736.188M818.866 635.43L815.541 648.31L816.996 649.764L822.192 636.261L818.866 635.43ZM826.972 609.669L825.933 615.901L826.972 609.669ZM822.192 615.278L826.141 615.693L822.192 615.278ZM822.192 636.468L826.141 615.693L822.192 636.468ZM816.996 649.972L812.216 662.022L816.996 649.972Z" stroke="#7F7F7F" stroke-width="2.43" stroke-linejoin="round"/>
<path d="M757.764 147.633L755.893 114.185M820.321 573.936V573.52V569.573L823.647 538.41L818.867 520.544L820.321 573.936ZM815.957 614.447L818.867 595.749L817.827 589.932V587.024L819.698 582.246L820.737 578.298V576.013L815.957 614.447ZM815.957 521.167L820.737 538.41L820.321 569.573L815.957 521.167ZM815.541 648.518L816.996 649.972L815.541 648.518ZM808.267 647.479L806.397 656.62L808.267 647.479ZM814.502 617.771L814.086 622.549V622.965L812.632 633.975V635.43V637.299L814.502 617.771ZM808.267 647.479L808.683 645.609L808.267 647.479ZM825.102 607.176L826.972 609.669L825.102 607.176ZM724.51 3.45425L746.748 2L724.51 3.45425ZM756.724 108.368L755.27 79.4907V92.9945L755.685 114.185L756.724 108.368Z" stroke="#7F7F7F" stroke-width="2.43" stroke-linejoin="round"/>
<path d="M756.724 108.368L755.685 114.185M812.631 637.507L808.683 645.61L812.631 637.507ZM815.957 614.447L814.502 617.771L815.957 614.447ZM750.489 148.256L751.528 150.749H754.438L757.763 147.841L750.489 148.256Z" stroke="#7F7F7F" stroke-width="2.43" stroke-linejoin="round"/>
<path d="M820.321 569.573V573.52" stroke="#7F7F7F" stroke-width="2.43" stroke-linejoin="round"/>
<path d="M610.202 732.034V735.358L609.163 736.812M506.285 742.629H508.156H514.391L522.496 743.044L545.981 740.551L567.596 739.513L588.172 738.058H592.952L506.285 742.629ZM514.391 742.629L519.794 745.953H523.743L546.397 743.044L569.467 742.006L588.587 741.59L602.928 741.174L514.391 742.629ZM492.36 743.252H489.866H489.451L477.812 743.667H474.487L465.342 744.083H463.471L454.742 745.122L448.923 744.706H446.013H443.312H437.077L426.893 745.122H423.983L418.787 745.537H412.137H409.227L400.082 745.953H396.757L391.353 746.368H386.989L384.079 746.784H379.299L374.519 747.199H367.868L363.919 747.615H348.124H340.018L326.094 748.03H318.404H317.988L311.337 748.446H307.389L305.518 748.861H303.232H298.867L294.087 749.277H293.672H289.307L281.617 749.692H278.708H274.759H270.81L268.316 749.277L253.975 750.315L245.246 750.731L227.996 751.146L492.36 743.252ZM458.276 745.122L463.471 744.083L458.276 745.122ZM426.893 745.122H431.673L437.077 744.706L426.893 745.122ZM374.519 747.407L369.739 746.991L367.868 747.407H374.519ZM384.287 746.991L381.377 746.576L379.507 746.991H384.287ZM278.5 750.315L268.316 749.9L265.822 750.315L253.768 750.731L278.5 750.315ZM293.88 749.9H289.099H293.88ZM305.31 749.484H298.66H305.31ZM609.163 737.02L610.202 735.565L613.112 737.435L609.163 737.02ZM613.112 737.435L612.696 734.942L611.241 731.203L613.112 737.435Z" stroke="#7F7F7F" stroke-width="2.43" stroke-linejoin="round"/>
<path d="M592.952 723.931L591.913 721.023" stroke="#7F7F7F" stroke-width="2.43" stroke-linejoin="round"/>
<path d="M610.618 778.154L607.292 780.024L590.042 793.527L586.717 796.021L572.792 806.616L570.921 808.07L568.427 809.94L565.518 808.901L553.048 809.317H548.683H548.268L537.252 809.732H536.213L525.614 810.148L512.105 810.563H508.779L502.96 810.979H496.725L490.49 811.394H483.216H481.345L476.149 811.81H464.511L456.821 812.225M610.618 778.154L623.088 776.7L628.907 776.284L632.856 775.869L610.618 778.154Z" stroke="#7F7F7F" stroke-width="2.43" stroke-linejoin="round"/>
<path d="M589.419 762.365V759.457L588.379 741.59V738.266L589.419 726.217" stroke="#7F7F7F" stroke-width="2.43" stroke-linejoin="round"/>
<path d="M568.843 718.114L567.804 739.72L569.259 742.213L569.674 760.08V762.988L570.713 808.07" stroke="#7F7F7F" stroke-width="2.43" stroke-linejoin="round"/>
<path d="M453.911 699.001L444.351 699.417H435.622H433.128M430.426 699.832L433.336 699.417L430.426 699.832Z" stroke="#7F7F7F" stroke-width="2.43" stroke-linejoin="round"/>
<path d="M568.219 714.375L568.635 718.322V714.375M569.259 708.558V706.688L568.219 703.364V700.456V695.262V692.769V689.445V687.16L567.18 672.202V670.332V668.462L566.765 662.645V657.451L569.259 708.558ZM567.388 671.994L567.804 677.811V684.043V689.86L568.219 695.262L567.388 671.994ZM568.219 700.456L568.635 704.818L569.051 706.688L568.219 700.456ZM566.972 662.437L567.388 649.557L566.972 639.377V636.469V662.437Z" stroke="#7F7F7F" stroke-width="2.43" stroke-linejoin="round"/>
<path d="M361.633 706.273L362.049 708.766L362.465 716.868V719.776V725.593M365.374 804.746L364.959 792.697V791.658L364.543 785.425V774.83V770.052L365.374 804.746ZM366.413 829.261V833V829.261ZM366.413 829.261L365.998 817.211L365.582 804.746L366.413 829.261ZM362.465 725.386L363.919 748.03L364.335 770.052L362.465 725.386Z" stroke="#7F7F7F" stroke-width="2.43" stroke-linejoin="round"/>
<path d="M458.276 745.122H454.95M137.589 697.963V699.832V706.065L137.173 712.713L137.589 697.963ZM137.589 686.952V689.237V691.73V686.952ZM136.55 666.8V669.293V672.202L136.965 674.487V680.719V683.212L136.55 666.8ZM89.995 667.216L91.8655 666.8H113.48L89.995 667.216ZM159.204 754.263H154.423H150.474L143.824 754.678H139.044H136.55L159.204 754.263ZM326.094 818.25L320.274 818.665L326.094 818.25ZM226.957 708.558L227.996 710.428L229.451 708.973H232.361L226.957 708.558ZM341.473 725.801H343.967H341.473ZM263.12 711.882L267.9 710.843L269.771 711.259L263.12 711.882ZM455.366 751.354L454.327 749.9L455.366 751.354ZM455.366 751.354L455.782 766.728L456.197 785.01V787.503L456.613 790.411V793.735L455.366 751.354ZM458.068 833L457.86 830.092V827.183L457.444 815.549L457.029 812.641L457.444 803.499L458.068 833ZM113.48 666.8H128.86H113.48ZM136.55 666.8L130.73 666.385L136.55 666.8ZM320.274 818.665V815.341L319.235 777.323V771.506L320.274 818.665ZM454.327 749.9L454.743 745.122L454.327 749.9Z" stroke="#7F7F7F" stroke-width="2.43" stroke-linejoin="round"/>
<path d="M616.437 737.435H613.112M492.36 743.252L500.466 742.836H506.285L492.36 743.252ZM603.343 737.435L593.16 738.474L603.343 737.435Z" stroke="#7F7F7F" stroke-width="2.43" stroke-linejoin="round"/>
<path d="M294.295 727.878L293.88 724.554L291.593 723.1M293.88 749.9L295.75 748.03L293.88 749.9ZM293.88 749.9L296.374 748.03L295.334 729.748L294.295 727.878L291.385 723.1L289.931 721.646L285.566 717.699L282.241 714.375L279.331 711.051L277.461 706.688L276.006 699.001L279.955 692.769L292.009 686.536L293.88 678.85V672.202V670.332V665.969V660.568V655.374V749.9ZM279.331 711.051L285.566 717.699L288.06 718.738L289.931 721.646L279.331 711.051ZM293.256 655.166L293.672 660.36L293.256 655.166ZM293.88 678.85L292.84 686.121L279.955 692.769L293.88 678.85ZM295.75 748.03L295.334 729.748L295.75 748.03Z" stroke="#7F7F7F" stroke-width="2.43" stroke-linejoin="round"/>
<path d="M227.996 710.427L229.451 708.973M226.957 708.558L227.996 710.427L226.957 708.558ZM226.957 708.558V712.921L227.373 715.829L226.334 717.283L227.373 719.153V722.892V729.125V730.164V736.812L227.789 747.822V751.77L228.204 756.963V773.791V775.661L228.62 779.608V785.841V788.334L229.036 791.242V793.527L229.451 805.577V808.901V815.549V819.912L229.867 820.951V823.859L229.659 833L226.957 708.558ZM226.957 712.921L227.996 710.427L226.957 712.921Z" stroke="#7F7F7F" stroke-width="2.43" stroke-linejoin="round"/>
<path d="M139.044 802.253L140.083 808.486V810.355M140.498 823.028V833V823.028ZM140.498 823.028L140.083 810.563L139.667 806.616L139.251 802.253V794.982L138.836 786.88V783.14L138.42 776.908V773.999V771.506L138.004 768.598L137.589 760.495V758.626L137.173 754.678L136.757 748.446V741.798V738.889L136.342 736.396L135.926 735.981V725.386L136.965 721.438L138.004 716.245V712.921L138.42 715.829L137.381 722.062L136.342 732.657L135.926 735.981L136.342 739.305L136.757 748.446L140.498 823.028ZM139.044 795.189L139.459 792.281L139.044 788.957L138.628 787.087L139.044 795.189Z" stroke="#7F7F7F" stroke-width="2.43" stroke-linejoin="round"/>
<path d="M139.459 792.281L139.044 788.957L138.628 787.087M136.134 738.889L135.718 736.396L135.303 735.981L136.134 738.889ZM519.794 745.953H521.665H523.535H519.794ZM522.704 687.99L522.288 681.758L522.704 687.99ZM556.789 701.286L558.244 702.325L556.789 701.286ZM381.377 746.576L379.507 746.991L381.377 746.576ZM435.622 699.417L433.751 697.547L431.881 695.054L431.465 694.015L431.05 692.561L435.622 699.417ZM266.446 665.761L264.575 666.177H260.211H252.521H249.195L266.446 665.761ZM633.687 745.537H631.817L633.687 745.122V745.537ZM611.657 775.869L610.618 778.362L611.657 775.869ZM105.79 823.443L103.296 823.859L99.3475 821.989L105.79 823.443ZM139.044 802.253L139.459 806.616L139.875 808.485L139.044 802.253ZM369.739 746.991L367.868 747.407L369.739 746.991ZM136.134 741.798L135.718 739.305L136.134 741.798ZM135.095 725.385L136.55 722.061L135.095 725.385ZM137.589 715.829L137.173 712.92L137.589 715.829ZM232.153 774.83L228.412 773.791L232.153 774.83ZM293.88 749.9L296.374 748.03L293.88 749.9ZM362.465 701.286L361.425 702.741L362.465 701.286ZM345.838 725.801H343.967H345.838ZM546.189 700.455L544.734 697.131L546.189 700.455ZM552.009 699.832L549.515 698.378L548.475 697.962L552.009 699.832Z" stroke="#7F7F7F" stroke-width="2.43" stroke-linejoin="round"/>
<path d="M597.108 803.707L595.653 801.214M521.249 643.116L522.288 681.55V683.42V685.913L521.249 643.116ZM598.147 671.578H590.458L567.388 671.994L545.15 673.032L497.972 674.071L480.722 662.437L475.526 658.074L447.676 635.43L598.147 671.578ZM522.704 695.054V704.195V710.843L523.12 719.984L523.535 740.136L522.704 695.054ZM625.166 682.589L624.75 674.487L625.166 670.539L624.127 644.571L625.166 682.589ZM635.557 626.289L635.973 670.124L624.958 670.539L612.072 670.955L635.557 626.289ZM367.453 724.97L430.842 722.892L454.327 722.477L500.05 720.607L523.12 720.192L547.228 719.153L568.843 718.114L579.442 718.53L589.626 726.217L367.453 724.97ZM318.404 748.446L319.443 771.506L318.404 748.446ZM546.189 740.759V743.252L547.228 761.118V764.027L547.644 775.038L548.683 809.732L549.099 825.521L549.515 833.208L546.189 740.759ZM645.326 736.396L637.636 736.812H632.856L628.075 737.227H621.84H616.645L645.326 736.396ZM475.526 658.074L474.487 626.912L474.071 612.993L475.526 658.074ZM49.4675 830.715V833V830.715ZM564.063 833L590.458 812.848L592.952 811.809L564.063 833ZM546.189 707.103V703.779V707.103ZM522.704 743.252L519.794 746.161L506.701 761.534L522.704 743.252ZM454.95 745.122L454.535 722.477L454.119 702.325L454.95 745.122ZM569.259 706.688H562.608L556.789 701.494L558.243 702.533L564.894 702.117L569.259 706.688ZM457.237 803.707L456.197 795.605L456.613 793.735L457.237 803.707ZM557.204 695.677L568.22 695.262H579.858L557.204 695.677ZM546.189 700.456L544.734 697.132L545.15 673.032L544.111 649.972L546.189 700.456ZM214.072 666.384L136.55 666.8L214.072 666.384ZM636.597 701.91L636.181 682.589V670.124L636.597 701.91ZM130.73 666.384L128.86 666.8L130.73 666.384ZM607.292 735.565L613.112 737.435L613.527 740.343L607.292 735.565ZM320.274 818.665L320.69 833L320.274 818.665ZM625.166 734.527H622.672H625.166ZM631.817 700.871V697.547V700.871ZM627.452 782.101L628.907 776.284L629.322 772.96L627.452 782.101ZM47.597 725.386V721.023V725.386ZM7.27734 711.466H47.597H7.27734ZM47.597 771.922L47.1813 733.072L47.597 771.922ZM182.689 708.142L219.683 709.181L182.689 708.142ZM345.838 725.801L360.178 725.386L345.838 725.801ZM259.587 643.116L260.003 666.177L259.587 643.116Z" stroke="#7F7F7F" stroke-width="2.43" stroke-linejoin="round"/>
<path d="M552.009 699.832L549.515 698.378L548.475 697.963L545.981 696.924H544.527L552.009 699.832ZM552.009 699.832L554.503 700.871L556.789 701.287L552.009 699.832ZM595.654 801.422L592.328 798.098L589.834 793.735M636.181 682.589H631.817H625.166V692.769L626.621 700.456L627.66 718.738V722.062L628.076 734.111V737.435L628.491 741.798V744.291L626.621 745.33L629.53 745.745L628.491 747.199L628.076 749.069L636.181 682.589ZM552.009 699.832L557.204 695.469L555.334 695.885L552.009 699.832ZM89.995 667.216L86.6697 666.8L83.3443 667.216H46.7657L47.1813 708.142L47.597 711.466L61.9375 711.882H62.3532L64.2237 711.466L70.4587 710.428L73.3683 710.843H84.3835L87.9167 710.428L92.2812 710.843L96.23 710.428L101.426 710.843H107.661H110.986L128.86 710.428L137.589 706.065H139.875L143.2 707.519L146.11 710.012L149.435 711.051H161.905H165.231L167.517 710.635L176.246 708.766L182.481 708.35L89.995 667.216ZM47.597 771.922V777.739L48.0127 782.517V786.88V797.059L49.0518 813.887V816.38L49.4675 825.521V830.715L42.8168 831.13H41.362L28.892 831.546H27.4372L14.9672 831.961H13.0967L7.90084 832.377H4.36768L47.597 771.922ZM1.45801 720.607L1.87368 716.66L2.28934 711.259H7.06951L1.45801 720.607ZM64.4315 711.466L73.5762 711.051L64.4315 711.466ZM365.998 817.211H361.633L348.748 817.627H345.007L332.952 818.042H330.458H326.094L365.998 817.211ZM295.334 729.748L299.699 729.333L304.063 728.294L295.334 729.748ZM636.597 701.91V703.364L637.012 719.153V721.438L637.428 733.903V736.812V739.097V741.59L636.597 701.91ZM91.8655 823.859H86.6697H84.1757L81.6817 824.275L79.8112 825.313L78.772 825.729L77.525 826.768L75.6545 828.637L74.6153 829.053L73.1605 829.468L69.8352 829.884H69.2117L54.2477 830.299H49.4675L91.8655 823.859ZM361.633 706.273V702.948H350.202L314.455 704.195L310.091 705.234L307.181 706.688L298.036 710.635L295.75 711.051H295.334H286.605H279.331L269.771 711.466L249.195 710.428H243.376L234.647 708.973L226.957 708.558L223.008 708.973H219.683L361.633 706.273ZM627.452 782.101V783.14L627.036 784.594L625.582 786.049L622.672 788.542L606.253 801.007L603.759 802.876L601.889 804.331L599.395 806.824L596.069 808.693L627.452 782.101ZM523.535 740.344L522.496 743.252L523.535 746.161L523.951 756.34V759.249V761.534V764.443L524.367 770.26V775.038L524.782 784.179V787.087L525.198 801.422V810.563L525.614 813.056V817.419L526.029 826.56V830.507L526.237 833.416L523.535 740.344ZM527.069 833L526.653 830.092L527.069 833ZM546.189 740.759V729.748V727.879V725.386V724.97L547.228 720.192V719.153L546.813 711.882L546.397 710.012V707.104L550.762 707.519L546.189 740.759ZM546.605 711.882V713.752L547.021 719.153L546.605 711.882ZM274.551 818.25L271.226 818.665H258.756H258.34L230.906 819.704L229.867 820.12H216.981H215.111H213.656L197.861 820.535L190.586 820.951H182.481H180.61L177.701 821.366H167.517H163.152L151.514 821.782H150.475L140.291 822.82L105.583 823.236L103.089 823.651H96.23L274.551 818.25ZM568.22 700.456L564.894 701.91L568.22 700.456ZM554.918 823.028V821.574L556.373 819.081L558.867 817.211L568.427 809.94L554.918 823.028ZM434.583 814.303H436.038L442.688 813.887H443.104L448.3 813.472H451.209L455.574 813.056H456.613L434.583 814.303ZM598.148 671.578L607.292 671.163H612.072L598.148 671.578ZM341.473 725.801H338.564H326.094H324.639H321.314H320.69L306.765 727.255L341.473 725.801ZM592.952 804.123L592.536 802.253L590.666 799.76L590.25 798.721L586.925 795.813L592.952 804.123ZM628.907 754.263L627.868 755.717L626.413 756.756L623.088 758.626V761.534V776.908L628.907 754.263ZM136.55 653.296V663.476V666.8V671.994L136.965 680.719L137.381 686.952L136.55 653.296ZM42.8168 831.13L54.4555 830.715L42.8168 831.13ZM279.331 711.051L272.681 711.466H269.771L279.331 711.051ZM631.817 697.547V682.589V697.547ZM631.817 700.871L632.232 718.53V721.854L632.648 733.903V736.812V739.72L633.687 744.914L631.817 745.33L628.491 746.784V748.654L631.817 700.871ZM214.072 666.384L218.852 666.8H226.126L242.96 666.384H249.195H260.21H268.316L271.641 665.969L274.135 665.553H282.241H286.19L288.684 665.969H293.88L214.072 666.384ZM645.741 739.305H637.636L632.856 739.72L628.491 741.59L616.853 740.136L645.741 739.305ZM225.918 640.831V666.8L226.334 672.617L227.789 706.273L226.749 708.766L226.334 672.825L225.918 640.831ZM644.702 733.488L637.428 733.903H632.648H627.868L624.958 734.319L644.702 733.488ZM276.422 818.25H278.292H282.033H286.398H298.036L317.365 818.665H320.274L330.458 818.25H276.422ZM278.5 818.25L275.59 817.834L273.72 818.25L271.226 818.665L278.5 818.25ZM622.672 734.527L612.488 734.942L609.994 735.358H607.084L622.672 734.527ZM628.907 760.911L629.323 772.96L628.907 760.911ZM628.907 759.041L627.868 755.717L628.907 759.041ZM601.473 809.524L599.602 806.616L597.108 803.707L601.473 809.524ZM91.8655 823.444L86.6697 823.859L91.8655 823.444ZM96.23 823.444L103.504 823.859L96.23 823.444ZM47.597 725.386L47.1813 733.072L47.597 725.386ZM136.134 653.296L136.55 663.476L136.134 653.296ZM227.996 751.77L205.966 752.185L196.406 752.601H193.912H193.496L181.026 753.016H179.987L170.427 753.432H167.517L154.631 753.847L227.996 751.77ZM159.204 754.263L167.309 753.847L159.204 754.263ZM101.426 711.051H110.986L131.146 710.012L137.381 706.273V691.73L101.426 711.051ZM46.7657 667.216L47.8048 711.466V721.023L46.7657 667.216ZM139.044 754.678L150.682 754.263L139.044 754.678ZM137.173 683.212L137.589 698.17L137.173 683.212ZM232.153 708.973H234.647L239.427 710.843L262.912 711.882L232.153 708.973ZM317.365 818.665L286.605 818.25L317.365 818.665ZM314.455 704.195L336.07 703.779L349.995 702.741L314.455 704.195ZM367.453 724.97L362.672 725.386H360.178L367.453 724.97ZM345.838 725.801H343.967H345.838ZM303.856 727.879L299.491 729.333L303.856 727.879ZM610.202 735.565L609.163 737.02L610.202 735.565ZM225.502 640.831L225.918 666.8L225.502 640.831ZM268.316 666.384L266.445 665.969L260.21 666.384H252.521H249.195H268.316ZM271.641 665.761H288.476H271.641Z" stroke="#7F7F7F" stroke-width="2.43" stroke-linejoin="round"/>
<path d="M806.812 654.751L805.773 659.529L807.228 654.751M812.008 662.022L805.773 659.529L799.954 662.437L787.899 668.67L786.444 670.539L774.39 678.226L812.008 662.022ZM800.577 672.617L800.161 662.437L800.577 672.617ZM794.342 736.396L795.381 733.072L796.42 727.878L797.875 720.607L799.33 712.921L801.201 688.406V682.589L800.785 672.617L794.342 736.396Z" stroke="#7F7F7F" stroke-width="2.43" stroke-linejoin="round"/>
</svg>
