<svg width="732" height="771" viewBox="0 0 732 771" fill="none" xmlns="http://www.w3.org/2000/svg">
<path d="M544.726 335.038L545.142 334" stroke="#A3A3A3" stroke-width="1.8225" stroke-linecap="round" stroke-linejoin="round"/>
<path d="M472.608 478.178V471.53M222.584 472.984L221.545 474.854L222.584 472.984Z" stroke="#A3A3A3" stroke-width="1.8225" stroke-linecap="round" stroke-linejoin="round"/>
<path d="M451.409 412.321H454.319M127.397 298.474L126.981 295.981V298.89L127.397 298.474ZM179.355 521.39L178.316 520.975L179.355 521.39ZM214.271 225.97L213.855 224.1V225.97H214.271ZM295.118 532.609L294.079 534.063L295.118 532.609ZM127.397 1.39175H122.617H127.397ZM122.617 2.015H127.397H122.617Z" stroke="#A3A3A3" stroke-width="1.8225" stroke-linecap="round" stroke-linejoin="round"/>
<path d="M690.417 333.584L676.908 330.26M660.074 325.274H658.203H660.074Z" stroke="#A3A3A3" stroke-width="1.8225" stroke-linecap="round" stroke-linejoin="round"/>
<path d="M719.722 332.545H722.631M705.797 332.961L703.511 333.376H705.797V332.961Z" stroke="#A3A3A3" stroke-width="1.8225" stroke-linecap="round" stroke-linejoin="round"/>
<path d="M730.321 519.936L730.737 521.806L730.321 519.312" stroke="#A3A3A3" stroke-width="1.8225" stroke-linecap="round" stroke-linejoin="round"/>
<path d="M499.418 672.424L502.744 669.931" stroke="#A3A3A3" stroke-width="1.8225" stroke-linecap="round" stroke-linejoin="round"/>
<path d="M519.163 683.02L513.343 683.435" stroke="#A3A3A3" stroke-width="1.8225" stroke-linecap="round" stroke-linejoin="round"/>
<path d="M478.843 660.375L479.259 654.558L478.219 660.375" stroke="#A3A3A3" stroke-width="1.8225" stroke-linecap="round" stroke-linejoin="round"/>
<path d="M184.551 764.25H186.421M213.855 674.294L216.765 673.255L213.855 673.671V674.294ZM537.868 701.717V695.069V701.717ZM538.907 700.263L538.491 695.069L538.907 700.263ZM6.22997 769.443H1.86548H6.22997ZM1.86548 769.859H6.22997H1.86548Z" stroke="#A3A3A3" stroke-width="1.8225" stroke-linecap="round" stroke-linejoin="round"/>
<path d="M458.683 643.963L456.189 642.924H454.734" stroke="#A3A3A3" stroke-width="1.8225" stroke-linecap="round" stroke-linejoin="round"/>
<path d="M456.189 649.779V646.456M432.704 641.054L432.288 631.913L432.704 641.054Z" stroke="#A3A3A3" stroke-width="1.8225" stroke-linecap="round" stroke-linejoin="round"/>
</svg>
