<svg width="828" height="834" viewBox="0 0 828 834" fill="none" xmlns="http://www.w3.org/2000/svg">
<path d="M728.459 44.8353L736.565 44.4197M770.649 43.381L765.869 43.7965L770.649 43.381ZM725.965 44.8353H728.459H725.965ZM721.808 44.8353H726.173H728.667H721.808ZM728.459 44.8353L736.565 44.4197H745.709L751.529 44.0043H754.438H766.077L728.459 44.8353Z" stroke="#A3A3A3" stroke-width="1.8225" stroke-linecap="round" stroke-linejoin="round"/>
<path d="M566.349 47.7437H570.09H572.584H566.349ZM566.349 47.7437H563.855L559.906 48.1593H555.957L566.349 47.7437ZM685.645 46.2895L696.66 45.874M594.822 48.7825L620.801 48.367H627.036L634.31 47.9515H636.597H639.091H641.585H647.82H650.314L594.822 48.7825ZM496.101 49.6135L476.357 50.029L487.372 49.6135H496.101ZM553.463 48.1593H550.969L533.719 49.198H539.538L553.463 48.1593ZM515.846 49.6135H526.029H515.846ZM576.533 47.7437L582.352 48.1593H584.223H590.458H608.331L576.533 47.7437ZM646.157 47.1205L641.377 47.536L646.157 47.1205ZM656.341 47.1205H660.705H664.654H666.525L682.943 46.705L685.853 46.2895L702.272 45.874L704.142 45.4585L707.468 45.874L656.341 47.1205ZM679.41 46.2895L666.525 47.3282L679.41 46.2895ZM634.31 47.7437H631.401L627.036 48.1593L634.31 47.7437ZM511.689 49.198L496.309 49.6135H513.559L511.689 49.198ZM545.15 48.7825L550.969 48.367L545.15 48.7825ZM620.801 48.1593H614.982H620.801ZM718.275 45.2507L721.6 44.8353L718.275 45.2507ZM721.808 44.8353L711.624 45.2507H703.935L702.064 45.6662H696.868L721.808 44.8353ZM679.41 46.2895L682.736 46.705L685.645 46.2895H679.41Z" stroke="#A3A3A3" stroke-width="1.8225" stroke-linecap="round" stroke-linejoin="round"/>
<path d="M390.522 123.572V128.351L390.938 133.544V143.101V146.009L390.522 150.788V154.112L390.938 162.214V168.446V176.549L391.353 184.651L391.769 189.014L392.185 198.155V202.517L392.6 206.257V208.75M391.769 221.215L392.808 209.165L391.769 221.215Z" stroke="#A3A3A3" stroke-width="1.8225" stroke-linecap="round" stroke-linejoin="round"/>
<path d="M526.029 49.6135L527.9 49.198H530.81H533.719M513.559 49.6135H516.053L517.924 49.198L513.559 49.6135Z" stroke="#A3A3A3" stroke-width="1.8225" stroke-linecap="round" stroke-linejoin="round"/>
<path d="M553.463 48.1593H556.373M594.822 48.7825L590.458 48.367L587.132 47.9515L584.223 48.367L576.533 47.9515H572.584L594.822 48.7825ZM646.157 47.1205L650.106 47.536L656.341 47.1205H646.157ZM707.26 45.874L711.624 45.4585H718.275L707.26 45.874ZM539.538 49.198L542.448 48.7825H543.487H545.358L539.538 49.198ZM511.689 49.198L513.559 49.6135H516.053L517.924 49.198L526.029 49.6135L527.9 49.198H530.809H533.719H511.689ZM614.982 48.1593H608.331H614.982Z" stroke="#A3A3A3" stroke-width="1.8225" stroke-linecap="round" stroke-linejoin="round"/>
<path d="M648.235 377.858H642.832M657.38 362.07L660.705 357.291L665.07 352.097L669.85 345.865L673.799 340.671L675.254 339.217L707.052 305.146L711.417 299.329L713.287 298.913L733.863 275.438L657.38 362.07ZM636.597 385.545L640.545 381.182L648.651 380.767L648.235 377.858L647.82 374.95L649.274 373.08L636.597 385.545ZM640.545 381.182L643.039 377.858L640.545 381.182ZM655.302 364.355L650.937 370.172L655.302 364.355ZM650.937 370.172L649.067 373.08L650.937 370.172ZM655.302 364.355L655.717 363.939L656.756 362.485L657.172 362.07L655.302 364.355ZM628.907 393.232H629.946L630.985 392.193L631.401 391.778L631.816 390.739L633.271 389.285L634.726 387.83L628.907 393.232ZM633.271 389.492L635.142 386.999L636.597 385.545L633.271 389.492Z" stroke="#A3A3A3" stroke-width="1.8225" stroke-linecap="round" stroke-linejoin="round"/>
<path d="M585.677 377.443L582.352 378.482H579.442M742.384 377.443H714.534H742.384ZM585.677 377.443L628.907 375.989L647.612 374.95L692.296 373.496L702.895 378.274L711.624 377.858L585.677 377.443ZM711.624 377.858L714.534 377.443L711.624 377.858Z" stroke="#A3A3A3" stroke-width="1.8225" stroke-linecap="round" stroke-linejoin="round"/>
<path d="M587.964 441.222L602.928 439.768L616.437 439.353L627.868 438.937L650.522 437.898" stroke="#A3A3A3" stroke-width="1.8225" stroke-linecap="round" stroke-linejoin="round"/>
<path d="M648.651 385.961V386.376L649.067 397.387V403.204V403.62M652.392 480.695L651.976 470.515L650.522 437.898L649.067 413.384L650.106 411.93L650.522 410.06L649.067 403.827L652.392 480.695ZM646.78 340.879L643.04 255.701L642.624 241.367L646.78 340.879ZM648.651 385.961V380.767V385.961ZM647.196 350.436V346.488V343.788V350.436ZM647.196 350.436V352.305L647.612 360.408V364.147V368.925V374.742L647.196 350.436ZM641.793 228.486V225.162V221.215L640.338 216.437L641.793 228.486ZM646.78 340.879L647.196 343.788L646.78 340.879Z" stroke="#A3A3A3" stroke-width="1.8225" stroke-linecap="round" stroke-linejoin="round"/>
<path d="M603.343 394.271L611.033 393.855M586.093 396.141L603.343 394.271L586.093 396.141ZM620.178 393.232L611.033 393.647L620.178 393.232ZM620.178 393.232H622.464H625.789H628.699H620.178Z" stroke="#A3A3A3" stroke-width="1.8225" stroke-linecap="round" stroke-linejoin="round"/>
<path d="M629.946 347.527L635.142 347.112M476.565 353.759L464.926 354.175L446.637 355.214H442.272L420.658 355.629L398.627 356.045L476.565 353.759ZM635.142 347.112L647.196 346.696L669.85 345.657L713.495 343.788L715.365 344.203L720.146 344.618L635.142 347.112ZM601.473 348.981L624.542 347.527H629.738L601.473 348.981Z" stroke="#A3A3A3" stroke-width="1.8225" stroke-linecap="round" stroke-linejoin="round"/>
<path d="M421.281 373.496L421.697 400.919L422.113 411.929M422.113 415.461V412.137V401.542L421.074 373.704L420.658 358.33V355.837L422.113 415.461Z" stroke="#A3A3A3" stroke-width="1.8225" stroke-linecap="round" stroke-linejoin="round"/>
<path d="M456.197 582.7H462.017M416.501 583.946H419.411H421.905H427.724L432.504 583.531H435.414H439.155L416.501 583.946ZM385.118 585.608L388.028 585.193L404.863 584.777L416.501 584.362L385.118 585.608ZM646.781 576.467L632.856 576.883L593.367 578.337H590.458H587.548L564.894 579.376L529.77 580.415L518.34 580.83L495.686 582.284H473.032L462.017 582.7L646.781 576.467ZM438.947 583.531L445.182 583.115L456.197 582.7L438.947 583.531Z" stroke="#A3A3A3" stroke-width="1.8225" stroke-linecap="round" stroke-linejoin="round"/>
<path d="M566.972 643.155L566.557 630.69M565.518 618.225L565.933 615.317L565.518 618.225ZM566.972 658.529V645.025V643.155V638.377V633.183L566.557 630.69L566.141 625.497L566.972 658.529ZM567.388 657.074V648.349L566.972 645.025L567.388 657.074Z" stroke="#A3A3A3" stroke-width="1.8225" stroke-linecap="round" stroke-linejoin="round"/>
<path d="M546.605 347.112H544.734L534.551 347.527H533.096M490.49 353.344H487.996H490.49ZM573.208 350.435L578.403 350.02L573.208 350.435Z" stroke="#A3A3A3" stroke-width="1.8225" stroke-linecap="round" stroke-linejoin="round"/>
<path d="M578.403 350.02H581.729L584.223 350.435L597.108 349.397L601.473 348.981L600.018 347.527L597.524 345.034H583.599H581.105L578.196 346.073L546.397 347.111M352.489 348.981L364.959 353.76L367.453 354.175H373.688L377.429 355.214L379.923 356.253L382.417 356.668H382.832L398.628 356.253L352.489 348.981ZM490.49 353.344L510.65 352.305H533.719L550.138 351.267L573.208 350.228L490.49 353.344ZM487.996 353.344H482.177H479.683L476.357 353.76L487.996 353.344ZM533.304 347.527L511.273 350.435L487.788 350.851L484.878 351.267H484.463L482.592 353.136L533.304 347.527Z" stroke="#A3A3A3" stroke-width="1.8225" stroke-linecap="round" stroke-linejoin="round"/>
<path d="M292.425 600.982L290.554 537.618M290.346 531.594V534.918V537.203L291.801 574.182L292.217 600.567V610.746L292.632 619.472L293.048 626.743V631.106V639.208V642.117V656.036L293.464 659.36L290.346 531.594ZM292.84 619.679V631.313L293.256 639.416L292.84 619.679Z" stroke="#A3A3A3" stroke-width="1.8225" stroke-linecap="round" stroke-linejoin="round"/>
<path d="M642.416 231.187L642 228.279M640.545 216.437L641.585 215.398L640.545 216.437ZM642.416 231.187V234.511V231.187ZM642.416 241.367V238.458V241.367ZM642.416 238.458V234.719V238.458Z" stroke="#A3A3A3" stroke-width="1.8225" stroke-linecap="round" stroke-linejoin="round"/>
<path d="M534.758 376.82V385.961M393.847 225.993L394.263 236.589L395.302 266.297L393.847 225.993ZM534.135 373.08V363.524L533.719 352.513L533.304 347.735L534.135 373.08ZM627.036 412.968L627.452 423.148V425.018L627.036 412.968ZM221.138 438.937L220.722 436.029V431.25L219.683 401.958L219.267 394.271H215.942L221.138 438.937ZM618.307 491.29L618.723 497.523L618.307 491.29ZM311.545 527.854L311.13 528.27L310.091 528.685L301.985 531.178L311.545 527.854ZM222.593 504.794L223.008 529.308L222.593 504.794Z" stroke="#A3A3A3" stroke-width="1.8225" stroke-linecap="round" stroke-linejoin="round"/>
<path d="M466.381 399.049V384.714L465.965 377.028L464.926 354.383L466.381 399.049ZM466.381 399.049L466.797 411.93L467.212 424.81V425.849V434.574L467.628 441.222V445.17L466.381 399.049ZM290.346 521.206V526.4M286.605 393.855L281.41 394.271L277.045 394.686L274.551 394.271L270.81 394.686H268.316H263.951H262.081L257.716 394.271L286.605 393.855ZM72.7449 93.4488V100.097H140.499H162.529V74.128L155.878 46.2895L152.137 35.6943L153.176 26.1378L156.917 16.1658V9.93325L157.957 1L72.7449 93.4488ZM262.081 394.686H266.445H268.316H262.081ZM216.981 351.89L218.02 360.615L217.605 351.474L216.981 351.89ZM70.2509 1V9.7255L70.6665 13.0495V16.789L71.7057 47.9515V49.4058V54.184V57.508L70.2509 1ZM215.319 304.731V307.639L215.734 318.234L216.15 329.868V330.284V334.647V340.879L216.566 348.981L215.319 304.731ZM544.319 465.321L547.644 464.906H543.695L541.201 465.321H544.319ZM268.316 573.975L266.445 574.39L264.991 573.975L257.716 574.39H260.626H266.445H269.355H275.59H280.37L276.421 573.975H273.512L269.147 574.39L268.316 573.975ZM303.855 276.892L303.44 268.79L303.024 266.297V254.871L304.479 239.913L307.804 233.68L311.13 222.046L310.714 220.176V212.905L310.298 198.986L309.883 194.208L300.738 171.563L300.322 144.555L299.907 124.819L298.867 99.2658L297.828 58.339L303.855 276.892ZM131.77 484.019L132.185 487.966V489.836L132.601 510.403V514.766L133.64 529.724V551.745V552.161L134.056 566.08V570.858L134.471 587.686V589.556L134.887 607.422V611.37V620.095L135.926 625.289L131.77 484.019ZM226.542 656.659L225.502 628.821L225.087 624.873L225.502 621.965L224.463 593.088V588.933L224.048 574.598L226.542 656.659ZM309.675 317.403L306.765 317.819H305.31H303.44L301.569 317.403L298.244 315.118L296.789 313.664L293.048 310.755L282.033 314.079H279.539L277.669 313.664L274.343 311.794L273.928 311.379L272.888 310.34L266.238 303.692H261.873H254.599H217.605L309.675 317.403ZM281.825 313.872L293.464 309.924L296.789 313.248L281.825 313.872ZM254.391 303.484H257.716H261.458L272.473 310.132L254.391 303.484ZM293.256 54.3918H297.62H307.804H323.184L341.889 54.8073L342.305 57.3003L342.72 63.1173L332.536 83.269L342.72 67.48V63.1173L341.681 55.015L341.265 37.7718L340.85 18.0355V16.9968L340.434 14.0883V9.31V1.20775V1L293.256 54.3918ZM427.932 51.4833H432.712H444.766L447.676 51.0678H450.586L464.095 50.6523L476.565 50.2368L427.932 51.4833ZM298.66 99.6813V64.987L299.699 63.1173L298.66 99.6813ZM303.855 278.97L304.271 284.787L304.687 293.512V298.706L303.648 303.9L304.063 309.093L305.518 312.833L306.557 317.611L306.142 331.53L303.855 278.97ZM519.794 615.732V612.824V609.5L518.339 580.623L517.3 557.978V547.383L516.261 529.101L515.845 511.857L514.391 466.152L513.975 443.508V437.275V433.328L513.559 419.824L512.52 398.218V389.493L511.481 369.341L510.442 356.876V352.098V348.358L508.987 320.52L508.571 295.59L505.662 216.229L508.987 295.59V320.52L519.794 615.732ZM223.216 529.308V534.502V529.308ZM304.271 278.97V284.787V278.97ZM390.522 116.509L389.483 93.8643L389.067 75.5823L388.028 52.9375V43.381L387.612 25.5145L386.573 7.648V1L390.522 116.509ZM435.206 122.742L434.79 119.002V110.9L433.336 92.6178L432.296 29.254V28.8385L431.881 17.4123L431.465 6.817L431.257 1L435.206 122.742ZM432.296 29.0463L432.712 51.691L433.128 92.6178L432.296 29.0463ZM362.465 53.9763L374.103 53.5608L388.028 53.1453L398.212 52.7298H402.161L414.215 52.3143L362.465 53.9763ZM348.54 54.3918L341.889 54.8073L348.54 54.3918ZM305.934 54.3918H297.828H305.934ZM157.957 1L156.917 3.0775V9.7255L157.957 1ZM379.922 52.9375L374.103 53.353H366.829L354.775 54.3918L379.922 52.9375ZM436.661 51.0678L432.712 51.4833L421.073 51.8988L436.661 51.0678ZM300.53 268.79H303.44H307.804H300.53ZM306.765 266.297H303.024H306.765ZM565.933 615.317L557.204 616.356H552.84H548.475L542.656 616.771L565.933 615.317ZM261.665 303.484L261.25 295.797L261.665 303.484ZM577.364 615.317L575.494 616.356L569.259 615.94L577.364 615.317ZM542.864 618.641L562.608 618.225H565.518L542.864 618.641ZM446.221 560.055L444.351 560.471H442.48L446.221 560.055ZM310.714 220.176L307.804 233.68L310.714 220.176ZM360.178 621.134V617.187L380.754 590.802L386.989 587.894L388.028 584.985L360.178 621.134ZM441.441 629.652L446.845 634.014L441.441 629.652ZM212.617 54.3918H207.213L187.053 55.015H195.782L212.617 54.3918ZM227.996 54.3918H217.397H227.996ZM419.203 583.947H421.697H419.203ZM382.209 402.373L394.263 401.958L382.209 402.373ZM323.184 54.3918H319.443H323.184ZM221.138 450.987V456.18V459.089V468.645L221.554 475.293L221.138 450.987ZM380.754 590.802L382.624 588.933L384.079 587.063L380.754 590.802ZM622.672 393.232L625.997 397.595L622.672 393.232ZM432.296 583.531H435.206H432.296ZM723.679 2.45425H738.019H723.679ZM594.822 552.784L593.367 555.069L592.952 559.432L590.458 578.13L594.822 552.784ZM389.067 265.05L395.302 266.505L397.796 267.543L389.067 265.05ZM399.043 265.05L395.094 266.505L389.898 267.543L399.043 265.05ZM510.65 357.291L511.065 350.643L510.65 348.774V357.291ZM590.873 555.277H593.159L606.045 554.862H608.955L619.554 554.446H621.009L631.193 554.031L643.663 555.069L654.678 554.654L590.873 555.277ZM641.377 617.187L637.428 616.148L640.338 614.278L641.377 617.187ZM654.886 552.369H643.871L635.142 552.784L631.193 553.823L654.886 552.369ZM517.3 547.59V529.308L516.261 511.442L514.391 466.36L517.3 547.59ZM586.509 555.277L567.388 556.316H563.439H563.024L553.879 556.731H552.008L542.448 557.147L540.993 557.562H529.562H526.445L517.3 557.978H514.806L503.791 558.393H503.375L494.646 559.432H470.33H467.836L586.509 555.277ZM371.193 402.373H363.504L365.79 402.789L371.193 402.373ZM536.629 442.677L537.044 444.546V447.87V453.687L537.46 458.05V460.959V465.321L536.629 442.677ZM430.426 400.919H421.697L412.968 401.334H411.097L400.082 401.75L430.426 400.919ZM589.003 464.906L588.587 462.621L585.677 463.659H583.183L589.003 464.906ZM623.711 631.106V635.469V637.754V639.208L624.127 643.571L623.711 631.106ZM635.557 625.289L634.518 622.796L635.557 625.289ZM369.323 402.789L375.974 402.373L388.028 401.958L369.323 402.789ZM342.928 393.232L354.567 393.648H358.308L342.928 393.232ZM585.677 380.352V377.443V380.352ZM537.668 458.05V453.895L537.252 448.078L537.668 458.05ZM467.836 441.222V434.574L467.42 425.849L467.836 441.222ZM494.854 559.64L472.2 559.224L470.33 559.64H494.854ZM584.223 350.436L583.807 345.034L583.391 342.126L584.223 350.436ZM581.313 343.372V345.242L581.729 350.02L581.313 343.372ZM593.367 578.337L594.822 560.471L593.367 555.069V578.337ZM136.55 659.568L136.134 646.687V644.817V642.948V642.532L136.55 659.568ZM136.134 657.49V646.479V657.49ZM404.447 52.1065L401.953 52.522L404.447 52.1065ZM398.212 52.522H395.302H398.212ZM447.676 51.0678H442.272H447.676ZM422.113 401.542H412.968H422.113ZM216.358 330.284V340.879V330.284ZM530.394 614.901H526.445H530.394ZM405.278 401.958L411.097 401.542L405.278 401.958ZM317.78 309.717H315.91L315.494 310.132L315.079 310.548L317.78 309.717ZM225.087 624.873L224.671 620.095V593.088L225.087 624.873ZM381.793 560.055L381.377 557.147V549.876L380.962 543.228V540.319V539.904V537.411V535.125L381.793 560.055ZM225.502 628.821L225.918 656.659L225.502 628.821ZM212.617 55.015H203.888H212.617ZM217.397 55.015L278.915 54.5995L217.397 55.015ZM152.969 26.1378L152.553 35.6943L155.878 46.2895L157.333 61.2475L162.113 74.128L162.529 100.097L152.969 26.1378ZM221.138 442.677L220.099 445.17L220.514 448.078L221.138 442.677Z" stroke="#A3A3A3" stroke-width="1.8225" stroke-linecap="round" stroke-linejoin="round"/>
<path d="M624.542 656.659L624.127 643.779M623.711 631.106L623.295 623.419V621.134V618.641L621.425 554.238L618.515 508.118L618.931 501.47V497.523L623.711 631.106ZM312.585 525.984L311.13 449.117L310.714 439.56L308.844 394.478L307.389 350.643L306.35 331.946L312.585 525.984ZM223.216 534.502L224.255 574.39H257.924L258.964 627.159L260.418 664.554L223.216 534.502ZM440.402 263.388L438.532 219.138L436.661 174.471L435.622 152.45L435.206 122.742L440.402 263.388ZM391.769 221.215L393.64 225.993L391.769 221.215ZM290.346 531.594V529.101V526.192V531.594ZM303.44 533.048L301.985 531.178L300.53 529.308H290.346L303.44 533.048ZM217.397 303.484L215.526 304.938L217.397 303.484ZM380.754 535.125L379.715 528.893L380.13 527.023L377.221 448.286V436.652L375.766 402.581L380.754 535.125ZM526.445 614.901L519.794 615.94L520.21 621.134V626.951L522.081 679.304L526.445 614.901ZM314.871 310.548L309.675 317.195L314.871 310.548ZM565.933 615.317L564.894 579.168L563.439 556.108L562.4 531.178L565.933 615.317ZM491.945 466.776L514.599 466.36L537.668 465.321L539.123 511.026L539.539 528.893L540.993 557.77L542.864 614.486L530.394 614.901L491.945 466.776ZM359.139 563.795L381.793 562.756L403.823 561.925L426.893 560.886L442.273 560.471L359.139 563.795ZM627.036 412.968L625.997 397.595V393.232L627.036 412.968ZM381.793 560.055V562.964V583.116V560.055ZM625.997 397.595L628.907 393.232L625.997 397.595ZM405.278 601.813L404.863 584.57L403.823 561.925L402.784 526.815L424.815 526.4L405.278 601.813ZM390.522 116.509V123.573V116.509ZM342.928 393.232L308.844 394.271L286.813 393.855L288.268 439.56L288.684 448.701L290.139 506.871V510.195L290.554 521.206L342.928 393.232ZM627.452 425.018L627.868 438.937L628.907 461.582L629.323 469.269L629.738 489.42L630.154 508.118L631.193 553.823L632.648 576.883L634.518 616.356H637.428L627.452 425.018ZM363.504 402.373L358.1 393.648L363.504 402.373ZM634.726 616.148V622.796V616.148ZM618.307 491.29L617.892 474.462L617.476 461.997L616.437 439.353L618.307 491.29ZM588.587 462.413L617.476 461.997L628.907 461.582L588.587 462.413ZM541.409 465.321H537.46H541.409ZM136.134 625.289V642.117V625.289ZM544.734 658.944L543.28 626.328L542.864 618.641V616.771V614.486L544.734 658.944ZM280.37 574.39H292.009H280.37ZM130.73 439.353L131.77 484.019L130.73 439.353ZM258.756 483.188L256.885 498.146L252.936 505.417V529.516L258.756 483.188ZM221.761 475.501L222.801 504.794L221.761 475.501ZM562.608 524.53L562.192 510.611L561.777 504.378L562.608 524.53ZM217.813 360.615L219.267 394.271H257.717L217.813 360.615ZM402.369 517.259L400.914 437.067L399.875 401.958L402.369 517.259ZM221.138 438.937V442.884V438.937ZM586.509 555.277H590.873H586.509ZM446.637 634.014L475.526 657.075L474.487 625.912L473.032 582.284L471.993 559.224L470.538 525.984L468.667 513.519L467.628 445.377L446.637 634.014ZM187.053 55.015L71.7057 54.5995L187.053 55.015ZM536.629 442.677L534.758 385.961L536.629 442.677ZM534.135 373.08L534.551 376.82L534.135 373.08ZM72.7449 93.4488L71.7057 57.9235L72.7449 93.4488ZM220.722 448.078L221.138 450.987L220.722 448.078ZM583.184 463.452L547.644 464.906L583.184 463.452ZM350.618 314.495H335.238L317.988 309.717L350.618 314.495ZM446.221 560.055L467.836 559.64L446.221 560.055ZM635.558 625.289L635.973 669.124L635.558 625.289Z" stroke="#A3A3A3" stroke-width="1.8225" stroke-linecap="round" stroke-linejoin="round"/>
<path d="M195.782 55.015H203.888M319.235 54.3917H307.597H305.726H319.235ZM427.932 51.4832L421.281 51.8987H414.007H404.447L427.932 51.4832ZM365.998 402.788H369.323H365.998ZM293.256 54.3917H285.566H278.916H227.996H293.256ZM360.178 632.56V621.134V632.56ZM371.194 402.373H375.974H382.209H371.194ZM422.113 401.542L430.218 401.126L422.113 401.542ZM388.028 401.957H394.263H400.082H405.278H388.028ZM442.273 51.0677H436.453H442.273ZM348.54 54.3917H354.775L362.465 53.9762L348.54 54.3917ZM379.923 52.9375H388.028L395.302 52.522L379.923 52.9375ZM215.942 394.271H184.144H215.942Z" stroke="#A3A3A3" stroke-width="1.8225" stroke-linecap="round" stroke-linejoin="round"/>
<path d="M181.857 100.097L175.207 99.6813L162.737 100.097H167.517L173.336 100.512L177.701 100.928" stroke="#A3A3A3" stroke-width="1.8225" stroke-linecap="round" stroke-linejoin="round"/>
<path d="M258.756 483.188L260.626 482.772M268.732 392.817L268.316 394.686L268.732 392.817ZM224.671 618.225V620.095L225.71 621.965L224.671 618.225ZM340.85 16.9967L340.434 14.0882L340.85 16.9967ZM311.13 222.254L310.714 220.384L311.13 222.254ZM650.106 411.93L650.521 410.06L650.106 411.93ZM647.612 47.7438H650.106H647.612ZM636.597 47.7438H639.091H641.585H636.597ZM582.352 48.1593H584.223H582.352ZM631.401 47.7438L627.036 48.1593L631.401 47.7438ZM623.711 631.106V635.469V637.754V631.106ZM597.108 349.605L600.018 347.735L597.108 349.605ZM484.67 351.474H484.255L482.384 353.344L484.67 351.474ZM631.401 553.823L635.35 552.784L631.401 553.823ZM550.969 48.1593H553.463H550.969ZM556.373 48.1593H560.322H556.373ZM570.298 47.7438H572.792H570.298Z" stroke="#A3A3A3" stroke-width="1.8225" stroke-linecap="round" stroke-linejoin="round"/>
<path d="M752.983 379.313L750.074 378.274M752.983 379.313L766.908 383.26L752.983 379.313ZM809.722 385.545L803.071 385.961L795.797 386.376L809.722 385.545ZM795.797 385.961H803.071H795.797ZM812.632 385.545L819.906 385.13L812.632 385.545ZM793.303 386.584L787.484 387H782.288L793.303 386.584ZM782.288 387L780.417 386.584L782.288 387ZM730.33 377.858L748.203 378.274L730.33 377.858Z" stroke="#A3A3A3" stroke-width="1.8225" stroke-linecap="round" stroke-linejoin="round"/>
<path d="M826.556 385.13H824.062H821.776M821.776 385.13H819.906L816.996 385.545H812.632L821.776 385.13Z" stroke="#A3A3A3" stroke-width="1.8225" stroke-linecap="round" stroke-linejoin="round"/>
<path d="M713.495 297.667L733.655 275.645L733.239 263.596" stroke="#A3A3A3" stroke-width="1.8225" stroke-linecap="round" stroke-linejoin="round"/>
<path d="M816.996 648.972L812.216 661.022L808.89 669.747L797.875 735.188M818.866 634.43L815.541 647.31L816.996 648.764L822.192 635.261L818.866 634.43ZM826.972 608.669L825.933 614.901L826.972 608.669ZM822.192 614.278L826.141 614.693L822.192 614.278ZM822.192 635.468L826.141 614.693L822.192 635.468ZM816.996 648.972L812.216 661.022L816.996 648.972Z" stroke="#A3A3A3" stroke-width="1.8225" stroke-linecap="round" stroke-linejoin="round"/>
<path d="M757.764 146.633L755.893 113.185M820.321 572.936V572.52V568.573L823.647 537.41L818.867 519.544L820.321 572.936ZM815.957 613.447L818.867 594.749L817.827 588.932V586.024L819.698 581.246L820.737 577.298V575.013L815.957 613.447ZM815.957 520.167L820.737 537.41L820.321 568.573L815.957 520.167ZM815.541 647.518L816.996 648.972L815.541 647.518ZM808.267 646.479L806.397 655.62L808.267 646.479ZM814.502 616.771L814.086 621.549V621.965L812.632 632.975V634.43V636.299L814.502 616.771ZM808.267 646.479L808.683 644.609L808.267 646.479ZM825.102 606.176L826.972 608.669L825.102 606.176ZM724.51 2.45425L746.748 1L724.51 2.45425ZM756.724 107.368L755.27 78.4907V91.9945L755.685 113.185L756.724 107.368Z" stroke="#A3A3A3" stroke-width="1.8225" stroke-linecap="round" stroke-linejoin="round"/>
<path d="M756.724 107.368L755.685 113.185M812.631 636.507L808.683 644.61L812.631 636.507ZM815.957 613.447L814.502 616.771L815.957 613.447ZM750.489 147.256L751.528 149.749H754.438L757.763 146.841L750.489 147.256Z" stroke="#A3A3A3" stroke-width="1.8225" stroke-linecap="round" stroke-linejoin="round"/>
<path d="M820.321 568.573V572.52" stroke="#A3A3A3" stroke-width="1.8225" stroke-linecap="round" stroke-linejoin="round"/>
<path d="M610.202 731.034V734.358L609.163 735.812M506.285 741.629H508.156H514.391L522.496 742.044L545.981 739.551L567.596 738.513L588.172 737.058H592.952L506.285 741.629ZM514.391 741.629L519.794 744.953H523.743L546.397 742.044L569.467 741.006L588.587 740.59L602.928 740.174L514.391 741.629ZM492.36 742.252H489.866H489.451L477.812 742.667H474.487L465.342 743.083H463.471L454.742 744.122L448.923 743.706H446.013H443.312H437.077L426.893 744.122H423.983L418.787 744.537H412.137H409.227L400.082 744.953H396.757L391.353 745.368H386.989L384.079 745.784H379.299L374.519 746.199H367.868L363.919 746.615H348.124H340.018L326.094 747.03H318.404H317.988L311.337 747.446H307.389L305.518 747.861H303.232H298.867L294.087 748.277H293.672H289.307L281.617 748.692H278.708H274.759H270.81L268.316 748.277L253.975 749.315L245.246 749.731L227.996 750.146L492.36 742.252ZM458.276 744.122L463.471 743.083L458.276 744.122ZM426.893 744.122H431.673L437.077 743.706L426.893 744.122ZM374.519 746.407L369.739 745.991L367.868 746.407H374.519ZM384.287 745.991L381.377 745.576L379.507 745.991H384.287ZM278.5 749.315L268.316 748.9L265.822 749.315L253.768 749.731L278.5 749.315ZM293.88 748.9H289.099H293.88ZM305.31 748.484H298.66H305.31ZM609.163 736.02L610.202 734.565L613.112 736.435L609.163 736.02ZM613.112 736.435L612.696 733.942L611.241 730.203L613.112 736.435Z" stroke="#A3A3A3" stroke-width="1.8225" stroke-linecap="round" stroke-linejoin="round"/>
<path d="M592.952 722.931L591.913 720.023" stroke="#A3A3A3" stroke-width="1.8225" stroke-linecap="round" stroke-linejoin="round"/>
<path d="M610.618 777.154L607.292 779.024L590.042 792.527L586.717 795.021L572.792 805.616L570.921 807.07L568.427 808.94L565.518 807.901L553.048 808.317H548.683H548.268L537.252 808.732H536.213L525.614 809.148L512.105 809.563H508.779L502.96 809.979H496.725L490.49 810.394H483.216H481.345L476.149 810.81H464.511L456.821 811.225M610.618 777.154L623.088 775.7L628.907 775.284L632.856 774.869L610.618 777.154Z" stroke="#A3A3A3" stroke-width="1.8225" stroke-linecap="round" stroke-linejoin="round"/>
<path d="M589.419 761.365V758.457L588.379 740.59V737.266L589.419 725.217" stroke="#A3A3A3" stroke-width="1.8225" stroke-linecap="round" stroke-linejoin="round"/>
<path d="M568.843 717.114L567.804 738.72L569.259 741.213L569.674 759.08V761.988L570.713 807.07" stroke="#A3A3A3" stroke-width="1.8225" stroke-linecap="round" stroke-linejoin="round"/>
<path d="M453.911 698.001L444.351 698.417H435.622H433.128M430.426 698.832L433.336 698.417L430.426 698.832Z" stroke="#A3A3A3" stroke-width="1.8225" stroke-linecap="round" stroke-linejoin="round"/>
<path d="M568.219 713.375L568.635 717.322V713.375M569.259 707.558V705.688L568.219 702.364V699.456V694.262V691.769V688.445V686.16L567.18 671.202V669.332V667.462L566.765 661.645V656.451L569.259 707.558ZM567.388 670.994L567.804 676.811V683.043V688.86L568.219 694.262L567.388 670.994ZM568.219 699.456L568.635 703.818L569.051 705.688L568.219 699.456ZM566.972 661.437L567.388 648.557L566.972 638.377V635.469V661.437Z" stroke="#A3A3A3" stroke-width="1.8225" stroke-linecap="round" stroke-linejoin="round"/>
<path d="M361.633 705.273L362.049 707.766L362.465 715.868V718.776V724.593M365.374 803.746L364.959 791.697V790.658L364.543 784.425V773.83V769.052L365.374 803.746ZM366.413 828.261V832V828.261ZM366.413 828.261L365.998 816.211L365.582 803.746L366.413 828.261ZM362.465 724.386L363.919 747.03L364.335 769.052L362.465 724.386Z" stroke="#A3A3A3" stroke-width="1.8225" stroke-linecap="round" stroke-linejoin="round"/>
<path d="M458.276 744.122H454.95M137.589 696.963V698.832V705.065L137.173 711.713L137.589 696.963ZM137.589 685.952V688.237V690.73V685.952ZM136.55 665.8V668.293V671.202L136.965 673.487V679.719V682.212L136.55 665.8ZM89.995 666.216L91.8655 665.8H113.48L89.995 666.216ZM159.204 753.263H154.423H150.474L143.824 753.678H139.044H136.55L159.204 753.263ZM326.094 817.25L320.274 817.665L326.094 817.25ZM226.957 707.558L227.996 709.428L229.451 707.973H232.361L226.957 707.558ZM341.473 724.801H343.967H341.473ZM263.12 710.882L267.9 709.843L269.771 710.259L263.12 710.882ZM455.366 750.354L454.327 748.9L455.366 750.354ZM455.366 750.354L455.782 765.728L456.197 784.01V786.503L456.613 789.411V792.735L455.366 750.354ZM458.068 832L457.86 829.092V826.183L457.444 814.549L457.029 811.641L457.444 802.499L458.068 832ZM113.48 665.8H128.86H113.48ZM136.55 665.8L130.73 665.385L136.55 665.8ZM320.274 817.665V814.341L319.235 776.323V770.506L320.274 817.665ZM454.327 748.9L454.743 744.122L454.327 748.9Z" stroke="#A3A3A3" stroke-width="1.8225" stroke-linecap="round" stroke-linejoin="round"/>
<path d="M616.437 736.435H613.112M492.36 742.252L500.466 741.836H506.285L492.36 742.252ZM603.343 736.435L593.16 737.474L603.343 736.435Z" stroke="#A3A3A3" stroke-width="1.8225" stroke-linecap="round" stroke-linejoin="round"/>
<path d="M294.295 726.878L293.88 723.554L291.593 722.1M293.88 748.9L295.75 747.03L293.88 748.9ZM293.88 748.9L296.374 747.03L295.334 728.748L294.295 726.878L291.385 722.1L289.931 720.646L285.566 716.699L282.241 713.375L279.331 710.051L277.461 705.688L276.006 698.001L279.955 691.769L292.009 685.536L293.88 677.85V671.202V669.332V664.969V659.568V654.374V748.9ZM279.331 710.051L285.566 716.699L288.06 717.738L289.931 720.646L279.331 710.051ZM293.256 654.166L293.672 659.36L293.256 654.166ZM293.88 677.85L292.84 685.121L279.955 691.769L293.88 677.85ZM295.75 747.03L295.334 728.748L295.75 747.03Z" stroke="#A3A3A3" stroke-width="1.8225" stroke-linecap="round" stroke-linejoin="round"/>
<path d="M227.996 709.427L229.451 707.973M226.957 707.558L227.996 709.427L226.957 707.558ZM226.957 707.558V711.921L227.373 714.829L226.334 716.283L227.373 718.153V721.892V728.125V729.164V735.812L227.789 746.822V750.77L228.204 755.963V772.791V774.661L228.62 778.608V784.841V787.334L229.036 790.242V792.527L229.451 804.577V807.901V814.549V818.912L229.867 819.951V822.859L229.659 832L226.957 707.558ZM226.957 711.921L227.996 709.427L226.957 711.921Z" stroke="#A3A3A3" stroke-width="1.8225" stroke-linecap="round" stroke-linejoin="round"/>
<path d="M139.044 801.253L140.083 807.486V809.355M140.498 822.028V832V822.028ZM140.498 822.028L140.083 809.563L139.667 805.616L139.251 801.253V793.982L138.836 785.88V782.14L138.42 775.908V772.999V770.506L138.004 767.598L137.589 759.495V757.626L137.173 753.678L136.757 747.446V740.798V737.889L136.342 735.396L135.926 734.981V724.386L136.965 720.438L138.004 715.245V711.921L138.42 714.829L137.381 721.062L136.342 731.657L135.926 734.981L136.342 738.305L136.757 747.446L140.498 822.028ZM139.044 794.189L139.459 791.281L139.044 787.957L138.628 786.087L139.044 794.189Z" stroke="#A3A3A3" stroke-width="1.8225" stroke-linecap="round" stroke-linejoin="round"/>
<path d="M139.459 791.281L139.044 787.957L138.628 786.087M136.134 737.889L135.718 735.396L135.303 734.981L136.134 737.889ZM519.794 744.953H521.665H523.535H519.794ZM522.704 686.99L522.288 680.758L522.704 686.99ZM556.789 700.286L558.244 701.325L556.789 700.286ZM381.377 745.576L379.507 745.991L381.377 745.576ZM435.622 698.417L433.751 696.547L431.881 694.054L431.465 693.015L431.05 691.561L435.622 698.417ZM266.446 664.761L264.575 665.177H260.211H252.521H249.195L266.446 664.761ZM633.687 744.537H631.817L633.687 744.122V744.537ZM611.657 774.869L610.618 777.362L611.657 774.869ZM105.79 822.443L103.296 822.859L99.3475 820.989L105.79 822.443ZM139.044 801.253L139.459 805.616L139.875 807.485L139.044 801.253ZM369.739 745.991L367.868 746.407L369.739 745.991ZM136.134 740.798L135.718 738.305L136.134 740.798ZM135.095 724.385L136.55 721.061L135.095 724.385ZM137.589 714.829L137.173 711.92L137.589 714.829ZM232.153 773.83L228.412 772.791L232.153 773.83ZM293.88 748.9L296.374 747.03L293.88 748.9ZM362.465 700.286L361.425 701.741L362.465 700.286ZM345.838 724.801H343.967H345.838ZM546.189 699.455L544.734 696.131L546.189 699.455ZM552.009 698.832L549.515 697.378L548.475 696.962L552.009 698.832Z" stroke="#A3A3A3" stroke-width="1.8225" stroke-linecap="round" stroke-linejoin="round"/>
<path d="M597.108 802.707L595.653 800.214M521.249 642.116L522.288 680.55V682.42V684.913L521.249 642.116ZM598.147 670.578H590.458L567.388 670.994L545.15 672.032L497.972 673.071L480.722 661.437L475.526 657.074L447.676 634.43L598.147 670.578ZM522.704 694.054V703.195V709.843L523.12 718.984L523.535 739.136L522.704 694.054ZM625.166 681.589L624.75 673.487L625.166 669.539L624.127 643.571L625.166 681.589ZM635.557 625.289L635.973 669.124L624.958 669.539L612.072 669.955L635.557 625.289ZM367.453 723.97L430.842 721.892L454.327 721.477L500.05 719.607L523.12 719.192L547.228 718.153L568.843 717.114L579.442 717.53L589.626 725.217L367.453 723.97ZM318.404 747.446L319.443 770.506L318.404 747.446ZM546.189 739.759V742.252L547.228 760.118V763.027L547.644 774.038L548.683 808.732L549.099 824.521L549.515 832.208L546.189 739.759ZM645.326 735.396L637.636 735.812H632.856L628.075 736.227H621.84H616.645L645.326 735.396ZM475.526 657.074L474.487 625.912L474.071 611.993L475.526 657.074ZM49.4675 829.715V832V829.715ZM564.063 832L590.458 811.848L592.952 810.809L564.063 832ZM546.189 706.103V702.779V706.103ZM522.704 742.252L519.794 745.161L506.701 760.534L522.704 742.252ZM454.95 744.122L454.535 721.477L454.119 701.325L454.95 744.122ZM569.259 705.688H562.608L556.789 700.494L558.243 701.533L564.894 701.117L569.259 705.688ZM457.237 802.707L456.197 794.605L456.613 792.735L457.237 802.707ZM557.204 694.677L568.22 694.262H579.858L557.204 694.677ZM546.189 699.456L544.734 696.132L545.15 672.032L544.111 648.972L546.189 699.456ZM214.072 665.384L136.55 665.8L214.072 665.384ZM636.597 700.91L636.181 681.589V669.124L636.597 700.91ZM130.73 665.384L128.86 665.8L130.73 665.384ZM607.292 734.565L613.112 736.435L613.527 739.343L607.292 734.565ZM320.274 817.665L320.69 832L320.274 817.665ZM625.166 733.527H622.672H625.166ZM631.817 699.871V696.547V699.871ZM627.452 781.101L628.907 775.284L629.322 771.96L627.452 781.101ZM47.597 724.386V720.023V724.386ZM7.27734 710.466H47.597H7.27734ZM47.597 770.922L47.1813 732.072L47.597 770.922ZM182.689 707.142L219.683 708.181L182.689 707.142ZM345.838 724.801L360.178 724.386L345.838 724.801ZM259.587 642.116L260.003 665.177L259.587 642.116Z" stroke="#A3A3A3" stroke-width="1.8225" stroke-linecap="round" stroke-linejoin="round"/>
<path d="M552.009 698.832L549.515 697.378L548.475 696.963L545.981 695.924H544.527L552.009 698.832ZM552.009 698.832L554.503 699.871L556.789 700.287L552.009 698.832ZM595.654 800.422L592.328 797.098L589.834 792.735M636.181 681.589H631.817H625.166V691.769L626.621 699.456L627.66 717.738V721.062L628.076 733.111V736.435L628.491 740.798V743.291L626.621 744.33L629.53 744.745L628.491 746.199L628.076 748.069L636.181 681.589ZM552.009 698.832L557.204 694.469L555.334 694.885L552.009 698.832ZM89.995 666.216L86.6697 665.8L83.3443 666.216H46.7657L47.1813 707.142L47.597 710.466L61.9375 710.882H62.3532L64.2237 710.466L70.4587 709.428L73.3683 709.843H84.3835L87.9167 709.428L92.2812 709.843L96.23 709.428L101.426 709.843H107.661H110.986L128.86 709.428L137.589 705.065H139.875L143.2 706.519L146.11 709.012L149.435 710.051H161.905H165.231L167.517 709.635L176.246 707.766L182.481 707.35L89.995 666.216ZM47.597 770.922V776.739L48.0127 781.517V785.88V796.059L49.0518 812.887V815.38L49.4675 824.521V829.715L42.8168 830.13H41.362L28.892 830.546H27.4372L14.9672 830.961H13.0967L7.90084 831.377H4.36768L47.597 770.922ZM1.45801 719.607L1.87368 715.66L2.28934 710.259H7.06951L1.45801 719.607ZM64.4315 710.466L73.5762 710.051L64.4315 710.466ZM365.998 816.211H361.633L348.748 816.627H345.007L332.952 817.042H330.458H326.094L365.998 816.211ZM295.334 728.748L299.699 728.333L304.063 727.294L295.334 728.748ZM636.597 700.91V702.364L637.012 718.153V720.438L637.428 732.903V735.812V738.097V740.59L636.597 700.91ZM91.8655 822.859H86.6697H84.1757L81.6817 823.275L79.8112 824.313L78.772 824.729L77.525 825.768L75.6545 827.637L74.6153 828.053L73.1605 828.468L69.8352 828.884H69.2117L54.2477 829.299H49.4675L91.8655 822.859ZM361.633 705.273V701.948H350.202L314.455 703.195L310.091 704.234L307.181 705.688L298.036 709.635L295.75 710.051H295.334H286.605H279.331L269.771 710.466L249.195 709.428H243.376L234.647 707.973L226.957 707.558L223.008 707.973H219.683L361.633 705.273ZM627.452 781.101V782.14L627.036 783.594L625.582 785.049L622.672 787.542L606.253 800.007L603.759 801.876L601.889 803.331L599.395 805.824L596.069 807.693L627.452 781.101ZM523.535 739.344L522.496 742.252L523.535 745.161L523.951 755.34V758.249V760.534V763.443L524.367 769.26V774.038L524.782 783.179V786.087L525.198 800.422V809.563L525.614 812.056V816.419L526.029 825.56V829.507L526.237 832.416L523.535 739.344ZM527.069 832L526.653 829.092L527.069 832ZM546.189 739.759V728.748V726.879V724.386V723.97L547.228 719.192V718.153L546.813 710.882L546.397 709.012V706.104L550.762 706.519L546.189 739.759ZM546.605 710.882V712.752L547.021 718.153L546.605 710.882ZM274.551 817.25L271.226 817.665H258.756H258.34L230.906 818.704L229.867 819.12H216.981H215.111H213.656L197.861 819.535L190.586 819.951H182.481H180.61L177.701 820.366H167.517H163.152L151.514 820.782H150.475L140.291 821.82L105.583 822.236L103.089 822.651H96.23L274.551 817.25ZM568.22 699.456L564.894 700.91L568.22 699.456ZM554.918 822.028V820.574L556.373 818.081L558.867 816.211L568.427 808.94L554.918 822.028ZM434.583 813.303H436.038L442.688 812.887H443.104L448.3 812.472H451.209L455.574 812.056H456.613L434.583 813.303ZM598.148 670.578L607.292 670.163H612.072L598.148 670.578ZM341.473 724.801H338.564H326.094H324.639H321.314H320.69L306.765 726.255L341.473 724.801ZM592.952 803.123L592.536 801.253L590.666 798.76L590.25 797.721L586.925 794.813L592.952 803.123ZM628.907 753.263L627.868 754.717L626.413 755.756L623.088 757.626V760.534V775.908L628.907 753.263ZM136.55 652.296V662.476V665.8V670.994L136.965 679.719L137.381 685.952L136.55 652.296ZM42.8168 830.13L54.4555 829.715L42.8168 830.13ZM279.331 710.051L272.681 710.466H269.771L279.331 710.051ZM631.817 696.547V681.589V696.547ZM631.817 699.871L632.232 717.53V720.854L632.648 732.903V735.812V738.72L633.687 743.914L631.817 744.33L628.491 745.784V747.654L631.817 699.871ZM214.072 665.384L218.852 665.8H226.126L242.96 665.384H249.195H260.21H268.316L271.641 664.969L274.135 664.553H282.241H286.19L288.684 664.969H293.88L214.072 665.384ZM645.741 738.305H637.636L632.856 738.72L628.491 740.59L616.853 739.136L645.741 738.305ZM225.918 639.831V665.8L226.334 671.617L227.789 705.273L226.749 707.766L226.334 671.825L225.918 639.831ZM644.702 732.488L637.428 732.903H632.648H627.868L624.958 733.319L644.702 732.488ZM276.422 817.25H278.292H282.033H286.398H298.036L317.365 817.665H320.274L330.458 817.25H276.422ZM278.5 817.25L275.59 816.834L273.72 817.25L271.226 817.665L278.5 817.25ZM622.672 733.527L612.488 733.942L609.994 734.358H607.084L622.672 733.527ZM628.907 759.911L629.323 771.96L628.907 759.911ZM628.907 758.041L627.868 754.717L628.907 758.041ZM601.473 808.524L599.602 805.616L597.108 802.707L601.473 808.524ZM91.8655 822.444L86.6697 822.859L91.8655 822.444ZM96.23 822.444L103.504 822.859L96.23 822.444ZM47.597 724.386L47.1813 732.072L47.597 724.386ZM136.134 652.296L136.55 662.476L136.134 652.296ZM227.996 750.77L205.966 751.185L196.406 751.601H193.912H193.496L181.026 752.016H179.987L170.427 752.432H167.517L154.631 752.847L227.996 750.77ZM159.204 753.263L167.309 752.847L159.204 753.263ZM101.426 710.051H110.986L131.146 709.012L137.381 705.273V690.73L101.426 710.051ZM46.7657 666.216L47.8048 710.466V720.023L46.7657 666.216ZM139.044 753.678L150.682 753.263L139.044 753.678ZM137.173 682.212L137.589 697.17L137.173 682.212ZM232.153 707.973H234.647L239.427 709.843L262.912 710.882L232.153 707.973ZM317.365 817.665L286.605 817.25L317.365 817.665ZM314.455 703.195L336.07 702.779L349.995 701.741L314.455 703.195ZM367.453 723.97L362.672 724.386H360.178L367.453 723.97ZM345.838 724.801H343.967H345.838ZM303.856 726.879L299.491 728.333L303.856 726.879ZM610.202 734.565L609.163 736.02L610.202 734.565ZM225.502 639.831L225.918 665.8L225.502 639.831ZM268.316 665.384L266.445 664.969L260.21 665.384H252.521H249.195H268.316ZM271.641 664.761H288.476H271.641Z" stroke="#A3A3A3" stroke-width="1.8225" stroke-linecap="round" stroke-linejoin="round"/>
<path d="M806.812 653.751L805.773 658.529L807.228 653.751M812.008 661.022L805.773 658.529L799.954 661.437L787.899 667.67L786.444 669.539L774.39 677.226L812.008 661.022ZM800.577 671.617L800.161 661.437L800.577 671.617ZM794.342 735.396L795.381 732.072L796.42 726.878L797.875 719.607L799.33 711.921L801.201 687.406V681.589L800.785 671.617L794.342 735.396Z" stroke="#A3A3A3" stroke-width="1.8225" stroke-linecap="round" stroke-linejoin="round"/>
</svg>
