<svg width="731" height="772" viewBox="0 0 731 772" fill="none" xmlns="http://www.w3.org/2000/svg">
<path d="M543.726 335.038L544.142 334" stroke="#7F7F7F" stroke-width="2.43" stroke-linejoin="bevel"/>
<path d="M471.608 478.178V471.53M221.584 472.984L220.545 474.854L221.584 472.984Z" stroke="#7F7F7F" stroke-width="2.43" stroke-linejoin="bevel"/>
<path d="M450.409 412.321H453.319M126.397 298.474L125.981 295.981V298.89L126.397 298.474ZM178.355 521.39L177.316 520.975L178.355 521.39ZM213.271 225.97L212.855 224.1V225.97H213.271ZM294.118 532.609L293.079 534.063L294.118 532.609ZM126.397 1.39175H121.617H126.397ZM121.617 2.015H126.397H121.617Z" stroke="#7F7F7F" stroke-width="2.43" stroke-linejoin="bevel"/>
<path d="M689.417 333.584L675.908 330.26M659.074 325.274H657.203H659.074Z" stroke="#7F7F7F" stroke-width="2.43" stroke-linejoin="bevel"/>
<path d="M718.722 332.545H721.631M704.797 332.961L702.511 333.376H704.797V332.961Z" stroke="#7F7F7F" stroke-width="2.43" stroke-linejoin="bevel"/>
<path d="M729.321 519.936L729.737 521.806L729.321 519.312" stroke="#7F7F7F" stroke-width="2.43" stroke-linejoin="bevel"/>
<path d="M498.418 672.424L501.744 669.931" stroke="#7F7F7F" stroke-width="2.43" stroke-linejoin="bevel"/>
<path d="M518.163 683.02L512.343 683.435" stroke="#7F7F7F" stroke-width="2.43" stroke-linejoin="bevel"/>
<path d="M477.843 660.375L478.259 654.558L477.219 660.375" stroke="#7F7F7F" stroke-width="2.43" stroke-linejoin="bevel"/>
<path d="M183.551 764.25H185.421M212.855 674.294L215.765 673.255L212.855 673.671V674.294ZM536.868 701.717V695.069V701.717ZM537.907 700.263L537.491 695.069L537.907 700.263ZM5.22997 769.443H0.865479H5.22997ZM0.865479 769.859H5.22997H0.865479Z" stroke="#7F7F7F" stroke-width="2.43" stroke-linejoin="bevel"/>
<path d="M457.683 643.963L455.189 642.924H453.734" stroke="#7F7F7F" stroke-width="2.43" stroke-linejoin="bevel"/>
<path d="M455.189 649.779V646.456M431.704 641.054L431.288 631.913L431.704 641.054Z" stroke="#7F7F7F" stroke-width="2.43" stroke-linejoin="bevel"/>
</svg>
