<svg width="842" height="837" viewBox="0 0 842 837" fill="none" xmlns="http://www.w3.org/2000/svg">
<path d="M693.23 625.003L756.619 625.419M626.307 622.095H630.256L626.307 621.679V622.095ZM636.491 622.095H632.127L636.491 622.51V622.095ZM648.546 622.51H650.416H659.561L667.251 624.38H669.537H674.733L648.546 622.51ZM621.112 622.095H624.437H621.112ZM624.021 621.679H619.657H617.578H624.021ZM674.94 623.965H668.705L659.561 622.095H648.546L674.94 623.965ZM756.619 625.003L693.23 624.588L756.619 625.003Z" stroke="#404040" stroke-width="4.8601" stroke-linejoin="round"/>
<path d="M506.18 619.81L516.364 620.225L519.689 620.641H521.559L527.379 620.225M453.182 628.327L450.896 630.197L453.182 628.327ZM504.101 619.81H502.231H497.451H495.58L482.071 620.225L478.33 621.264L472.511 621.679L459.625 625.627L456.3 627.081L504.101 619.81ZM572.894 618.771H568.114H564.789L550.864 619.187H545.668L527.794 619.602L519.689 620.018L513.038 619.602L506.388 619.187L572.894 618.771ZM529.249 620.225H535.068H538.394L550.864 619.81H566.659L570.608 620.225L573.518 619.187L529.249 620.225ZM617.578 621.679L613.837 621.264L601.367 619.394L596.587 618.356L585.156 618.771H580.168H578.298H574.973L617.578 621.679ZM584.948 618.771H591.599L593.885 619.187L613.63 621.472L616.955 621.887H618.825L584.948 618.771ZM575.388 619.187H577.882L580.168 618.771L575.388 619.187ZM455.26 627.912L459.625 626.042L478.33 621.264L482.071 619.81L497.035 619.394H504.309L455.26 627.912ZM444.661 631.651L447.986 629.782L444.661 631.651Z" stroke="#404040" stroke-width="4.8601" stroke-linejoin="round"/>
<path d="M272.991 441.768L273.406 448.416M95.9166 601.943V590.933L95.501 576.598V570.365L95.9166 601.943ZM278.187 617.317V619.81V621.679V617.317ZM278.81 637.469V629.782V637.469ZM278.81 657.205V660.529V657.205ZM273.822 450.909V454.856V450.909ZM278.81 626.042V627.912V626.042ZM224.981 350.981L213.343 352.02L224.981 350.981ZM105.685 323.766L107.14 319.403L112.959 301.121L105.685 323.766ZM277.355 576.39V577.429L277.771 594.672V595.711L277.355 576.39Z" stroke="#404040" stroke-width="4.8601" stroke-linejoin="round"/>
<path d="M272.991 441.768L273.406 448.416M298.346 269.751L311.232 270.79L298.346 269.751ZM278.81 641.416V650.141V652.634V657.413V641.416ZM273.406 274.114L270.497 277.022L273.406 274.114ZM284.422 269.751H281.512H284.422ZM354.669 268.92H357.163H354.669ZM403.302 268.297H399.977L392.703 267.881H390.832H385.013L403.302 268.297Z" stroke="#404040" stroke-width="4.8601" stroke-linejoin="round"/>
<path d="M278.186 629.782V634.56V638.923L278.602 641.416M270.497 277.022L269.457 278.477L268.003 281.8L266.964 289.487L267.379 297.59V300.498L267.795 305.276L268.21 319.195L268.626 330.206L269.042 344.125L268.626 350.358L269.042 356.175L268.626 359.083L269.665 367.809L270.705 383.182L269.665 396.686L271.536 410.605L271.951 418.292L272.367 433.25V435.743V441.976L273.822 449.247L270.497 277.022ZM272.991 441.768L274.03 433.042V431.173L273.614 418.292L273.198 406.658L272.783 398.971V397.102L272.991 441.768ZM272.367 395.232L271.328 378.82L270.912 372.172V370.717V364.9V361.992L270.497 350.981L270.081 343.294L268.626 305.276L268.21 300.498V292.811L267.795 289.487L268.21 281.8L272.367 395.232ZM279.226 663.022V659.074V657.205L279.641 653.257L279.226 639.754V629.574V663.022ZM274.445 492.251L274.861 504.301V509.079V522.583L275.277 531.308L275.692 539.41L276.108 565.379L276.524 577.013V582.83L277.563 617.94V619.81L277.979 627.912L274.445 492.251ZM275.9 493.29V504.924L274.861 509.287L275.277 513.649V516.142L274.861 522.79L276.316 531.931L276.732 542.527L277.147 567.041V570.365L277.563 586.154L277.979 601.528V608.176L278.394 613.369V615.862V619.81V623.134L278.81 627.912L275.9 493.29ZM514.701 263.519L507.011 263.934L492.67 264.973H483.941H479.161L470.017 266.012L463.366 266.427L449.441 266.843L514.701 263.519ZM483.941 264.973L481.032 265.388L470.017 265.804H462.327L449.441 266.219L483.941 264.973ZM447.571 266.427L434.685 266.843L426.579 267.258L418.474 267.674L403.51 268.089L447.571 266.427ZM447.571 267.05L435.932 267.466H426.372H417.643L403.302 267.881L390.832 267.466H387.507L367.763 267.881L358.202 268.297L447.571 267.05ZM589.313 252.923L585.988 255.832L579.753 260.61L571.647 261.025L557.722 261.441L551.072 261.857L538.602 262.272L524.261 262.688L516.987 263.103L589.313 252.923ZM516.779 264.142L525.508 263.726L538.394 263.311L550.448 262.895L557.722 262.48L569.153 262.064H575.388L584.533 258.74L516.779 264.142ZM594.093 259.779L595.132 261.233L599.081 263.726L602.406 262.688L605.316 261.233L594.093 259.779ZM492.67 264.973L503.686 264.557L514.701 264.142L492.67 264.973ZM591.807 257.909L589.313 254.17L591.807 257.909ZM356.124 268.297L340.329 269.335H328.274H324.325H312.895L356.124 268.297ZM311.44 270.79L327.859 269.751H346.148H348.018L354.669 268.712L311.44 270.79ZM273.406 274.114L278.81 270.79L298.554 269.751L273.406 274.114ZM273.406 448.624L272.367 450.493L273.822 458.596V461.089V467.737V476.462L274.238 479.371V481.24V484.149V488.512L273.406 448.624ZM275.277 488.927V481.24V478.955L274.861 471.268L274.445 467.321L274.861 460.673L274.445 451.117L275.277 488.927ZM311.024 269.335H301.88H293.15L284.421 269.751L311.024 269.335ZM281.72 269.751L276.94 271.205L269.665 278.477L281.72 269.751ZM357.163 268.92L372.543 268.505L385.013 268.089L357.163 268.92ZM278.81 657.205L278.394 666.346L278.81 657.205Z" stroke="#404040" stroke-width="4.8601" stroke-linejoin="round"/>
<path d="M452.766 401.049L460.872 401.465M314.765 350.15H286.5L277.355 346.826L271.536 344.333L314.765 350.15ZM271.951 346.203L277.147 347.657L286.708 350.566H314.557L271.951 346.203ZM263.846 347.242L268.21 346.203L263.846 347.242ZM268.21 343.918L252.831 349.735L268.21 343.918ZM319.13 350.981L337.835 355.759L345.94 356.798L349.265 357.214L360.904 357.629L371.919 357.214L388.754 359.707L402.679 374.041L417.019 387.545L429.489 393.778L440.92 397.102L447.571 398.972L319.13 350.981ZM447.986 398.556L440.712 396.686L429.697 392.947L417.643 387.13L402.679 374.249L389.17 360.745L373.374 357.837L370.465 358.252H363.19H360.904L347.395 357.837L337.835 356.383L318.09 351.604L447.986 398.556ZM252.831 352.02L261.975 348.073L252.831 352.02ZM461.495 401.049L451.935 400.01L461.495 401.049Z" stroke="#404040" stroke-width="4.8601" stroke-linejoin="round"/>
<path d="M195.053 192.884V185.197V178.964L194.638 173.147L194.222 170.654M252.831 349.527L245.141 351.397L240.361 351.812L226.02 351.397H224.15L208.355 348.488L201.08 337.478L200.665 318.365V315.872L199.21 286.579L197.339 236.096L196.3 217.398L195.885 200.57L194.845 196.623L252.831 349.527ZM220.201 3L224.773 13.5953L227.267 27.099L226.852 42.057L222.487 55.9763L211.472 74.2583L209.602 77.1668L197.547 91.5015L191.728 102.512L190.689 125.157L191.104 147.179L192.144 168.785L220.201 3ZM194.014 168.992L192.559 129.52L194.43 102.512L205.029 85.269L208.355 80.9063L210.849 77.9978L224.773 55.9763L229.138 35.8245L228.722 24.1905L225.397 9.2325L222.279 3L194.014 168.992ZM193.598 197.246L194.638 227.993L195.053 239.627L195.469 241.497L196.924 281.801L198.794 330.83L202.743 346.619L214.797 352.851H219.162H242.647H247.012L249.506 352.436L252.831 352.02L193.598 197.246ZM192.144 170.862L192.559 174.602L192.975 191.014L193.391 194.338L192.144 170.862Z" stroke="#404040" stroke-width="4.8601" stroke-linejoin="round"/>
<path d="M591.807 360.122V352.436M601.783 627.289V624.796V627.289ZM600.952 535.671V545.228L601.368 551.876V557.069V561.848V562.886L600.952 565.795L599.913 568.703L599.497 573.897V579.091L600.952 535.671ZM645.636 218.437L641.272 222.8L635.037 226.747L624.021 231.941L607.187 247.314L604.693 253.131L599.497 262.272L599.081 263.726L591.392 269.543L589.521 273.491V282.632L589.937 289.903V294.681L590.352 302.368V305.276L645.636 218.437ZM647.091 218.437L641.895 223.215L640.024 224.669L625.684 231.317L606.979 248.561L605.109 252.923L602.199 257.702L592.639 267.881L589.729 271.205L587.235 277.438V279.723V283.047L589.105 294.681L589.521 296.551V306.107L589.937 312.755V315.664V321.896V324.805L589.521 329.168V334.985L589.937 338.309V342.048L590.352 347.242L590.768 351.605V359.707L647.091 218.437ZM601.783 623.134L601.368 619.187V613.37L601.783 623.134ZM599.497 583.661L599.913 590.309V594.257V602.982L600.328 607.76L600.744 610.253V614.201V619.394L601.16 623.757L599.497 583.661ZM600.328 579.299V572.027L601.368 567.665L601.783 565.795V564.341L602.199 561.017V559.978L601.16 557.069L601.575 546.059V538.372V536.502V534.632L600.328 579.299ZM601.368 611.5V608.176V603.398V600.074L600.328 583.661L601.368 611.5ZM601.368 629.782V637.884L601.783 640.793V646.61L602.822 671.54L601.368 629.782ZM603.238 663.437L602.199 646.61V637.884V634.56L601.783 629.782L603.238 663.437ZM599.913 521.544L598.458 517.805L598.042 516.35L597.627 513.857L597.211 511.988V508.664V505.755L596.795 496.199L596.38 488.927V485.603V476.878L595.964 465.244L595.548 454.649V452.156V449.87V442.184L595.133 438.444V435.536L594.717 432.212V431.173V428.264L594.301 425.771V419.539L593.886 413.722V407.905L593.47 406.035L593.886 401.672V397.725V394.401L592.639 391.493L592.223 388.169V384.845L591.807 380.482L591.392 372.38V369.887V364.07L599.913 521.544ZM713.805 83.3993L714.221 87.762L712.766 98.7728V103.551V111.238L713.805 125.157L714.221 129.52L714.637 132.844V139.076V139.492L714.221 144.893L712.766 147.386L708.817 157.566L706.947 159.436L705.492 160.475L679.929 179.172L678.474 180.626L658.729 199.324L657.275 201.817L655.82 204.725L653.326 209.919L652.287 212.412L650.416 213.866L713.805 83.3993ZM661.016 198.701L662.471 196.831L673.07 187.274L681.799 179.172L699.049 166.707L707.155 160.475L711.519 155.281L714.844 146.555L715.26 142.608V140.115L715.676 133.467L715.26 130.974L714.221 117.055V97.9418L713.805 82.9838L661.016 198.701ZM651.248 214.49L657.898 202.44L658.937 199.947L651.248 214.49ZM713.805 46.4198L711.935 33.9548L711.519 30.6308L711.103 25.437V22.7363L711.519 18.9968L711.935 3L713.805 46.4198ZM710.896 3L710.48 13.1798V28.1378V31.4618L712.766 42.4725V46.4198L710.896 3ZM714.844 80.4908L714.429 70.9343V68.0258V65.1173L714.013 48.2895L714.844 80.4908ZM712.974 48.705L713.39 59.7158V64.9095L713.805 76.959V81.3218L712.974 48.705ZM591.807 364.07L592.223 367.394V371.756V380.482L592.639 384.429V391.7V397.517V401.257L592.223 405.204V409.982L592.639 413.306V420.578L593.054 426.395V430.757L594.093 438.86V443.222V447.17V450.909V453.818L594.509 460.466V465.867L594.925 478.748V482.072V489.343L595.34 495.16V497.653L595.756 506.378L596.172 512.195V513.65L596.587 515.519V515.935L598.458 522.583L591.807 364.07ZM591.184 350.566V347.657L590.145 339.555V334.777V329.375L590.56 316.91L590.145 309.639V306.731L591.184 350.566Z" stroke="#404040" stroke-width="4.8601" stroke-linejoin="round"/>
<path d="M195.469 215.528L194.43 203.894V196.623L195.469 215.528ZM195.469 215.528L195.884 240.043L197.755 292.396L199.21 322.104L200.665 339.97L204.406 347.657L210.225 350.981L213.135 352.02L249.09 352.435L251.584 351.397L263.638 347.034L268.834 350.358L259.689 347.449L251.584 351.189L195.469 215.528ZM275.277 488.927L274.238 467.321M249.298 352.435L243.063 352.02H240.153L224.773 350.981L249.298 352.435ZM269.665 356.383L270.081 360.745V362.615V368.017V396.894L272.575 418.5L272.991 433.458V442.183L274.445 449.455L269.665 356.383ZM396.444 124.118L371.919 125.157L345.94 125.572L307.491 127.027H334.301L364.645 125.988L396.444 124.534V124.118ZM272.991 441.768V418.292L271.951 396.686L271.536 378.82L271.12 372.172V370.717L270.081 367.809L272.991 441.768ZM601.367 608.176V603.397L600.952 598.619L600.536 588.024V583.661L601.367 608.176ZM193.183 168.992L192.143 152.58L191.728 140.53L191.312 118.509V111.861L199.002 92.1247L208.147 80.6985L213.966 73.0117L216.252 69.6877L218.746 66.3637L220.201 63.8707L222.071 59.9235L222.487 58.4692L224.981 52.6522L226.852 45.381L228.306 34.7857V31.4617L227.891 23.3595L223.942 8.4015L221.24 3L193.183 168.992ZM277.355 576.39V570.157V566.833L276.316 542.319L275.9 531.308L274.861 522.583V509.079L275.277 492.667L277.355 576.39ZM278.81 666.346L279.226 659.074V657.205V653.881L278.81 637.468V666.346ZM278.186 629.782L278.602 649.933L279.018 653.673L278.602 656.997L278.186 629.782ZM90.7208 419.746V423.07V427.018L91.1365 438.028L93.007 511.156L93.4226 531.308L93.8383 547.72V553.953L94.254 577.013L95.2931 602.566L95.7088 621.679L96.1245 649.102L96.5401 666.346L90.7208 419.746ZM97.995 666.346L97.5793 652.011V647.025L97.1636 645.155L96.748 621.679V612.954V608.591L96.3323 601.943L97.995 666.346ZM95.501 570.157L95.0853 548.967L94.6696 531.1L93.2148 488.304L92.7991 454.648L91.76 427.018V425.148L91.3443 419.746L95.501 570.157ZM550.448 49.7437L573.518 23.3595L578.713 13.803L579.753 11.31L581.207 5.493L550.448 49.7437ZM580.584 5.493L580.168 8.4015L576.843 16.0882L573.518 23.3595L550.864 49.7437L580.584 5.493ZM274.861 492.874L275.277 513.442L274.861 522.583L276.316 531.724V533.593V542.319L276.732 577.013L278.186 617.317V611.5V608.176V601.528L277.771 595.711L274.861 492.874ZM548.993 51.6135L537.562 71.3497L534.237 87.1387V103.551L532.782 114.146L530.496 117.47L519.897 119.963H518.442L508.881 120.379H505.14H502.231L489.345 120.794L548.993 51.6135ZM486.02 120.794L470.64 121.833L442.79 122.248L399.353 124.118L486.02 120.794ZM444.037 123.287L471.056 122.248H472.926L485.812 121.833L444.037 123.287ZM246.596 147.802L223.526 168.992L218.746 173.355L202.327 188.728L199.833 190.598L198.794 191.637L177.803 210.75L162.839 224.669L136.444 248.768L128.339 259.363L246.596 147.802ZM399.353 124.741L442.167 123.287L399.353 124.741ZM536.939 170.862V164.214L536.523 158.397V146.763V146.347L536.108 141.569V136.791L535.068 124.326L534.029 103.551L536.939 170.862ZM553.773 215.113L551.279 213.243L542.135 199.324L537.77 185.82L536.315 172.316L535.9 166.499V164.629V158.812L553.773 215.113ZM522.391 118.924L519.481 119.963L522.391 118.924ZM555.644 217.398L573.933 237.134L583.494 248.145L587.858 252.923L580.584 245.652L573.933 237.965L555.228 217.813L555.644 217.398ZM488.929 121.833L510.544 120.794H514.285L523.43 120.379H524.469L531.12 119.963L534.029 118.924L488.929 121.833ZM549.409 51.6135L539.225 68.0257L534.861 83.3992L534.445 98.7727L534.861 117.47V124.118L535.276 135.544V146.347V150.71L535.692 156.943L549.409 51.6135ZM584.533 258.325L589.313 253.131L590.768 251.677L584.533 258.325ZM278.81 626.042L278.394 619.81L278.81 626.042ZM589.729 304.861V299.044V294.265L589.313 289.487L588.274 286.163L589.729 304.861ZM588.897 289.903L589.313 294.265V296.758L589.729 299.251L590.144 302.16V305.068L588.897 289.903ZM589.313 254.377L591.807 257.701L589.313 254.377ZM651.247 214.489L652.702 211.996L655.612 206.179L658.937 199.947L662.262 196.623L664.133 194.338L673.278 185.612L678.473 180.418L691.983 170.239L706.947 159.228L708.817 157.358L712.142 152.58L714.637 146.347L715.052 142.4V140.115V135.752V130.974L714.013 91.086V87.762V83.3992L651.247 214.489ZM245.141 147.802L227.891 164.214L196.924 192.052L190.273 197.869L189.234 199.739L185.493 202.648L162.839 223.215L161.384 224.669L135.405 248.145L126.26 260.194L112.751 301.121L245.141 147.802ZM599.497 583.661L599.912 586.985V590.309V594.256V602.982L600.328 607.76L599.497 583.661ZM193.183 171.277V174.186L193.598 186.235L194.014 194.338L193.183 171.277ZM599.912 579.298L600.328 572.027L601.783 565.795V564.34L602.199 561.016V559.978L601.159 557.069V551.875L600.952 545.227V535.671L599.912 579.298ZM248.466 146.347L260.521 135.752L275.485 128.481L305.828 127.027L248.466 146.347ZM305.62 126.196L271.536 129.104L261.352 133.882L247.427 146.347L305.62 126.196ZM194.637 193.922L193.598 189.144L194.014 185.404V180.626L193.598 171.693L194.637 193.922ZM193.598 168.992L193.183 164.214L191.312 118.509L193.598 168.992ZM601.367 535.048V557.069V561.847V562.886L600.952 565.795L599.497 573.897V579.091L601.367 535.048ZM274.445 450.909V460.05V463.374V467.113V477.293L274.861 488.304L274.445 450.909ZM92.1756 366.355L98.4106 347.242L92.1756 366.355ZM278.81 660.529L278.394 666.346L278.81 660.529ZM213.758 72.804L203.574 84.8535L196.924 93.579L191.104 111.861L213.758 72.804ZM273.822 454.856V458.803V461.296L274.238 463.789L273.822 454.856ZM199.418 322.104L198.378 295.72L195.884 240.043L199.418 322.104ZM650.832 214.074L652.702 212.204L653.741 209.711L655.612 206.387L657.482 201.609L658.937 199.116L664.133 194.338L666.003 192.883L681.383 178.964L691.983 170.239L706.947 160.059L711.311 154.865L712.35 152.372L712.766 147.178L714.221 144.685L714.637 139.284V138.868L715.052 135.544L714.637 132.636L712.766 111.03V103.343L714.221 90.8782L713.805 82.776L650.832 214.074ZM610.096 245.236L625.476 231.317L639.817 224.669L641.687 223.215L642.726 221.761L646.052 218.437L610.096 245.236ZM646.467 218.437L642.518 221.761L634.828 226.539L623.813 231.733L609.473 244.613L646.467 218.437ZM711.935 35.2012L712.974 42.4725L713.389 46.4197L711.935 35.2012ZM710.895 3L710.48 13.1797V28.1377L711.935 35.409L711.519 30.6307L711.103 25.437V22.7362L711.519 3H710.895ZM713.389 48.2895L713.805 61.7932V63.663V70.311L714.221 81.3217V78.4132V70.7265V67.818L713.805 63.4552L713.389 48.2895ZM591.807 364.069L592.223 371.756V380.482V384.844V388.168L592.638 397.309V401.049V406.243V412.891V420.162L593.054 425.979V430.342L594.093 438.444V442.807V446.754L594.509 460.258V465.659L594.924 478.54V481.864L595.34 489.135V494.952V497.445L595.756 506.17L596.172 511.987V513.442L596.587 515.311V515.727L598.458 522.375L591.807 364.069ZM599.912 521.544L598.458 517.804L598.042 516.35L597.626 513.857L597.211 511.987V508.663L596.172 505.755V488.927V485.603L594.717 465.451L595.132 454.856V452.363V450.078L594.717 442.391V438.652V435.743L594.301 432.419V431.38L593.885 426.187L592.846 420.37L593.262 414.137V408.32L592.846 406.45L593.262 402.088V397.725V394.401L592.846 384.221L592.43 380.274L591.391 363.862L599.912 521.544ZM591.807 360.122L591.391 355.759L590.976 352.02L590.56 347.657L590.144 342.463L590.56 339.555V334.777V329.375V312.963V309.639V306.73L591.807 360.122ZM591.183 350.566L590.144 347.657L591.183 350.566ZM589.313 306.315L589.729 312.963V315.871V322.104V325.012V329.375V338.516V342.256L589.313 306.315ZM591.183 352.435V355.759V360.122V352.435ZM91.76 368.432L90.3051 395.232L91.76 368.432ZM97.995 346.618L90.7208 367.186L89.6816 396.271L97.995 346.618ZM105.685 323.766L99.8655 341.009L98.8263 343.502L105.685 323.766ZM91.1365 417.877L90.0973 397.309L91.1365 417.877ZM89.6816 398.14L90.7208 417.877L89.6816 398.14ZM552.734 215.113L551.279 213.243L540.264 191.637L536.939 172.939L552.734 215.113ZM278.186 621.679V627.912V621.679ZM534.445 98.7727L538.809 110.822L535.9 117.47L534.445 98.7727ZM98.8263 344.749L105.477 325.012L127.092 260.61L98.8263 344.749ZM210.433 350.981L200.872 339.97L210.433 350.981ZM227.683 23.3595L224.358 8.4015L221.864 3L227.683 23.3595Z" stroke="#404040" stroke-width="4.8601" stroke-linejoin="round"/>
<path d="M840.792 180.418L837.466 179.38M815.851 174.601L812.11 174.186H810.24L798.809 177.095L793.613 178.549L791.743 179.587L815.851 174.601ZM814.812 175.225L791.743 179.587L790.288 180.626L781.559 181.042L770.128 175.64H766.803L781.767 180.418L789.457 180.003L814.812 175.225Z" stroke="#404040" stroke-width="4.8601" stroke-linejoin="round"/>
<path d="M693.23 625.003L756.619 625.419M790.704 621.056L774.908 625.419H766.803L790.704 621.056ZM790.288 620.641L785.923 622.511L784.884 622.926H784.469L782.598 623.965L766.803 625.003L790.288 620.641ZM792.574 620.225L796.939 618.356L792.99 619.81L792.574 620.225ZM756.619 625.003L693.23 624.588L756.619 625.003Z" stroke="#404040" stroke-width="4.8601" stroke-linejoin="round"/>
<path d="M679.305 697.508L681.799 698.547L682.838 698.963M693.645 734.488L697.594 736.773L693.645 734.488ZM698.426 736.565L696.139 735.526L694.685 734.488L698.426 736.565ZM680.136 697.508L682.63 698.963L684.085 700.001L685.54 702.494L680.136 697.508ZM685.956 701.871L684.085 700.001L685.956 701.871Z" stroke="#404040" stroke-width="4.8601" stroke-linejoin="round"/>
<path d="M645.012 744.667L641.687 746.122" stroke="#404040" stroke-width="4.8601" stroke-linejoin="round"/>
<path d="M655.196 698.547H657.067M657.482 697.508L654.988 698.547L651.663 700.001L648.338 701.871L657.482 697.508ZM615.708 693.769H617.578H615.708Z" stroke="#404040" stroke-width="4.8601" stroke-linejoin="round"/>
<path d="M618.618 779.154V789.749M613.422 703.741L611.551 700.001L610.512 698.547L613.422 703.741ZM601.783 647.025L602.822 672.578V681.304L603.238 684.212L604.693 689.406L605.732 691.899L608.642 697.093L611.967 703.741L601.783 647.025ZM604.277 683.173L603.861 679.226V675.902L603.446 672.578V665.93L603.03 647.233L604.277 683.173ZM605.108 802.838L611.343 798.475L616.539 793.697L612.59 797.644L610.72 799.514L605.524 803.461L605.108 802.838ZM614.877 709.558L617.37 714.336L614.877 709.558ZM616.747 763.781L618.202 771.052L618.618 774.999L616.747 763.781ZM619.033 775.415V773.545L617.994 765.858L619.033 775.415ZM584.117 815.718L590.768 813.848L584.117 815.718ZM617.578 713.921L615.708 709.558L617.578 713.921ZM600.952 805.123L589.937 813.225L600.952 805.123ZM594.509 811.979L602.199 806.162L594.509 811.979Z" stroke="#404040" stroke-width="4.8601" stroke-linejoin="round"/>
<path d="M694.684 715.375L693.23 713.921L692.814 711.012L688.865 708.519L682.63 698.963L681.591 698.547L679.097 697.508M676.811 697.093L680.136 697.508L688.865 708.519L691.151 711.843L694.477 715.167L720.04 728.047L676.811 697.093Z" stroke="#404040" stroke-width="4.8601" stroke-linejoin="round"/>
<path d="M278.81 675.487V667.385" stroke="#404040" stroke-width="4.8601" stroke-linejoin="round"/>
<path d="M278.81 657.205V660.529M277.771 712.466L279.226 706.649V703.741V697.924L277.771 712.466ZM278.81 637.884V629.782V637.884Z" stroke="#404040" stroke-width="4.8601" stroke-linejoin="round"/>
<path d="M282.551 818.211L281.512 795.151L280.057 775.414M279.641 752.77L280.057 755.055L280.473 761.288L280.057 772.298L279.641 752.77ZM280.681 772.506L281.72 768.143V765.65V762.326L281.304 751.316V744.044L281.72 729.709L281.304 723.893V721.399L279.849 719.945L278.394 718.076L279.434 714.336L277.979 712.466L279.018 706.649V697.508L278.602 683.173V679.849V677.98V669.254V667.384L279.018 657.205L280.681 772.506ZM278.81 675.487V677.357V680.265L279.226 694.6L279.641 706.026V706.442V709.766L280.681 712.051V715.375L280.265 717.244L279.849 719.738L280.265 724.516V729.294V735.111V739.889V750.069L278.81 675.487ZM283.175 834L282.967 829.637L282.551 820.081L283.175 834ZM278.81 667.384L279.226 659.282V657.413L279.641 653.465L278.81 667.384ZM279.641 775.414L279.226 787.879L281.72 805.746L282.759 819.25L282.343 830.261L282.551 834L279.641 775.414Z" stroke="#404040" stroke-width="4.8601" stroke-linejoin="round"/>
<path d="M296.06 721.607L282.551 718.699M318.714 712.466L333.678 707.272L356.748 706.234L366.308 707.272H369.633L384.597 703.948L394.781 702.91L410.161 708.727L423.046 709.765L438.842 703.948L442.583 702.079L460.872 701.663L474.381 702.702L479.161 704.156L490.8 706.649L499.945 706.234L506.595 705.818L318.714 712.466ZM597.419 692.314L594.509 693.353L591.184 695.223L597.419 692.314ZM371.088 707.272L383.974 704.364L399.769 704.779L408.914 708.103L371.088 707.272ZM410.992 709.142L423.046 710.181L437.387 705.403L438.842 703.948L441.751 702.91L450.896 701.871L461.08 701.455L469.185 702.494H472.511L474.381 702.91L490.8 706.857H494.125L499.945 705.818L506.595 704.779L410.992 709.142ZM16.1087 710.596L20.4732 709.142H21.0967H25.0455H55.3892H70.7689L73.6785 709.558L76.5882 709.973L16.1087 710.596ZM9.45802 721.607L12.7834 712.882L9.45802 721.607ZM144.134 717.66L126.884 722.854L116.7 722.438L104.23 714.336L91.76 713.92L84.0702 713.505L144.134 717.66ZM366.308 707.272L358.618 705.818L325.988 707.688L318.298 711.635L366.308 707.272ZM297.931 721.192L300.84 721.607L310.401 716.829L312.895 715.375L297.931 721.192ZM145.589 719.114L159.098 717.244L210.017 716.206H225.397H228.307H234.542L145.589 719.114ZM526.34 710.596L530.704 713.089L549.825 712.674L553.774 712.258H550.448H548.162H540.057H530.912L528.002 710.804L526.34 710.596ZM525.3 709.558L518.65 706.649L513.454 705.195L508.674 704.779L525.3 709.558ZM9.45802 714.336L6.96402 716.829L3.22302 723.061L9.45802 735.942V714.336ZM295.021 720.153L282.551 717.244L295.021 720.153ZM143.095 720.153L132.911 723.061L121.896 724.516L104.022 714.959L95.2932 714.544L91.5522 714.128L85.7329 713.713L143.095 720.153ZM312.895 714.336L305.205 718.075L302.295 719.114L297.099 720.153L312.895 714.336ZM577.259 702.91L581.208 701.455L584.117 700.001L587.027 698.131L577.259 702.91ZM586.819 697.508L584.533 698.962L577.259 702.286L586.819 697.508ZM610.512 692.73L617.786 693.145L610.512 692.73ZM592.638 695.223L597.834 693.353L592.638 695.223ZM13.8225 711.012L22.9672 708.103L55.1814 709.142L13.8225 711.012ZM524.469 709.558L519.689 707.065L513.454 705.195L524.469 709.558ZM234.542 715.375H211.056L178.842 714.959L146.212 717.452L234.542 715.375ZM278.81 716.829L257.611 715.79L245.141 715.375H236.412L278.81 716.829ZM236.412 715.79L244.518 716.206L257.403 715.79L277.979 718.283L236.412 715.79Z" stroke="#404040" stroke-width="4.8601" stroke-linejoin="round"/>
<path d="M96.9558 711.012L97.3715 678.395L96.9558 668.839M98.8263 755.678L98.4107 746.122L97.3715 731.164L96.9558 714.752L98.8263 755.678ZM97.995 714.752V728.671L97.5793 731.164L97.995 757.133V760.872V763.365L98.4107 777.284L97.995 714.752ZM101.112 834L99.8655 797.021L99.4498 780.193L101.112 834ZM278.81 660.529L278.394 667.177V669.047V673.409V677.772V679.642L279.434 697.924L278.81 660.529ZM279.226 703.741L278.81 680.265V677.357L278.394 673.617L279.226 703.741ZM98.8263 781.232L99.8655 814.887L100.697 834L98.8263 781.232ZM97.995 711.012V682.758V677.564V668.423V711.012ZM278.187 669.254L278.602 667.384L279.018 659.282V657.413V654.089L278.602 638.299L278.187 669.254ZM97.995 666.346L97.5793 652.011V647.025L97.995 666.346ZM280.057 724.931L279.641 720.153L280.057 717.66L279.641 712.882V720.153L281.096 723.893L280.057 724.931ZM96.5402 649.103L96.9558 666.346L96.5402 649.103ZM278.187 629.782L278.602 649.934L279.018 653.673L278.602 656.997L278.187 629.782ZM279.641 709.973L279.226 706.649L279.641 709.973ZM98.8263 757.548L99.242 777.284L98.8263 757.548Z" stroke="#404040" stroke-width="4.8601" stroke-linejoin="round"/>
</svg>
