<svg width="271" height="670" viewBox="0 0 271 670" fill="none" xmlns="http://www.w3.org/2000/svg">
<path d="M1.98633 550.782L4.89602 551.197L9.2605 548.704" stroke="#737373" stroke-width="3.645" stroke-linecap="round" stroke-linejoin="round"/>
<path d="M268.221 2.5295V4.39925M163.473 165.821L162.434 167.275L157.654 171.638L155.783 173.092L148.093 180.779L146.223 182.649L141.858 190.335L140.819 196.568V198.438V200.723L142.69 210.903L163.473 165.821ZM142.274 207.163L141.235 199.477L140.819 198.438L142.274 207.163ZM164.096 166.237L162.642 167.275L161.187 168.314L157.861 171.638L164.096 166.237ZM155.783 173.092L152.873 176.416L146.223 182.649L141.443 193.244L141.027 196.568L155.783 173.092Z" stroke="#737373" stroke-width="3.645" stroke-linecap="round" stroke-linejoin="round"/>
<path d="M175.527 667.537V665.667V662.343L175.112 659.435M164.512 619.547L164.096 617.677L161.603 614.353L160.563 611.029L158.069 604.381L164.512 619.547Z" stroke="#737373" stroke-width="3.645" stroke-linecap="round" stroke-linejoin="round"/>
</svg>
