<svg width="833" height="821" viewBox="0 0 833 821" fill="none" xmlns="http://www.w3.org/2000/svg">
<path d="M629.491 621.51H641.546M617.437 621.095H619.307H617.437ZM623.256 621.095H625.127H623.256ZM667.94 623.588L686.23 624.003L667.94 623.588ZM686.23 623.588L667.94 623.172L686.23 623.588ZM612.033 621.095H613.904H612.033ZM619.307 620.679H617.021H619.307ZM629.491 621.095H641.546H629.491Z" stroke="#737373" stroke-width="3.645" stroke-linecap="round" stroke-linejoin="round"/>
<path d="M567.972 617.771H566.102M443.896 629.197L442.441 630.652L436.206 632.521L443.896 629.197ZM566.518 618.187H568.388H566.518ZM449.092 625.873L446.182 627.327L449.092 625.873ZM497.101 618.81H498.972H497.101ZM499.18 618.187H497.309H499.18ZM520.379 619.225H522.249H520.379Z" stroke="#737373" stroke-width="3.645" stroke-linecap="round" stroke-linejoin="round"/>
<path d="M434.128 631.69L437.453 630.651" stroke="#737373" stroke-width="3.645" stroke-linecap="round" stroke-linejoin="round"/>
<path d="M266.406 447.624L266.822 450.117M267.861 487.512V490.005V487.512ZM271.81 628.782V626.912V628.782Z" stroke="#737373" stroke-width="3.645" stroke-linecap="round" stroke-linejoin="round"/>
<path d="M272.226 628.782V626.912M591.873 262.519L587.924 260.026L591.873 262.519ZM584.807 256.909L587.093 258.779L584.807 256.909ZM582.313 252.962L580.858 251.923L582.313 252.962ZM268.9 492.29L268.485 487.927L268.9 492.29ZM267.446 487.512V491.251V487.512ZM267.446 449.909V448.039V449.909ZM265.367 396.102V394.232V396.102ZM305.895 268.336H304.024H305.895ZM350.995 267.297H349.124H350.995ZM440.571 266.05H442.441H440.571ZM442.441 265.427H440.571H442.441ZM509.779 262.519H507.909H509.779ZM507.701 263.142H509.571H507.701ZM271.187 626.912V628.782V626.912Z" stroke="#737373" stroke-width="3.645" stroke-linecap="round" stroke-linejoin="round"/>
<path d="M444.727 399.01L440.778 397.556M254.975 347.073L256.846 346.034L254.975 347.073ZM264.536 343.333L263.081 342.294L261.21 342.71L264.536 343.333ZM261.21 345.203H265.159H261.21ZM307.765 349.566L311.09 350.605L307.765 349.566ZM312.13 349.981L307.765 348.942L312.13 349.981ZM440.986 398.179L445.766 400.049L440.986 398.179Z" stroke="#737373" stroke-width="3.645" stroke-linecap="round" stroke-linejoin="round"/>
<path d="M594.783 628.782V626.289M594.783 624.004V622.134V624.004ZM594.783 533.632L594.367 525.946V524.491L592.912 520.544L594.783 533.632ZM593.328 582.661L592.912 580.168L593.328 578.299V582.661ZM594.367 622.549V625.873V628.782V622.549ZM592.497 578.299V582.661V578.299ZM643.832 212.659L638.636 217.437L643.832 212.659ZM640.091 217.437L644.455 213.697L640.091 217.437ZM651.937 199.155L653.808 197.7L651.937 199.155ZM706.805 81.9837L707.844 79.4907L706.805 81.9837ZM706.805 80.5295V82.3993V80.5295ZM706.805 47.2895V45.4197V47.2895ZM705.974 45.4197V47.705V45.4197ZM584.807 363.07V359.122V363.07ZM583.768 359.122L584.183 360.992V362.862L583.768 359.122ZM584.807 351.436L584.391 349.566L584.807 351.436ZM583.352 305.731V303.861V305.731ZM594.367 610.5V612.37V610.5ZM591.873 521.167L593.328 523.453L593.744 526.361V534.463L591.873 521.167Z" stroke="#737373" stroke-width="3.645" stroke-linecap="round" stroke-linejoin="round"/>
<path d="M187.014 169.862V167.992M185.144 167.992V169.862V167.992ZM186.598 193.338V196.246V193.338ZM187.638 195.831L188.053 192.091L187.638 195.831Z" stroke="#737373" stroke-width="3.645" stroke-linecap="round" stroke-linejoin="round"/>
<path d="M591.873 521.167L593.328 523.453L593.744 526.361V534.463M262.042 349.566L262.457 355.383L262.042 349.566ZM594.367 534.048V525.946V524.491L592.912 520.544L594.367 534.048ZM298.62 126.027H300.491L298.62 124.988V126.027ZM392.353 123.118H389.444H392.353ZM389.444 123.742H392.353H389.444ZM435.167 122.287H437.037H435.167ZM548.644 216.398L546.773 213.905L548.644 216.398ZM545.734 214.113L548.228 217.021L545.734 214.113ZM481.929 119.794H479.02H481.929ZM479.02 120.833H481.929H479.02ZM529.939 171.732V169.862V171.732ZM528.9 155.943V157.813V155.943ZM527.029 117.925L528.9 116.47L527.029 117.925ZM542.409 50.6135L543.864 48.7438L542.409 50.6135ZM543.448 48.7438L541.993 50.6135L543.448 48.7438ZM580.858 251.923L582.313 253.378L580.858 251.923ZM186.183 167.992V170.278V167.992ZM187.014 193.338L187.43 195.623V192.715L187.014 193.338ZM240.427 145.348L237.933 146.802L240.427 145.348ZM239.596 146.802L241.466 145.348L239.596 146.802ZM186.598 170.693V167.785V170.693ZM592.497 578.299V582.661V578.299ZM593.328 582.661L592.912 580.168V578.299L593.328 582.661ZM268.277 491.875V487.927V491.875ZM267.445 449.909V448.039V449.909ZM84.76 367.432L85.1756 365.563L84.76 367.432ZM91.8263 342.295L90.7871 345.619L91.8263 342.295ZM120.299 259.61L121.339 258.156L120.299 259.61ZM639.467 217.437L644.247 213.697L639.467 217.437ZM643.832 213.074L639.052 217.437L643.832 213.074ZM574.207 2.20775L573.792 4.70075L574.207 2.20775ZM574.207 4.493L574.623 2L574.207 4.493ZM706.805 81.9838L707.221 80.5295L706.805 81.9838ZM706.389 47.2895V45.4198V47.2895ZM584.807 363.07V359.122V363.07ZM584.183 359.122V360.992V362.862V359.122ZM584.183 351.436V349.566V351.436ZM582.729 303.861L582.313 305.315L582.729 303.861ZM583.352 305.731V303.861V305.731ZM271.186 626.912V628.782V626.912ZM83.3051 396.102V394.232V396.102ZM82.6816 395.271V397.141V395.271ZM83.7208 416.877V418.747V416.877ZM84.1365 418.747V416.877V418.747ZM267.861 490.005V491.875V490.005ZM91.4106 346.242L91.8263 343.749L91.4106 346.242Z" stroke="#737373" stroke-width="3.645" stroke-linecap="round" stroke-linejoin="round"/>
<path d="M784.327 178.38L782.457 178.795M830.466 178.38L807.812 174.017L830.466 178.38ZM823.192 177.964L818.827 176.926L808.643 173.602L823.192 177.964Z" stroke="#737373" stroke-width="3.645" stroke-linecap="round" stroke-linejoin="round"/>
<path d="M783.703 620.056L785.574 619.017M786.197 618.81L783.288 619.848L786.197 618.81ZM759.802 624.003H749.619H759.802ZM749.619 624.419H759.802H749.619Z" stroke="#737373" stroke-width="3.645" stroke-linecap="round" stroke-linejoin="round"/>
<path d="M673.136 696.508L669.811 696.093M672.305 696.508L669.811 696.093L669.395 695.677L672.305 696.508Z" stroke="#737373" stroke-width="3.645" stroke-linecap="round" stroke-linejoin="round"/>
<path d="M651.937 696.924L669.811 695.885M672.305 696.508L669.811 696.093L669.395 695.677L652.561 696.716L672.305 696.508Z" stroke="#737373" stroke-width="3.645" stroke-linecap="round" stroke-linejoin="round"/>
<path d="M634.687 745.122L632.817 745.537L629.491 744.083H625.127" stroke="#737373" stroke-width="3.645" stroke-linecap="round" stroke-linejoin="round"/>
<path d="M595.199 805.161L598.524 802.253M583.768 812.848L586.262 811.809L587.717 810.771L583.768 812.848ZM598.108 801.837L593.744 804.331L598.108 801.837ZM610.163 713.336L611.618 733.072L612.657 735.981L614.112 737.435L612.657 740.759L614.112 741.798L613.696 745.745L609.747 758.626V762.988L611.202 764.858L610.163 713.336ZM609.747 792.696L610.163 791.242L611.618 788.749L609.747 792.696ZM614.112 737.435L613.696 734.942L612.241 731.202V729.125L611.825 715.621L610.786 712.713L614.112 737.435ZM604.967 702.741L606.006 705.234L607.877 708.558L604.967 702.741ZM608.708 708.558L606.422 702.741L608.708 708.558ZM609.747 762.781L610.163 759.872L609.747 758.418L614.527 745.537L609.747 762.781ZM611.618 773.999V778.362L612.033 774.414L611.618 773.999Z" stroke="#737373" stroke-width="3.645" stroke-linecap="round" stroke-linejoin="round"/>
<path d="M650.067 697.547L651.937 697.132M652.561 696.508H650.69H652.561ZM610.578 692.769L614.527 694.223L628.452 701.494L630.322 701.91L633.648 702.325L637.597 701.91L641.545 700.871L610.578 692.769ZM637.597 701.91L632.816 700.871H630.322L625.127 699.001L622.633 697.547L621.178 696.508L611.617 692.146L604.967 690.276L637.597 701.91Z" stroke="#737373" stroke-width="3.645" stroke-linecap="round" stroke-linejoin="round"/>
<path d="M273.057 749.484L272.641 751.977M275.551 819.081V817.211V819.081ZM273.057 771.506L272.641 774.414L273.057 771.506ZM273.057 774.414L273.473 771.506L273.057 774.414Z" stroke="#737373" stroke-width="3.645" stroke-linecap="round" stroke-linejoin="round"/>
<path d="M271.187 717.283L275.551 717.699M401.914 707.103L403.784 708.142L401.914 707.103ZM499.595 704.195L501.466 703.779H499.595V704.195ZM517.469 708.558L519.34 709.596L517.469 708.558ZM520.794 709.596L518.3 708.558L520.794 709.596ZM6.82251 710.012L3.49717 711.466L2.45801 713.336L6.82251 710.012ZM78.9407 712.505L74.5762 711.051L69.3803 709.181L71.8743 710.635L75.6153 711.674L77.0702 712.713L78.9407 712.505ZM610.578 692.146L614.527 694.015L624.711 698.793L627.621 700.248L633.856 702.117L610.578 692.146ZM546.774 711.051L551.969 710.012L570.259 701.91L546.774 711.051ZM570.259 701.286L551.969 710.012L570.259 701.286ZM290.099 719.153H288.229H290.099ZM305.895 714.375L311.714 711.466L305.895 714.375ZM311.091 710.427L305.895 713.336L311.091 710.427ZM584.184 694.223L581.274 695.677L579.819 696.716L584.184 694.223ZM579.819 696.924L585.638 694.015L579.819 696.924ZM591.042 692.146H595.822L603.512 691.73L591.042 692.146ZM5.78334 711.882L9.10868 709.389L5.78334 711.882ZM136.095 719.153L138.589 718.114L136.095 719.153ZM139.005 716.244L137.134 716.66L139.005 716.244ZM227.542 715.413L229.412 714.998L227.542 715.413ZM229.412 714.375H227.542H229.412ZM362.633 706.272H364.088H362.633ZM289.06 720.607L290.931 720.192L289.06 720.607ZM275.551 716.244L271.81 715.829L275.551 716.244Z" stroke="#737373" stroke-width="3.645" stroke-linecap="round" stroke-linejoin="round"/>
<path d="M90.995 713.751V709.804M90.995 667.215V665.346V667.215ZM270.771 711.466L272.641 711.882V708.973L270.771 711.466ZM89.9558 665.346V667.631V665.346ZM612.657 735.981L614.112 737.435L614.527 740.343L616.398 741.798L622.633 744.706L612.657 735.981ZM91.4106 776.284L91.8263 780.232L91.4106 776.284ZM92.4498 779.193V776.284V779.193ZM91.8263 756.548V754.678V756.548ZM89.9558 710.012V713.959V710.012Z" stroke="#737373" stroke-width="3.645" stroke-linecap="round" stroke-linejoin="round"/>
</svg>
