<svg width="842" height="835" viewBox="0 0 842 835" fill="none" xmlns="http://www.w3.org/2000/svg">
<path d="M692.23 624.003L755.619 624.419M625.307 621.095H629.256L625.307 620.679V621.095ZM635.491 621.095H631.127L635.491 621.51V621.095ZM647.546 621.51H649.416H658.561L666.251 623.38H668.537H673.733L647.546 621.51ZM620.112 621.095H623.437H620.112ZM623.021 620.679H618.657H616.578H623.021ZM673.94 622.965H667.705L658.561 621.095H647.546L673.94 622.965ZM755.619 624.003L692.23 623.588L755.619 624.003Z" stroke="#737373" stroke-width="3.645" stroke-linecap="round" stroke-linejoin="round"/>
<path d="M505.18 618.81L515.364 619.225L518.689 619.641H520.559L526.379 619.225M452.182 627.327L449.896 629.197L452.182 627.327ZM503.101 618.81H501.231H496.451H494.58L481.071 619.225L477.33 620.264L471.511 620.679L458.625 624.627L455.3 626.081L503.101 618.81ZM571.894 617.771H567.114H563.789L549.864 618.187H544.668L526.794 618.602L518.689 619.018L512.038 618.602L505.388 618.187L571.894 617.771ZM528.249 619.225H534.068H537.394L549.864 618.81H565.659L569.608 619.225L572.518 618.187L528.249 619.225ZM616.578 620.679L612.837 620.264L600.367 618.394L595.587 617.356L584.156 617.771H579.168H577.298H573.973L616.578 620.679ZM583.948 617.771H590.599L592.885 618.187L612.63 620.472L615.955 620.887H617.825L583.948 617.771ZM574.388 618.187H576.882L579.168 617.771L574.388 618.187ZM454.26 626.912L458.625 625.042L477.33 620.264L481.071 618.81L496.035 618.394H503.309L454.26 626.912ZM443.661 630.651L446.986 628.782L443.661 630.651Z" stroke="#737373" stroke-width="3.645" stroke-linecap="round" stroke-linejoin="round"/>
<path d="M271.991 440.768L272.406 447.416M94.9166 600.943V589.933L94.501 575.598V569.365L94.9166 600.943ZM277.187 616.317V618.81V620.679V616.317ZM277.81 636.469V628.782V636.469ZM277.81 656.205V659.529V656.205ZM272.822 449.909V453.856V449.909ZM277.81 625.042V626.912V625.042ZM223.981 349.981L212.343 351.02L223.981 349.981ZM104.685 322.766L106.14 318.403L111.959 300.121L104.685 322.766ZM276.355 575.39V576.429L276.771 593.672V594.711L276.355 575.39Z" stroke="#737373" stroke-width="3.645" stroke-linecap="round" stroke-linejoin="round"/>
<path d="M271.991 440.768L272.406 447.416M297.346 268.751L310.232 269.79L297.346 268.751ZM277.81 640.416V649.141V651.634V656.413V640.416ZM272.406 273.114L269.497 276.022L272.406 273.114ZM283.422 268.751H280.512H283.422ZM353.669 267.92H356.163H353.669ZM402.302 267.297H398.977L391.703 266.881H389.832H384.013L402.302 267.297Z" stroke="#737373" stroke-width="3.645" stroke-linecap="round" stroke-linejoin="round"/>
<path d="M277.186 628.782V633.56V637.923L277.602 640.416M269.497 276.022L268.457 277.477L267.003 280.8L265.964 288.487L266.379 296.59V299.498L266.795 304.276L267.21 318.195L267.626 329.206L268.042 343.125L267.626 349.358L268.042 355.175L267.626 358.083L268.665 366.809L269.705 382.182L268.665 395.686L270.536 409.605L270.951 417.292L271.367 432.25V434.743V440.976L272.822 448.247L269.497 276.022ZM271.991 440.768L273.03 432.042V430.173L272.614 417.292L272.198 405.658L271.783 397.971V396.102L271.991 440.768ZM271.367 394.232L270.328 377.82L269.912 371.172V369.717V363.9V360.992L269.497 349.981L269.081 342.294L267.626 304.276L267.21 299.498V291.811L266.795 288.487L267.21 280.8L271.367 394.232ZM278.226 662.022V658.074V656.205L278.641 652.257L278.226 638.754V628.574V662.022ZM273.445 491.251L273.861 503.301V508.079V521.583L274.277 530.308L274.692 538.41L275.108 564.379L275.524 576.013V581.83L276.563 616.94V618.81L276.979 626.912L273.445 491.251ZM274.9 492.29V503.924L273.861 508.287L274.277 512.649V515.142L273.861 521.79L275.316 530.931L275.732 541.527L276.147 566.041V569.365L276.563 585.154L276.979 600.528V607.176L277.394 612.369V614.862V618.81V622.134L277.81 626.912L274.9 492.29ZM513.701 262.519L506.011 262.934L491.67 263.973H482.941H478.161L469.017 265.012L462.366 265.427L448.441 265.843L513.701 262.519ZM482.941 263.973L480.032 264.388L469.017 264.804H461.327L448.441 265.219L482.941 263.973ZM446.571 265.427L433.685 265.843L425.579 266.258L417.474 266.674L402.51 267.089L446.571 265.427ZM446.571 266.05L434.932 266.466H425.372H416.643L402.302 266.881L389.832 266.466H386.507L366.763 266.881L357.202 267.297L446.571 266.05ZM588.313 251.923L584.988 254.832L578.753 259.61L570.647 260.025L556.722 260.441L550.072 260.857L537.602 261.272L523.261 261.688L515.987 262.103L588.313 251.923ZM515.779 263.142L524.508 262.726L537.394 262.311L549.448 261.895L556.722 261.48L568.153 261.064H574.388L583.533 257.74L515.779 263.142ZM593.093 258.779L594.132 260.233L598.081 262.726L601.406 261.688L604.316 260.233L593.093 258.779ZM491.67 263.973L502.686 263.557L513.701 263.142L491.67 263.973ZM590.807 256.909L588.313 253.17L590.807 256.909ZM355.124 267.297L339.329 268.335H327.274H323.325H311.895L355.124 267.297ZM310.44 269.79L326.859 268.751H345.148H347.018L353.669 267.712L310.44 269.79ZM272.406 273.114L277.81 269.79L297.554 268.751L272.406 273.114ZM272.406 447.624L271.367 449.493L272.822 457.596V460.089V466.737V475.462L273.238 478.371V480.24V483.149V487.512L272.406 447.624ZM274.277 487.927V480.24V477.955L273.861 470.268L273.445 466.321L273.861 459.673L273.445 450.117L274.277 487.927ZM310.024 268.335H300.88H292.15L283.421 268.751L310.024 268.335ZM280.72 268.751L275.94 270.205L268.665 277.477L280.72 268.751ZM356.163 267.92L371.543 267.505L384.013 267.089L356.163 267.92ZM277.81 656.205L277.394 665.346L277.81 656.205Z" stroke="#737373" stroke-width="3.645" stroke-linecap="round" stroke-linejoin="round"/>
<path d="M451.766 400.049L459.872 400.465M313.765 349.15H285.5L276.355 345.826L270.536 343.333L313.765 349.15ZM270.951 345.203L276.147 346.657L285.708 349.566H313.557L270.951 345.203ZM262.846 346.242L267.21 345.203L262.846 346.242ZM267.21 342.918L251.831 348.735L267.21 342.918ZM318.13 349.981L336.835 354.759L344.94 355.798L348.265 356.214L359.904 356.629L370.919 356.214L387.754 358.707L401.679 373.041L416.019 386.545L428.489 392.778L439.92 396.102L446.571 397.972L318.13 349.981ZM446.986 397.556L439.712 395.686L428.697 391.947L416.643 386.13L401.679 373.249L388.17 359.745L372.374 356.837L369.465 357.252H362.19H359.904L346.395 356.837L336.835 355.383L317.09 350.604L446.986 397.556ZM251.831 351.02L260.975 347.073L251.831 351.02ZM460.495 400.049L450.935 399.01L460.495 400.049Z" stroke="#737373" stroke-width="3.645" stroke-linecap="round" stroke-linejoin="round"/>
<path d="M194.053 191.884V184.197V177.964L193.638 172.147L193.222 169.654M251.831 348.527L244.141 350.397L239.361 350.812L225.02 350.397H223.15L207.355 347.488L200.08 336.478L199.665 317.365V314.872L198.21 285.579L196.339 235.096L195.3 216.398L194.885 199.57L193.845 195.623L251.831 348.527ZM219.201 2L223.773 12.5953L226.267 26.099L225.852 41.057L221.487 54.9763L210.472 73.2583L208.602 76.1668L196.547 90.5015L190.728 101.512L189.689 124.157L190.104 146.179L191.144 167.785L219.201 2ZM193.014 167.992L191.559 128.52L193.43 101.512L204.029 84.269L207.355 79.9063L209.849 76.9978L223.773 54.9763L228.138 34.8245L227.722 23.1905L224.397 8.2325L221.279 2L193.014 167.992ZM192.598 196.246L193.638 226.993L194.053 238.627L194.469 240.497L195.924 280.801L197.794 329.83L201.743 345.619L213.797 351.851H218.162H241.647H246.012L248.506 351.436L251.831 351.02L192.598 196.246ZM191.144 169.862L191.559 173.602L191.975 190.014L192.391 193.338L191.144 169.862Z" stroke="#737373" stroke-width="3.645" stroke-linecap="round" stroke-linejoin="round"/>
<path d="M590.807 359.122V351.436M600.783 626.289V623.796V626.289ZM599.952 534.671V544.228L600.368 550.876V556.069V560.848V561.886L599.952 564.795L598.913 567.703L598.497 572.897V578.091L599.952 534.671ZM644.636 217.437L640.272 221.8L634.037 225.747L623.021 230.941L606.187 246.314L603.693 252.131L598.497 261.272L598.081 262.726L590.392 268.543L588.521 272.491V281.632L588.937 288.903V293.681L589.352 301.368V304.276L644.636 217.437ZM646.091 217.437L640.895 222.215L639.024 223.669L624.684 230.317L605.979 247.561L604.109 251.923L601.199 256.702L591.639 266.881L588.729 270.205L586.235 276.438V278.723V282.047L588.105 293.681L588.521 295.551V305.107L588.937 311.755V314.664V320.896V323.805L588.521 328.168V333.985L588.937 337.309V341.048L589.352 346.242L589.768 350.605V358.707L646.091 217.437ZM600.783 622.134L600.368 618.187V612.37L600.783 622.134ZM598.497 582.661L598.913 589.309V593.257V601.982L599.328 606.76L599.744 609.253V613.201V618.394L600.16 622.757L598.497 582.661ZM599.328 578.299V571.027L600.368 566.665L600.783 564.795V563.341L601.199 560.017V558.978L600.16 556.069L600.575 545.059V537.372V535.502V533.632L599.328 578.299ZM600.368 610.5V607.176V602.398V599.074L599.328 582.661L600.368 610.5ZM600.368 628.782V636.884L600.783 639.793V645.61L601.822 670.54L600.368 628.782ZM602.238 662.437L601.199 645.61V636.884V633.56L600.783 628.782L602.238 662.437ZM598.913 520.544L597.458 516.805L597.042 515.35L596.627 512.857L596.211 510.988V507.664V504.755L595.795 495.199L595.38 487.927V484.603V475.878L594.964 464.244L594.548 453.649V451.156V448.87V441.184L594.133 437.444V434.536L593.717 431.212V430.173V427.264L593.301 424.771V418.539L592.886 412.722V406.905L592.47 405.035L592.886 400.672V396.725V393.401L591.639 390.493L591.223 387.169V383.845L590.807 379.482L590.392 371.38V368.887V363.07L598.913 520.544ZM712.805 82.3993L713.221 86.762L711.766 97.7728V102.551V110.238L712.805 124.157L713.221 128.52L713.637 131.844V138.076V138.492L713.221 143.893L711.766 146.386L707.817 156.566L705.947 158.436L704.492 159.475L678.929 178.172L677.474 179.626L657.729 198.324L656.275 200.817L654.82 203.725L652.326 208.919L651.287 211.412L649.416 212.866L712.805 82.3993ZM660.016 197.701L661.471 195.831L672.07 186.274L680.799 178.172L698.049 165.707L706.155 159.475L710.519 154.281L713.844 145.555L714.26 141.608V139.115L714.676 132.467L714.26 129.974L713.221 116.055V96.9418L712.805 81.9838L660.016 197.701ZM650.248 213.49L656.898 201.44L657.937 198.947L650.248 213.49ZM712.805 45.4198L710.935 32.9548L710.519 29.6308L710.103 24.437V21.7363L710.519 17.9968L710.935 2L712.805 45.4198ZM709.896 2L709.48 12.1798V27.1378V30.4618L711.766 41.4725V45.4198L709.896 2ZM713.844 79.4908L713.429 69.9343V67.0258V64.1173L713.013 47.2895L713.844 79.4908ZM711.974 47.705L712.39 58.7158V63.9095L712.805 75.959V80.3218L711.974 47.705ZM590.807 363.07L591.223 366.394V370.756V379.482L591.639 383.429V390.7V396.517V400.257L591.223 404.204V408.982L591.639 412.306V419.578L592.054 425.395V429.757L593.093 437.86V442.222V446.17V449.909V452.818L593.509 459.466V464.867L593.925 477.748V481.072V488.343L594.34 494.16V496.653L594.756 505.378L595.172 511.195V512.65L595.587 514.519V514.935L597.458 521.583L590.807 363.07ZM590.184 349.566V346.657L589.145 338.555V333.777V328.375L589.56 315.91L589.145 308.639V305.731L590.184 349.566Z" stroke="#737373" stroke-width="3.645" stroke-linecap="round" stroke-linejoin="round"/>
<path d="M194.469 214.528L193.43 202.894V195.623L194.469 214.528ZM194.469 214.528L194.884 239.043L196.755 291.396L198.21 321.104L199.665 338.97L203.406 346.657L209.225 349.981L212.135 351.02L248.09 351.435L250.584 350.397L262.638 346.034L267.834 349.358L258.689 346.449L250.584 350.189L194.469 214.528ZM274.277 487.927L273.238 466.321M248.298 351.435L242.063 351.02H239.153L223.773 349.981L248.298 351.435ZM268.665 355.383L269.081 359.745V361.615V367.017V395.894L271.575 417.5L271.991 432.458V441.183L273.445 448.455L268.665 355.383ZM395.444 123.118L370.919 124.157L344.94 124.572L306.491 126.027H333.301L363.645 124.988L395.444 123.534V123.118ZM271.991 440.768V417.292L270.951 395.686L270.536 377.82L270.12 371.172V369.717L269.081 366.809L271.991 440.768ZM600.367 607.176V602.397L599.952 597.619L599.536 587.024V582.661L600.367 607.176ZM192.183 167.992L191.143 151.58L190.728 139.53L190.312 117.509V110.861L198.002 91.1247L207.147 79.6985L212.966 72.0117L215.252 68.6877L217.746 65.3637L219.201 62.8707L221.071 58.9235L221.487 57.4692L223.981 51.6522L225.852 44.381L227.306 33.7857V30.4617L226.891 22.3595L222.942 7.4015L220.24 2L192.183 167.992ZM276.355 575.39V569.157V565.833L275.316 541.319L274.9 530.308L273.861 521.583V508.079L274.277 491.667L276.355 575.39ZM277.81 665.346L278.226 658.074V656.205V652.881L277.81 636.468V665.346ZM277.186 628.782L277.602 648.933L278.018 652.673L277.602 655.997L277.186 628.782ZM89.7208 418.746V422.07V426.018L90.1365 437.028L92.007 510.156L92.4226 530.308L92.8383 546.72V552.953L93.254 576.013L94.2931 601.566L94.7088 620.679L95.1245 648.102L95.5401 665.346L89.7208 418.746ZM96.995 665.346L96.5793 651.011V646.025L96.1636 644.155L95.748 620.679V611.954V607.591L95.3323 600.943L96.995 665.346ZM94.501 569.157L94.0853 547.967L93.6696 530.1L92.2148 487.304L91.7991 453.648L90.76 426.018V424.148L90.3443 418.746L94.501 569.157ZM549.448 48.7437L572.518 22.3595L577.713 12.803L578.753 10.31L580.207 4.493L549.448 48.7437ZM579.584 4.493L579.168 7.4015L575.843 15.0882L572.518 22.3595L549.864 48.7437L579.584 4.493ZM273.861 491.874L274.277 512.442L273.861 521.583L275.316 530.724V532.593V541.319L275.732 576.013L277.186 616.317V610.5V607.176V600.528L276.771 594.711L273.861 491.874ZM547.993 50.6135L536.562 70.3497L533.237 86.1387V102.551L531.782 113.146L529.496 116.47L518.897 118.963H517.442L507.881 119.379H504.14H501.231L488.345 119.794L547.993 50.6135ZM485.02 119.794L469.64 120.833L441.79 121.248L398.353 123.118L485.02 119.794ZM443.037 122.287L470.056 121.248H471.926L484.812 120.833L443.037 122.287ZM245.596 146.802L222.526 167.992L217.746 172.355L201.327 187.728L198.833 189.598L197.794 190.637L176.803 209.75L161.839 223.669L135.444 247.768L127.339 258.363L245.596 146.802ZM398.353 123.741L441.167 122.287L398.353 123.741ZM535.939 169.862V163.214L535.523 157.397V145.763V145.347L535.108 140.569V135.791L534.068 123.326L533.029 102.551L535.939 169.862ZM552.773 214.113L550.279 212.243L541.135 198.324L536.77 184.82L535.315 171.316L534.9 165.499V163.629V157.812L552.773 214.113ZM521.391 117.924L518.481 118.963L521.391 117.924ZM554.644 216.398L572.933 236.134L582.494 247.145L586.858 251.923L579.584 244.652L572.933 236.965L554.228 216.813L554.644 216.398ZM487.929 120.833L509.544 119.794H513.285L522.43 119.379H523.469L530.12 118.963L533.029 117.924L487.929 120.833ZM548.409 50.6135L538.225 67.0257L533.861 82.3992L533.445 97.7727L533.861 116.47V123.118L534.276 134.544V145.347V149.71L534.692 155.943L548.409 50.6135ZM583.533 257.325L588.313 252.131L589.768 250.677L583.533 257.325ZM277.81 625.042L277.394 618.81L277.81 625.042ZM588.729 303.861V298.044V293.265L588.313 288.487L587.274 285.163L588.729 303.861ZM587.897 288.903L588.313 293.265V295.758L588.729 298.251L589.144 301.16V304.068L587.897 288.903ZM588.313 253.377L590.807 256.701L588.313 253.377ZM650.247 213.489L651.702 210.996L654.612 205.179L657.937 198.947L661.262 195.623L663.133 193.338L672.278 184.612L677.473 179.418L690.983 169.239L705.947 158.228L707.817 156.358L711.142 151.58L713.637 145.347L714.052 141.4V139.115V134.752V129.974L713.013 90.086V86.762V82.3992L650.247 213.489ZM244.141 146.802L226.891 163.214L195.924 191.052L189.273 196.869L188.234 198.739L184.493 201.648L161.839 222.215L160.384 223.669L134.405 247.145L125.26 259.194L111.751 300.121L244.141 146.802ZM598.497 582.661L598.912 585.985V589.309V593.256V601.982L599.328 606.76L598.497 582.661ZM192.183 170.277V173.186L192.598 185.235L193.014 193.338L192.183 170.277ZM598.912 578.298L599.328 571.027L600.783 564.795V563.34L601.199 560.016V558.978L600.159 556.069V550.875L599.952 544.227V534.671L598.912 578.298ZM247.466 145.347L259.521 134.752L274.485 127.481L304.828 126.027L247.466 145.347ZM304.62 125.196L270.536 128.104L260.352 132.882L246.427 145.347L304.62 125.196ZM193.637 192.922L192.598 188.144L193.014 184.404V179.626L192.598 170.693L193.637 192.922ZM192.598 167.992L192.183 163.214L190.312 117.509L192.598 167.992ZM600.367 534.048V556.069V560.847V561.886L599.952 564.795L598.497 572.897V578.091L600.367 534.048ZM273.445 449.909V459.05V462.374V466.113V476.293L273.861 487.304L273.445 449.909ZM91.1756 365.355L97.4106 346.242L91.1756 365.355ZM277.81 659.529L277.394 665.346L277.81 659.529ZM212.758 71.804L202.574 83.8535L195.924 92.579L190.104 110.861L212.758 71.804ZM272.822 453.856V457.803V460.296L273.238 462.789L272.822 453.856ZM198.418 321.104L197.378 294.72L194.884 239.043L198.418 321.104ZM649.832 213.074L651.702 211.204L652.741 208.711L654.612 205.387L656.482 200.609L657.937 198.116L663.133 193.338L665.003 191.883L680.383 177.964L690.983 169.239L705.947 159.059L710.311 153.865L711.35 151.372L711.766 146.178L713.221 143.685L713.637 138.284V137.868L714.052 134.544L713.637 131.636L711.766 110.03V102.343L713.221 89.8782L712.805 81.776L649.832 213.074ZM609.096 244.236L624.476 230.317L638.817 223.669L640.687 222.215L641.726 220.761L645.052 217.437L609.096 244.236ZM645.467 217.437L641.518 220.761L633.828 225.539L622.813 230.733L608.473 243.613L645.467 217.437ZM710.935 34.2012L711.974 41.4725L712.389 45.4197L710.935 34.2012ZM709.895 2L709.48 12.1797V27.1377L710.935 34.409L710.519 29.6307L710.103 24.437V21.7362L710.519 2H709.895ZM712.389 47.2895L712.805 60.7932V62.663V69.311L713.221 80.3217V77.4132V69.7265V66.818L712.805 62.4552L712.389 47.2895ZM590.807 363.069L591.223 370.756V379.482V383.844V387.168L591.638 396.309V400.049V405.243V411.891V419.162L592.054 424.979V429.342L593.093 437.444V441.807V445.754L593.509 459.258V464.659L593.924 477.54V480.864L594.34 488.135V493.952V496.445L594.756 505.17L595.172 510.987V512.442L595.587 514.311V514.727L597.458 521.375L590.807 363.069ZM598.912 520.544L597.458 516.804L597.042 515.35L596.626 512.857L596.211 510.987V507.663L595.172 504.755V487.927V484.603L593.717 464.451L594.132 453.856V451.363V449.078L593.717 441.391V437.652V434.743L593.301 431.419V430.38L592.885 425.187L591.846 419.37L592.262 413.137V407.32L591.846 405.45L592.262 401.088V396.725V393.401L591.846 383.221L591.43 379.274L590.391 362.862L598.912 520.544ZM590.807 359.122L590.391 354.759L589.976 351.02L589.56 346.657L589.144 341.463L589.56 338.555V333.777V328.375V311.963V308.639V305.73L590.807 359.122ZM590.183 349.566L589.144 346.657L590.183 349.566ZM588.313 305.315L588.729 311.963V314.871V321.104V324.012V328.375V337.516V341.256L588.313 305.315ZM590.183 351.435V354.759V359.122V351.435ZM90.76 367.432L89.3051 394.232L90.76 367.432ZM96.995 345.618L89.7208 366.186L88.6816 395.271L96.995 345.618ZM104.685 322.766L98.8655 340.009L97.8263 342.502L104.685 322.766ZM90.1365 416.877L89.0973 396.309L90.1365 416.877ZM88.6816 397.14L89.7208 416.877L88.6816 397.14ZM551.734 214.113L550.279 212.243L539.264 190.637L535.939 171.939L551.734 214.113ZM277.186 620.679V626.912V620.679ZM533.445 97.7727L537.809 109.822L534.9 116.47L533.445 97.7727ZM97.8263 343.749L104.477 324.012L126.092 259.61L97.8263 343.749ZM209.433 349.981L199.872 338.97L209.433 349.981ZM226.683 22.3595L223.358 7.4015L220.864 2L226.683 22.3595Z" stroke="#737373" stroke-width="3.645" stroke-linecap="round" stroke-linejoin="round"/>
<path d="M839.792 179.418L836.466 178.38M814.851 173.601L811.11 173.186H809.24L797.809 176.095L792.613 177.549L790.743 178.587L814.851 173.601ZM813.812 174.225L790.743 178.587L789.288 179.626L780.559 180.042L769.128 174.64H765.803L780.767 179.418L788.457 179.003L813.812 174.225Z" stroke="#737373" stroke-width="3.645" stroke-linecap="round" stroke-linejoin="round"/>
<path d="M692.23 624.003L755.619 624.419M789.704 620.056L773.908 624.419H765.803L789.704 620.056ZM789.288 619.641L784.923 621.511L783.884 621.926H783.469L781.598 622.965L765.803 624.003L789.288 619.641ZM791.574 619.225L795.939 617.356L791.99 618.81L791.574 619.225ZM755.619 624.003L692.23 623.588L755.619 624.003Z" stroke="#737373" stroke-width="3.645" stroke-linecap="round" stroke-linejoin="round"/>
<path d="M678.305 696.508L680.799 697.547L681.838 697.963M692.645 733.488L696.594 735.773L692.645 733.488ZM697.426 735.565L695.139 734.526L693.685 733.488L697.426 735.565ZM679.136 696.508L681.63 697.963L683.085 699.001L684.54 701.494L679.136 696.508ZM684.956 700.871L683.085 699.001L684.956 700.871Z" stroke="#737373" stroke-width="3.645" stroke-linecap="round" stroke-linejoin="round"/>
<path d="M644.012 743.667L640.687 745.122" stroke="#737373" stroke-width="3.645" stroke-linecap="round" stroke-linejoin="round"/>
<path d="M654.196 697.547H656.067M656.482 696.508L653.988 697.547L650.663 699.001L647.338 700.871L656.482 696.508ZM614.708 692.769H616.578H614.708Z" stroke="#737373" stroke-width="3.645" stroke-linecap="round" stroke-linejoin="round"/>
<path d="M617.618 778.154V788.749M612.422 702.741L610.551 699.001L609.512 697.547L612.422 702.741ZM600.783 646.025L601.822 671.578V680.304L602.238 683.212L603.693 688.406L604.732 690.899L607.642 696.093L610.967 702.741L600.783 646.025ZM603.277 682.173L602.861 678.226V674.902L602.446 671.578V664.93L602.03 646.233L603.277 682.173ZM604.108 801.838L610.343 797.475L615.539 792.697L611.59 796.644L609.72 798.514L604.524 802.461L604.108 801.838ZM613.877 708.558L616.37 713.336L613.877 708.558ZM615.747 762.781L617.202 770.052L617.618 773.999L615.747 762.781ZM618.033 774.415V772.545L616.994 764.858L618.033 774.415ZM583.117 814.718L589.768 812.848L583.117 814.718ZM616.578 712.921L614.708 708.558L616.578 712.921ZM599.952 804.123L588.937 812.225L599.952 804.123ZM593.509 810.979L601.199 805.162L593.509 810.979Z" stroke="#737373" stroke-width="3.645" stroke-linecap="round" stroke-linejoin="round"/>
<path d="M693.684 714.375L692.23 712.921L691.814 710.012L687.865 707.519L681.63 697.963L680.591 697.547L678.097 696.508M675.811 696.093L679.136 696.508L687.865 707.519L690.151 710.843L693.477 714.167L719.04 727.047L675.811 696.093Z" stroke="#737373" stroke-width="3.645" stroke-linecap="round" stroke-linejoin="round"/>
<path d="M277.81 674.487V666.385" stroke="#737373" stroke-width="3.645" stroke-linecap="round" stroke-linejoin="round"/>
<path d="M277.81 656.205V659.529M276.771 711.466L278.226 705.649V702.741V696.924L276.771 711.466ZM277.81 636.884V628.782V636.884Z" stroke="#737373" stroke-width="3.645" stroke-linecap="round" stroke-linejoin="round"/>
<path d="M281.551 817.211L280.512 794.151L279.057 774.414M278.641 751.77L279.057 754.055L279.473 760.288L279.057 771.298L278.641 751.77ZM279.681 771.506L280.72 767.143V764.65V761.326L280.304 750.316V743.044L280.72 728.709L280.304 722.893V720.399L278.849 718.945L277.394 717.076L278.434 713.336L276.979 711.466L278.018 705.649V696.508L277.602 682.173V678.849V676.98V668.254V666.384L278.018 656.205L279.681 771.506ZM277.81 674.487V676.357V679.265L278.226 693.6L278.641 705.026V705.442V708.766L279.681 711.051V714.375L279.265 716.244L278.849 718.738L279.265 723.516V728.294V734.111V738.889V749.069L277.81 674.487ZM282.175 833L281.967 828.637L281.551 819.081L282.175 833ZM277.81 666.384L278.226 658.282V656.413L278.641 652.465L277.81 666.384ZM278.641 774.414L278.226 786.879L280.72 804.746L281.759 818.25L281.343 829.261L281.551 833L278.641 774.414Z" stroke="#737373" stroke-width="3.645" stroke-linecap="round" stroke-linejoin="round"/>
<path d="M295.06 720.607L281.551 717.699M317.714 711.466L332.678 706.272L355.748 705.234L365.308 706.272H368.633L383.597 702.948L393.781 701.91L409.161 707.727L422.046 708.765L437.842 702.948L441.583 701.079L459.872 700.663L473.381 701.702L478.161 703.156L489.8 705.649L498.945 705.234L505.595 704.818L317.714 711.466ZM596.419 691.314L593.509 692.353L590.184 694.223L596.419 691.314ZM370.088 706.272L382.974 703.364L398.769 703.779L407.914 707.103L370.088 706.272ZM409.992 708.142L422.046 709.181L436.387 704.403L437.842 702.948L440.751 701.91L449.896 700.871L460.08 700.455L468.185 701.494H471.511L473.381 701.91L489.8 705.857H493.125L498.945 704.818L505.595 703.779L409.992 708.142ZM15.1087 709.596L19.4732 708.142H20.0967H24.0455H54.3892H69.7689L72.6785 708.558L75.5882 708.973L15.1087 709.596ZM8.45802 720.607L11.7834 711.882L8.45802 720.607ZM143.134 716.66L125.884 721.854L115.7 721.438L103.23 713.336L90.76 712.92L83.0702 712.505L143.134 716.66ZM365.308 706.272L357.618 704.818L324.988 706.688L317.298 710.635L365.308 706.272ZM296.931 720.192L299.84 720.607L309.401 715.829L311.895 714.375L296.931 720.192ZM144.589 718.114L158.098 716.244L209.017 715.206H224.397H227.307H233.542L144.589 718.114ZM525.34 709.596L529.704 712.089L548.825 711.674L552.774 711.258H549.448H547.162H539.057H529.912L527.002 709.804L525.34 709.596ZM524.3 708.558L517.65 705.649L512.454 704.195L507.674 703.779L524.3 708.558ZM8.45802 713.336L5.96402 715.829L2.22302 722.061L8.45802 734.942V713.336ZM294.021 719.153L281.551 716.244L294.021 719.153ZM142.095 719.153L131.911 722.061L120.896 723.516L103.022 713.959L94.2932 713.544L90.5522 713.128L84.7329 712.713L142.095 719.153ZM311.895 713.336L304.205 717.075L301.295 718.114L296.099 719.153L311.895 713.336ZM576.259 701.91L580.208 700.455L583.117 699.001L586.027 697.131L576.259 701.91ZM585.819 696.508L583.533 697.962L576.259 701.286L585.819 696.508ZM609.512 691.73L616.786 692.145L609.512 691.73ZM591.638 694.223L596.834 692.353L591.638 694.223ZM12.8225 710.012L21.9672 707.103L54.1814 708.142L12.8225 710.012ZM523.469 708.558L518.689 706.065L512.454 704.195L523.469 708.558ZM233.542 714.375H210.056L177.842 713.959L145.212 716.452L233.542 714.375ZM277.81 715.829L256.611 714.79L244.141 714.375H235.412L277.81 715.829ZM235.412 714.79L243.518 715.206L256.403 714.79L276.979 717.283L235.412 714.79Z" stroke="#737373" stroke-width="3.645" stroke-linecap="round" stroke-linejoin="round"/>
<path d="M95.9558 710.012L96.3715 677.395L95.9558 667.839M97.8263 754.678L97.4107 745.122L96.3715 730.164L95.9558 713.752L97.8263 754.678ZM96.995 713.752V727.671L96.5793 730.164L96.995 756.133V759.872V762.365L97.4107 776.284L96.995 713.752ZM100.112 833L98.8655 796.021L98.4498 779.193L100.112 833ZM277.81 659.529L277.394 666.177V668.047V672.409V676.772V678.642L278.434 696.924L277.81 659.529ZM278.226 702.741L277.81 679.265V676.357L277.394 672.617L278.226 702.741ZM97.8263 780.232L98.8655 813.887L99.6968 833L97.8263 780.232ZM96.995 710.012V681.758V676.564V667.423V710.012ZM277.187 668.254L277.602 666.384L278.018 658.282V656.413V653.089L277.602 637.299L277.187 668.254ZM96.995 665.346L96.5793 651.011V646.025L96.995 665.346ZM279.057 723.931L278.641 719.153L279.057 716.66L278.641 711.882V719.153L280.096 722.893L279.057 723.931ZM95.5402 648.103L95.9558 665.346L95.5402 648.103ZM277.187 628.782L277.602 648.934L278.018 652.673L277.602 655.997L277.187 628.782ZM278.641 708.973L278.226 705.649L278.641 708.973ZM97.8263 756.548L98.242 776.284L97.8263 756.548Z" stroke="#737373" stroke-width="3.645" stroke-linecap="round" stroke-linejoin="round"/>
</svg>
