<svg width="831" height="819" viewBox="0 0 831 819" fill="none" xmlns="http://www.w3.org/2000/svg">
<path d="M629.491 620.51H641.546M617.437 620.095H619.307H617.437ZM623.256 620.095H625.127H623.256ZM667.94 622.588L686.23 623.003L667.94 622.588ZM686.23 622.588L667.94 622.172L686.23 622.588ZM612.033 620.095H613.904H612.033ZM619.307 619.679H617.021H619.307ZM629.491 620.095H641.546H629.491Z" stroke="#404040" stroke-width="4.8601" stroke-linejoin="bevel"/>
<path d="M567.972 616.771H566.102M443.896 628.197L442.441 629.652L436.206 631.521L443.896 628.197ZM566.518 617.187H568.388H566.518ZM449.092 624.873L446.182 626.327L449.092 624.873ZM497.101 617.81H498.972H497.101ZM499.18 617.187H497.309H499.18ZM520.379 618.225H522.249H520.379Z" stroke="#404040" stroke-width="4.8601" stroke-linejoin="bevel"/>
<path d="M434.128 630.69L437.453 629.651" stroke="#404040" stroke-width="4.8601" stroke-linejoin="bevel"/>
<path d="M266.406 446.624L266.822 449.117M267.861 486.512V489.005V486.512ZM271.81 627.782V625.912V627.782Z" stroke="#404040" stroke-width="4.8601" stroke-linejoin="bevel"/>
<path d="M272.226 627.782V625.912M591.873 261.519L587.924 259.026L591.873 261.519ZM584.807 255.909L587.093 257.779L584.807 255.909ZM582.313 251.962L580.858 250.923L582.313 251.962ZM268.9 491.29L268.485 486.927L268.9 491.29ZM267.446 486.512V490.251V486.512ZM267.446 448.909V447.039V448.909ZM265.367 395.102V393.232V395.102ZM305.895 267.336H304.024H305.895ZM350.995 266.297H349.124H350.995ZM440.571 265.05H442.441H440.571ZM442.441 264.427H440.571H442.441ZM509.779 261.519H507.909H509.779ZM507.701 262.142H509.571H507.701ZM271.187 625.912V627.782V625.912Z" stroke="#404040" stroke-width="4.8601" stroke-linejoin="bevel"/>
<path d="M444.727 398.01L440.778 396.556M254.975 346.073L256.846 345.034L254.975 346.073ZM264.536 342.333L263.081 341.294L261.21 341.71L264.536 342.333ZM261.21 344.203H265.159H261.21ZM307.765 348.566L311.09 349.605L307.765 348.566ZM312.13 348.981L307.765 347.942L312.13 348.981ZM440.986 397.179L445.766 399.049L440.986 397.179Z" stroke="#404040" stroke-width="4.8601" stroke-linejoin="bevel"/>
<path d="M594.783 627.782V625.289M594.783 623.004V621.134V623.004ZM594.783 532.632L594.367 524.946V523.491L592.912 519.544L594.783 532.632ZM593.328 581.661L592.912 579.168L593.328 577.299V581.661ZM594.367 621.549V624.873V627.782V621.549ZM592.497 577.299V581.661V577.299ZM643.832 211.659L638.636 216.437L643.832 211.659ZM640.091 216.437L644.455 212.697L640.091 216.437ZM651.937 198.155L653.808 196.7L651.937 198.155ZM706.805 80.9837L707.844 78.4907L706.805 80.9837ZM706.805 79.5295V81.3993V79.5295ZM706.805 46.2895V44.4197V46.2895ZM705.974 44.4197V46.705V44.4197ZM584.807 362.07V358.122V362.07ZM583.768 358.122L584.183 359.992V361.862L583.768 358.122ZM584.807 350.436L584.391 348.566L584.807 350.436ZM583.352 304.731V302.861V304.731ZM594.367 609.5V611.37V609.5ZM591.873 520.167L593.328 522.453L593.744 525.361V533.463L591.873 520.167Z" stroke="#404040" stroke-width="4.8601" stroke-linejoin="bevel"/>
<path d="M187.014 168.862V166.992M185.144 166.992V168.862V166.992ZM186.598 192.338V195.246V192.338ZM187.638 194.831L188.053 191.091L187.638 194.831Z" stroke="#404040" stroke-width="4.8601" stroke-linejoin="bevel"/>
<path d="M591.873 520.167L593.328 522.453L593.744 525.361V533.463M262.042 348.566L262.457 354.383L262.042 348.566ZM594.367 533.048V524.946V523.491L592.912 519.544L594.367 533.048ZM298.62 125.027H300.491L298.62 123.988V125.027ZM392.353 122.118H389.444H392.353ZM389.444 122.742H392.353H389.444ZM435.167 121.287H437.037H435.167ZM548.644 215.398L546.773 212.905L548.644 215.398ZM545.734 213.113L548.228 216.021L545.734 213.113ZM481.929 118.794H479.02H481.929ZM479.02 119.833H481.929H479.02ZM529.939 170.732V168.862V170.732ZM528.9 154.943V156.813V154.943ZM527.029 116.925L528.9 115.47L527.029 116.925ZM542.409 49.6135L543.864 47.7438L542.409 49.6135ZM543.448 47.7438L541.993 49.6135L543.448 47.7438ZM580.858 250.923L582.313 252.378L580.858 250.923ZM186.183 166.992V169.278V166.992ZM187.014 192.338L187.43 194.623V191.715L187.014 192.338ZM240.427 144.348L237.933 145.802L240.427 144.348ZM239.596 145.802L241.466 144.348L239.596 145.802ZM186.598 169.693V166.785V169.693ZM592.497 577.299V581.661V577.299ZM593.328 581.661L592.912 579.168V577.299L593.328 581.661ZM268.277 490.875V486.927V490.875ZM267.445 448.909V447.039V448.909ZM84.76 366.432L85.1756 364.563L84.76 366.432ZM91.8263 341.295L90.7871 344.619L91.8263 341.295ZM120.299 258.61L121.339 257.156L120.299 258.61ZM639.467 216.437L644.247 212.697L639.467 216.437ZM643.832 212.074L639.052 216.437L643.832 212.074ZM574.207 1.20775L573.792 3.70075L574.207 1.20775ZM574.207 3.493L574.623 1L574.207 3.493ZM706.805 80.9838L707.221 79.5295L706.805 80.9838ZM706.389 46.2895V44.4198V46.2895ZM584.807 362.07V358.122V362.07ZM584.183 358.122V359.992V361.862V358.122ZM584.183 350.436V348.566V350.436ZM582.729 302.861L582.313 304.315L582.729 302.861ZM583.352 304.731V302.861V304.731ZM271.186 625.912V627.782V625.912ZM83.3051 395.102V393.232V395.102ZM82.6816 394.271V396.141V394.271ZM83.7208 415.877V417.747V415.877ZM84.1365 417.747V415.877V417.747ZM267.861 489.005V490.875V489.005ZM91.4106 345.242L91.8263 342.749L91.4106 345.242Z" stroke="#404040" stroke-width="4.8601" stroke-linejoin="bevel"/>
<path d="M784.327 177.38L782.457 177.795M830.466 177.38L807.812 173.017L830.466 177.38ZM823.192 176.964L818.827 175.926L808.643 172.602L823.192 176.964Z" stroke="#404040" stroke-width="4.8601" stroke-linejoin="bevel"/>
<path d="M783.703 619.056L785.574 618.017M786.197 617.81L783.288 618.848L786.197 617.81ZM759.802 623.003H749.619H759.802ZM749.619 623.419H759.802H749.619Z" stroke="#404040" stroke-width="4.8601" stroke-linejoin="bevel"/>
<path d="M673.136 695.508L669.811 695.093M672.305 695.508L669.811 695.093L669.395 694.677L672.305 695.508Z" stroke="#404040" stroke-width="4.8601" stroke-linejoin="bevel"/>
<path d="M651.937 695.924L669.811 694.885M672.305 695.508L669.811 695.093L669.395 694.677L652.561 695.716L672.305 695.508Z" stroke="#404040" stroke-width="4.8601" stroke-linejoin="bevel"/>
<path d="M634.687 744.122L632.817 744.537L629.491 743.083H625.127" stroke="#404040" stroke-width="4.8601" stroke-linejoin="bevel"/>
<path d="M595.199 804.161L598.524 801.253M583.768 811.848L586.262 810.809L587.717 809.771L583.768 811.848ZM598.108 800.837L593.744 803.331L598.108 800.837ZM610.163 712.336L611.618 732.072L612.657 734.981L614.112 736.435L612.657 739.759L614.112 740.798L613.696 744.745L609.747 757.626V761.988L611.202 763.858L610.163 712.336ZM609.747 791.696L610.163 790.242L611.618 787.749L609.747 791.696ZM614.112 736.435L613.696 733.942L612.241 730.202V728.125L611.825 714.621L610.786 711.713L614.112 736.435ZM604.967 701.741L606.006 704.234L607.877 707.558L604.967 701.741ZM608.708 707.558L606.422 701.741L608.708 707.558ZM609.747 761.781L610.163 758.872L609.747 757.418L614.527 744.537L609.747 761.781ZM611.618 772.999V777.362L612.033 773.414L611.618 772.999Z" stroke="#404040" stroke-width="4.8601" stroke-linejoin="bevel"/>
<path d="M650.067 696.547L651.937 696.132M652.561 695.508H650.69H652.561ZM610.578 691.769L614.527 693.223L628.452 700.494L630.322 700.91L633.648 701.325L637.597 700.91L641.545 699.871L610.578 691.769ZM637.597 700.91L632.816 699.871H630.322L625.127 698.001L622.633 696.547L621.178 695.508L611.617 691.146L604.967 689.276L637.597 700.91Z" stroke="#404040" stroke-width="4.8601" stroke-linejoin="bevel"/>
<path d="M273.057 748.484L272.641 750.977M275.551 818.081V816.211V818.081ZM273.057 770.506L272.641 773.414L273.057 770.506ZM273.057 773.414L273.473 770.506L273.057 773.414Z" stroke="#404040" stroke-width="4.8601" stroke-linejoin="bevel"/>
<path d="M271.187 716.283L275.551 716.699M401.914 706.103L403.784 707.142L401.914 706.103ZM499.595 703.195L501.466 702.779H499.595V703.195ZM517.469 707.558L519.34 708.596L517.469 707.558ZM520.794 708.596L518.3 707.558L520.794 708.596ZM6.82251 709.012L3.49717 710.466L2.45801 712.336L6.82251 709.012ZM78.9407 711.505L74.5762 710.051L69.3803 708.181L71.8743 709.635L75.6153 710.674L77.0702 711.713L78.9407 711.505ZM610.578 691.146L614.527 693.015L624.711 697.793L627.621 699.248L633.856 701.117L610.578 691.146ZM546.774 710.051L551.969 709.012L570.259 700.91L546.774 710.051ZM570.259 700.286L551.969 709.012L570.259 700.286ZM290.099 718.153H288.229H290.099ZM305.895 713.375L311.714 710.466L305.895 713.375ZM311.091 709.427L305.895 712.336L311.091 709.427ZM584.184 693.223L581.274 694.677L579.819 695.716L584.184 693.223ZM579.819 695.924L585.638 693.015L579.819 695.924ZM591.042 691.146H595.822L603.512 690.73L591.042 691.146ZM5.78334 710.882L9.10868 708.389L5.78334 710.882ZM136.095 718.153L138.589 717.114L136.095 718.153ZM139.005 715.244L137.134 715.66L139.005 715.244ZM227.542 714.413L229.412 713.998L227.542 714.413ZM229.412 713.375H227.542H229.412ZM362.633 705.272H364.088H362.633ZM289.06 719.607L290.931 719.192L289.06 719.607ZM275.551 715.244L271.81 714.829L275.551 715.244Z" stroke="#404040" stroke-width="4.8601" stroke-linejoin="bevel"/>
<path d="M90.995 712.751V708.804M90.995 666.215V664.346V666.215ZM270.771 710.466L272.641 710.882V707.973L270.771 710.466ZM89.9558 664.346V666.631V664.346ZM612.657 734.981L614.112 736.435L614.527 739.343L616.398 740.798L622.633 743.706L612.657 734.981ZM91.4106 775.284L91.8263 779.232L91.4106 775.284ZM92.4498 778.193V775.284V778.193ZM91.8263 755.548V753.678V755.548ZM89.9558 709.012V712.959V709.012Z" stroke="#404040" stroke-width="4.8601" stroke-linejoin="bevel"/>
</svg>
