<svg width="626" height="597" viewBox="0 0 626 597" fill="none" xmlns="http://www.w3.org/2000/svg">
<path d="M578.403 463.186H576.533L578.403 463.602M263.12 208.9V205.992L262.081 204.538L261.042 203.083L243.792 195.397L263.12 208.9ZM579.443 122.476L579.027 119.568L579.443 122.476ZM576.533 102.325V100.455V102.325ZM576.949 108.557L575.078 109.596L576.949 111.05L577.364 109.18L576.949 108.557ZM576.117 100.87V103.363V100.87ZM575.494 93.1837L575.078 90.2752L575.494 93.1837ZM600.434 463.81L596.485 465.679L600.434 463.81ZM431.673 478.975L427.932 484.169L427.516 486.039L431.673 478.975ZM183.728 39.3765L184.144 43.116L183.728 39.3765ZM183.728 12.9922V14.862V12.9922ZM184.144 0.319504L183.104 6.13649L184.144 0.319504ZM188.508 49.9717V47.4787V49.9717ZM185.183 38.7532L185.598 41.2462L185.183 38.7532ZM185.598 15.693V12.7845V15.693ZM427.932 486.247V484.377L429.803 481.468L430.842 478.975L427.932 486.247ZM591.913 470.873L591.497 473.782L592.536 471.912L591.913 470.873ZM594.822 473.782V471.289V473.782ZM586.093 463.186L588.587 462.148L586.093 463.186ZM254.391 196.435L254.807 193.527L254.391 196.435ZM430.842 513.254L428.348 500.374L430.842 513.254Z" stroke="#404040" stroke-width="2.43" stroke-linejoin="bevel"/>
<path d="M624.127 589.083L621.633 589.498L619.347 586.174M613.527 588.667L612.488 590.537L613.527 588.667Z" stroke="#404040" stroke-width="2.43" stroke-linejoin="bevel"/>
<path d="M279.331 566.646L281.202 566.231M594.199 532.991L589.418 536.315L594.199 532.991ZM90.4107 558.752V554.389V558.752ZM590.042 537.146L599.187 541.508L600.641 544.832L601.681 545.248L590.042 537.146ZM594.822 537.146L597.732 535.691L599.187 531.952L594.822 537.146ZM269.355 565.192L270.81 568.1L269.355 565.192ZM275.59 559.375L273.096 558.959L270.81 558.544L275.59 559.375ZM269.771 550.234L267.9 556.051L264.991 557.505L269.771 550.234ZM288.06 563.738L285.566 562.699L288.06 563.738ZM310.714 555.012L304.895 557.505L310.714 555.012ZM304.895 560.414L310.09 557.505L304.895 560.414ZM602.928 547.325V549.195L604.798 550.234L602.928 547.325ZM610.617 560.829L609.578 556.051L606.253 549.818L605.837 547.949L610.617 560.829ZM624.127 589.083L621.633 589.499L619.346 586.175L615.398 586.59L613.527 585.136L612.488 579.942L610.617 578.072L611.033 576.203V574.125L624.127 589.083ZM610.617 537.146L602.512 534.237L610.617 537.146ZM604.382 539.639L605.422 538.184L604.382 539.639ZM582.768 539.223L580.482 540.677L582.768 539.223ZM1.45801 558.752L2.49717 556.259L6.44601 554.804L1.45801 558.752ZM91.4498 574.125L89.5793 575.164L88.1245 577.657L91.4498 574.125ZM112.441 566.646L108.077 568.1L112.441 566.646ZM87.9167 555.428L88.3323 558.752L87.9167 555.428ZM251.481 557.505H249.611H251.481ZM226.541 562.283L229.451 561.868L226.541 562.283ZM228.828 557.921H226.334H228.828ZM271.641 594.9V596.77V594.9ZM274.551 574.125L275.59 569.762L274.551 574.125ZM274.135 574.125V572.255V574.125ZM271.641 564.153L274.967 564.569L271.641 564.153Z" stroke="#404040" stroke-width="2.43" stroke-linejoin="bevel"/>
</svg>
