<svg width="626" height="599" viewBox="0 0 626 599" fill="none" xmlns="http://www.w3.org/2000/svg">
<path d="M578.403 464.186H576.533L578.403 464.602M263.12 209.9V206.992L262.081 205.538L261.042 204.083L243.792 196.397L263.12 209.9ZM579.443 123.476L579.027 120.568L579.443 123.476ZM576.533 103.325V101.455V103.325ZM576.949 109.557L575.078 110.596L576.949 112.05L577.364 110.18L576.949 109.557ZM576.117 101.87V104.363V101.87ZM575.494 94.1837L575.078 91.2752L575.494 94.1837ZM600.434 464.81L596.485 466.679L600.434 464.81ZM431.673 479.975L427.932 485.169L427.516 487.039L431.673 479.975ZM183.728 40.3765L184.144 44.116L183.728 40.3765ZM183.728 13.9922V15.862V13.9922ZM184.144 1.3195L183.104 7.13649L184.144 1.3195ZM188.508 50.9717V48.4787V50.9717ZM185.183 39.7532L185.598 42.2462L185.183 39.7532ZM185.598 16.693V13.7845V16.693ZM427.932 487.247V485.377L429.803 482.468L430.842 479.975L427.932 487.247ZM591.913 471.873L591.497 474.782L592.536 472.912L591.913 471.873ZM594.822 474.782V472.289V474.782ZM586.093 464.186L588.587 463.148L586.093 464.186ZM254.391 197.435L254.807 194.527L254.391 197.435ZM430.842 514.254L428.348 501.374L430.842 514.254Z" stroke="#737373" stroke-width="1.8225" stroke-linecap="round" stroke-linejoin="round"/>
<path d="M624.127 590.083L621.633 590.498L619.347 587.174M613.527 589.667L612.488 591.537L613.527 589.667Z" stroke="#737373" stroke-width="1.8225" stroke-linecap="round" stroke-linejoin="round"/>
<path d="M279.331 567.646L281.202 567.231M594.199 533.991L589.418 537.315L594.199 533.991ZM90.4107 559.752V555.389V559.752ZM590.042 538.146L599.187 542.508L600.641 545.832L601.681 546.248L590.042 538.146ZM594.822 538.146L597.732 536.691L599.187 532.952L594.822 538.146ZM269.355 566.192L270.81 569.1L269.355 566.192ZM275.59 560.375L273.096 559.959L270.81 559.544L275.59 560.375ZM269.771 551.234L267.9 557.051L264.991 558.505L269.771 551.234ZM288.06 564.738L285.566 563.699L288.06 564.738ZM310.714 556.012L304.895 558.505L310.714 556.012ZM304.895 561.414L310.09 558.505L304.895 561.414ZM602.928 548.325V550.195L604.798 551.234L602.928 548.325ZM610.617 561.829L609.578 557.051L606.253 550.818L605.837 548.949L610.617 561.829ZM624.127 590.083L621.633 590.499L619.346 587.175L615.398 587.59L613.527 586.136L612.488 580.942L610.617 579.072L611.033 577.203V575.125L624.127 590.083ZM610.617 538.146L602.512 535.237L610.617 538.146ZM604.382 540.639L605.422 539.184L604.382 540.639ZM582.768 540.223L580.482 541.677L582.768 540.223ZM1.45801 559.752L2.49717 557.259L6.44601 555.804L1.45801 559.752ZM91.4498 575.125L89.5793 576.164L88.1245 578.657L91.4498 575.125ZM112.441 567.646L108.077 569.1L112.441 567.646ZM87.9167 556.428L88.3323 559.752L87.9167 556.428ZM251.481 558.505H249.611H251.481ZM226.541 563.283L229.451 562.868L226.541 563.283ZM228.828 558.921H226.334H228.828ZM271.641 595.9V597.77V595.9ZM274.551 575.125L275.59 570.762L274.551 575.125ZM274.135 575.125V573.255V575.125ZM271.641 565.153L274.967 565.569L271.641 565.153Z" stroke="#737373" stroke-width="1.8225" stroke-linecap="round" stroke-linejoin="round"/>
</svg>
