<svg width="270" height="666" viewBox="0 0 270 666" fill="none" xmlns="http://www.w3.org/2000/svg">
<path d="M0.986328 548.782L3.89602 549.197L8.2605 546.704" stroke="#404040" stroke-width="4.8601" stroke-linejoin="bevel"/>
<path d="M267.221 0.529495V2.39925M162.473 163.821L161.434 165.275L156.654 169.638L154.783 171.092L147.093 178.779L145.223 180.649L140.858 188.335L139.819 194.568V196.438V198.723L141.69 208.903L162.473 163.821ZM141.274 205.163L140.235 197.477L139.819 196.438L141.274 205.163ZM163.096 164.237L161.642 165.275L160.187 166.314L156.861 169.638L163.096 164.237ZM154.783 171.092L151.873 174.416L145.223 180.649L140.443 191.244L140.027 194.568L154.783 171.092Z" stroke="#404040" stroke-width="4.8601" stroke-linejoin="bevel"/>
<path d="M174.527 665.537V663.667V660.343L174.112 657.435M163.512 617.547L163.096 615.677L160.603 612.353L159.563 609.029L157.069 602.381L163.512 617.547Z" stroke="#404040" stroke-width="4.8601" stroke-linejoin="bevel"/>
</svg>
