<svg width="713" height="696" viewBox="0 0 713 696" fill="none" xmlns="http://www.w3.org/2000/svg">
<path d="M584.858 183.923L586.313 180.599V183.923M581.533 189.325L586.313 186.416L588.807 188.909L581.533 189.325Z" stroke="#737373" stroke-width="1.8225" stroke-linecap="round" stroke-linejoin="round"/>
<path d="M189.143 130.116L188.728 142.581L184.363 144.451L181.454 138.634L189.143 130.116ZM189.143 130.116L191.637 127.623L196.002 122.429L197.041 121.39L199.535 119.521L189.143 130.116ZM583.403 550.186H585.274M249.831 283.02L257.936 281.15L266.042 281.566L274.147 278.657L272.277 270.97L270.822 269.101L266.873 261.414L266.457 247.079L265.418 236.484L265.003 231.706L249.831 283.02ZM266.665 275.333L265.21 277.203L266.25 281.566L264.795 286.344L261.469 286.759L259.599 283.435L266.665 275.333ZM259.807 280.527L261.262 278.657L265.003 277.203L259.807 280.527ZM239.647 284.059H244.011L252.117 285.097L264.587 292.369L266.873 299.017L239.647 284.059ZM268.536 309.82L268.12 295.9L268.536 309.82ZM266.042 261.414L263.548 272.009L249.623 280.735L266.042 261.414ZM267.497 281.981L274.147 278.657L267.497 281.981ZM274.355 277.618L268.536 275.749L274.355 277.618ZM248.792 282.604H242.141L240.27 283.02H237.361L248.792 282.604ZM267.081 274.294V261.414V274.294ZM276.641 594.022V584.257V594.022ZM581.533 187.455L581.117 185.585L580.702 180.391L581.533 187.455ZM581.117 187.87L578.623 178.314L577.584 176.86L570.933 169.173L581.117 187.87ZM532.9 67.791L533.315 60.1042L532.9 67.791ZM522.924 49.509L519.598 49.9245L522.924 49.509ZM275.186 548.317L274.771 550.81L275.186 548.317ZM89.5913 385.856L90.007 374.222L97.2811 371.314L89.5913 385.856ZM583.819 206.568L582.78 200.335L581.741 198.05L583.819 206.568ZM582.988 200.335V206.568L584.027 214.255L582.988 200.335ZM586.313 213.216L586.729 205.529L594.834 197.842L602.108 192.025L596.289 193.064L591.925 192.025L589.015 198.673L586.313 213.216ZM586.729 220.487L584.235 209.476L586.729 220.487ZM604.187 178.314L598.991 183.092L596.081 186.416L591.301 190.779L604.187 178.314ZM582.364 195.973L581.325 189.325L582.364 195.973ZM581.117 190.156L582.156 195.349L580.286 192.441H572.596L581.117 190.156ZM578.623 178.314L580.078 187.039L576.753 191.818L578.623 178.314ZM190.598 120.144L191.014 116.404L190.598 102.693L192.053 116.197L193.924 118.066L198.288 118.482L201.613 115.158L212.629 104.978L218.448 99.7845L224.683 95.0062L190.598 120.144ZM188.728 101.862V115.366V119.728L190.183 125.961L188.728 101.862ZM189.143 117.235L188.728 119.728V126.376L189.143 117.235ZM283.5 281.15L272.485 270.97L283.5 281.15ZM593.587 549.148L595.458 548.109L596.912 546.655L597.952 544.785L599.407 541.876L598.991 534.19L598.575 530.866L593.587 549.148ZM597.328 558.912L601.693 552.679L610.837 553.095H614.163H616.033L597.328 558.912ZM588.807 547.901L580.702 549.355L575.506 549.771H572.18L588.807 547.901ZM596.912 533.982V539.176V543.954V546.862V533.982ZM572.388 550.186H574.882H581.533H572.388ZM596.497 560.782L597.952 565.56V568.884L598.991 571.792L596.497 560.782ZM190.183 102.277V105.186L190.598 117.235L190.183 102.277ZM595.458 548.317L585.274 548.732L580.494 549.148L595.458 548.317ZM174.803 141.75L185.818 133.024L174.803 141.75ZM159.839 155.669L176.673 139.88L184.779 132.193L186.234 130.739L159.839 155.669ZM188.728 115.366L188.312 124.507L182.493 133.648L188.728 115.366ZM188.728 71.5305L189.143 83.58V87.3195L188.728 71.5305ZM188.312 78.1785V93.1365L188.728 99.7845L188.312 78.1785ZM596.497 514.661L596.912 517.985L597.328 523.802L597.744 529.619L596.497 514.661ZM193.924 118.274L192.469 111.626L191.43 104.355L191.014 101.862L193.924 118.274ZM191.637 134.894L193.092 148.398L193.508 136.764L191.637 134.894ZM192.469 146.528V172.497V146.528ZM435.842 565.975L438.336 563.482L435.842 565.975ZM440.206 564.729L436.881 566.183L440.206 564.729ZM190.598 99.9922L190.183 95.214L190.598 99.9922ZM433.348 587.166L433.763 584.257L432.724 576.571V576.155V573.247L433.348 587.166ZM610.837 553.095H605.018L599.822 558.289V554.549L610.837 553.095ZM583.403 550.81H586.729L591.093 550.394L583.403 550.81ZM196.002 22.917L205.147 11.4907L208.056 8.99774L196.002 22.917ZM208.472 5.25824L200.782 15.8535L208.472 5.25824ZM614.578 552.679L610.837 551.641L607.512 550.602L601.277 548.109L599.407 541.876L614.578 552.679ZM586.729 550.81L589.223 551.225L594.003 552.679L596.912 558.081L586.729 550.81ZM271.445 408.501V410.371V412.24V408.501ZM258.352 283.435L264.587 292.161L258.352 283.435ZM193.924 212.8L194.963 223.396L193.924 212.8ZM195.378 226.72L195.794 217.579L195.378 226.72ZM201.613 115.366L197.249 116.404L192.469 111.626L201.613 115.366ZM176.673 139.88L159.839 154.215L158.384 155.669L176.673 139.88ZM639.726 152.761L638.271 153.799L639.726 152.761ZM677.136 109.964L675.681 111.418L670.485 116.612L677.136 109.964ZM663.211 123.883L669.862 118.066L663.211 123.883ZM711.844 11.4907L711.429 9.621L711.844 11.4907ZM710.805 1.311V7.95899V1.311ZM596.912 539.176L594.003 546.447L585.274 548.94L596.912 539.176ZM597.328 529.619V523.802V519.024V529.619ZM607.512 550.81H605.642H607.512ZM587.352 244.171V240.847V244.171ZM586.729 244.171V247.079V244.171ZM215.538 104.147L193.092 128.246V130.116L193.508 134.479L215.538 104.147ZM580.078 177.275L570.933 168.134L580.078 177.275ZM275.81 583.426L274.355 596.93L275.81 583.426ZM275.81 544.369L275.394 542.5V539.176L275.81 544.369ZM507.544 51.7942H511.285L520.43 51.3787H521.469L530.198 48.0547L532.068 55.326L532.484 66.7522L507.544 51.7942ZM581.117 185.377L584.027 183.923L582.988 186.832L581.117 185.377ZM432.932 576.155L432.516 573.247L432.932 576.155ZM433.971 588.62V584.257V588.62ZM271.861 402.268L271.445 398.321L271.861 402.268ZM599.199 565.56L599.614 560.782L599.199 565.56Z" stroke="#737373" stroke-width="1.8225" stroke-linecap="round" stroke-linejoin="round"/>
<path d="M269.991 645.336H263.34M608.343 631.001L607.304 629.547L606.265 628.508L608.343 631.001ZM599.822 612.304V615.212L599.407 619.991L599.822 612.304ZM601.693 620.406L602.732 622.899L604.602 624.353L612.708 624.769L610.422 625.184L601.693 620.406ZM607.512 621.445L604.187 619.159L603.771 617.705L602.732 615.42L601.693 613.55V613.135L601.277 611.681L600.861 610.642L607.512 621.445ZM594.419 623.314L591.509 624.353L587.56 626.223L594.419 623.314ZM92.9167 664.657L91.8775 671.928L94.3715 688.34L94.7872 692.08V694.573L92.9167 664.657ZM95.4107 645.752V651.984L94.995 659.671L95.4107 645.752ZM11.2382 642.012L17.4732 640.142H18.0967H22.0455L11.2382 642.012ZM600.654 602.54L600.238 596.723L600.654 602.54ZM95.4107 641.597V627.677V625.808L94.995 613.758V608.564L95.4107 641.597ZM93.5402 645.752V650.114L93.9559 655.308L94.3715 661.956L93.5402 645.752ZM278.096 675.252L279.135 665.696V661.125L278.096 675.252ZM286.41 653.023H288.28H294.099L298.048 652.607L300.542 651.568H300.958L302.413 651.153L307.816 647.829L310.31 646.375L286.41 653.023ZM276.226 645.336V647.206L275.81 654.893L276.849 660.709L277.265 666.527V671.305L276.226 645.336ZM279.135 665.488L279.551 661.125L279.135 665.488ZM231.542 644.921H228.216H223.02L219.279 645.336L208.264 646.375L231.542 644.921ZM241.518 647.414L248.792 647.829L254.611 646.79L261.885 647.829L271.03 649.283L274.355 652.192L275.81 655.1V656.97L276.226 660.917L276.641 671.928V677.745V679.615V682.108L241.518 647.414ZM275.81 645.336L269.991 644.297L268.12 643.882L266.25 644.297H264.379H256.689L254.403 645.336H252.533L242.349 646.375L275.81 645.336ZM278.096 682.316L279.135 676.498L279.551 669.851L280.59 660.709L281.629 656.762L282.045 655.723L282.461 655.308L283.5 654.893H285.994L292.229 653.854L295.139 653.438L302.413 651.153L306.777 649.283L310.103 647.414L278.096 682.316ZM95.4107 677.122L98.736 665.696L115.986 658.009L129.911 654.062L95.4107 677.122ZM94.3715 609.395L93.3324 621.445V624.769V635.364L92.9167 642.428L94.3715 609.395ZM93.9559 655.516L90.6305 667.981L93.1245 680.446L93.9559 655.516ZM275.81 637.649L274.771 643.466L269.991 644.505L263.34 645.544H254.195L254.611 646.998L275.81 637.649ZM322.78 638.688L315.506 642.012L322.78 638.688ZM275.81 628.508L275.394 633.702L274.979 637.026L275.81 628.508ZM309.895 644.505L299.295 650.322L293.06 650.738L309.895 644.505ZM302.205 649.283L299.295 650.322L290.566 649.907L283.916 648.452L302.205 649.283ZM606.473 631.832L607.928 634.325L606.473 632.456V631.832ZM610.837 634.741L609.383 626.639L610.837 634.741ZM1.67787 656.97L1.26221 654.893L6.45804 645.752L1.67787 656.97ZM92.501 645.336L83.772 648.244L80.4467 656.347L83.3564 659.671L87.7209 659.255L93.5402 650.114L92.501 645.336ZM175.634 645.752H169.399L141.965 648.244L134.691 649.699L127.417 651.153L117.233 653.438L175.634 645.752ZM113.284 654.893L107.465 656.347L100.814 657.386L95.6185 652.192L113.284 654.893ZM107.465 656.347L96.4499 661.125L107.465 656.347ZM276.641 683.77L277.057 686.055L276.641 683.77ZM280.59 646.375L290.774 649.699L278.304 645.752L277.888 643.259L276.849 637.026L276.434 625.6L280.59 646.375ZM315.091 644.505L330.47 638.273L315.091 644.505ZM254.611 644.505L245.882 644.921H241.933H236.737H233.828L254.611 644.505ZM234.451 648.66L252.741 648.244L255.235 648.66H263.34L271.03 649.076L276.849 650.945L234.451 648.66ZM222.397 647.414H225.307L231.542 649.283L222.397 647.414ZM280.59 660.709L279.135 655.516L277.265 648.868L277.681 646.998L280.59 660.709ZM279.967 651.568L284.331 653.438L292.021 653.854L279.967 651.568ZM280.59 656.97L284.331 653.646L280.59 656.97ZM279.135 659.255V655.308V659.255ZM275.187 633.91V637.234V633.91ZM263.132 648.66L274.147 651.984L263.132 648.66Z" stroke="#737373" stroke-width="1.8225" stroke-linecap="round" stroke-linejoin="round"/>
</svg>
