<svg width="315" height="731" viewBox="0 0 315 731" fill="none" xmlns="http://www.w3.org/2000/svg">
<path d="M0.206177 13.016L0.621837 18.833L33.2517 17.3787L42.812 12.6005V0.551003L15.378 1.58975L15.7937 12.185L0.206177 13.016ZM251.684 706.486L276.624 731H301.357L304.682 726.637V715.627H302.188L300.317 703.577L308.423 701.707L314.242 692.982L313.203 690.073L308.007 698.176L299.278 702.954V710.64L296.992 712.095L300.317 716.873L293.043 712.926L289.094 719.574L289.51 724.767L277.04 718.95L268.311 717.912L251.684 706.486ZM286.808 695.059L291.173 703.161L296.369 702.123L295.329 696.929L286.808 695.059Z" fill="#E6E6E6"/>
</svg>
