<svg width="31" height="28" viewBox="0 0 31 28" fill="none" xmlns="http://www.w3.org/2000/svg">
<path d="M27.9 14V23.3333C27.9 23.7459 27.7367 24.1416 27.446 24.4333C27.1553 24.725 26.7611 24.8889 26.35 24.8889C25.9389 24.8889 25.5447 24.725 25.254 24.4333C24.9633 24.1416 24.8 23.7459 24.8 23.3333V1.55556C24.8 1.143 24.6367 0.747335 24.346 0.455612C24.0553 0.163888 23.6611 0 23.25 0H1.55C1.13891 0 0.744666 0.163888 0.453984 0.455612C0.163303 0.747335 0 1.143 0 1.55556V23.3333C0 25.9062 2.0863 28 4.65 28H26.35C28.9137 28 31 25.9062 31 23.3333V14H27.9ZM18.6 12.4444V15.5556H6.2V12.4444H18.6ZM6.2 9.33333V6.22222H18.6V9.33333H6.2ZM18.6 18.6667V21.7778H13.95V18.6667H18.6Z" fill="white"/>
</svg>
