<svg width="24" height="24" viewBox="0 0 24 24" fill="none" xmlns="http://www.w3.org/2000/svg">
<path d="M7.518 5H6.009C6.07197 4.18381 6.44063 3.42145 7.04129 2.86528C7.64196 2.30911 8.43039 2.00009 9.249 2H17.25C17.8738 2 18.4915 2.12286 19.0677 2.36157C19.644 2.60028 20.1677 2.95016 20.6088 3.39124C21.0498 3.83232 21.3997 4.35596 21.6384 4.93225C21.8771 5.50855 22 6.12622 22 6.75V14.75C21.9999 15.5686 21.6909 16.357 21.1347 16.9577C20.5785 17.5584 19.8162 17.927 19 17.99V16.482C19.4165 16.4219 19.7974 16.2137 20.0729 15.8956C20.3483 15.5775 20.5 15.1708 20.5 14.75V6.75C20.5 5.88805 20.1576 5.0614 19.5481 4.4519C18.9386 3.84241 18.112 3.5 17.25 3.5H9.25C8.82919 3.50001 8.42248 3.65165 8.10439 3.92714C7.78629 4.20263 7.57812 4.58351 7.518 5V5ZM5.25 6C4.38805 6 3.5614 6.34241 2.9519 6.9519C2.34241 7.5614 2 8.38805 2 9.25V18.75C2 19.1768 2.08406 19.5994 2.24739 19.9937C2.41072 20.388 2.65011 20.7463 2.9519 21.0481C3.25369 21.3499 3.61197 21.5893 4.00628 21.7526C4.40059 21.9159 4.8232 22 5.25 22H14.75C15.1768 22 15.5994 21.9159 15.9937 21.7526C16.388 21.5893 16.7463 21.3499 17.0481 21.0481C17.3499 20.7463 17.5893 20.388 17.7526 19.9937C17.9159 19.5994 18 19.1768 18 18.75V9.25C18 8.38805 17.6576 7.5614 17.0481 6.9519C16.4386 6.34241 15.612 6 14.75 6H5.25Z" fill="black"/>
</svg>
