<svg width="21" height="21" viewBox="0 0 21 21" fill="none" xmlns="http://www.w3.org/2000/svg">
<path d="M19.996 0H11.9644C11.4129 0 10.6406 0.319926 10.251 0.709459L0.293173 10.6673C0.10541 10.856 0 11.1113 0 11.3774C0 11.6436 0.10541 11.8989 0.293173 12.0876L8.91243 20.7068C9.10107 20.8946 9.3564 21 9.62256 21C9.88872 21 10.144 20.8946 10.3327 20.7068L20.2905 10.749C20.6814 10.3581 21 9.58706 21 9.03556V1.00395C20.9989 0.738012 20.8928 0.483267 20.7048 0.295219C20.5167 0.10717 20.262 0.00105742 19.996 0V0ZM14.9763 8.03161C14.7125 8.03152 14.4514 7.97948 14.2077 7.87846C13.964 7.77744 13.7427 7.62941 13.5562 7.44284C13.3698 7.25626 13.2219 7.03479 13.121 6.79107C13.0202 6.54734 12.9683 6.28614 12.9684 6.02237C12.9685 5.7586 13.0205 5.49743 13.1215 5.25377C13.2226 5.01011 13.3706 4.78874 13.5572 4.60229C13.7437 4.41584 13.9652 4.26796 14.2089 4.1671C14.4527 4.06624 14.7139 4.01438 14.9776 4.01447C15.5103 4.01464 16.0212 4.22643 16.3977 4.60324C16.7743 4.98004 16.9857 5.491 16.9855 6.02371C16.9854 6.55641 16.7736 7.06723 16.3968 7.44379C16.02 7.82034 15.509 8.03179 14.9763 8.03161V8.03161Z" fill="black"/>
</svg>
