<svg width="777" height="833" viewBox="0 0 777 833" fill="none" xmlns="http://www.w3.org/2000/svg">
<path d="M446.387 649.388L447.842 648.349L449.296 647.31L450.751 646.895L454.492 646.479H454.908L456.363 646.064H457.402L463.221 640.87M702.23 389.908L704.516 385.13L702.23 389.908ZM460.312 496.691L459.896 500.015L460.312 501.885V505.209V496.691ZM463.221 636.923L463.637 634.014L463.221 631.729V629.236L462.806 625.289L463.221 636.923ZM691.63 416.708L687.681 425.849L691.63 416.708ZM718.441 22.8137L718.025 1L718.441 22.8137ZM459.896 491.29V495.237V491.29ZM547.394 307.223L548.849 306.185L551.343 304.315L553.213 302.861L561.319 295.174L564.228 292.265L547.394 307.223ZM458.025 401.542L457.61 398.633L458.025 401.542ZM742.549 323.636V324.674L742.134 326.129L741.094 328.622L742.549 323.636ZM613.277 246.768L614.732 245.314L613.277 246.768ZM458.857 442.676V439.768V435.821V442.676ZM739.224 333.608L737.353 336.101L739.224 333.608ZM745.459 299.121L744.004 310.132L745.459 299.121Z" stroke="white" stroke-width="0.92" stroke-linecap="round" stroke-linejoin="bevel"/>
<path d="M458.441 413.384L458.025 401.334L458.441 408.606V413.384ZM458.441 413.384V425.849V430.627V435.405L458.857 442.677V446.624L461.766 451.818L462.182 455.142L463.221 459.92V462.413L464.26 480.279V483.188V485.681L463.845 490.044V496.276L464.26 499.6V502.924L458.441 413.384ZM748.784 286.033L754.604 266.297M716.154 1L718.856 45.874L719.895 74.7513V79.114L720.311 80.9838L720.727 113.185V115.055L721.142 140.608V141.647L721.558 145.594L719.272 148.087V148.503L718.233 149.957L715.739 153.696L714.284 155.151L712.829 156.605L691.63 173.848L686.434 178.211L677.29 186.936L667.729 195.662L716.154 1ZM55.0366 348.566H56.0758L57.9463 349.605L59.4011 350.02L70.4163 354.383L72.2868 354.798L73.7416 355.837L95.9798 363.524L98.4738 364.563L99.9286 364.978L101.799 366.017L112.814 370.38L121.959 373.704L123.414 374.742L134.013 382.429L142.119 389.077L145.86 392.401L148.354 394.894L158.953 402.996L161.863 405.489L164.773 407.775L166.227 409.229L171.631 413.592L179.737 420.863L187.011 426.68L198.649 435.821L201.559 438.314L203.43 439.768L208.21 443.508L215.484 449.74L220.264 453.48L222.758 455.349L224.629 456.804L238.553 468.853L242.918 472.177L249.569 477.994L258.298 484.642L269.313 494.199L272.222 496.068L274.093 497.938L277.418 500.431L284.069 507.079L289.888 510.403L300.488 517.051L307.762 520.998L312.542 524.738L314.413 526.192L317.738 529.101L319.193 530.97L319.608 533.256L321.479 536.164L321.895 540.942L321.479 544.266L320.44 554.446V556.939V559.848L320.855 570.027V578.13L321.271 600.774L321.687 616.148V619.056V621.965L322.102 651.673L322.518 656.451L323.973 665.177L55.0366 348.566ZM457.402 398.634L457.818 396.141L457.402 392.401L457.818 388.038V375.989L457.402 373.08V370.587L457.818 367.263V366.225L458.233 365.186V364.77L458.649 363.316L461.974 357.084L463.429 355.214L469.248 350.436L473.197 347.943L477.146 346.073L493.565 336.932L504.164 331.115L526.195 320.52L542.614 309.924L547.394 307.016L457.402 398.634ZM139.625 436.029L137.131 432.289V426.057V421.278L138.586 419.409L140.04 418.37H140.456L141.911 417.954H142.327L148.146 416.5L149.601 415.461L155.836 410.06L164.565 407.567L139.625 436.029ZM691.63 416.708L697.449 402.789L700.775 394.063L702.23 389.7L706.178 380.975L709.504 373.288L713.453 364.147L714.492 362.277L716.362 359.369L721.142 354.175L730.703 343.58L732.158 341.71L737.561 335.893L740.471 330.699L741.51 328.206L742.965 323.428L744.004 311.794L744.42 309.924L691.63 416.708ZM336.235 531.178L338.729 529.724L339.768 529.308H340.184L341.223 528.893H344.133L353.277 528.477H362.006L367.826 528.062L375.516 530.555L378.425 528.062L380.919 527.646H382.79H387.154L397.754 527.231H420.408L424.772 526.815H442.646L454.7 525.361H460.935H464.26L466.547 524.946L470.911 525.361H473.405H475.899H477.77L488.369 526.4L493.149 526.815L500.839 527.231L511.023 527.646L517.674 528.062L529.728 529.101L534.924 529.516H540.743L548.849 529.101H556.954L563.605 528.685L580.439 528.27H582.933L593.533 527.854H602.677L607.458 527.439L639.256 526.4L645.491 525.984H652.142L653.181 525.569L657.545 523.076L657.961 522.037L658.377 521.622L658.792 521.206L659.208 517.467V513.519L658.792 509.157V497.523L659.208 495.653L659.624 493.16L661.079 490.667L663.573 484.434L669.392 470.931L674.588 457.427L684.772 433.328L688.097 426.057L692.461 415.046L701.19 394.479L336.235 531.178ZM463.637 634.014L469.456 638.377L470.495 639.831L471.95 640.87L474.86 643.363L476.315 644.402L485.459 652.089L499.384 662.684L515.18 662.268L584.804 661.23L463.637 634.014ZM551.135 304.315L561.319 295.174L565.683 290.811L571.502 285.618L573.373 283.748L580.647 277.1L594.156 265.05L601.43 257.779L613.485 246.768L599.144 260.272L594.364 265.05L551.135 304.315ZM705.971 381.183L704.516 385.13L705.971 381.183ZM463.221 636.923V640.87V644.194V646.064V647.103L463.637 652.296L463.221 653.335L463.637 656.659V659.568L463.221 636.923ZM677.705 186.521L667.521 196.077L659.416 203.349L656.506 206.257L645.907 215.398L644.036 217.891L636.346 225.162L614.732 245.314L677.705 186.521ZM636.346 224.955L637.801 223.5L641.75 219.761L646.946 214.983L656.506 206.257L663.78 198.986L666.69 196.493L636.346 224.955ZM462.806 625.289V619.056V611.785L462.39 606.591V597.866V591.633L461.974 587.271V584.985V576.468L461.559 564.003V560.679V551.953L461.143 539.488V534.087V532.632L460.727 524.946V518.713V515.805V509.157L460.312 506.248V500.016V497.523V495.237L462.806 625.289ZM460.312 496.692L463.637 490.044L460.312 496.692ZM446.387 649.388L445.971 651.258L444.932 654.582L444.516 669.54L434.956 685.952L446.387 649.388ZM459.896 497.523L460.312 505.209V509.157L459.896 497.523ZM380.504 527.439L375.1 530.347L380.504 527.439ZM464.26 499.392V488.797V485.473V499.392ZM458.857 439.768V446.416L459.272 468.438V473.216V477.994L459.688 490.875L458.857 439.768ZM464.26 489.005L464.676 501.054L464.26 489.005ZM461.766 576.468V568.158L461.351 563.795L461.766 576.468ZM462.182 591.841L461.766 585.193L462.182 591.841ZM333.949 532.632L333.533 533.048L332.078 534.087L330.624 535.125L328.13 536.995L326.259 538.449L325.22 539.488L324.804 539.904L321.479 544.682L333.949 532.632ZM458.441 430.835L458.857 436.029V430.835V421.278L458.441 408.813V430.835ZM718.441 22.8138L718.856 45.874V51.0678L719.895 78.9063L718.441 22.8138ZM397.338 526.815L390.064 527.231H386.739L397.338 526.815ZM510.399 527.439L499.384 526.4L492.734 525.984H487.953L479.848 525.569L477.354 525.153L510.399 527.439ZM658.792 516.843L659.832 533.671V537.618L660.871 548.629V552.576V554.862L661.91 577.506L661.494 578.961V579.999L661.079 582.492L659.832 586.855L657.338 597.45L655.883 604.722L655.467 607.215L655.051 609.084L654.012 614.901L654.428 616.356L651.518 623.004V625.497V626.951L651.103 628.405L648.193 643.363L647.154 647.726L646.115 652.504L645.075 655.413L644.036 661.23L643.621 663.099L642.166 669.747L641.75 671.617L641.334 674.526L640.295 678.888L658.792 516.843ZM660.871 552.369L660.455 544.682L660.039 537.411L660.871 552.369ZM459.272 473.424L458.857 446.416L459.272 473.424ZM458.025 388.038L457.61 373.08L458.025 388.038ZM655.051 609.084L656.091 604.722L655.051 609.084ZM644.868 525.361H641.958L638.633 525.777L644.868 525.361ZM580.439 276.892L574.62 282.294L573.165 283.748L580.439 276.892ZM564.228 292.266L565.683 290.396L569.008 287.487L571.502 285.618L564.228 292.266ZM534.3 529.308H533.261L528.897 528.893L534.3 529.308ZM367.618 527.854L363.669 528.27H361.799L367.618 527.854ZM651.726 525.361L656.922 528.27L659.832 533.463L651.726 525.361ZM454.077 524.946H463.637H454.077ZM757.513 255.286L755.643 262.973L755.227 264.012L754.811 266.505L750.447 282.294L748.992 286.033L748.576 288.526L746.082 296.628L745.667 297.667V299.121L757.513 255.286ZM740.055 330.699L739.016 333.608L740.055 330.699Z" stroke="white" stroke-width="0.92" stroke-linecap="round" stroke-linejoin="bevel"/>
<path d="M739.224 333.608L737.354 336.101M741.51 328.414L741.926 325.921L742.342 324.467V323.428L743.796 311.794V309.924L745.251 298.913L741.51 328.414ZM774.763 146.633V166.369V171.147L775.179 173.017V179.25V182.158L775.595 189.429L775.179 191.299V192.338L774.763 194.208L775.803 197.116L772.893 200.44L771.854 205.218L769.36 212.905L774.763 146.633ZM768.944 215.398L767.905 218.307L766.035 224.539V227.448L768.944 215.398Z" stroke="white" stroke-width="0.92" stroke-linecap="round" stroke-linejoin="bevel"/>
<path d="M740.055 330.699L739.016 333.608M766.034 227.447L762.709 236.588L757.513 254.87L757.098 263.596L754.604 266.504L752.733 273.776L750.239 282.501L748.784 286.241L748.369 288.734L745.875 296.836L745.459 297.875V299.329L766.034 227.447ZM769.568 1L770.607 20.7362L771.646 43.7965L772.062 66.8567L772.477 78.4907L772.893 113.185L773.932 128.974L774.971 146.84L775.387 173.225L769.568 1ZM772.893 113.185L772.477 91.9945V78.4907L772.893 113.185ZM732.365 341.294L737.146 336.101L740.055 330.907L741.51 328.414L742.549 323.636L744.004 310.132L732.365 341.294ZM748.784 286.033L753.564 269.205L754.604 266.297L748.784 286.033ZM768.113 218.306L769.568 212.905L768.113 218.306ZM771.854 205.426L768.944 215.606L771.854 205.426Z" stroke="white" stroke-width="0.92" stroke-linecap="round" stroke-linejoin="bevel"/>
<path d="M320.024 744.953L322.934 726.671M426.643 696.547L421.863 701.741L426.643 696.547ZM463.221 629.651V631.521L464.676 634.43L463.221 629.651Z" stroke="white" stroke-width="0.92" stroke-linecap="round" stroke-linejoin="bevel"/>
<path d="M307.97 704.649L297.37 704.234L294.045 701.325L295.915 693.223L304.021 690.73L318.362 690.314L324.181 686.991L322.726 680.343L324.181 663.515V660.191V659.568L323.765 658.529L322.726 656.659L320.232 557.562M661.287 579.792L660.871 582.7L659.832 586.855L657.338 597.45L655.883 604.722L654.844 609.5L653.805 614.694L653.389 615.732L651.934 623.004L651.518 625.497V626.951L651.103 628.405L648.193 643.363L647.154 647.726L646.115 652.504L645.076 655.413L644.036 661.229L643.621 663.099L641.75 669.747V671.617L641.335 673.487V675.357L639.464 682.628L638.009 689.276L637.593 691.561V693.431V697.378V703.611V706.519L637.178 709.843L638.217 714.206L644.452 717.53H649.232L657.338 717.114L661.287 717.53H664.612H668.561L661.287 579.792ZM638.217 689.276L639.256 685.328L639.672 682.42L640.711 678.681L641.75 673.279L638.217 689.276ZM686.227 724.386L693.501 730.203L724.676 745.161L727.17 746.199L686.227 724.386ZM463.637 656.243V660.191V668.293V656.243ZM463.637 659.983L464.053 668.085L463.637 659.983ZM444.932 654.789L443.893 671.617L442.438 673.487L426.643 696.547L444.932 654.789ZM464.676 634.43L497.93 661.437L504.165 662.476L509.36 662.061H514.14L539.08 663.099H545.731L547.602 662.684H550.927H555.707L559.033 663.099L561.942 662.684L565.268 662.268H566.307H569.216L575.036 661.853H578.361H583.557L585.012 661.437H585.427H588.337L589.376 661.853H591.247L595.196 662.268H595.611H602.885L464.676 634.43ZM421.863 701.741L417.914 702.779L404.405 699.871L378.425 701.741L352.862 702.779L338.937 703.818L330.208 704.234H326.883L313.374 704.649H307.554H296.539L294.045 705.688L289.265 704.649L244.581 705.065L239.801 707.973L233.566 710.258L153.758 711.713L91.1997 710.258H81.2237L79.3532 710.674L59.1933 709.22H7.8585H1L421.863 701.741ZM330.624 704.234L326.259 708.181L324.804 721.062L323.765 723.97L322.726 726.878L330.624 704.234ZM320.024 744.953V748.277L321.063 770.922V785.879L315.244 799.383V817.25L315.66 823.482V827.845V832.208L320.024 744.953ZM637.801 697.378V701.325V703.818L638.217 706.727V709.22L637.801 706.727V697.378ZM637.801 701.325L637.386 695.508L637.801 693.638V701.325Z" stroke="white" stroke-width="0.92" stroke-linecap="round" stroke-linejoin="bevel"/>
</svg>
