<svg width="329" height="620" viewBox="0 0 329 620" fill="none" xmlns="http://www.w3.org/2000/svg">
<path d="M195.025 235.172L197.935 232.263M205.624 188.636L209.989 201.101L209.573 209.203L212.899 213.566L209.573 214.605L198.974 229.978L205.624 188.636Z" stroke="#292929" stroke-width="1.8552" stroke-linecap="round"/>
<path d="M233.89 1.24524L243.034 12.256L241.164 15.1645L242.619 20.3582L239.709 24.0977L241.164 34.2775L234.929 49.651L229.11 56.299L233.058 70.2182L239.293 73.5422L242.619 88.5002L250.724 92.2397M327.207 208.787L312.866 209.826L310.996 202.555L312.866 153.11L300.812 139.191L299.357 118.001L295.408 90.1622L327.207 208.787ZM299.357 118.001L289.173 120.494L286.887 128.18L282.523 130.673L272.339 145.631H266.104L259.869 141.269L253.634 141.684L251.348 133.997L245.944 128.18L245.528 118.624L299.357 118.001Z" stroke="#292929" stroke-width="1.8552" stroke-linecap="round"/>
<path d="M1.73999 567.364L16.704 568.403L22.939 569.441L29.5897 563.624M2.77916 549.913L29.7975 563.417L38.9422 564.871L71.572 578.375L92.771 592.294L100.045 599.565L105.241 611.615L112.931 618.263L125.817 613.069L133.091 614.523L150.341 608.706L2.77916 549.913Z" stroke="#292929" stroke-width="1.8552" stroke-linecap="round"/>
</svg>
