<svg width="603" height="503" viewBox="0 0 603 503" fill="none" xmlns="http://www.w3.org/2000/svg">
<path d="M0.761353 187.768H127.124L136.269 184.86L167.028 183.821L135.23 184.236L129.826 186.729L0.761353 187.768ZM127.54 304.731L153.103 326.337L151.648 329.246L152.272 328.623L152.064 329.246L154.558 326.753L264.086 418.163L210.257 423.357L205.062 421.902L206.932 424.395L201.736 430.212L208.387 424.395L216.077 422.941L257.436 421.487L265.125 418.578L289.234 434.991H292.975L293.391 438.315L293.806 435.822L295.677 438.73V436.86L299.002 438.315L299.418 441.223L299.834 438.73V442.054L300.873 439.146L313.343 446.417L307.523 451.818L309.394 454.727L313.758 447.04L321.448 447.456L324.773 450.78L356.572 462.414L366.756 471.555L376.94 475.502L386.5 489.629L388.371 495.238L392.527 498.354L394.606 501.471L396.684 501.678L398.554 502.925L401.048 501.886L404.166 502.094L411.856 497.316L421.416 498.354L422.455 501.263L424.949 495.03L419.753 496.9L409.57 495.446L405.205 499.393L396.476 500.224L393.359 497.108L385.461 482.981H385.253L384.837 482.15L368.419 468.646L346.804 455.142L346.388 457.012L326.644 448.91L323.319 447.456V444.547L317.915 447.04L306.484 440.392V442.885L302.12 436.653L301.704 439.146L299.21 435.198L298.794 437.484L289.65 434.159L288.611 430.212L282.791 429.797L265.957 418.786L232.911 391.779L233.743 390.532L128.371 306.393L133.359 310.756L127.54 304.731ZM283.83 429.589L288.611 430.004L289.026 432.913L283.83 429.589ZM167.028 184.029L220.441 184.444L301.288 181.536L167.028 184.029ZM303.575 181.536L307.939 184.86L306.069 181.536H303.575ZM308.77 186.937L314.59 201.272L329.969 227.241V232.019L396.892 239.29L404.166 238.251H394.606L335.997 230.565L330.801 227.241L308.77 186.937ZM404.166 238.251H415.597L411.232 237.213L404.166 238.251ZM415.597 238.251L419.961 239.29L421.416 240.744V238.251H415.597ZM420.793 251.34L422.663 255.287L421.624 245.107L420.793 251.34ZM529.074 2.8705L530.113 13.0503L535.932 17.413L538.842 26.554L546.116 25.0997L546.532 28.0083L557.131 30.9167L567.731 19.2828L568.146 14.5045L572.927 11.1805L575.421 3.90925L583.11 2.8705V0.377502L572.095 3.7015L571.68 10.3495L566.899 12.8425L566.484 9.51851L566.899 16.1665L563.574 19.4905L556.923 27.1772H551.728L546.947 21.3603L540.297 23.8533L540.712 18.6595L537.387 12.8425L533.023 13.8813L531.983 1.41625L529.697 1.00076V2.8705H529.074ZM590.177 211.867L602.231 195.455L601.192 182.574L599.321 182.99L600.361 195.455L590.177 211.867Z" fill="#292929"/>
</svg>
