<svg width="47" height="767" viewBox="0 0 47 767" fill="none" xmlns="http://www.w3.org/2000/svg">
<path d="M0.863281 761.819L4.18863 766.182L4.60426 736.889L13.5411 684.952H13.749L18.5291 655.036L27.2582 635.3L27.466 634.261L27.8816 633.43L28.2973 628.028L28.5051 627.197L30.9991 592.503L26.4268 627.197H26.219L14.7882 666.67L12.2941 674.772L12.0863 676.85L11.4628 679.135L1.90245 743.953L0.863281 761.819ZM26.0112 350.059L34.1167 441.884L35.5715 510.65L35.1558 438.56L27.0503 352.552L28.5051 345.904L26.0112 350.059ZM26.8425 341.749L35.9871 162.876L29.3365 250.339L26.8425 341.749ZM35.9871 160.175L38.4812 87.0473L46.171 7.27125L46.5867 0H44.924L44.3005 11.634L40.3517 61.0785L39.3125 70.635H37.442L35.9871 160.175Z" fill="#E6E6E6"/>
</svg>
