<svg width="860" height="835" viewBox="0 0 860 835" fill="none" xmlns="http://www.w3.org/2000/svg">
<path d="M772.854 79.0753L769.944 79.4908M772.854 79.4908H769.944L754.98 79.9063H753.941L750.616 80.3218H743.965L732.95 80.7373L726.299 82.607L724.013 81.5683L722.974 80.114L721.519 81.5683H718.194H713.829H705.724H703.437L701.567 81.9838H692.838H690.967H685.772H683.278L681.407 82.3993H679.537H671.847H668.937L660.208 82.8148H658.338H656.467H653.557L645.868 83.2302H633.813H631.319L626.955 82.1915L624.045 81.776H617.81L615.316 82.1915H609.081L772.854 79.4908ZM717.986 81.9838L719.856 80.945L721.311 81.9838H723.805H717.986ZM679.537 82.8148L675.588 82.3993L671.639 82.8148H679.537ZM681.615 82.8148L685.979 82.3993H692.63L681.615 82.8148ZM655.636 82.8148L653.765 83.2302L655.636 82.8148ZM645.868 83.8535L640.048 83.438L645.868 83.8535Z" stroke="#7F7F7F" stroke-width="3.055" stroke-linejoin="round"/>
<path d="M685.772 205.803L684.732 206.841L683.278 208.296M622.382 213.074H625.292H622.382ZM727.13 202.479H731.911H727.13Z" stroke="#7F7F7F" stroke-width="3.055" stroke-linejoin="round"/>
<path d="M658.545 83.2303L655.636 82.8148M640.256 83.2303L634.021 83.6458L640.256 83.2303Z" stroke="#7F7F7F" stroke-width="3.055" stroke-linejoin="round"/>
<path d="M361.76 125.196V130.389V132.259" stroke="#7F7F7F" stroke-width="3.055" stroke-linejoin="round"/>
<path d="M578.114 3.45425H575.204L572.503 4.0775H568.554" stroke="#7F7F7F" stroke-width="3.055" stroke-linejoin="round"/>
<path d="M573.334 120.417H586.22L589.545 120.002H593.909M544.029 120.417L533.846 121.456H533.43H531.975L504.125 121.872L496.851 122.911L535.716 121.872L543.822 120.833L544.029 120.417ZM545.9 120.833H547.77H550.057L561.072 120.417H564.397H573.126L545.9 120.833ZM564.605 120.417H586.22L601.184 120.002L609.913 120.417L611.367 119.379L564.605 120.417ZM550.264 120.833L545.9 120.417L550.264 120.833ZM594.117 119.794H601.391H594.117Z" stroke="#7F7F7F" stroke-width="3.055" stroke-linejoin="round"/>
<path d="M618.434 258.779L615.108 260.233L616.979 259.195L618.434 258.779ZM618.434 258.779H621.343L627.994 258.364H632.359L639.009 257.948H643.789L649.609 257.533H654.805L660.624 257.117H666.443L677.043 257.533L682.862 260.856L692.007 266.673H695.332H700.528H705.932L618.434 258.779ZM632.566 258.156L621.551 258.571M712.374 266.05H709.88L706.139 266.466L712.374 266.05ZM709.88 266.05H717.986L723.182 265.635L729.001 265.219H736.275H739.601H745.836L751.031 264.804L709.88 266.05ZM729.209 265.011H726.299L723.39 265.427L729.209 265.011ZM666.651 256.909L672.47 256.494L677.251 257.533L683.901 263.35L692.007 266.673H700.736L666.651 256.909ZM712.374 266.05H718.194H712.374Z" stroke="#7F7F7F" stroke-width="3.055" stroke-linejoin="round"/>
<path d="M746.043 318.819L744.589 324.636M724.844 396.102L725.883 392.155L726.923 390.285L727.338 388.415L724.844 396.102Z" stroke="#7F7F7F" stroke-width="3.055" stroke-linejoin="round"/>
<path d="M368.618 304.484L368.202 292.85V286.617L367.787 280.385V274.983L367.371 269.79V267.92M372.775 406.697V410.437V417.084L373.19 421.447V424.356L372.775 406.697ZM370.073 338.139L370.488 350.189V355.59L370.073 338.139Z" stroke="#7F7F7F" stroke-width="3.055" stroke-linejoin="round"/>
<path d="M583.933 623.588V621.718L583.518 619.225M583.933 626.289V623.38L583.518 619.018L583.933 616.109V626.289Z" stroke="#7F7F7F" stroke-width="3.055" stroke-linejoin="round"/>
<path d="M441.152 446.585L440.736 437.444V427.264M443.022 520.128V527.4L444.893 562.094L445.308 585.154L446.348 607.799L446.763 617.356L443.022 520.128ZM440.113 412.929V416.253L440.528 427.264L440.944 437.444V446.585L441.36 472.969V478.786L441.775 498.938L442.191 510.572L443.646 516.389L442.607 520.128L440.113 412.929Z" stroke="#7F7F7F" stroke-width="3.055" stroke-linejoin="round"/>
<path d="M434.917 631.275H439.281M284.446 627.743H292.551H296.5H302.735H305.229H311.464H317.699L321.648 628.782L284.446 627.743ZM366.124 633.976L361.76 633.56H351.16L344.925 634.599L366.124 633.976ZM326.636 631.275L330.585 632.729L333.494 634.183L334.533 634.599H339.314L326.636 631.275ZM334.326 634.599L330.585 632.729L326.636 630.859L334.326 634.599ZM459.441 630.652L456.532 630.236L454.661 630.652H459.441ZM446.971 631.69L449.257 630.236L451.128 631.69H446.971ZM441.568 630.652L434.917 631.067H433.046H432.631L417.251 631.483L410.6 631.898L441.568 630.652ZM317.491 627.743L321.44 629.197L317.491 627.743ZM444.062 631.275H439.281H444.062ZM381.504 633.144L404.573 632.106L381.504 633.144ZM296.5 627.328L302.735 627.743L296.5 627.328ZM355.525 633.56H361.76H355.525ZM355.525 633.56H351.16L347.211 633.976L344.717 634.391H338.898L355.525 633.56ZM441.568 630.652L444.062 631.067L446.971 631.483L441.568 630.652ZM410.393 632.106H404.573L393.558 632.521L382.959 632.937H381.504L378.178 633.56H372.775H369.449L366.124 633.976L410.393 632.106ZM451.128 631.69L454.453 630.652L451.128 631.69Z" stroke="#7F7F7F" stroke-width="3.055" stroke-linejoin="round"/>
<path d="M374.23 465.906V462.582M374.853 472.554L374.437 470.061L374.853 472.554ZM373.814 430.38V428.511V430.38ZM372.775 406.697L372.359 394.647L371.32 373.457L372.775 406.697ZM375.684 496.653V526.361V496.653ZM377.139 561.471L376.724 536.956L377.139 561.471ZM375.269 488.55V481.902V488.55ZM373.814 434.535V437.859V434.535Z" stroke="#7F7F7F" stroke-width="3.055" stroke-linejoin="round"/>
<path d="M380.464 530.724L379.01 530.308L376.1 531.347L380.464 530.724ZM380.464 530.724L383.374 530.308H387.323H393.142L397.922 529.893H396.052L393.142 530.308H383.582L380.464 530.724ZM631.943 509.533L636.307 509.118M641.088 509.118H648.362L659.377 509.533L662.287 508.495L641.088 509.118ZM668.937 508.079H671.431L699.697 507.04L668.937 508.079ZM420.368 518.259L420.784 527.815L397.715 529.685L420.368 518.259ZM572.503 511.611H580.192L602.846 510.572L605.756 511.611L608.042 510.157L630.072 509.741L572.503 511.611ZM572.503 511.611L534.053 513.065L530.105 513.48L511.4 513.896L496.02 514.312H494.149H486.875H482.926L475.236 514.727H472.742H469.417L461.312 516.597L457.571 515.558L455.7 515.142L448.426 515.558L444.061 515.973L422.862 517.428L420.368 517.843L572.503 511.611ZM496.02 514.312L500.384 513.896L503.294 514.312L511.4 513.896L531.559 512.442H534.469L557.123 512.026L570.632 511.611L579.777 505.378L602.43 504.963L605.34 505.378L607.626 504.34L636.931 502.47L661.04 501.431L671.223 501.015L698.657 500.6L703.022 507.248L705.308 507.663L496.02 514.312ZM422.862 517.843L434.917 518.259L436.787 517.22L441.983 516.181H443.854L454.453 515.766H457.363L459.233 515.35L461.104 516.804L465.468 515.35H469.417L482.303 514.935L486.667 514.519L422.862 517.843ZM702.606 507.248H699.697H702.606ZM662.287 508.702L665.612 508.287H666.028H668.937L662.287 508.702ZM641.088 509.118H636.307H634.021L632.151 509.533H630.28L641.088 509.118ZM735.444 506.209H730.664L713.413 507.663L735.444 506.209ZM748.745 506.209H739.808H748.745ZM739.808 505.794H748.537H739.808ZM730.456 506.209L735.236 506.625L730.456 506.209Z" stroke="#7F7F7F" stroke-width="3.055" stroke-linejoin="round"/>
<path d="M671.016 560.64L667.067 568.327M676.627 471.1L680.992 465.698L682.862 462.79L685.356 458.427L694.916 445.962L697.826 442.015L703.645 434.328L706.139 431.419L709.88 426.641L713.206 420.824L714.66 418.331L717.155 415.007L719.648 408.775L722.974 400.049L725.883 391.947L727.338 388L727.754 386.13L728.17 384.26L729.209 380.936L729.625 378.443L732.95 365.978L734.405 361.2L737.314 349.566L738.353 345.203L739.808 340.84L740.847 337.101L741.887 335.231L744.796 324.22L748.122 310.301V308.431L749.161 304.069L749.577 299.29L751.031 291.188L752.902 281.632L676.627 471.1ZM713.206 421.24L709.88 424.563L703.23 434.743L698.034 442.43L713.206 421.24ZM722.974 400.465L724.844 396.102L722.974 400.465ZM667.067 568.327L665.612 571.235L665.196 572.274L664.781 573.728V575.182V577.675V584.323L662.287 596.373L661.871 600.32L660.832 605.098L658.338 612.785V615.693L659.377 618.602L667.067 568.327ZM657.506 632.729V624.003V632.729ZM682.862 462.997L687.227 457.803L694.916 446.17L682.862 462.997ZM673.302 475.462L671.847 477.955L671.431 478.371V478.786L671.016 479.202V479.617L670.6 481.487L673.302 475.462ZM747.914 310.717L746.043 318.819L747.914 310.717ZM671.016 560.64L672.47 559.186L672.886 558.147V557.731V555.862V555.446L671.016 560.64ZM672.886 555.238V553.368L671.431 512.026V508.079L671.016 500.808L669.561 485.019L670.6 481.695L672.886 555.238ZM659.377 618.187L657.506 624.003L659.377 618.187ZM673.302 475.462L676.627 471.1L673.302 475.462ZM657.506 632.729L658.961 669.708L657.506 632.729Z" stroke="#7F7F7F" stroke-width="3.055" stroke-linejoin="round"/>
<path d="M602.638 510.572L603.054 528.438L604.509 556.277L605.548 579.337L607.834 612.577M608.458 671.578L607.003 626.497V620.679L608.458 618.394V671.578ZM601.807 487.927L601.391 464.452L600.352 441.807L598.482 396.517L601.807 487.927Z" stroke="#7F7F7F" stroke-width="3.055" stroke-linejoin="round"/>
<path d="M511.4 528.438L511.815 530.724V535.087V536.956L512.231 542.773L512.647 548.59V550.46V552.33V554.823L512.231 548.59V546.721V542.773V539.034V537.164L511.4 528.438ZM511.4 528.438V525.53L510.984 522.622L511.4 513.896L510.984 507.663V503.301V498.938V495.614L510.568 486.473V483.98V480.656L510.153 476.917V473.592V467.775V466.737L509.737 452.402V450.532V445.338L509.321 438.067V434.743V429.965L507.866 399.633L507.451 381.352L507.035 376.989L511.4 528.438ZM514.725 614.447V609.669M515.556 640.416V632.729L515.141 629.405L515.556 625.458L515.141 622.134L515.556 640.416ZM516.18 648.518V654.75V662.853V648.518ZM506.619 376.989V371.172V366.809L506.204 354.344L506.619 376.989ZM515.141 629.197V621.926L513.27 617.148L514.725 614.239L515.141 611.746L514.725 609.253V607.383V604.475V599.073V594.711L514.309 590.348L513.894 582.661V579.337V576.429V573.105V570.612L513.27 562.925L512.854 560.432V557.523L515.141 629.197ZM513.27 557.108L512.854 560.432L513.27 565.21V568.95V570.819L513.686 576.636V582.869L514.101 586.193V590.556V592.426V596.788L514.517 604.475L513.27 557.108ZM515.141 622.134L515.556 619.641L513.062 617.148L515.141 622.134ZM515.556 640.416L515.972 648.518L515.556 640.416ZM511.4 513.896V509.533L510.984 507.663L511.4 513.896ZM505.165 334.192L505.58 340.84V351.851L505.996 344.164L505.165 334.192ZM509.945 473.592L510.36 471.723L509.945 467.983V473.592ZM507.451 399.633L507.866 425.187L508.282 434.743L508.698 438.067V444.715L509.113 450.532L507.451 399.633ZM516.18 662.853V645.609L515.764 632.729L516.18 662.853Z" stroke="#7F7F7F" stroke-width="3.055" stroke-linejoin="round"/>
<path d="M553.59 398.595H556.084L564.813 398.179L581.647 397.14M587.259 396.725H590.584H593.078H598.274L601.599 396.31L587.259 396.725Z" stroke="#7F7F7F" stroke-width="3.055" stroke-linejoin="round"/>
<path d="M547.77 398.595H553.59M484.381 400.049L507.451 399.634H519.089H530.728L547.978 398.595L587.466 396.725L484.381 400.049ZM598.274 396.725H590.584L581.439 397.141L598.274 396.725ZM519.089 399.634L512.439 399.218L507.658 399.634H519.089ZM604.093 397.141L601.807 396.102L604.093 397.141Z" stroke="#7F7F7F" stroke-width="3.055" stroke-linejoin="round"/>
<path d="M278.21 448.455L266.78 441.807L247.451 441.391L239.346 443.884L238.306 446.377M461.727 447.208L466.923 446.793H469.833H473.782L485.836 446.377L490.616 445.962L500.177 445.546L508.906 445.131H511.4H531.975L541.12 444.715L550.264 444.3H554.629L600.352 442.43L602.846 442.015L606.172 443.053L461.727 447.208ZM278.21 448.455L282.575 449.494L285.485 449.909H319.154H321.024H329.13H333.91L344.509 449.494H348.874H356.564H373.814H379.633L383.998 449.078H386.492H388.362H395.636L398.13 448.663H402.079L411.224 448.247H415.588L430.552 447.832H434.501L452.375 447.416L460.48 447.832L278.21 448.455ZM451.751 447.208L441.152 446.793L433.878 447.832L451.751 447.208ZM467.131 446.585H461.935H467.131ZM485.836 446.17H475.652L473.782 446.585L485.836 446.17ZM554.629 443.677L550.264 443.261L541.12 444.3L554.629 443.677ZM500.384 445.131H509.529L511.4 444.715L500.384 445.131ZM318.946 449.909L306.476 449.494H294.422H291.096H289.226L285.277 449.909H318.946ZM333.91 449.909H342.015L344.302 449.494L333.91 449.909ZM235.812 446.585L238.306 446.17L235.812 446.585Z" stroke="#7F7F7F" stroke-width="3.055" stroke-linejoin="round"/>
<path d="M693.046 203.933L685.772 205.803M205.469 214.528H212.12L220.225 214.113H238.514H285.069L293.175 216.606H293.59H303.151L307.515 216.19L310.009 215.151L312.503 214.113H328.298H334.533L337.443 214.528L342.847 216.398L351.991 221.592L364.877 223.462L372.151 223.046H377.971L392.935 222.63H405.405L409.769 222.215H417.043L423.694 221.8H427.019L443.854 220.761H447.803L456.532 220.345H463.182L469.002 219.93L486.875 219.514L492.071 219.099L501.216 218.683L511.815 218.268L523.87 217.852H529.689L534.469 217.437H541.12L551.719 217.021L576.659 215.567H585.388L597.443 215.151L601.807 214.736H607.003L613.238 214.32L619.473 213.905H622.383L631.112 213.49L639.841 213.074H640.88L643.789 214.113L646.283 215.982L205.469 214.528ZM293.59 216.398L281.12 213.49L238.722 213.905L214.614 213.49L212.12 214.528L206.716 213.49L293.59 216.398ZM501.216 218.475L504.957 218.891L511.607 217.852L501.216 218.475ZM683.486 208.296L680.576 211.62L679.537 213.074L678.082 214.528L674.133 216.398H667.482L666.028 215.982L659.377 216.398L648.777 216.814L658.338 217.229L663.534 216.814L667.482 216.398L683.486 208.296ZM625.292 213.074L631.112 212.658L625.292 213.074ZM678.082 214.528L680.576 211.62L683.486 208.711L693.046 203.933H694.501L696.371 204.348L702.606 206.218H703.645H706.139L716.115 203.31L727.131 202.271L742.926 201.855L753.525 198.531L742.926 201.855L731.911 202.271L678.082 214.528ZM643.582 213.074L646.076 215.567L643.582 213.074Z" stroke="#7F7F7F" stroke-width="3.055" stroke-linejoin="round"/>
<path d="M407.483 94.8642L379.633 95.2797L367.163 100.058M195.493 102.135L201.728 101.72L195.493 102.135ZM542.574 90.917H539.665H535.3L495.812 92.3712H491.447H488.953H481.679H480.017L451.128 93.41H446.763L407.275 94.8642L380.257 95.903L366.747 100.266L360.928 100.681H316.244L301.903 99.6425L225.836 100.681H219.601H212.951H210.457L205.261 101.097L542.574 90.917ZM204.637 101.512H212.743L226.252 101.097L302.319 99.6425L204.637 101.512ZM201.728 101.097H199.857H201.728ZM545.484 90.917H548.809L555.044 90.5015H557.331L571.671 90.086H572.087L577.283 85.3077L582.478 82.8148H608.873L545.484 90.917Z" stroke="#7F7F7F" stroke-width="3.055" stroke-linejoin="round"/>
<path d="M449.257 7.4015H442.607L439.281 7.817M2 10.31H9.89767H32.1358L51.88 10.7255H59.9855H64.7657H79.7297H88.4587H93.4467H95.7328H174.502H181.776L228.538 11.141L233.734 10.7255L2 10.31ZM233.319 9.8945H228.954L184.478 10.31L181.984 10.7255L97.8112 10.31L95.9407 10.7255H79.5218L233.319 9.8945ZM236.852 10.7255H241.216L260.96 10.31L296.915 10.7255L299.41 10.31H306.684H314.789H358.642L384.205 9.8945L404.989 8.85575H408.73H410.6H413.926L417.667 8.2325H419.537L435.956 7.817H439.281L449.465 7.4015H457.571L470.456 6.986H474.821L487.707 6.5705H493.526L498.306 6.155L502.047 5.7395H510.153L532.183 5.324L545.068 4.9085H547.978H549.849L568.138 4.493L236.852 10.7255ZM578.114 3.45425L590.168 3.03875L592.039 3.45425L607.003 3.03875H612.199H623.837L644.413 2.62325L646.283 2.20775H652.103H661.663H665.612L666.028 2L578.114 3.45425ZM669.145 2L669.561 2.20775L675.38 5.11625L677.458 2.20775L669.145 2ZM744.588 2L743.965 2.62325L741.471 3.662L740.64 2H744.588ZM592.039 3.45425H581.855L572.503 4.0775L592.039 3.45425ZM417.667 8.2325H414.757L410.393 8.648H404.573L417.667 8.2325ZM236.228 9.8945H240.593L260.753 10.31L262.623 9.8945L299.41 10.31L236.228 9.8945ZM644.413 2.62325L625.708 2.20775L623.837 3.2465L614.693 2.831L612.407 3.2465L644.413 2.62325ZM646.491 2.20775H649.817H652.311H646.491ZM457.571 7.4015L459.857 6.36275L473.782 5.94725H477.523L487.707 6.36275L457.571 7.4015ZM498.306 5.94725L510.36 5.53175L498.306 5.94725ZM550.264 4.493H539.665L532.391 4.9085L550.264 4.493Z" stroke="#7F7F7F" stroke-width="3.055" stroke-linejoin="round"/>
<path d="M252.647 530.308H241.008M632.566 166.953H630.696H632.566ZM145.405 349.981L156.42 349.566H169.929H178.658H190.089L145.405 349.981ZM623.837 167.369L628.618 166.953L623.837 167.369Z" stroke="#7F7F7F" stroke-width="3.055" stroke-linejoin="round"/>
<path d="M493.526 6.36275V2M493.318 2L493.526 6.36275V13.0108V16.7503L494.565 50.8213V57.0538V60.3778L495.604 73.2583V79.4908V81.9838L496.02 92.1635V99.8503L496.435 113.354L496.02 115.224L497.059 122.495V125.819V129.143L497.475 141.193L498.514 154.696L499.553 172.978V179.626L500.592 201.232L501.008 206.426V210.373L501.424 218.06V221.384L502.463 238.627V239.043L502.878 248.599L503.294 263.973L504.333 297.213L505.372 325.467V328.375V331.699V333.569L505.788 340.217L506.204 343.541L493.318 2ZM496.02 115.432L496.435 102.551L496.02 100.266V115.432ZM502.671 249.015L503.086 262.519V264.388L502.671 249.015ZM500.8 206.842V204.556L500.384 201.648L500.8 206.842ZM495.396 82.3993V73.6738V64.1173L494.981 60.3778L494.565 57.4693L495.396 82.3993ZM494.565 51.029L494.149 19.8665L493.734 16.958L494.565 51.029ZM497.475 141.4V154.904L499.345 173.186L497.475 141.4Z" stroke="#7F7F7F" stroke-width="3.055" stroke-linejoin="round"/>
<path d="M373.814 430.381V431.835V434.743M362.799 124.157L362.383 120.418V117.925L361.344 100.681L360.928 92.9945L359.889 90.5015L350.744 84.269L326.636 72.635L316.66 65.987L315.621 59.7545V55.3918L314.581 18.4123V10.31L314.374 2L362.799 124.157ZM360.928 92.9945L358.019 89.0473L350.744 84.269L323.31 70.7653L317.491 64.1173L315.621 55.3918L315.205 22.775L314.789 18.4123V15.5038V10.31L360.928 92.9945ZM362.799 126.027L361.76 132.259L362.175 145.763L363.214 168.823L364.669 214.528L365.085 223.669V228.863L365.501 237.589L366.54 261.688L366.955 267.92L362.799 126.027ZM377.139 564.795V561.471V564.795ZM371.528 369.302V364.524V361.615L370.489 355.383L370.904 359.122L370.489 363.07L371.528 369.302ZM362.383 117.925L361.967 125.196L362.383 117.925ZM373.814 438.067V443.261V449.494V455.311V458.219L374.23 462.582L373.814 438.067ZM375.684 496.653L375.269 492.913V488.551L375.684 496.653ZM376.724 536.956L376.308 531.139L375.892 526.361L376.724 536.956ZM363.214 168.823L362.799 145.763L361.76 132.259L363.214 168.823ZM367.995 292.85L367.579 280.385L367.163 269.79L367.579 266.466L366.54 261.688L367.995 292.85ZM370.489 349.981L369.449 327.96L368.41 315.495V307.393V304.484L370.489 349.981ZM369.449 327.96L369.865 338.14L369.449 327.96ZM372.775 410.644L373.19 424.564L373.606 428.511L372.775 410.644ZM374.23 465.906V466.945V470.269V465.906ZM375.269 481.695L374.853 472.969V472.554L375.269 481.695ZM371.528 373.665V370.756V369.302V373.665Z" stroke="#7F7F7F" stroke-width="3.055" stroke-linejoin="round"/>
<path d="M602.638 510.572L602.223 504.755V500.808L601.807 495.614V487.927M611.367 119.379V129.974L611.783 148.256V160.305V167.992L612.822 185.235L613.238 206.841V208.711V213.489L614.277 224.5V235.511L613.238 239.25L614.277 224.292L611.367 119.379ZM595.364 328.375V310.509V305.315L594.325 293.681V284.124V281.631L591 278.307L595.364 328.375ZM609.497 74.297V83.0225L609.913 91.1247V97.7727L610.328 109.199V111.692L609.913 120.417L611.367 129.974L609.497 74.297ZM610.328 111.692L610.952 99.6425L609.913 97.7727L610.328 111.692ZM613.238 208.711L612.822 185.235L613.238 208.711ZM611.783 167.992L612.199 160.305L611.783 148.256V167.992ZM608.458 54.9762V49.1592L608.042 40.0182V32.747L607.626 19.8665L607.211 3.03875V2L608.458 54.9762ZM608.873 61.6242V69.311V61.6242ZM607.003 2V3.03875V2ZM596.403 351.02L596.819 357.668V365.77V368.263L597.235 379.274L597.65 385.091L598.066 396.725L596.403 351.02ZM595.988 337.101L596.403 347.28L596.819 357.876L595.988 337.101ZM608.873 57.2615V51.4445V57.2615ZM596.403 344.372L595.364 310.716L596.403 344.372Z" stroke="#7F7F7F" stroke-width="3.055" stroke-linejoin="round"/>
<path d="M595.364 328.375L595.78 337.101M609.913 90.917V89.0473L609.497 82.8148V76.1667V74.297V71.804L609.081 69.311L609.497 64.5327L609.081 61.6242V57.2615L608.666 54.7685L609.913 90.917ZM596.403 344.372V347.281V351.228V344.372ZM611.367 119.379L610.328 111.692L611.367 119.379ZM608.873 51.6522L608.458 49.1592L608.873 51.6522Z" stroke="#7F7F7F" stroke-width="3.055" stroke-linejoin="round"/>
<path d="M274.677 530.308L278.003 530.724L282.367 530.308H274.677ZM274.677 530.308H270.729H241.008H218.355H195.909H158.914L151.64 530.724H142.911H117.555L274.677 530.308ZM285.277 449.909L282.367 449.494M608.458 512.026L608.042 510.157L607.626 504.34L608.458 512.026ZM456.116 266.881L458.61 266.466H461.935L456.116 266.881ZM464.221 264.388H458.402H455.492H464.221ZM296.5 627.327L292.551 627.743L285.9 627.327L284.446 627.743L282.991 628.158H280.081H276.756L271.976 627.12L258.051 626.081H254.725H249.945H248.075L243.295 625.666L240.385 625.25L230.825 623.796L225.421 622.757L222.511 622.342L219.602 621.926L217.108 621.511L209.418 620.472L204.638 620.887L198.818 620.472H198.403H162.655L153.095 620.887H147.899H125.245H122.959L107.579 621.303L101.344 620.264L296.5 627.327ZM284.446 627.743L276.756 628.158L284.446 627.743ZM126.284 440.353H148.938L159.953 438.898L165.773 438.483L180.737 421.655L185.101 416.461L189.466 411.06L193.207 406.697L199.442 399.01L202.351 395.063L205.677 386.338V383.429L205.261 371.795L204.845 360.161L204.43 349.566L202.559 349.15H200.065L196.74 349.566L178.866 349.15L126.284 440.353ZM122.959 621.095L109.45 620.679L107.579 621.718L103.631 620.264L122.959 621.095ZM499.345 173.186L454.661 175.679H447.387L408.938 178.172L383.998 178.587H382.959L379.01 177.549L372.359 172.355L369.865 170.485L368.41 169.446L366.955 169.031H363.007L499.345 173.186ZM499.761 265.011L503.086 264.596H505.996L499.761 265.011ZM252.647 530.308H270.936H252.647ZM614.277 235.719L613.238 239.458L603.678 248.184L600.768 250.677L614.277 235.719ZM583.518 619.225H595.572H583.518ZM587.259 616.732L583.933 616.317L587.259 616.732ZM445.516 626.289L447.387 627.743L445.516 626.289ZM515.141 622.134L513.27 623.172L515.141 622.134ZM516.18 617.148H513.27H516.18ZM449.257 630.236L448.218 628.782L449.257 630.236ZM169.929 349.566L145.405 349.981H140.625H138.754H136.26H134.39L132.935 350.397L131.065 352.267L126.7 358.084L169.929 349.566ZM761.423 149.087H758.098H741.263L733.989 150.126L727.338 147.633L722.974 146.179L714.868 144.724H711.959L705.724 144.309L679.329 143.893L670.6 147.633L668.729 149.087L653.35 163.006L644.205 165.915L632.566 166.954L761.423 149.087ZM627.578 166.538L611.783 167.992L623.837 167.577L627.578 166.538ZM668.522 149.087L655.636 161.967L643.997 165.707L630.072 166.122L668.522 149.087ZM761.423 148.671L758.098 149.087L761.423 148.671ZM725.26 147.217L727.131 147.633L731.495 148.671L741.055 149.087L725.26 147.217ZM615.732 82.8147L618.226 82.3992L615.732 82.8147ZM440.113 412.93L441.152 410.437L445.516 405.243L448.426 401.919L450.297 397.972L450.712 392.155L451.128 380.521V380.105L454.453 367.64L465.053 342.71V317.157V305.315L440.113 412.93ZM370.073 266.466H367.579H364.254H370.073ZM363.838 268.751L367.163 269.79L370.073 268.336L363.838 268.751ZM458.402 264.388V266.258V267.712L458.818 276.438L458.402 264.388ZM510.776 507.664L511.192 509.533L510.776 507.664ZM450.712 392.362L449.673 398.179L448.218 402.127L450.712 392.362ZM505.165 262.518H503.294H500.384H505.165ZM665.612 623.588H661.247L657.506 624.003L665.612 623.588ZM572.503 511.611H570.632H572.503ZM702.606 507.248H699.697H702.606ZM634.021 509.118L632.151 509.533L634.021 509.118ZM605.132 501.847V505.171L605.548 511.403L605.132 501.847ZM117.555 530.308L143.119 530.724L117.555 530.308ZM126.284 440.768L159.953 438.898L126.284 440.768ZM720.48 145.763L714.661 144.724L720.48 145.763ZM282.991 453.856L282.575 449.494L285.069 448.039V446.17L282.991 453.856ZM705.516 144.309H682.031L670.6 147.633L705.516 144.309ZM440.113 416.461L441.152 410.644L440.113 416.461ZM520.96 619.641H515.764H520.96ZM667.482 618.187L664.573 617.771H666.028H665.612H664.573L667.482 618.187ZM184.893 416.461L181.984 419.785L180.529 421.655L184.893 416.461ZM204.638 360.577V352.89L204.222 349.981H196.532L190.297 349.566L204.638 360.577ZM454.661 367.848L460.48 356.214L465.884 341.879L465.468 317.365L454.661 367.848ZM145.405 349.981H138.754H145.405Z" stroke="#7F7F7F" stroke-width="3.055" stroke-linejoin="round"/>
<path d="M612.822 626.289L609.497 628.782L610.536 626.912L612.822 626.289ZM612.822 626.289L614.693 625.873L615.732 625.458L617.187 625.042L612.822 626.289ZM324.765 522.206L307.931 507.871L289.641 492.082H287.771M333.91 529.893L330.585 526.984L324.765 522.206L307.931 511.195L287.771 491.874L281.12 486.057L280.081 484.188H276.756L266.78 473.592L260.129 467.775L239.346 451.986L225.421 439.521L189.466 411.267L176.996 398.802L172.216 395.478L146.236 374.911L127.116 358.499L111.736 346.449L103.007 338.347L63.5187 305.73L2 255.663L333.91 529.893ZM341.6 536.125L359.473 550.46L362.799 552.745L365.293 554.615L368.202 557.523L371.112 559.393L377.347 564.587L389.817 575.182L396.052 580.376L399.793 583.7L403.118 586.193L404.989 588.478L416.628 597.619L423.278 602.397L430.552 608.214L438.242 614.447L440.113 616.317L445.932 621.095L447.803 625.042L455.908 627.327L457.779 628.366L459.233 630.236L341.6 536.125ZM456.116 627.743L449.881 624.834L448.01 622.965V625.458L430.76 608.63L456.116 627.743ZM342.015 535.502L359.265 550.46L342.015 535.502ZM126.7 358.291L116.101 349.566L111.32 346.242L108.826 343.749L102.591 337.932L75.1573 315.91L63.103 305.315L2 254.624L126.7 358.291ZM171.8 395.271L173.67 397.14L189.05 411.06L221.68 435.574L228.331 441.807L235.605 446.585L238.514 449.078L262.623 470.684L274.677 479.825L276.548 484.188L278.418 483.772L280.912 486.265L171.8 395.271Z" stroke="#7F7F7F" stroke-width="3.055" stroke-linejoin="round"/>
<path d="M595.364 625.873V619.225M665.612 623.588H667.482H665.612ZM611.783 167.992L542.159 171.316L534.053 173.809L525.74 176.51L499.345 173.186L611.783 167.992ZM615.108 260.233L615.524 252.962L615.108 260.233ZM451.128 631.69L449.257 630.236L451.128 631.69ZM456.116 627.743L455.077 607.591H446.348L456.116 627.743ZM449.673 625.042V619.225H446.763L449.673 625.042ZM445.516 626.289L444.062 631.067L445.516 626.289ZM664.781 617.771L659.585 618.187L664.781 617.771ZM509.321 621.511L513.27 622.965L509.321 621.511ZM465.261 305.315L460.48 295.758L459.026 276.645L465.261 305.315Z" stroke="#7F7F7F" stroke-width="3.055" stroke-linejoin="round"/>
<path d="M657.506 624.003H652.726L641.295 624.419L617.187 624.834M609.497 628.782L607.003 626.289L595.364 625.873L583.933 626.289L561.279 627.327L538.21 627.743L515.14 629.197L467.131 630.236H464.221L459.441 630.651L609.497 628.782Z" stroke="#7F7F7F" stroke-width="3.055" stroke-linejoin="round"/>
<path d="M749.369 199.155L754.149 198.739M749.369 198.739H754.149H764.748L767.658 198.324H776.803L749.369 198.739Z" stroke="#7F7F7F" stroke-width="3.055" stroke-linejoin="round"/>
<path d="M845.388 76.5823L841.439 76.9977M732.95 80.945L750.2 80.5295L754.149 80.114H755.188L770.152 79.6985H773.477H777.842H780.751L785.116 79.283L789.48 79.6985L841.854 77.2055H845.18L732.95 80.945Z" stroke="#7F7F7F" stroke-width="3.055" stroke-linejoin="round"/>
<path d="M854.117 73.6738V76.9977M854.117 76.9977L852.246 76.5822L854.117 76.9977Z" stroke="#7F7F7F" stroke-width="3.055" stroke-linejoin="round"/>
<path d="M831.463 253.377H834.373L836.243 252.962L845.388 254.001M846.427 248.599V251.092H844.556L835.412 250.677L830.216 251.092L846.427 248.599ZM817.538 252.962L810.887 256.286L798.002 262.934L770.983 264.388L817.538 252.962ZM769.113 265.012H766.619L757.89 264.596H751.239H748.33L769.113 265.012ZM770.983 265.012L795.923 263.973L810.887 256.286L817.538 252.546L770.983 265.012ZM746.043 265.012L751.239 264.596L746.043 265.012ZM769.113 264.388L766.619 264.804L769.113 264.388Z" stroke="#7F7F7F" stroke-width="3.055" stroke-linejoin="round"/>
<path d="M832.086 482.733L830.216 483.149M833.957 482.733H838.321L846.011 482.318H850.791L833.957 482.733Z" stroke="#7F7F7F" stroke-width="3.055" stroke-linejoin="round"/>
<path d="M838.321 614.862L833.957 614.447L816.707 614.031L807.146 617.356M806.938 617.148L807.978 621.095L806.938 617.148Z" stroke="#7F7F7F" stroke-width="3.055" stroke-linejoin="round"/>
<path d="M803.613 610.915L800.703 611.954M806.107 625.042L806.523 623.172L807.978 621.303L806.523 627.12L806.107 625.042ZM806.938 617.148L807.354 615.278L806.938 614.239L803.613 610.915V606.968L806.938 617.148Z" stroke="#7F7F7F" stroke-width="3.055" stroke-linejoin="round"/>
<path d="M850.376 518.259H847.882M799.872 663.892L800.911 662.853L801.327 661.399V651.842L800.911 642.286V638.962L801.327 637.507L804.652 633.144L805.691 631.69L806.107 631.275L806.523 626.912V622.965L802.574 620.056L800.703 617.563V614.239L803.613 610.915V606.968V605.929L804.029 603.021L805.068 601.567L807.562 598.243L807.978 596.788V594.918V594.503L806.938 591.594V589.933L809.225 584.739L812.134 581.83L812.55 581.415L815.875 579.129L821.071 571.443L824.396 566.664L825.436 565.21L827.306 554.199L826.89 551.707L825.851 548.798L823.981 545.889L822.526 542.981L821.487 541.111L821.071 539.657L820.655 537.787V537.372V535.502V534.463L821.071 533.009V532.593L821.487 531.555L822.942 529.685L828.761 523.868L831.047 521.583H831.463H833.333L836.243 521.167L799.872 663.892ZM803.613 607.176L800.703 611.954L800.288 619.225L806.107 625.042L806.523 626.912L803.613 607.176ZM821.487 571.027L815.667 578.298L812.758 581.207L821.487 571.027ZM843.933 518.674L842.894 519.713H840.4L843.933 518.674ZM843.101 519.713H840.192H843.101Z" stroke="#7F7F7F" stroke-width="3.055" stroke-linejoin="round"/>
<path d="M827.722 483.564L830.216 483.149M779.089 506.209L774.309 506.625L769.528 505.17H763.709H758.929H753.11L779.089 506.209ZM758.929 505.17L753.11 505.586L758.929 505.17ZM827.722 483.564L807.978 494.575L785.324 499.353L789.273 494.991L803.198 493.536L818.577 484.395L827.722 483.564Z" stroke="#7F7F7F" stroke-width="3.055" stroke-linejoin="round"/>
<path d="M788.649 37.733V33.3702V31.085M750.2 298.667L750.616 291.396L755.396 271.244L757.89 264.596L760.384 255.87L767.658 229.486L768.697 226.162L775.971 201.648L777.01 198.324L777.426 195L777.842 191.676L777.426 188.767L777.01 174.848L775.971 148.879L750.2 298.667ZM777.218 194.792V191.468V188.559L777.634 177.549L776.595 174.64L777.01 158.851L775.556 147.84L777.01 144.101L778.881 140.361L780.751 136.414L785.532 125.819L789.896 112.938L788.857 79.6985V69.5187L777.218 194.792ZM789.273 65.987V61.6242V65.987ZM788.649 37.733V40.226V44.5887V48.536V37.733ZM789.273 55.3917L788.857 52.0677L789.273 55.3917ZM788.857 2L787.818 3.03875L786.363 2H788.857ZM776.803 198.116L775.348 204.764L769.113 226.37L767.658 229.278L759.552 255.663L758.098 264.388L776.803 198.116ZM775.763 147.633L779.089 139.946L785.739 125.611L775.763 147.633ZM787.818 8.2325V5.94725V8.2325ZM788.233 15.0882V11.7642V15.0882ZM788.649 30.8772L788.233 26.099V23.8137L788.649 30.8772ZM788.233 23.8137V18.8277V15.0882V23.8137ZM787.818 3.03875V5.94725V3.03875ZM788.649 48.1205V52.0677V48.1205ZM789.273 55.3917V58.3002V61.6242V55.3917ZM789.273 65.987V69.311V65.987ZM788.233 11.7642L787.818 8.2325L788.233 11.7642Z" stroke="#7F7F7F" stroke-width="3.055" stroke-linejoin="round"/>
<path d="M839.153 340.84V336.893M839.776 352.059V359.33V360.784L840.192 362.654V364.524L840.608 376.573L841.647 383.845L844.556 386.338L850.791 482.526L850.376 518.674L848.505 526.777L848.09 529.685L849.129 532.594L849.544 535.502V540.904L849.96 546.097V550.045L849.544 552.538L847.674 556.485L846.635 560.848V563.341V565.21L847.05 569.573L847.466 572.897L847.05 576.221L846.635 579.545L845.596 583.492L844.556 589.309V593.257L843.102 608.215L841.647 614.447L840.192 616.317L839.776 352.059ZM847.466 572.066V570.196L847.05 568.742L847.466 572.066ZM846.427 560.017V564.379V560.017ZM854.117 76.9978L853.701 80.7373L851.831 101.512V105.875L853.285 107.329L853.701 111.692L854.117 117.509V120.833L853.078 139.531L852.662 152.411V160.098V164.876V165.915L852.246 167.785L850.791 179.419L849.752 181.288V189.391V191.26L849.337 205.18L848.297 221.592L847.882 225.539L847.466 239.458L846.427 248.599V251.092L845.388 254.001V266.05V277.061V281.008V286.825L844.972 292.019L844.556 311.132V321.312V326.09L843.517 329.414L841.647 332.323L840.608 333.777L839.153 337.101L838.737 341.048L854.117 76.9978ZM841.647 383.637L842.062 386.13L846.011 431.419V482.318L845.596 495.822L848.09 499.561L848.505 505.378V506.417L848.921 515.143L847.882 518.467L848.297 526.569L841.647 383.637ZM858.066 2V4.9085V5.94725L857.65 12.1798V14.0495L857.234 20.282L858.273 26.099L855.987 53.9375L855.572 55.3918L855.156 64.5328L854.74 67.0258V69.9343L854.325 73.6738L858.066 2ZM845.388 582.661H845.803L846.219 580.168V578.714L845.388 582.661ZM845.388 280.801L844.972 286.618V291.811L845.388 280.801ZM849.337 540.28L850.376 544.643L849.96 545.682L849.337 540.28ZM853.701 111.692L851.831 105.875L853.285 88.6318V87.1775L853.701 84.6845V83.6458V80.945V111.692ZM839.776 360.577L840.192 364.524L839.776 360.577ZM858.066 5.94725V2V5.94725ZM845.388 254.001L845.803 260.233L845.388 266.05V254.001ZM850.791 179.419L849.752 189.598L850.791 179.419ZM846.427 251.092L847.466 239.458L846.427 251.092ZM844.556 311.132L844.972 321.727L844.556 326.09V311.132Z" stroke="#7F7F7F" stroke-width="3.055" stroke-linejoin="round"/>
<path d="M775.764 201.648L775.348 204.972M843.102 607.176L841.647 613.408L840.192 615.278L843.102 607.176ZM842.062 490.005L845.388 495.822L847.882 499.561L848.297 505.378V506.417L847.882 518.466H850.376L842.062 490.005ZM766.619 148.256L762.254 148.671L757.89 149.087H741.055L766.619 148.256ZM773.27 79.4907L772.23 44.7965L770.568 2L773.27 79.4907ZM803.613 610.915L800.704 611.954L803.613 610.915ZM766.619 147.633L762.254 148.671L766.619 147.633ZM775.764 147.633H772.854L768.489 148.048H771.399H773.685L775.764 147.633Z" stroke="#7F7F7F" stroke-width="3.055" stroke-linejoin="round"/>
<path d="M842.062 490.005L838.114 482.733" stroke="#7F7F7F" stroke-width="3.055" stroke-linejoin="round"/>
<path d="M661.871 696.924H658.961" stroke="#7F7F7F" stroke-width="3.055" stroke-linejoin="round"/>
<path d="M629.033 731.202L629.449 723.1L627.994 719.776L626.124 713.959M629.033 713.336L627.994 719.569L627.578 722.893L627.994 732.033L629.033 713.336Z" stroke="#7F7F7F" stroke-width="3.055" stroke-linejoin="round"/>
<path d="M609.912 721.023L608.873 704.611L607.418 691.107L608.458 671.371L607.418 630.444" stroke="#7F7F7F" stroke-width="3.055" stroke-linejoin="round"/>
<path d="M473.782 699.001H471.911" stroke="#7F7F7F" stroke-width="3.055" stroke-linejoin="round"/>
<path d="M451.751 793.112V789.788M450.712 767.143V762.781L450.296 760.288V756.963V752.185L449.881 749.277V744.914L449.465 739.72L449.049 727.671V720.399V717.076L448.634 711.882L450.712 767.143ZM448.842 720.607V723.1V727.878V720.607ZM452.583 816.796V819.704V816.796ZM452.583 819.496L453.414 833L452.583 819.496ZM452.583 816.796V814.303L451.543 793.112L452.583 816.796ZM450.712 767.143L451.751 789.788L450.712 767.143Z" stroke="#7F7F7F" stroke-width="3.055" stroke-linejoin="round"/>
<path d="M516.18 654.751L515.14 662.853L516.595 671.578L516.18 674.071" stroke="#7F7F7F" stroke-width="3.055" stroke-linejoin="round"/>
<path d="M630.488 762.781V758.833M470.456 673.032L466.715 672.617L470.456 673.032ZM471.911 702.325V699.001L471.495 683.212L471.911 702.325Z" stroke="#7F7F7F" stroke-width="3.055" stroke-linejoin="round"/>
<path d="M517.634 707.519L517.219 704.61L517.634 702.741M515.14 662.853L516.595 654.127L515.14 662.853ZM517.634 677.811L516.18 674.071L517.219 677.811H517.634ZM517.634 682.173L517.219 688.821V691.314V700.871L517.634 702.741L518.05 705.234L517.634 707.727V714.998L518.05 720.815V722.269L518.466 738.058V739.512V742.836V751.977L518.881 755.302V757.171V762.365V765.273L519.297 770.052V774.414L519.713 778.362V782.724L520.128 791.45V794.358V804.538L520.544 807.862V811.602V814.095V816.588L520.96 820.951V824.69L521.375 833.208L517.634 682.173Z" stroke="#7F7F7F" stroke-width="3.055" stroke-linejoin="round"/>
<path d="M263.662 774.83L266.987 774.414L268.442 774.83M307.099 772.545H304.19L301.696 772.96L299.409 773.376L295.461 773.791L292.967 773.376L307.099 772.545ZM307.099 772.545H309.593L322.063 772.129L330.792 771.714H337.443H343.678L374.853 770.675L382.543 770.259L393.558 769.844H399.377L405.197 769.428H411.432L413.926 769.013H423.07L424.941 768.597H431.176H434.501L445.516 768.182L450.92 767.766H456.739H461.519L307.099 772.545ZM524.701 761.326L521.375 765.273H519.089L473.782 766.728H463.598L461.104 767.143L524.701 761.326ZM646.907 759.041L641.087 758.625L630.488 759.041L626.539 758.625L607.211 759.664L587.466 760.08L564.813 761.118L541.743 761.534H524.493L646.907 759.041ZM654.181 762.365L646.907 760.911L641.087 761.326L630.488 762.78H626.539L607.211 762.365L587.466 762.78L564.813 763.819L541.743 764.235L521.168 765.273L654.181 762.365ZM2 778.154H20.9128H43.5667H48.7625L56.868 777.738H65.597L71.4163 778.154H73.9103H80.561H84.9255L94.0702 778.569L97.3955 778.154H100.305L103.215 778.569L110.905 778.154H112.775H117.555H121.92L156.004 776.7L161.2 777.115L179.074 776.7H185.309L196.74 776.284L213.99 775.245L232.279 774.83L238.93 775.245L246.204 775.661L253.478 774.622H263.662H268.442L279.873 774.207L283.822 773.791H286.732H290.68L293.174 773.376L2 778.154ZM84.9255 778.154H73.9103L69.5458 777.738H65.597L54.5818 778.154H48.7625L43.5667 777.738L20.9128 778.154H84.9255ZM280.081 774.414L281.951 774.83L285.9 774.414L287.771 773.999H290.68L293.174 774.414H280.081ZM307.099 772.545L301.696 772.96L307.099 772.545ZM654.597 759.041L648.362 758.002L654.597 759.041ZM57.0758 777.738L54.5818 778.154L57.0758 777.738ZM156.004 776.907L117.555 778.362L110.905 777.946L103.215 778.985L156.004 776.907ZM161.408 777.323L164.11 776.907L173.67 776.492L178.866 776.907L161.408 777.323ZM253.686 774.83H250.361L246.62 773.791L239.346 775.245L236.02 775.661L214.406 776.076H197.155H188.426L185.517 776.492L253.686 774.83Z" stroke="#7F7F7F" stroke-width="3.055" stroke-linejoin="round"/>
<path d="M524.701 761.326L518.881 762.365M438.658 672.617H444.893L447.387 673.032L451.751 673.448L438.658 672.617ZM444.061 673.032H447.387L449.673 672.617H452.583H457.363H462.559H466.507L444.061 673.032ZM470.456 673.032V674.902L470.872 678.226L471.288 683.004L470.456 673.032ZM453.622 673.032L457.571 672.617L459.857 673.032L462.766 672.617L453.622 673.032ZM22.3677 833V832.584V829.676L20.9128 778.154L19.8737 766.104V729.54L19.458 720.399V727.047L18.0032 729.956L19.458 734.734V763.611L20.9128 777.946V780.439L22.3677 829.468V833ZM702.19 833L690.967 823.443L687.226 823.028L702.19 833ZM613.653 801.422L610.744 804.331L612.199 805.369L614.069 808.693L611.575 810.563L610.536 812.017L613.653 801.422ZM614.277 808.486L616.771 811.394L618.641 813.887L619.057 814.302L621.551 817.627L614.277 808.486ZM610.952 723.931L627.786 722.892H629.657L645.452 721.854H650.232L655.012 721.438L659.792 721.023L610.952 723.931ZM609.912 721.023L628.202 719.568H638.801L645.452 718.53H650.232L655.012 718.945L658.338 717.906L609.912 721.023ZM654.597 701.91L657.922 702.948L654.597 701.91ZM612.199 805.162L615.108 803.707L612.199 805.162ZM616.563 811.394L621.759 815.757L622.798 817.211L616.563 811.394ZM626.747 758.625V762.988V758.625ZM656.467 823.443L650.232 823.859L634.852 824.274L627.163 820.951L656.467 823.443ZM626.747 821.989L634.437 824.898L648.362 824.482L656.467 824.067L626.747 821.989ZM687.226 823.443H690.967L701.151 833L687.226 823.443Z" stroke="#7F7F7F" stroke-width="3.055" stroke-linejoin="round"/>
<path d="M663.741 739.305L662.702 741.798H655.428L655.012 743.668L655.428 746.161L655.844 748.03L663.533 744.291L663.949 741.382L663.741 739.305ZM663.741 739.305L663.326 736.396L662.91 733.488L660 721.023L658.545 718.114L658.13 702.741L658.545 700.871L663.741 739.305ZM619.473 809.524L618.018 809.94L616.563 811.394M658.545 647.064L658.961 696.924L658.545 700.871V647.064ZM548.602 833L555.46 830.092L566.891 825.313L572.71 822.82L599.729 812.225L603.054 811.809H610.744L616.563 811.394L619.473 809.524L623.837 806.2L631.527 800.383L645.868 789.373L647.738 787.918L648.154 786.879L649.193 782.932L650.648 775.661L653.973 762.157L654.389 758.833L655.844 752.185L548.602 833ZM572.918 823.028L594.117 814.926L608.458 813.056L610.952 812.017L572.918 823.028ZM656.467 752.393L654.597 759.041L656.467 752.393Z" stroke="#7F7F7F" stroke-width="3.055" stroke-linejoin="round"/>
<path d="M815.667 735.981L812.342 736.396H794.053M815.667 735.981L818.161 736.396L815.667 735.981Z" stroke="#7F7F7F" stroke-width="3.055" stroke-linejoin="round"/>
<path d="M794.053 724.97V726.84V732.033V736.396M792.598 681.55L794.053 724.762L792.598 681.55ZM792.598 681.55V678.226V676.357L794.884 669.709L795.3 669.293L799.664 663.892L800.704 662.853L801.119 661.399V651.842V644.155L792.598 681.55ZM800.704 644.155L801.119 651.842L800.704 644.155Z" stroke="#7F7F7F" stroke-width="3.055" stroke-linejoin="round"/>
</svg>
