<svg width="654" height="818" viewBox="0 0 654 818" fill="none" xmlns="http://www.w3.org/2000/svg">
<path d="M344.9 112.417H343.029M343.029 112.833H344.9H343.029Z" stroke="#7F7F7F" stroke-width="3.055" stroke-linejoin="bevel"/>
<path d="M32.9421 2.7255H35.8518M35.2283 1.8945H32.3186H35.2283Z" stroke="#7F7F7F" stroke-width="3.055" stroke-linejoin="bevel"/>
<path d="M260.727 438.585L258.857 439.624L260.727 439.208" stroke="#7F7F7F" stroke-width="3.055" stroke-linejoin="bevel"/>
<path d="M304.996 346.344L304.58 344.059" stroke="#7F7F7F" stroke-width="3.055" stroke-linejoin="bevel"/>
<path d="M407.458 610.187V608.317L407.042 604.369" stroke="#7F7F7F" stroke-width="3.055" stroke-linejoin="bevel"/>
<path d="M512.206 499.663H504.1M538.808 497.794L534.444 498.209L538.808 497.794ZM552.11 497.17L547.329 497.586L552.11 497.17ZM547.745 498.209L552.11 497.794L547.745 498.209ZM534.444 498.625L538.808 498.209L534.444 498.625Z" stroke="#7F7F7F" stroke-width="3.055" stroke-linejoin="bevel"/>
<path d="M125.636 622.652L120.44 620.782M120.44 621.197L125.636 623.067L120.44 621.197Z" stroke="#7F7F7F" stroke-width="3.055" stroke-linejoin="bevel"/>
<path d="M161.799 118.027V116.157" stroke="#7F7F7F" stroke-width="3.055" stroke-linejoin="bevel"/>
<path d="M4.46886 93.0968H0.52002M0.72785 93.5123H3.63752H0.72785ZM344.484 82.917H341.575H344.484Z" stroke="#7F7F7F" stroke-width="3.055" stroke-linejoin="bevel"/>
<path d="M444.868 207.567L445.907 208.606M447.777 208.813L445.907 208.398L444.868 206.944L447.777 208.813ZM2.18274 206.113L4.67673 206.528L2.18274 206.113Z" stroke="#7F7F7F" stroke-width="3.055" stroke-linejoin="bevel"/>
<path d="M429.488 158.954H427.618" stroke="#7F7F7F" stroke-width="3.055" stroke-linejoin="bevel"/>
<path d="M519.48 137.763L521.766 138.178L524.26 139.217M5.92373 205.49L2.18274 205.905L5.92373 205.49ZM429.072 158.538H426.578H429.072Z" stroke="#7F7F7F" stroke-width="3.055" stroke-linejoin="bevel"/>
<path d="M648.752 68.5823H651.246M643.972 68.9977L648.752 68.5823L653.117 68.9977H643.972ZM648.752 68.5823H644.388H648.752Z" stroke="#7F7F7F" stroke-width="3.055" stroke-linejoin="bevel"/>
<path d="M632.957 474.733H631.086" stroke="#7F7F7F" stroke-width="3.055" stroke-linejoin="bevel"/>
<path d="M569.983 256.388H568.113M616.538 244.546H621.318L630.463 245.585L616.538 244.546ZM629.008 243.092L621.318 244.546L616.538 244.962L629.008 243.092ZM568.113 257.011H569.983H568.113Z" stroke="#7F7F7F" stroke-width="3.055" stroke-linejoin="bevel"/>
<path d="M637.321 606.863L639.192 607.278" stroke="#7F7F7F" stroke-width="3.055" stroke-linejoin="bevel"/>
<path d="M639.192 511.713L635.866 512.752L639.815 511.713M642.933 510.674L646.882 510.259L642.102 511.713L642.933 510.674Z" stroke="#7F7F7F" stroke-width="3.055" stroke-linejoin="bevel"/>
<path d="M547.745 498.209L552.11 497.794M584.324 491.561L578.089 498.209L580.999 495.716L584.324 491.561ZM552.11 497.17L547.33 497.586L552.11 497.17Z" stroke="#7F7F7F" stroke-width="3.055" stroke-linejoin="bevel"/>
<path d="M637.737 332.84L638.776 343.851L638.36 332.84" stroke="#7F7F7F" stroke-width="3.055" stroke-linejoin="bevel"/>
<path d="M574.764 139.633V140.671M565.619 140.256H567.489L565.619 139.84V140.256ZM572.893 140.256L574.764 139.84L572.893 140.256Z" stroke="#7F7F7F" stroke-width="3.055" stroke-linejoin="bevel"/>
<path d="M316.011 669.811L316.427 674.174V669.811" stroke="#7F7F7F" stroke-width="3.055" stroke-linejoin="bevel"/>
<path d="M420.343 809.627L425.539 813.989M250.751 665.448L252.622 665.033L250.751 665.448ZM486.227 815.028L455.467 815.443L486.227 815.028ZM455.467 815.859L486.227 815.443L455.467 815.859ZM426.163 812.951L421.798 809.211L426.163 812.951Z" stroke="#7F7F7F" stroke-width="3.055" stroke-linejoin="bevel"/>
<path d="M91.9667 766.414V765.376" stroke="#7F7F7F" stroke-width="3.055" stroke-linejoin="bevel"/>
<path d="M455.467 744.393L455.052 740.03V744.393" stroke="#7F7F7F" stroke-width="3.055" stroke-linejoin="bevel"/>
</svg>
