<svg width="656" height="818" viewBox="0 0 656 818" fill="none" xmlns="http://www.w3.org/2000/svg">
<path d="M345.9 112.417H344.029M344.029 112.833H345.9H344.029Z" stroke="#A3A3A3" stroke-width="2.2913" stroke-linecap="round" stroke-linejoin="round"/>
<path d="M33.9421 2.7255H36.8518M36.2283 1.8945H33.3186H36.2283Z" stroke="#A3A3A3" stroke-width="2.2913" stroke-linecap="round" stroke-linejoin="round"/>
<path d="M261.727 438.585L259.857 439.624L261.727 439.208" stroke="#A3A3A3" stroke-width="2.2913" stroke-linecap="round" stroke-linejoin="round"/>
<path d="M305.996 346.344L305.58 344.059" stroke="#A3A3A3" stroke-width="2.2913" stroke-linecap="round" stroke-linejoin="round"/>
<path d="M408.458 610.187V608.317L408.042 604.369" stroke="#A3A3A3" stroke-width="2.2913" stroke-linecap="round" stroke-linejoin="round"/>
<path d="M513.206 499.663H505.1M539.808 497.794L535.444 498.209L539.808 497.794ZM553.11 497.17L548.329 497.586L553.11 497.17ZM548.745 498.209L553.11 497.794L548.745 498.209ZM535.444 498.625L539.808 498.209L535.444 498.625Z" stroke="#A3A3A3" stroke-width="2.2913" stroke-linecap="round" stroke-linejoin="round"/>
<path d="M126.636 622.652L121.44 620.782M121.44 621.197L126.636 623.067L121.44 621.197Z" stroke="#A3A3A3" stroke-width="2.2913" stroke-linecap="round" stroke-linejoin="round"/>
<path d="M162.799 118.027V116.157" stroke="#A3A3A3" stroke-width="2.2913" stroke-linecap="round" stroke-linejoin="round"/>
<path d="M5.46886 93.0968H1.52002M1.72785 93.5123H4.63752H1.72785ZM345.484 82.917H342.575H345.484Z" stroke="#A3A3A3" stroke-width="2.2913" stroke-linecap="round" stroke-linejoin="round"/>
<path d="M445.868 207.567L446.907 208.606M448.777 208.813L446.907 208.398L445.868 206.944L448.777 208.813ZM3.18274 206.113L5.67673 206.528L3.18274 206.113Z" stroke="#A3A3A3" stroke-width="2.2913" stroke-linecap="round" stroke-linejoin="round"/>
<path d="M430.488 158.954H428.618" stroke="#A3A3A3" stroke-width="2.2913" stroke-linecap="round" stroke-linejoin="round"/>
<path d="M520.48 137.763L522.766 138.178L525.26 139.217M6.92373 205.49L3.18274 205.905L6.92373 205.49ZM430.072 158.538H427.578H430.072Z" stroke="#A3A3A3" stroke-width="2.2913" stroke-linecap="round" stroke-linejoin="round"/>
<path d="M649.752 68.5823H652.246M644.972 68.9977L649.752 68.5823L654.117 68.9977H644.972ZM649.752 68.5823H645.388H649.752Z" stroke="#A3A3A3" stroke-width="2.2913" stroke-linecap="round" stroke-linejoin="round"/>
<path d="M633.957 474.733H632.086" stroke="#A3A3A3" stroke-width="2.2913" stroke-linecap="round" stroke-linejoin="round"/>
<path d="M570.983 256.388H569.113M617.538 244.546H622.318L631.463 245.585L617.538 244.546ZM630.008 243.092L622.318 244.546L617.538 244.962L630.008 243.092ZM569.113 257.011H570.983H569.113Z" stroke="#A3A3A3" stroke-width="2.2913" stroke-linecap="round" stroke-linejoin="round"/>
<path d="M638.321 606.863L640.192 607.278" stroke="#A3A3A3" stroke-width="2.2913" stroke-linecap="round" stroke-linejoin="round"/>
<path d="M640.192 511.713L636.866 512.752L640.815 511.713M643.933 510.674L647.882 510.259L643.102 511.713L643.933 510.674Z" stroke="#A3A3A3" stroke-width="2.2913" stroke-linecap="round" stroke-linejoin="round"/>
<path d="M548.745 498.209L553.11 497.794M585.324 491.561L579.089 498.209L581.999 495.716L585.324 491.561ZM553.11 497.17L548.33 497.586L553.11 497.17Z" stroke="#A3A3A3" stroke-width="2.2913" stroke-linecap="round" stroke-linejoin="round"/>
<path d="M638.737 332.84L639.776 343.851L639.36 332.84" stroke="#A3A3A3" stroke-width="2.2913" stroke-linecap="round" stroke-linejoin="round"/>
<path d="M575.764 139.633V140.671M566.619 140.256H568.489L566.619 139.84V140.256ZM573.893 140.256L575.764 139.84L573.893 140.256Z" stroke="#A3A3A3" stroke-width="2.2913" stroke-linecap="round" stroke-linejoin="round"/>
<path d="M317.011 669.811L317.427 674.174V669.811" stroke="#A3A3A3" stroke-width="2.2913" stroke-linecap="round" stroke-linejoin="round"/>
<path d="M421.343 809.627L426.539 813.989M251.751 665.448L253.622 665.033L251.751 665.448ZM487.227 815.028L456.467 815.443L487.227 815.028ZM456.467 815.859L487.227 815.443L456.467 815.859ZM427.163 812.951L422.798 809.211L427.163 812.951Z" stroke="#A3A3A3" stroke-width="2.2913" stroke-linecap="round" stroke-linejoin="round"/>
<path d="M92.9667 766.414V765.376" stroke="#A3A3A3" stroke-width="2.2913" stroke-linecap="round" stroke-linejoin="round"/>
<path d="M456.467 744.393L456.052 740.03V744.393" stroke="#A3A3A3" stroke-width="2.2913" stroke-linecap="round" stroke-linejoin="round"/>
</svg>
