<svg width="49" height="81" viewBox="0 0 49 81" fill="none" xmlns="http://www.w3.org/2000/svg">
<path d="M39.9374 80.3125H34.2499V71.7812H22.8749C19.105 71.7775 15.4906 70.2782 12.8249 67.6125C10.1592 64.9468 8.65995 61.3324 8.65619 57.5625V53.9225L2.07006 51.73C1.66621 51.5952 1.29777 51.3715 0.991928 51.0753C0.686087 50.7791 0.45065 50.4181 0.302987 50.0188C0.155325 49.6194 0.099206 49.1921 0.138772 48.7682C0.178339 48.3443 0.31258 47.9347 0.531591 47.5696L8.65619 34.0248V26.2812C8.66371 19.4957 11.3626 12.9902 16.1607 8.19205C20.9589 3.39392 27.4644 0.695027 34.2499 0.6875H48.4687V6.375H34.2499C28.9723 6.38102 23.9126 8.48022 20.1807 12.2121C16.4489 15.9439 14.3497 21.0036 14.3437 26.2812V34.8125C14.343 35.3276 14.2025 35.8328 13.937 36.2742L7.23431 47.4558L12.4014 49.1763C12.9674 49.3654 13.4595 49.7279 13.8081 50.2122C14.1566 50.6965 14.344 51.2783 14.3437 51.875V57.5625C14.3459 59.8244 15.2455 61.9931 16.8449 63.5925C18.4444 65.1919 20.613 66.0915 22.8749 66.0938H37.0937C37.8479 66.0938 38.5712 66.3934 39.1045 66.9267C39.6378 67.46 39.9374 68.1833 39.9374 68.9375V80.3125Z" fill="white"/>
</svg>
