<svg width="728" height="276" viewBox="0 0 728 276" fill="none" xmlns="http://www.w3.org/2000/svg">
<path d="M307.97 147.649L297.37 147.234L294.045 144.325L295.915 136.223L304.021 133.73L318.362 133.314L324.181 129.991L322.726 123.343L324.181 106.515V103.191V102.568L323.765 101.529L322.726 99.659L320.232 0.562256M661.287 22.7915L660.871 25.7L659.832 29.855L657.338 40.4503L655.883 47.7215L654.844 52.4998L653.805 57.6935L653.389 58.7323L651.934 66.0035L651.518 68.4965V69.9507L651.103 71.405L648.193 86.363L647.154 90.7257L646.115 95.504L645.076 98.4125L644.036 104.229L643.621 106.099L641.75 112.747V114.617L641.335 116.487V118.357L639.464 125.628L638.009 132.276L637.593 134.561V136.431V140.378V146.611V149.519L637.178 152.843L638.217 157.206L644.452 160.53H649.232L657.338 160.114L661.287 160.53H664.612H668.561L661.287 22.7915ZM638.217 132.276L639.256 128.328L639.672 125.42L640.711 121.681L641.75 116.279L638.217 132.276ZM686.227 167.386L693.501 173.203L724.676 188.161L727.17 189.199L686.227 167.386ZM463.637 99.2435V103.191V111.293V99.2435ZM463.637 102.983L464.053 111.085L463.637 102.983ZM444.932 97.7893L443.893 114.617L442.438 116.487L426.643 139.547L444.932 97.7893ZM464.676 77.4298L497.93 104.437L504.165 105.476L509.36 105.061H514.14L539.08 106.099H545.731L547.602 105.684H550.927H555.707L559.033 106.099L561.942 105.684L565.268 105.268H566.307H569.216L575.036 104.853H578.361H583.557L585.012 104.437H585.427H588.337L589.376 104.853H591.247L595.196 105.268H595.611H602.885L464.676 77.4298ZM421.863 144.741L417.914 145.779L404.405 142.871L378.425 144.741L352.862 145.779L338.937 146.818L330.208 147.234H326.883L313.374 147.649H307.554H296.539L294.045 148.688L289.265 147.649L244.581 148.065L239.801 150.973L233.566 153.258L153.758 154.713L91.1997 153.258H81.2237L79.3532 153.674L59.1933 152.22H7.8585H1L421.863 144.741ZM330.624 147.234L326.259 151.181L324.804 164.062L323.765 166.97L322.726 169.878L330.624 147.234ZM320.024 187.953V191.277L321.063 213.922V228.879L315.244 242.383V260.25L315.66 266.482V270.845V275.208L320.024 187.953ZM637.801 140.378V144.325V146.818L638.217 149.727V152.22L637.801 149.727V140.378ZM637.801 144.325L637.386 138.508L637.801 136.638V144.325Z" stroke="#7F7F7F" stroke-width="1.84" stroke-linejoin="bevel"/>
</svg>
