<svg width="22" height="21" viewBox="0 0 22 21" fill="none" xmlns="http://www.w3.org/2000/svg">
<path d="M4.11784 8.40917L2.36909 10.1233H4.81784H20.5882C20.8313 10.1233 21 10.3171 21 10.5072C21 10.6973 20.8313 10.8911 20.5882 10.8911H4.81784H2.36909L4.11784 12.6053L11.0076 19.3587C11.0446 19.3949 11.0728 19.4368 11.0917 19.4815C11.1105 19.5261 11.1199 19.5732 11.1199 19.6202C11.1199 19.6673 11.1105 19.7144 11.0917 19.759C11.0728 19.8036 11.0446 19.8455 11.0076 19.8817C10.9707 19.918 10.9257 19.9478 10.8748 19.9684C10.8238 19.9891 10.7686 20 10.7123 20C10.656 20 10.6007 19.9891 10.5498 19.9684C10.4989 19.9478 10.4539 19.918 10.417 19.8817L1.11289 10.7618L1.11216 10.7611C1.07527 10.725 1.04709 10.6832 1.02825 10.6387C1.00942 10.5942 1 10.5472 1 10.5003C1 10.4534 1.00942 10.4064 1.02825 10.3619C1.04709 10.3174 1.07527 10.2756 1.11216 10.2395L1.11289 10.2388L10.417 1.11885L10.4177 1.11813C10.4545 1.08194 10.4994 1.05219 10.5502 1.03154C10.601 1.01088 10.6561 1 10.7123 1C10.7685 1 10.8236 1.01088 10.8744 1.03154C10.9252 1.05219 10.9701 1.08194 11.0069 1.11813L11.0076 1.11885C11.1583 1.2665 11.1583 1.50807 11.0076 1.65572L4.11784 8.40917Z" fill="white" stroke="white" stroke-width="2"/>
</svg>
