<svg width="32" height="31" viewBox="0 0 32 31" fill="none" xmlns="http://www.w3.org/2000/svg">
<path d="M31.3377 15.246L16.7984 0.339496C16.6937 0.231876 16.5694 0.146496 16.4325 0.0882407C16.2956 0.0299857 16.1489 0 16.0007 0C15.8525 0 15.7057 0.0299857 15.5688 0.0882407C15.432 0.146496 15.3076 0.231876 15.2029 0.339496L0.663606 15.246C0.240028 15.6806 0 16.2709 0 16.8866C0 18.165 1.01306 19.2044 2.25908 19.2044H3.79102V29.8411C3.79102 30.4821 4.29579 31 4.92057 31H13.7416V22.8876H17.695V31H27.0808C27.7055 31 28.2103 30.4821 28.2103 29.8411V19.2044H29.7422C30.3423 19.2044 30.9177 18.9618 31.3412 18.5236C32.2202 17.6182 32.2202 16.1514 31.3377 15.246V15.246Z" fill="white"/>
</svg>
