<svg width="704" height="687" viewBox="0 0 704 687" fill="none" xmlns="http://www.w3.org/2000/svg">
<path d="M404.441 413.384L404.025 401.334L404.441 408.606V413.384ZM404.441 413.384V425.849V430.627V435.405L404.857 442.677V446.624L407.766 451.818L408.182 455.142L409.221 459.92V462.413L410.26 480.279V483.188V485.681L409.845 490.044V496.276L410.26 499.6V502.924L404.441 413.384ZM694.784 286.033L700.604 266.297M662.154 1L664.856 45.874L665.895 74.7513V79.114L666.311 80.9838L666.727 113.185V115.055L667.142 140.608V141.647L667.558 145.594L665.272 148.087V148.503L664.233 149.957L661.739 153.696L660.284 155.151L658.829 156.605L637.63 173.848L632.434 178.211L623.29 186.936L613.729 195.662L662.154 1ZM1.03662 348.566H2.07579L3.94629 349.605L5.40112 350.02L16.4163 354.383L18.2868 354.798L19.7416 355.837L41.9798 363.524L44.4738 364.563L45.9286 364.978L47.7991 366.017L58.8143 370.38L67.959 373.704L69.4138 374.742L80.0133 382.429L88.1188 389.077L91.8598 392.401L94.3538 394.894L104.953 402.996L107.863 405.489L110.773 407.775L112.227 409.229L117.631 413.592L125.737 420.863L133.011 426.68L144.649 435.821L147.559 438.314L149.43 439.768L154.21 443.508L161.484 449.74L166.264 453.48L168.758 455.349L170.629 456.804L184.553 468.853L188.918 472.177L195.569 477.994L204.298 484.642L215.313 494.199L218.222 496.068L220.093 497.938L223.418 500.431L230.069 507.079L235.888 510.403L246.488 517.051L253.762 520.998L258.542 524.738L260.413 526.192L263.738 529.101L265.193 530.97L265.608 533.256L267.479 536.164L267.895 540.942L267.479 544.266L266.44 554.446V556.939V559.848L266.855 570.027V578.13L267.271 600.774L267.687 616.148V619.056V621.965L268.102 651.673L268.518 656.451L269.973 665.177L1.03662 348.566ZM403.402 398.634L403.818 396.141L403.402 392.401L403.818 388.038V375.989L403.402 373.08V370.587L403.818 367.263V366.225L404.233 365.186V364.77L404.649 363.316L407.974 357.084L409.429 355.214L415.248 350.436L419.197 347.943L423.146 346.073L439.565 336.932L450.164 331.115L472.195 320.52L488.614 309.924L493.394 307.016L403.402 398.634ZM85.6248 436.029L83.1308 432.289V426.057V421.278L84.5856 419.409L86.0405 418.37H86.4561L87.911 417.954H88.3266L94.146 416.5L95.6008 415.461L101.836 410.06L110.565 407.567L85.6248 436.029ZM637.63 416.708L643.449 402.789L646.775 394.063L648.23 389.7L652.178 380.975L655.504 373.288L659.453 364.147L660.492 362.277L662.362 359.369L667.142 354.175L676.703 343.58L678.158 341.71L683.561 335.893L686.471 330.699L687.51 328.206L688.965 323.428L690.004 311.794L690.42 309.924L637.63 416.708ZM282.235 531.178L284.729 529.724L285.768 529.308H286.184L287.223 528.893H290.133L299.277 528.477H308.006L313.826 528.062L321.516 530.555L324.425 528.062L326.919 527.646H328.79H333.154L343.754 527.231H366.408L370.772 526.815H388.646L400.7 525.361H406.935H410.26L412.547 524.946L416.911 525.361H419.405H421.899H423.77L434.369 526.4L439.149 526.815L446.839 527.231L457.023 527.646L463.674 528.062L475.728 529.101L480.924 529.516H486.743L494.849 529.101H502.954L509.605 528.685L526.439 528.27H528.933L539.533 527.854H548.677L553.458 527.439L585.256 526.4L591.491 525.984H598.142L599.181 525.569L603.545 523.076L603.961 522.037L604.377 521.622L604.792 521.206L605.208 517.467V513.519L604.792 509.157V497.523L605.208 495.653L605.624 493.16L607.079 490.667L609.573 484.434L615.392 470.931L620.588 457.427L630.772 433.328L634.097 426.057L638.461 415.046L647.19 394.479L282.235 531.178ZM409.637 634.014L415.456 638.377L416.495 639.831L417.95 640.87L420.86 643.363L422.315 644.402L431.459 652.089L445.384 662.684L461.18 662.268L530.804 661.23L409.637 634.014ZM497.135 304.315L507.319 295.174L511.683 290.811L517.502 285.618L519.373 283.748L526.647 277.1L540.156 265.05L547.43 257.779L559.485 246.768L545.144 260.272L540.364 265.05L497.135 304.315ZM651.971 381.183L650.516 385.13L651.971 381.183ZM409.221 636.923V640.87V644.194V646.064V647.103L409.637 652.296L409.221 653.335L409.637 656.659V659.568L409.221 636.923ZM623.705 186.521L613.521 196.077L605.416 203.349L602.506 206.257L591.907 215.398L590.036 217.891L582.346 225.162L560.732 245.314L623.705 186.521ZM582.346 224.955L583.801 223.5L587.75 219.761L592.946 214.983L602.506 206.257L609.78 198.986L612.69 196.493L582.346 224.955ZM408.806 625.289V619.056V611.785L408.39 606.591V597.866V591.633L407.974 587.271V584.985V576.468L407.559 564.003V560.679V551.953L407.143 539.488V534.087V532.632L406.727 524.946V518.713V515.805V509.157L406.312 506.248V500.016V497.523V495.237L408.806 625.289ZM406.312 496.692L409.637 490.044L406.312 496.692ZM392.387 649.388L391.971 651.258L390.932 654.582L390.516 669.54L380.956 685.952L392.387 649.388ZM405.896 497.523L406.312 505.209V509.157L405.896 497.523ZM326.504 527.439L321.1 530.347L326.504 527.439ZM410.26 499.392V488.797V485.473V499.392ZM404.857 439.768V446.416L405.272 468.438V473.216V477.994L405.688 490.875L404.857 439.768ZM410.26 489.005L410.676 501.054L410.26 489.005ZM407.766 576.468V568.158L407.351 563.795L407.766 576.468ZM408.182 591.841L407.766 585.193L408.182 591.841ZM279.949 532.632L279.533 533.048L278.078 534.087L276.624 535.125L274.13 536.995L272.259 538.449L271.22 539.488L270.804 539.904L267.479 544.682L279.949 532.632ZM404.441 430.835L404.857 436.029V430.835V421.278L404.441 408.813V430.835ZM664.441 22.8138L664.856 45.874V51.0678L665.895 78.9063L664.441 22.8138ZM343.338 526.815L336.064 527.231H332.739L343.338 526.815ZM456.399 527.439L445.384 526.4L438.734 525.984H433.953L425.848 525.569L423.354 525.153L456.399 527.439ZM604.792 516.843L605.832 533.671V537.618L606.871 548.629V552.576V554.862L607.91 577.506L607.494 578.961V579.999L607.079 582.492L605.832 586.855L603.338 597.45L601.883 604.722L601.467 607.215L601.051 609.084L600.012 614.901L600.428 616.356L597.518 623.004V625.497V626.951L597.103 628.405L594.193 643.363L593.154 647.726L592.115 652.504L591.075 655.413L590.036 661.23L589.621 663.099L588.166 669.747L587.75 671.617L587.334 674.526L586.295 678.888L604.792 516.843ZM606.871 552.369L606.455 544.682L606.039 537.411L606.871 552.369ZM405.272 473.424L404.857 446.416L405.272 473.424ZM404.025 388.038L403.61 373.08L404.025 388.038ZM601.051 609.084L602.091 604.722L601.051 609.084ZM590.868 525.361H587.958L584.633 525.777L590.868 525.361ZM526.439 276.892L520.62 282.294L519.165 283.748L526.439 276.892ZM510.228 292.266L511.683 290.396L515.008 287.487L517.502 285.618L510.228 292.266ZM480.3 529.308H479.261L474.897 528.893L480.3 529.308ZM313.618 527.854L309.669 528.27H307.799L313.618 527.854ZM597.726 525.361L602.922 528.27L605.832 533.463L597.726 525.361ZM400.077 524.946H409.637H400.077ZM703.513 255.286L701.643 262.973L701.227 264.012L700.811 266.505L696.447 282.294L694.992 286.033L694.576 288.526L692.082 296.628L691.667 297.667V299.121L703.513 255.286ZM686.055 330.699L685.016 333.608L686.055 330.699Z" stroke="white" stroke-width="0.92" stroke-linecap="round" stroke-linejoin="bevel"/>
</svg>
