<svg width="420" height="507" viewBox="0 0 420 507" fill="none" xmlns="http://www.w3.org/2000/svg">
<path d="M414.328 481.619L414.744 486.397M85.5359 227.749L74.9364 233.15L75.3521 235.643L85.5359 227.749ZM7.59839 69.2355V72.144L7.18273 74.0137L5.72789 78.3765L4.27306 80.8695L3.2339 82.7392L1.77905 84.1935L7.59839 69.2355ZM402.274 502.186L405.599 501.771L410.379 499.901L413.705 495.954L414.744 493.045L414.328 490.552L414.744 486.19V481.411L402.274 502.186ZM2.81822 85.0245L6.14357 82.116L8.63756 79.623L11.1316 74.8447V70.0665L2.81822 85.0245ZM413.913 498.862L415.367 502.186L416.822 506.549L413.913 498.862ZM405.807 499.901L411.003 498.447L413.913 495.954L414.952 496.993V493.045L405.807 499.901ZM412.458 500.317L415.367 502.186L418.693 504.472L412.458 500.317ZM350.523 12.1042L349.069 7.326L345.12 2.96325L339.716 1.509L350.523 12.1042Z" stroke="#404040" stroke-width="2.43" stroke-linejoin="bevel"/>
</svg>
