<svg width="195" height="648" viewBox="0 0 195 648" fill="none" xmlns="http://www.w3.org/2000/svg">
<path d="M177.011 5.67275V33.0957M0.560547 639.103H3.88589L7.21124 638.687L14.9011 638.272L25.0849 637.856H27.5789H30.0729L37.7627 637.441H41.7116L50.8563 637.025H53.7659L57.7147 636.609L73.5101 636.194H76.8354L80.5764 635.779L0.560547 639.103ZM96.7874 641.388H92.4229L77.0432 643.258L71.2239 642.219L65.4046 642.634H60.2088L49.6092 643.05L40.4646 643.465L36.5157 643.881H31.3199L27.3711 644.296H24.4614H21.5517H17.3951L9.70523 644.712L4.30155 645.751L0.560547 645.335L96.7874 641.388ZM162.671 18.5532H171.4H183.87L190.105 19.592L162.671 18.5532ZM191.975 31.0182H186.156H180.336H174.101H172.231L164.541 31.4337V28.1097V21.8772L164.957 14.1905V3.59525L191.975 31.0182ZM38.1784 302.547L40.4646 304.417L41.9194 305.456L46.2839 307.949L57.2991 315.22L66.4438 321.037L71.2239 323.946L78.4981 328.308L85.1488 332.256L86.6036 333.71L89.9289 335.58L38.1784 302.547ZM109.673 293.407L107.387 293.822L92.0072 294.237L90.5524 295.276L84.7331 294.861H81.8234L74.1336 296.315L72.6788 295.276L70.8082 296.315H67.4829L56.8834 296.73L40.4646 297.146H38.1784L109.673 293.407ZM49.6092 339.527L59.1696 339.112H61.0401H66.2359L78.2903 338.073L84.9409 337.657L49.6092 339.527Z" stroke="white" stroke-width="2.5175"/>
</svg>
