<svg width="53" height="58" viewBox="0 0 53 58" fill="none" xmlns="http://www.w3.org/2000/svg">
<path d="M26.4176 57.9738C10.8301 52.1568 0.438477 36.991 0.438477 19.9555C0.438477 13.723 1.89331 7.906 4.59514 2.29675L4.80297 2.089L5.0108 2.29675C8.1283 3.751 11.2458 4.37425 14.1555 4.37425C18.52 4.37425 22.8845 2.92 26.6255 0.219252L26.8333 0.0115051L27.0411 0.219252C30.5743 2.92 34.9388 4.37425 39.3033 4.37425C42.213 4.37425 45.3305 3.751 48.2401 2.29675L48.448 2.089L48.6558 2.29675C51.3576 7.906 52.8125 13.9308 52.8125 19.9555C52.3968 36.991 42.0051 52.1568 26.4176 57.9738ZM4.80297 2.71226C2.30897 8.11376 0.854137 13.9308 0.854137 19.9555C0.854137 36.5755 11.038 51.5335 26.2098 57.3505C41.3816 51.7412 51.5655 36.7833 51.5655 19.9555C51.5655 13.9308 50.3185 8.11376 47.6166 2.71226C44.707 3.95876 41.5895 4.78975 38.6798 4.78975C34.3153 4.78975 29.9508 3.33551 26.2098 0.634761C22.4688 3.33551 17.8965 4.78975 13.7398 4.78975C11.038 4.78975 7.92047 4.16651 4.80297 2.71226Z" fill="#231F20"/>
</svg>
