<svg width="20" height="20" viewBox="0 0 20 20" fill="none" xmlns="http://www.w3.org/2000/svg">
<path d="M0.0469321 12.668C0.0805311 12.7949 0.13892 12.9138 0.21873 13.018C0.29854 13.1222 0.398191 13.2095 0.511932 13.275L2.42193 14.379V16.578C2.42193 16.8432 2.52729 17.0976 2.71483 17.2851C2.90236 17.4726 3.15672 17.578 3.42193 17.578H5.62093L6.72493 19.488C6.81346 19.6393 6.93987 19.765 7.09171 19.8527C7.24355 19.9404 7.4156 19.987 7.59093 19.988C7.76493 19.988 7.93793 19.942 8.09193 19.853L9.99993 18.75L11.9099 19.854C12.1396 19.9864 12.4123 20.0224 12.6684 19.9539C12.9245 19.8855 13.143 19.7183 13.2759 19.489L14.3789 17.579H16.5779C16.8431 17.579 17.0975 17.4736 17.285 17.2861C17.4726 17.0986 17.5779 16.8442 17.5779 16.579V14.38L19.4879 13.276C19.6017 13.2103 19.7014 13.1227 19.7813 13.0184C19.8613 12.9141 19.9198 12.7951 19.9537 12.6681C19.9876 12.5412 19.9962 12.4088 19.9789 12.2785C19.9616 12.1483 19.9188 12.0227 19.8529 11.909L18.7499 10L19.8539 8.092C19.9866 7.86245 20.0227 7.58959 19.9543 7.33343C19.8858 7.07727 19.7184 6.85878 19.4889 6.726L17.5789 5.622V3.422C17.5789 3.15679 17.4736 2.90243 17.286 2.7149C17.0985 2.52736 16.8441 2.422 16.5789 2.422H14.3799L13.2769 0.513003C13.1437 0.283919 12.9257 0.116508 12.6699 0.0470025C12.5431 0.0126184 12.4107 0.00375231 12.2804 0.0209181C12.1501 0.0380839 12.0245 0.0809402 11.9109 0.147003L9.99993 1.25L8.09093 0.146003C7.86137 0.013317 7.58852 -0.0227698 7.33236 0.0456767C7.0762 0.114123 6.85771 0.281499 6.72493 0.511003L5.62093 2.421H3.42193C3.15672 2.421 2.90236 2.52636 2.71483 2.7139C2.52729 2.90143 2.42193 3.15579 2.42193 3.421V5.62L0.511932 6.724C0.282495 6.85735 0.115256 7.0762 0.0468436 7.3326C-0.0215688 7.58901 0.0144215 7.86208 0.146932 8.092L1.25093 10L0.146932 11.908C0.0149195 12.1383 -0.0210097 12.4114 0.0469321 12.668V12.668ZM9.99993 11C6.51993 11 5.99993 9.121 5.99993 8C5.99993 6.713 7.02893 5.417 8.99993 5.085V4.012H10.9999V5.121C12.7339 5.531 13.3999 6.974 13.3999 8H12.3999L11.3999 8.018C11.3859 7.638 11.1849 7 9.99993 7C8.70093 7 7.99993 7.515 7.99993 8C7.99993 8.374 7.99993 9 9.99993 9C13.4799 9 13.9999 10.879 13.9999 12C13.9999 13.287 12.9709 14.583 10.9999 14.915V16H8.99993V14.92C6.66093 14.553 5.99993 12.917 5.99993 12H7.99993C8.01093 12.143 8.15893 13 9.99993 13C11.3799 13 11.9999 12.415 11.9999 12C11.9999 11.675 11.9999 11 9.99993 11V11Z" fill="black"/>
</svg>
