<svg width="20" height="20" viewBox="0 0 20 20" fill="none" xmlns="http://www.w3.org/2000/svg">
<path d="M5.518 3H4.009C4.07197 2.18381 4.44063 1.42145 5.04129 0.865278C5.64196 0.309105 6.43039 9.32843e-05 7.249 0H15.25C15.8738 0 16.4915 0.122862 17.0677 0.361572C17.644 0.600282 18.1677 0.950164 18.6088 1.39124C19.0498 1.83232 19.3997 2.35596 19.6384 2.93225C19.8771 3.50855 20 4.12622 20 4.75V12.75C19.9999 13.5686 19.6909 14.357 19.1347 14.9577C18.5785 15.5584 17.8162 15.927 17 15.99V14.482C17.4165 14.4219 17.7974 14.2137 18.0729 13.8956C18.3483 13.5775 18.5 13.1708 18.5 12.75V4.75C18.5 3.88805 18.1576 3.0614 17.5481 2.4519C16.9386 1.84241 16.112 1.5 15.25 1.5H7.25C6.82919 1.50001 6.42248 1.65165 6.10439 1.92714C5.78629 2.20263 5.57812 2.58351 5.518 3V3ZM3.25 4C2.38805 4 1.5614 4.34241 0.951903 4.9519C0.34241 5.5614 0 6.38805 0 7.25V16.75C0 17.1768 0.0840637 17.5994 0.247391 17.9937C0.410719 18.388 0.650112 18.7463 0.951903 19.0481C1.25369 19.3499 1.61197 19.5893 2.00628 19.7526C2.40059 19.9159 2.8232 20 3.25 20H12.75C13.1768 20 13.5994 19.9159 13.9937 19.7526C14.388 19.5893 14.7463 19.3499 15.0481 19.0481C15.3499 18.7463 15.5893 18.388 15.7526 17.9937C15.9159 17.5994 16 17.1768 16 16.75V7.25C16 6.38805 15.6576 5.5614 15.0481 4.9519C14.4386 4.34241 13.612 4 12.75 4H3.25Z" fill="black"/>
</svg>
