<svg width="17" height="17" viewBox="0 0 17 17" fill="none" xmlns="http://www.w3.org/2000/svg">
<path d="M14.0443 1.64645L13.6907 1.29289L13.3372 1.64645L8.5 6.48361L3.66284 1.64645L3.30929 1.29289L2.95573 1.64645L1.64645 2.95573L1.29289 3.30929L1.64645 3.66284L6.48361 8.5L1.64645 13.3372L1.29289 13.6907L1.64645 14.0443L2.95573 15.3536L3.30929 15.7071L3.66284 15.3536L8.5 10.5164L13.3372 15.3536L13.6907 15.7071L14.0443 15.3536L15.3536 14.0443L15.7071 13.6907L15.3536 13.3372L10.5164 8.5L15.3536 3.66284L15.7071 3.30929L15.3536 2.95573L14.0443 1.64645Z" fill="white" stroke="white"/>
</svg>
