<svg width="845" height="822" viewBox="0 0 845 822" fill="none" xmlns="http://www.w3.org/2000/svg">
<path d="M0 688.029L4.57233 687.406V666.631H0V688.029ZM0 475.709L0.6235 474.462L9.3525 474.047L11.8465 471.138L11.4308 456.18H0V475.709ZM0 438.521H11.223L10.1838 420.655L6.8585 416.708H0V438.521ZM0 415.461H9.76817L8.729 373.703H0V415.461ZM0 347.112H51.127L50.7113 327.791H0V347.112ZM0 325.09L49.6722 325.505L49.2565 299.952L23.2773 279.385L0 279.593V325.09ZM0 256.532L16.4188 270.244L333.157 531.178L319.648 541.15L318.609 573.351H308.009L318.609 573.767L319.648 630.482H316.322L319.648 631.521V636.299L320.063 541.566L334.404 532.009L364.124 556.523L0 255.909V256.532ZM1.66267 33.2013L3.1175 37.1485H9.76817V33.2013H1.66267V33.2013ZM2.07833 70.804H20.3677L19.952 67.8955L8.31333 66.4412L7.89767 60.6243L6.02717 64.987L2.07833 65.4025V70.804ZM2.07833 15.958L7.27417 15.5425L4.57233 19.282L6.02717 21.1518L10.3917 17.2045V21.775L17.0423 25.7222V21.3595L12.2622 20.7363V13.6728L10.8073 15.5425L3.1175 13.0495L2.07833 15.958ZM10.1838 351.474L11.223 369.756H28.0575L27.0183 351.474H10.1838ZM11.6387 375.365L12.0543 390.323L24.5243 389.908L24.94 398.01L13.5092 398.426L14.964 413.384L52.374 413.799L51.9583 395.102H43.8528V390.739L52.5818 389.7L51.5427 374.327L11.6387 375.365ZM12.2622 244.275H15.1718V241.367H12.2622V244.275ZM13.0935 721.477H17.0423V713.79L13.0935 721.477ZM13.717 439.352L14.7562 457.219L55.6993 458.673V439.976L13.717 439.352ZM13.717 419.201L14.1327 433.12L17.0423 434.99H54.4523L53.4132 422.109L47.5938 419.201H13.717ZM14.5483 722.516L17.0423 727.294V721.892L14.5483 722.516ZM15.5875 467.814L16.0032 481.318L54.868 480.902L54.4523 468.022H15.5875V467.814ZM20.3677 650.842L23.693 655.62V662.268L58.8168 663.722L61.103 656.036L60.6873 646.479L55.9072 643.571L55.4915 621.549L20.3677 621.134V650.842ZM20.3677 600.359L21.4068 613.239L38.2413 612.824L37.8257 607.63L62.35 608.046L63.3892 618.225H83.1333L81.6785 599.943L63.3892 600.982L62.35 604.929V600.151L20.3677 600.359ZM21.4068 68.311L25.1478 74.959H38.657L39.6962 66.8567V63.5327L21.8225 64.5715L21.4068 68.311ZM22.8617 19.282L27.2262 22.1905L23.2773 23.6448L23.693 25.93L28.0575 25.5145V18.8665L22.8617 19.282ZM22.8617 4.53175L35.7473 4.94725V2.03875L26.187 4.324L26.8105 1H23.693L22.8617 4.53175ZM23.693 782.971L32.422 785.879L30.9672 791.073L34.2925 792.527L34.7082 783.386L29.928 782.348L28.8888 778.4L23.693 782.971ZM24.1087 799.799L26.6027 803.123L28.0575 801.253L26.187 795.436L24.1087 799.799ZM24.1087 170.316L25.1478 189.637H45.7233L44.6842 169.901L24.1087 170.316ZM25.1478 192.753L26.187 211.866H32.8377V208.75H38.657V212.074H46.3468L45.3077 191.922L25.1478 192.753ZM27.0183 806.654L31.3828 806.239V803.33L35.1238 806.239L36.163 804.785V802.292L30.3437 800.837L27.0183 806.654ZM29.0967 596.619L62.35 597.035V582.7L40.7353 583.739L41.7745 575.636L36.5787 587.271L29.3045 592.464V596.619H29.0967ZM30.5515 10.7643L31.5907 28.0075L32.0063 11.1798H35.9552L30.5515 10.7643ZM36.7865 799.383L41.151 801.253L40.7353 795.436L38.4492 795.02L36.7865 799.383ZM37.2022 214.982L39.0727 233.68L47.1782 234.095L46.7625 215.398L37.2022 214.982ZM39.0727 716.283L42.398 722.516V716.283H39.0727ZM41.151 726.878H44.0607L41.151 723.139V726.878ZM41.9823 85.762L43.8528 166.992L45.7233 166.577L44.4763 117.34L57.362 118.379L58.8168 123.157L59.856 118.379L63.8048 120.872L64.2205 117.963L70.0398 118.379L71.4947 120.248L73.9887 117.755L75.8592 122.534L76.8983 117.755L85.0038 116.717L86.4587 104.252L80.6393 101.343L82.5098 104.252L74.4043 103.836L75.4435 98.0192L72.1182 103.213L67.338 104.252L67.7537 98.0192L64.844 104.252L56.9463 104.875L55.0758 101.966L64.2205 93.241V89.917L60.2717 88.6705L54.0367 102.174L47.386 105.498L46.3468 116.093L44.4763 114.639V87.2162L41.9823 85.762ZM43.4372 27.592H55.0758L56.5307 24.6835L65.2597 26.1378L64.2205 19.4898L62.35 25.3068L56.5307 23.8525L54.0367 26.5533L43.4372 27.592ZM43.8528 43.381L53.4132 43.7965V35.071L57.7777 34.6555V32.7858L52.5818 35.2788V41.9268L43.8528 43.381ZM46.3468 90.9557L46.7625 102.59L50.0878 99.6812L46.3468 90.9557ZM46.3468 71.635L46.7625 74.5435H81.055L81.4707 71.2195L79.6002 57.7157L46.3468 58.1312V71.635V71.635ZM46.7625 802.292H58.8168L57.362 799.799L60.6873 798.344L57.7777 796.89L56.3228 801.253L51.127 796.475L52.1662 799.799L49.2565 801.253L47.8017 796.89L46.7625 802.292ZM46.7625 170.316L47.8017 193.792L67.9615 198.57V209.581L74.6122 212.489L91.4467 211.451L89.9918 170.108H46.7625V170.316ZM47.8017 786.295L50.2957 789.203L49.88 794.605L52.374 791.696L49.4643 784.425L47.8017 786.295ZM47.8017 127.935L50.7113 130.844L48.2173 132.713L50.0878 144.347L73.573 143.309L50.0878 145.178L49.0487 158.059L50.9192 161.798H78.9767L80.0158 164.291L78.9767 160.136L80.8472 158.682L82.7177 164.084L85.2117 160.76L87.0822 164.084L87.4978 159.721L85.2117 160.136L84.1725 157.228L88.9527 156.189L84.5882 155.15L81.2628 157.643L79.3923 148.918L88.9527 147.048L74.6122 145.178L75.6513 142.685H78.9767L80.0158 136.037L88.7448 134.583H84.796L83.7568 131.882L86.2508 130.428L83.3412 129.389L82.302 134.168H79.3923L82.302 123.988L73.7808 129.805L70.8712 126.481L69.832 130.428L65.0518 129.805L64.0127 126.896L61.3108 129.805L59.856 124.611L57.9855 128.974L47.8017 127.935ZM48.8408 80.9837L62.7657 84.3077L65.0518 82.8535L57.362 82.438V79.945L48.8408 80.9837ZM49.6722 232.226L50.7113 251.962H55.4915L55.9072 256.74L60.6873 257.156L62.1422 253.832L66.091 252.793V235.965L63.1813 234.926L62.7657 231.602L49.6722 232.226ZM50.0878 99.6812L54.4523 95.734L52.9975 91.9945L56.3228 93.4487L57.362 90.9557H50.0878V99.6812V99.6812ZM51.127 1L52.5818 7.2325L53.621 1V0.792252H51.127V1ZM51.5427 281.255L59.2325 287.903L66.5067 287.487L71.2868 282.709L70.8712 278.346L67.1302 273.983L59.0247 273.568L51.5427 281.255ZM52.5818 670.578L56.9463 672.032L57.9855 686.99H61.9343L61.5187 666.839H52.7897V670.578H52.5818ZM52.5818 53.9762L80.4315 52.9375H71.2868L70.2477 45.6662L67.7537 45.2507L66.7145 52.522H54.0367L53.621 45.2507L52.5818 53.9762ZM52.9975 796.059L61.103 795.02V786.295L56.3228 787.334L56.7385 784.01L53.8288 785.464L54.868 789.411L59.2325 788.996L60.2717 791.904L52.9975 796.059ZM53.621 310.547L54.0367 346.073L64.6362 350.02L71.9103 319.273L55.4915 306.808L53.621 310.547ZM55.4915 3.493L68.3772 4.94725L66.091 2.45425L66.9223 1H63.8048L61.7265 2.03875L56.9463 1L55.4915 3.493ZM55.9072 390.323L57.362 415.877L96.2268 415.461L94.772 383.675H76.4827V389.492L55.9072 390.323ZM57.7777 439.768L58.8168 479.24L62.1422 483.188L90.4075 482.772L89.3683 439.976H57.7777V439.768ZM60.2717 546.136L61.3108 572.105L74.1965 573.559L80.0158 571.274L79.6002 565.872L73.3652 562.133L75.2357 551.953L79.6002 549.044L82.5098 531.178L64.6362 530.762V538.034L60.2717 546.136ZM63.597 632.144L66.091 643.155L76.2748 642.74L82.9255 638.792V632.144L81.8863 621.134L64.6362 621.549L63.597 632.144ZM64.2205 688.445L66.091 705.272L85.2117 704.857L84.796 677.434H64.2205V681.381H75.2357V688.652H64.2205V688.445ZM64.2205 657.49L64.6362 662.684L82.5098 662.268L80.0158 643.986L64.6362 644.402L64.2205 657.49ZM64.2205 595.996H82.9255L81.8863 575.221L64.6362 575.636L64.2205 595.996ZM64.2205 87.6317L66.7145 88.6705L70.0398 84.7232L72.326 86.1775L77.7297 90.5402L74.82 94.903L77.314 96.3572L78.7688 90.1247L71.079 84.3077L71.4947 78.0752L69.6242 77.6597L68.585 83.4767L64.2205 87.6317ZM65.4675 26.1378L71.7025 27.1765L86.043 24.268L75.0278 23.2293L73.9887 18.8665L72.9495 25.099L65.4675 26.1378ZM66.5067 787.749L67.9615 806.031L69.0007 791.696H70.8712L68.3772 785.464L66.5067 787.749ZM66.5067 727.709L69.832 732.488L76.067 731.449L83.3412 724.801V718.153L81.8863 714.829L68.3772 715.868L66.5067 727.709ZM66.5067 350.435L75.2357 353.759L77.7297 347.942L83.549 350.851L82.0942 355.629L94.9798 360.407L93.9407 336.308L73.7808 319.896L66.5067 350.435ZM68.3772 43.381L69.4163 35.6943H72.326L75.2357 40.057L70.8712 43.381L72.7417 44.4197L84.796 41.0957L83.7568 35.2788L68.7928 34.8632L68.3772 43.381ZM72.326 237.004L72.7417 251.962L92.4858 252.377L91.4467 237.004H72.326ZM72.7417 791.281L78.561 791.696L81.4707 796.059L78.1453 800.422L81.8863 798.137L86.6665 799.175L90.4075 795.851H82.302L81.8863 793.358L86.2508 789.411L80.0158 790.865L77.1062 788.996L72.7417 791.281ZM72.7417 3.0775L73.7808 7.85575L78.9767 7.2325L72.7417 3.0775ZM79.3923 549.876L92.9015 550.914L91.4467 530.762H82.7177L79.3923 549.876ZM81.8863 139.985L85.2117 141.023L82.302 144.347H86.6665V138.53L81.8863 139.985ZM85.8352 570.027L100.799 571.066V562.341H85.8352V570.027ZM86.2508 821.405L91.031 815.172L89.1605 814.757L86.2508 821.405ZM86.2508 706.519L87.7057 707.973L90.6153 705.48L86.2508 706.519ZM86.2508 650.842L87.29 661.022L104.124 662.476L101.215 631.729L90.1997 632.144L92.0702 635.053H96.4347L96.019 650.426L91.2388 652.296L89.3683 650.011L86.2508 650.842ZM86.6665 615.317L97.6817 614.901L99.5522 611.993L98.0973 601.397L92.278 600.359L87.4978 601.397L86.6665 615.317ZM87.29 704.649L91.6545 702.156H87.29V704.649ZM88.7448 789.203L94.9798 787.334L92.0702 785.879L88.7448 789.203ZM88.7448 19.282L89.1605 51.0677L91.031 53.5607H102.046L103.085 46.9128L99.76 52.1065L91.4467 51.0677L90.4075 39.0182L94.1485 34.24L89.784 32.3703L90.1997 21.3595H100.799L100.384 14.0883L106.203 13.6728L110.567 19.9053L106.619 11.1798H98.9287L97.8895 18.451L88.7448 19.282ZM89.1605 734.981L99.3443 735.396L102.67 727.709L101.631 725.424L94.3563 727.294L90.6153 723.97L89.1605 734.981ZM89.1605 64.987L90.6153 96.1495L113.685 98.6425L113.269 96.7727L102.67 96.3572L107.034 86.1775L99.3443 95.734H92.6937L92.278 88.4627L96.6425 88.0472L102.462 82.8535L101.423 81.3992L95.3955 86.1775L91.031 84.7232L91.4467 78.4907L98.7208 77.0365L91.4467 75.5822L91.031 65.4025L100.591 66.4412L91.4467 62.0785L91.031 57.7157L100.591 57.3002L103.085 60.2087L103.501 55.846H89.1605V64.987V64.987ZM91.4467 105.29L92.9015 114.431L98.0973 120.248L129.896 121.703L132.806 118.379L131.351 111.107L133.221 110.692L132.182 101.135H120.751L131.351 103.628L130.935 110.692L121.375 109.653L131.559 113.393V118.171L119.92 119.625L118.881 108.199L117.426 117.755L108.697 119.625L105.995 112.562L112.23 107.368L103.917 110.692L101.007 105.914L93.7328 106.329L92.6937 103.836L112.854 100.928H96.4347L92.4858 101.966L91.4467 105.29ZM92.4858 722.516L94.9798 726.463L99.3443 725.424L103.709 715.244L99.3443 713.79L94.5642 717.114L92.4858 722.516ZM92.4858 703.818L96.8503 701.325V699.455H93.525L92.4858 703.818ZM92.4858 125.65L93.525 165.538H133.429L133.013 146.425L110.359 142.062L109.944 127.104L92.4858 125.65ZM93.9407 215.813L96.4347 256.74H131.559L137.378 247.184L135.507 214.567L93.9407 215.813ZM95.6033 1L98.9287 7.85575L101.423 4.94725L100.384 1V0.792252H95.6033V1ZM97.266 37.564L105.995 33.2013L111.191 33.6167L106.411 30.7083L103.501 24.8913L104.54 30.7083L97.266 37.564ZM98.7208 183.612L100.176 209.996L130.935 208.958L129.896 182.158H125.531L121.375 175.51H107.45L104.54 182.781L98.7208 183.612ZM100.591 700.91L101.631 708.596L103.501 701.948L100.591 700.91ZM100.591 529.724H103.501L105.372 573.974L102.046 443.3L103.501 529.308L100.591 529.724ZM100.591 394.271L101.007 409.229L106.203 408.813L105.164 398.218L107.658 397.179V394.271H100.591ZM101.631 698.001L103.501 699.04L103.917 695.093L101.631 698.001ZM102.046 371.626L106.826 371.21L102.462 366.848L102.046 371.626ZM103.501 492.329L104.956 506.248L107.45 492.329H103.501ZM103.501 359.577H105.372V354.383L103.501 359.577ZM103.501 337.97L106.826 338.386V336.516L105.372 335.062L103.501 337.97ZM104.54 523.907L105.579 528.269H109.528L104.54 523.907ZM104.54 514.766H106.411L104.54 509.987V514.766ZM105.372 544.682L112.646 542.812H105.372V544.682ZM105.372 50.6522L113.061 53.9762H123.661L131.351 51.691L130.935 34.24L121.79 32.7858L119.92 29.8772L116.179 31.3315L120.959 34.24L130.104 35.2788L129.688 43.381H126.363L124.7 39.0182L121.79 39.4337L124.284 42.3422L121.375 43.381L115.14 33.2013L113.685 34.6555L117.01 37.564L117.426 43.7965L114.932 45.6662L106.203 44.212L114.308 47.536L120.959 44.6275L128.649 45.6662L129.688 51.4832L124.908 50.4445L123.453 52.3143L121.998 49.8212L119.504 52.9375L112.854 52.522L110.983 49.6135L107.658 51.0677L105.995 46.2895L105.372 50.6522ZM105.995 560.471L113.685 560.886L108.905 556.108H105.995V560.471ZM105.995 83.6845L107.866 85.1387L113.685 75.9977L105.995 83.6845ZM105.995 56.2615L115.14 59.5855L113.685 75.9977L115.14 73.5047L116.179 75.3745L119.089 71.4272L124.284 72.8815L118.049 68.9342L119.504 57.508L127.61 58.9622L131.974 71.4272L129.48 59.3777L124.7 55.4305L105.995 56.2615ZM107.45 733.942L114.724 727.709L128.649 723.347L112.23 726.255L107.45 728.748V733.942V733.942ZM107.45 587.894L114.724 588.932L112.854 584.985L115.348 583.116L108.073 581.661L107.45 587.894ZM107.45 514.766L108.905 518.713L110.775 515.389L107.45 514.766ZM108.281 716.283L114.101 720.646L117.842 720.23L108.697 712.959L108.281 716.283ZM108.281 493.783L111.607 497.522L113.477 492.744L108.281 493.783ZM108.905 449.948L109.944 478.202H117.634L117.218 444.962H113.893L108.905 449.948ZM108.905 341.918L113.269 340.048L109.944 339.009L108.905 341.918ZM108.905 326.544L109.944 328.414L111.814 324.467L116.594 310.132L132.39 260.687L108.905 326.544ZM109.32 382.637L112.23 386.584L114.101 385.545L109.32 382.637ZM109.32 84.7232L110.775 86.593L115.971 75.5822L109.32 84.7232ZM109.32 1.20775L111.191 8.8945L123.661 6.4015L124.492 1L109.32 1.20775ZM109.736 503.755H111.607L111.191 498.561L109.736 503.755ZM110.359 336.101H114.101L112.23 331.322L110.359 336.101ZM110.359 13.6728L111.814 15.127L114.308 11.803L110.359 13.6728ZM111.814 515.389L114.724 519.128L115.763 515.804L111.814 515.389ZM112.646 551.33L121.79 550.291L122.829 555.485L119.504 559.847L125.739 561.717L125.324 566.08L132.598 563.171L131.559 558.393L130.104 556.939L127.194 559.432L125.739 556.939L129.688 552.992L138.417 554.861V551.953L132.598 552.368L131.143 549.46L130.104 544.682L133.845 542.812L132.39 540.319L130.519 543.227L124.7 543.643L120.959 542.189L120.543 537.826L116.802 542.189L120.543 545.928L112.646 551.33ZM112.646 503.755L124.284 500.846L119.089 500.431L112.646 503.755ZM113.269 708.596H121.998V704.234L113.269 702.364V708.596ZM114.516 493.783L117.426 495.237V492.329L114.516 493.783ZM115.14 433.12L117.01 437.898V433.12H115.14ZM115.14 97.1882L130.935 98.227L132.806 94.903L130.935 81.3992V96.3572L128.025 97.396L123.661 90.1247L124.077 96.3572L115.14 97.1882ZM115.555 656.659L119.92 657.074L116.594 654.166L115.555 656.659ZM116.594 711.92L129.48 719.192L128.441 711.505L116.594 711.92ZM116.594 651.257L122.829 649.388V647.518H116.594V651.257ZM116.594 518.713L118.049 524.114L125.739 523.076L120.543 521.621L120.128 518.297L116.594 518.713ZM118.465 624.042L118.881 630.69H124.077V624.042H118.465ZM120.336 536.579H140.08L139.041 533.671L130.935 531.801L120.336 536.579ZM121.375 22.8138L121.79 29.4618L129.48 28.423L129.064 24.0603L121.375 22.8138ZM121.79 307.639H125.531L125.947 314.287H140.288L139.248 287.903H127.818L121.79 307.639ZM123.661 707.973L134.676 708.389L134.26 701.117L128.441 705.065L123.661 704.649V707.973ZM125.739 501.885L126.778 503.755H136.962V501.885H125.739ZM128.441 287.072H139.456L138.625 260.687L128.441 287.072ZM129.48 521.621L134.676 521.206V518.713H129.896L129.48 521.621ZM129.896 517.674L130.935 514.35L136.754 512.896L131.559 511.857L129.896 517.674ZM131.351 609.084H137.17V605.137H131.351V609.084ZM132.39 580.207L137.17 581.661L133.845 578.753L132.39 580.207ZM132.39 566.703L138.625 568.157L134.884 564.833L132.39 566.703ZM132.806 500.431L134.676 500.846V496.068L132.806 500.431ZM133.845 351.89L134.26 359.161L140.911 364.355L140.495 351.89H133.845ZM134.26 67.8955L143.821 70.3885L145.691 68.5187L147.562 73.297L147.146 70.3885L152.965 62.7017L147.146 56.0537L148.601 65.6102L143.405 69.7652L134.26 67.8955ZM134.884 541.773L140.08 543.643L141.95 548.006L139.456 551.33L144.236 550.291L145.691 546.967L140.288 537.411L134.884 541.773ZM135.715 563.795L139.041 566.703L143.821 563.795L146.315 565.664L145.899 555.485L144.029 551.537L139.664 552.576L142.574 554.446L141.119 560.678L135.715 563.795ZM135.715 140.4L138.209 141.439L136.754 147.256L142.574 142.062L140.703 139.569L135.715 140.4ZM135.715 122.118H166.475L168.345 116.924H172.71L168.345 115.886L166.475 120.664L155.875 121.287L154.42 116.509L151.095 120.872H146.315V111.731L144.444 111.107L141.95 118.794H135.715V122.118ZM135.715 36.1097L136.754 51.4832H153.173L149.432 50.4445V47.536L153.173 46.4972H149.432V43.5887L153.173 42.55L149.64 43.381L149.224 40.057L152.965 39.6415H149.224V36.3175L153.589 36.733L153.173 32.9935H137.17L135.715 36.1097ZM137.586 502.924L139.041 506.248V503.755L142.781 502.716H137.586V502.924ZM138.209 162.006L143.405 163.876L176.035 163.46L177.074 156.189L180.399 155.774L181.439 162.422L189.544 161.383L182.27 160.344L182.686 155.981L189.336 155.566L186.842 154.112L188.297 148.295L185.803 154.112H176.658L177.698 149.333H184.348L187.674 145.594L185.18 143.724L179.776 149.126L178.737 141.023L175.827 143.516L176.243 149.749L171.878 150.164V138.53L168.969 136.661L169.384 146.84L168.969 149.333L164.604 149.749L163.149 134.375V148.71L160.24 150.164L157.746 148.295L156.706 135.414L155.667 149.333L147.977 149.749L147.562 146.84H150.887V143.932L147.977 145.802L146.523 143.309L150.264 138.946L146.315 144.347L140.911 145.802L144.236 153.073L138.001 155.981L141.742 159.305L138.209 162.006ZM138.625 487.55L143.405 488.589V486.096L138.625 487.55ZM139.041 525.361H145.276L144.236 522.868H139.041V525.361ZM140.08 228.486L144.444 230.979L157.953 217.475L154.628 213.528L140.288 214.567V228.486H140.08ZM140.495 89.917L151.511 91.7867L143.821 88.4627L140.495 89.917ZM140.495 78.4907L143.405 83.6845L141.534 87.0085L144.029 88.4627V79.945L140.495 78.4907ZM141.119 75.9977H154.628L156.499 85.5542L150.679 95.734L155.459 99.058L155.875 89.5015L157.746 87.0085L154.836 74.5435L147.562 73.0892L141.119 75.9977ZM141.95 734.565L142.989 743.706L150.264 741.836L149.848 735.604L141.95 734.565ZM141.95 612.408H149.224L147.769 610.123H141.95V612.408ZM141.95 606.591L147.769 603.683H142.989L141.95 606.591ZM141.95 2.03875L147.562 1H142.158L141.95 2.03875ZM142.989 314.495L151.718 320.727L166.059 317.403V330.284L172.294 331.322V335.27H185.18L186.219 323.22L185.18 306.808L182.893 304.315L142.989 304.73V314.495ZM144.444 707.142L148.809 706.727L146.938 702.779L144.444 707.142ZM145.276 105.914L145.691 110.276L148.601 106.329L157.33 109.238L155.875 115.47L160.655 107.783H163.565L145.276 105.914ZM147.354 791.281L153.589 792.32L150.679 788.996L147.354 791.281ZM148.185 443.3L149.224 459.712H152.134L152.55 482.772H169.8V461.582L182.27 460.127L181.854 448.493L169.384 448.909L168.969 442.676L148.185 443.3ZM150.679 187.144L151.095 204.387H180.815L186.634 200.024L185.595 187.144H150.679ZM157.953 197.739V194.207H161.279L161.694 197.531H157.953V197.739ZM150.679 15.5425L155.044 19.4898L153.173 23.2293L156.083 24.268L157.953 19.9053L162.734 17.4123L154.005 13.6728L150.679 15.5425ZM151.511 598.489H154.836L152.342 595.581L151.511 598.489ZM152.55 602.852L154.005 607.214L154.42 605.345L157.33 604.306L160.24 606.176L161.694 604.306H159.824L157.953 603.891L158.993 601.397L162.734 600.359L165.643 598.489L154.005 599.943L152.55 602.852ZM152.55 535.125L158.369 535.541L157.33 533.048L152.55 535.125ZM152.55 29.0463L156.914 30.085L157.953 53.9762L160.447 46.705H169.592L168.137 43.7965L160.032 44.212L159.616 36.9407L165.851 35.4865L158.785 34.24L156.914 26.1378L152.55 29.0463ZM153.589 739.759L158.369 739.343L153.589 737.474V739.759ZM155.044 1L155.459 7.85575H160.655L155.875 7.2325L155.667 1H155.044ZM155.459 575.844L161.279 580.622L159.408 588.725L162.318 587.686L163.773 579.584L168.137 576.26L155.459 575.844ZM155.459 55.846L162.11 57.7157L162.526 68.311L166.89 66.0257L163.565 56.4693L155.459 55.846ZM155.875 612.824L161.071 611.785L159.2 608.461L159.616 610.954L156.706 610.538L155.875 612.824ZM155.875 71.635L161.071 73.0892L162.941 69.7652L155.875 71.635ZM158.369 591.218L160.863 594.126L165.228 597.866L166.682 595.996L158.369 591.218ZM160.863 1L161.279 4.53175V1H160.863ZM161.279 90.9557L162.11 98.6425L165.02 89.917L170.839 89.5015L163.565 88.4627V79.945L177.074 78.9062H163.149L163.565 90.3325L161.279 90.9557ZM163.565 724.385L166.475 721.477L163.981 720.438L163.565 724.385ZM163.565 4.53175L166.059 3.0775L165.02 1H163.981L163.565 4.53175ZM164.604 775.284L212.198 773.83L213.237 776.323L212.821 773.83L290.759 771.337L291.175 773.83L293.669 769.052L295.539 770.506L296.578 766.143L285.563 771.337L244.62 772.376L223.005 773.414L207.21 773.83H200.559L200.144 771.96V773.83L164.604 775.284ZM164.604 748.9L166.475 751.808H170.839L168.969 748.484L164.604 748.9ZM166.059 108.199L174.164 109.653L166.89 107.16L166.475 101.343L166.059 108.199ZM166.475 125.65L176.035 131.467L174.788 125.65H166.475ZM167.098 656.659H171.463L171.047 650.011H167.306V656.659H167.098ZM167.098 3.9085L168.345 1H167.306L167.098 3.9085ZM167.514 537.411H169.384V532.217H167.514V537.411ZM168.969 67.8955L175.619 68.9342L174.164 66.0257L168.969 67.8955ZM169.384 622.588L171.255 624.042L172.71 622.172L170.839 620.718L169.384 622.588ZM170.423 462.413L170.839 482.98L190.583 482.564V466.775L181.439 465.321L180.399 461.997L170.423 462.413ZM170.839 29.8772L173.749 31.747L174.164 44.212L180.399 43.7965L176.035 31.3315L173.541 28.8385L170.839 29.8772ZM171.878 732.488L178.113 731.033L172.294 727.709L171.878 732.488ZM173.333 568.573H178.113L177.698 566.08H173.333V568.573ZM173.749 89.917L174.788 96.1495L178.113 92.8255L173.749 89.917ZM174.788 584.985L179.152 581.661L177.282 579.791L174.788 584.985ZM178.113 606.591L181.023 608.461L186.426 608.046L179.152 604.098L178.113 606.591ZM178.113 496.068L179.152 518.09L192.661 517.674L192.246 495.653L178.113 496.068ZM178.113 490.874L184.348 490.459L184.764 487.135L183.309 486.096L182.27 489.42L177.905 487.55V490.874H178.113ZM178.529 69.7652L179.568 72.0505L186.842 69.7652H178.529ZM179.568 738.305H183.933L183.517 734.357L179.568 738.305ZM179.568 580.207L180.607 585.608L192.246 579.791L179.776 578.337V580.207H179.568ZM179.984 96.7727L181.023 98.6425L194.532 96.1495L205.131 85.9697L194.948 83.4767L198.273 87.424L193.493 91.7867L194.532 94.072L179.984 96.7727ZM181.854 101.966L188.089 103.005L190.583 108.199L187.674 112.562L192.038 111.523L192.454 115.262L188.089 122.534L189.544 125.027L192.454 128.974L188.089 129.389L187.674 132.298L193.493 129.389L189.128 122.118L196.403 121.703L195.363 113.185L189.544 102.59L181.854 101.966ZM182.478 522.452H193.077V519.128H182.478V522.452ZM183.309 535.125H192.038L191.622 531.801H183.517V535.125H183.309ZM183.725 36.733L184.14 38.6028L191.415 40.4725L190.375 46.705L194.116 40.888L192.246 36.5253H183.725V36.733ZM185.387 782.971L188.297 786.918L196.403 786.503L198.896 783.179L197.857 778.816H185.387V782.971V782.971ZM185.387 67.48L198.896 65.6102L199.936 62.2862L190.168 61.2475L185.387 67.48ZM187.258 595.996L189.752 608.461L190.168 597.45L194.948 596.411L187.258 595.996ZM187.258 28.423L190.999 25.5145L188.505 24.4758L187.258 28.423ZM187.674 16.3735L192.454 15.5425L188.505 14.5038L187.674 16.3735ZM188.713 299.121L202.222 300.16L202.638 297.252L199.312 294.758H188.713V299.121V299.121ZM189.128 739.343L192.454 737.058L190.999 735.188L189.128 739.343ZM192.454 313.456L193.909 323.012H195.779L196.818 317.195H203.469L197.65 316.157L196.61 311.794L192.454 313.456ZM193.493 269.205H203.053L202.638 262.973H193.493V269.205V269.205ZM193.909 495.653L195.363 526.815L197.857 527.231L227.162 525.776L226.746 505.209L235.891 506.248L234.852 486.096L194.948 486.512L193.909 495.653ZM194.324 329.453L197.234 331.322L196.195 326.96L194.324 329.453ZM194.324 103.421L195.779 105.29L197.65 103.836L198.065 101.966L194.324 103.421ZM194.324 39.0182L199.104 39.4337L199.52 37.564L194.324 39.0182ZM194.948 106.329L197.442 111.107L197.857 107.783L194.948 106.329ZM195.363 340.463H200.144L203.053 335.685L200.144 335.27L195.363 340.463ZM196.403 579.168L197.442 584.362L199.312 582.492L204.092 584.362L204.508 588.309L200.767 590.802L203.677 594.126L207.418 587.478L199.728 580.207L205.547 579.168H196.403ZM196.403 98.6425L199.728 98.227L201.183 94.903L196.403 98.6425ZM199.312 667.254L200.351 700.91H214.692L215.108 707.142L227.993 707.558L227.578 691.769L241.087 690.73V688.86H224.252L222.382 666.839V688.445H219.472L219.056 667.877H217.186L216.147 696.755L214.276 667.462L213.237 696.755H210.327L209.912 667.462L208.873 696.755H205.963L205.547 667.877H203.677L204.092 696.755H201.598L201.183 667.462H199.312V667.254ZM199.312 73.7125L210.327 74.128L211.782 72.2582V66.4412L209.288 65.4025L213.029 64.3637L214.068 56.2615L212.198 63.5327H200.144L200.559 66.0257L210.743 67.0645L211.159 72.2582L199.312 73.7125ZM199.936 1L201.183 6.4015L202.638 2.662L200.767 1H199.936ZM200.144 740.174L201.183 742.46L204.092 742.044L201.598 734.357L200.144 740.174ZM200.767 28.423L201.183 31.3315V28.423L204.508 26.9688L204.924 21.1518L201.598 19.9053L200.767 28.423ZM202.014 118.379L203.469 131.882L203.885 119.002L209.08 116.509H203.261L204.3 108.822L211.99 103.005L207.21 104.044L202.43 110.276L202.014 118.379ZM202.014 105.29L207.833 101.966H203.053L202.014 105.29ZM202.638 597.45L205.547 597.866L203.677 594.126L202.638 597.45ZM202.638 53.9762L208.873 52.9375V48.1593L207.418 52.1065L205.547 50.2368L202.638 53.9762ZM203.053 141.854L204.092 150.58L209.912 147.671L204.092 147.256V137.076L211.366 138.115L203.261 135.622V141.854H203.053ZM204.092 169.693L205.131 174.056L215.731 175.925L223.421 169.693H204.092ZM204.092 38.6028L205.547 41.9268L210.951 45.874L209.912 39.6415L204.092 38.6028ZM204.092 5.986L206.586 8.479L206.171 1.20775L204.092 5.986ZM204.508 345.242H209.704L206.794 341.502L204.508 345.242ZM204.508 98.6425L209.704 97.6037L208.249 95.1107L204.508 98.6425ZM204.924 157.228L205.339 163.876L211.159 163.46L212.198 160.552L215.108 163.46H221.758L220.303 156.189L217.809 159.513L214.9 156.189L209.704 159.098L204.924 157.228ZM205.963 94.2797L208.873 93.8642L208.457 90.5402L205.963 94.2797ZM208.873 594.126L212.198 594.542L209.288 587.271L208.873 590.179V594.126V594.126ZM208.873 29.0463L214.692 28.0075L213.237 19.9053L211.366 21.3595L213.237 26.1378L208.873 29.0463ZM209.288 583.946L211.159 586.439L212.614 582.492L210.12 581.453L209.288 583.946ZM209.288 52.9375L218.017 51.8987L212.198 51.4832L211.159 48.1593L209.288 52.9375ZM209.704 286.656L214.068 291.435L210.743 294.343L211.159 300.575L224.044 297.667L227.37 288.526V283.748L217.394 286.241L214.068 282.501L210.327 282.917L209.704 286.656ZM210.327 232.226H216.562V229.733L210.327 230.148V232.226ZM211.159 243.236H214.068L213.653 240.743H211.159V243.236ZM211.159 117.34L213.653 117.755L218.017 140.816L219.888 130.636L216.562 125.442L221.966 125.027L216.562 119.833L215.108 111.731L217.601 109.238H214.068L211.159 117.34ZM211.159 34.6555L211.574 39.4337L211.99 32.7858H214.484L211.99 31.3315L211.159 34.6555ZM211.782 250.508L212.198 253.001L214.068 252.585L213.653 249.677L211.782 250.508ZM211.782 144.347L213.653 146.84L215.939 145.802L216.978 143.309L211.782 144.347ZM212.198 608.669L214.068 613.447L215.939 609.084L214.068 606.176L212.198 608.669ZM212.198 594.542L212.614 598.489L218.849 598.073L212.198 594.542ZM212.198 1L212.614 6.817L213.237 1H212.198ZM213.237 738.72L218.641 739.759L224.46 732.488L219.68 722.931L220.096 735.396L215.315 735.812L213.237 738.72ZM213.237 103.005L216.562 106.745L217.601 102.382L222.382 103.421L221.966 100.928L213.237 103.005ZM213.653 720.646L218.849 722.1L219.264 719.607L213.653 720.646ZM213.653 191.922L219.888 195.246V199.609H214.068L215.108 202.517L226.123 201.479L220.303 189.014L215.523 188.598L213.653 191.922ZM214.068 97.6037H217.809L217.394 93.6565L214.068 97.6037ZM214.692 40.4725L215.108 42.3422L220.303 42.7578V40.888L214.692 40.4725ZM214.692 33.2013L217.186 33.6167L220.511 32.1625L216.147 31.1238L214.692 33.2013ZM215.108 640.87L218.849 641.285V632.144L217.809 640.247L215.108 640.87ZM215.939 47.1205L218.849 48.9903L219.888 45.6662L215.939 47.1205ZM216.562 586.439L218.017 588.309L221.343 581.661L219.472 579.168L216.562 586.439ZM218.017 79.5295L221.343 82.438L220.927 78.0752L218.017 79.5295ZM218.433 1L219.888 5.986L220.096 1H218.433ZM218.849 91.9945H221.758L222.174 89.086L221.758 84.7232L218.849 88.6705V91.9945ZM220.303 588.932L223.629 592.256L222.174 588.309L220.303 588.932ZM221.343 722.516L226.123 722.931L227.578 729.579L228.617 724.385L225.291 721.477L221.343 722.516ZM221.343 586.439L227.162 583.116L224.876 581.661L221.343 586.439ZM221.343 184.651L225.707 187.144L221.966 181.95L221.343 184.651ZM221.758 22.1905L223.213 53.9762L222.382 17.8278L224.252 17.4123L222.382 13.6728L221.758 22.1905ZM224.252 742.667L226.123 743.083L226.538 738.72L224.252 742.667ZM224.668 143.309L225.707 146.633L408.393 143.724L421.902 151.411L497.345 153.904L422.317 150.58L408.393 142.893L307.801 143.309L306.762 134.583L303.437 135.622V143.309H291.382L292.421 135.206L289.512 134.791L289.096 143.516H269.352V134.791L259.168 143.516H224.668V143.309ZM225.084 588.932L232.358 589.971L230.487 586.647L225.084 588.932ZM225.084 123.157L228.409 125.027V131.882L225.499 132.921H236.099L236.514 130.428L237.969 119.417L243.789 116.509L244.204 110.692H248.984V101.135L247.945 109.238L243.581 109.653L242.541 103.005H241.087L242.541 108.822L238.177 109.861L242.957 111.731L242.541 115.47H239.632L236.306 123.157H225.084ZM236.722 130.428L229.448 131.882L229.032 125.234L234.228 124.819L233.813 128.558L236.306 128.143L236.722 130.428ZM225.707 650.426H239.216L234.02 647.518L232.981 644.194L225.707 650.426ZM227.162 601.397L231.942 608.046L234.436 607.63L232.566 602.436L227.162 601.397ZM227.162 108.199L231.526 103.836L231.942 108.614L235.891 103.421L227.785 103.005L227.162 108.199ZM227.578 597.035L235.267 604.721L234.228 598.904L227.578 597.035ZM227.578 120.872L230.071 120.456L229.656 114.639L227.785 116.509V120.872H227.578ZM230.071 256.74L231.526 250.092H247.945L245.036 238.458L240.255 238.043L239.216 234.719L236.306 237.212L233.813 246.768L230.487 248.638L230.071 256.74ZM230.071 154.943L236.722 155.358L242.541 149.126L230.071 154.943ZM230.487 197.116L239.216 194.207L230.487 192.753V197.116ZM230.903 723.347L237.554 722.308L231.319 720.438L230.903 723.347ZM231.319 283.748L232.358 292.473L232.773 288.734H239.424L239.84 290.603L236.93 292.058L239.424 293.097L237.969 296.005L240.463 298.913L237.138 302.237L241.502 300.368V282.501L236.722 282.086L240.048 283.125V286.448H232.358L231.319 283.748ZM231.942 299.121L233.397 302.445L236.722 302.03L233.813 301.614L232.358 293.512L231.942 299.121ZM232.358 582.077L235.683 586.439L234.644 579.791L232.358 582.077ZM232.358 264.011L232.773 266.92H238.593V264.011H232.358ZM232.358 175.51L236.099 179.457L242.334 176.964L238.385 171.77L232.358 175.51ZM233.397 218.306L233.813 230.771H237.554L239.008 234.511L240.463 222.046L252.102 223.085L251.686 227.863L256.466 228.278L263.117 225.37H273.301L274.756 257.571L272.885 212.905L273.301 224.539H268.521L266.65 215.813H263.325L261.87 221.215L260 217.891L254.18 218.306L252.725 222.669L246.49 221.215L246.075 218.306H233.397V218.306ZM233.397 186.521L233.813 189.845L237.554 189.429L237.138 185.066L233.397 186.521ZM234.852 739.343H237.346L241.295 736.435V724.801H239.424L240.879 730.618L237.554 731.033L239.008 735.812L234.852 739.343ZM234.852 307.639L237.761 309.924L235.267 313.248L238.177 313.664L238.593 310.755L241.502 313.248L245.243 311.378L245.659 308.055L248.569 309.924L251.478 308.055L243.789 306.6L242.334 310.547L239.84 306.6L234.852 307.639ZM235.683 329.868L239.008 330.284L236.099 334.647H240.879V329.868L236.099 325.09L235.683 329.868ZM235.683 323.012L237.969 318.234L241.295 317.819L235.475 317.403V323.012H235.683ZM237.761 418.162L238.177 428.342L243.996 428.757V434.99H238.177V436.859H245.867L245.451 418.162H237.761ZM239.216 324.051L243.165 327.375V321.143L246.49 318.234L239.216 324.051ZM239.216 198.986L243.581 204.387H248.361L242.541 197.739L239.216 198.986ZM239.632 447.455L249.816 448.493L250.231 457.219H259.376L257.09 443.3L239.632 447.455ZM241.502 503.339L254.388 505.209L256.259 510.403L267.274 504.17L266.858 497.938L258.129 496.484L257.713 489.212L241.295 494.614V503.339H241.502ZM242.541 610.538L243.996 616.771L250.231 615.732L247.737 609.5L242.541 610.538ZM242.541 42.3422L245.451 53.353L243.996 33.6167L242.541 42.3422ZM242.957 158.682L246.283 162.006L254.388 160.552L245.659 157.228L254.388 151.411L256.259 146.633L242.957 158.682ZM243.373 414.422H256.259L255.843 405.697L249.192 409.021L245.867 405.697L247.322 401.75L254.596 399.88L254.18 396.972H248.361L243.581 406.528V414.422H243.373ZM243.373 315.949L251.478 315.533L251.894 311.794L243.373 315.949ZM243.996 348.15L259.376 347.735L274.34 338.178L276.834 331.53L275.795 320.935L276.21 331.53L260.415 346.904L243.996 348.15ZM243.996 66.4412H251.271V75.5822L246.075 75.1667L245.036 84.3077L261.454 78.4907V74.128L257.09 75.1667V78.4907L251.686 77.452V66.4412L257.921 66.0257L243.996 66.4412ZM243.996 32.7858L246.906 33.2013L247.322 37.9795L251.686 38.395L254.596 31.747L251.686 26.5533V37.1485L247.322 37.564L248.776 27.3843L245.036 28.8385L243.996 32.7858ZM244.62 1L245.243 5.36275L246.283 2.03875H248.776L253.141 7.2325L250.439 1H248.776V1.20775V1H244.62ZM245.451 326.96L255.635 334.231L258.129 329.037L263.325 327.998L263.741 325.09L255.635 323.636L254.596 317.403H252.102L250.647 322.805L245.451 326.96ZM246.283 87.6317L249.192 90.1247L247.737 94.903L252.102 91.579L253.141 94.4875L257.09 88.255L258.545 93.4487L262.494 89.086L264.364 93.4487L266.235 87.6317L264.78 85.1387V88.4627H262.909L261.87 82.2302L261.454 86.1775L258.129 87.6317L256.674 80.9837L251.478 82.438L246.283 87.6317ZM249.192 202.517L251.063 207.711H253.557L254.596 200.44L251.271 199.401L249.192 202.517ZM249.816 46.705L253.141 49.198V43.381L249.816 46.705ZM253.972 278.97L262.701 279.385V277.515L253.972 278.97ZM253.972 268.374L262.701 267.959L256.882 266.504L253.972 268.374ZM255.427 31.9547L257.921 36.733L258.337 51.691L264.156 50.6522L258.96 44.0043L260 41.719L266.235 40.6803L265.819 38.395L260 36.5253L262.494 23.0215H257.713L255.427 31.9547ZM256.051 293.72L261.87 295.59V292.681L256.051 293.72ZM256.051 287.487H261.87V284.579H256.051V287.487ZM256.466 62.0785L260.831 61.663V55.4305H257.506L256.466 62.0785ZM257.298 166.369L270.183 163.876L274.548 166.369L278.497 154.735V147.048L269.768 159.098L262.494 150.372L264.988 155.566L262.078 159.513L265.819 157.643L266.235 160.136L265.195 163.045L257.298 166.369ZM260.207 183.197L260.623 186.936H269.352L268.936 183.197H260.207ZM265.195 207.296L270.391 205.841L269.352 200.648L266.027 202.102L265.195 207.296ZM267.481 695.093L267.897 696.962L277.458 695.924L276.418 677.642L272.47 678.057V694.469L267.481 695.093ZM268.521 40.4725L271.846 42.3422L275.171 51.8987H283.277L284.316 44.212L293.045 48.7825L295.331 46.9128L290.967 45.4585L289.096 41.0957L283.9 41.5112L286.394 38.1872L285.355 33.8245L281.614 35.6943L278.289 45.2507L273.093 39.0182L269.144 38.6028L268.521 40.4725ZM268.936 69.7652L275.171 71.2195L271.223 76.4132L276.418 75.3745L277.873 77.2442L276.003 68.5187L268.936 69.7652ZM268.936 29.8772L274.132 29.4618L273.716 25.7222L268.936 29.8772ZM269.352 87.6317L274.548 90.1247L275.587 87.2162L277.458 88.255L276.418 92.6177H271.638L276.834 94.4875L278.289 97.8115L278.705 93.8642L282.653 92.8255L278.705 89.917L283.485 89.5015L279.536 88.4627V85.5542L286.186 89.5015L289.096 85.1387H281.406L284.316 81.3992L278.497 79.5295L278.912 84.7232L274.548 86.593L272.054 84.1L269.352 87.6317ZM269.975 302.03L270.391 308.262L272.885 311.171L271.015 307.431L272.054 302.03H269.975ZM270.807 168.446L272.677 213.113L271.638 168.862L315.491 168.446H270.807ZM270.807 59.7932L275.587 61.663L275.171 57.7157H270.807V59.7932V59.7932ZM270.807 20.3208L271.846 23.2293L274.756 21.775L273.716 18.451L270.807 20.3208ZM272.47 1L275.171 2.03875L275.587 4.94725L280.783 4.53175L279.951 1H272.47ZM273.301 143.309L278.497 138.115L274.132 139.154L273.301 143.309ZM274.132 281.255L274.548 295.59V287.487H278.497V278.762L282.861 275.853L299.696 274.815L311.334 278.138H333.988L335.027 288.734L343.756 290.188L345.211 303.068H346.666L344.795 292.058L351.03 289.772L349.991 274.815L311.127 277.1L307.178 272.322L299.904 271.906L299.488 274.191L288.888 272.737L288.473 275.23H282.653L278.705 277.515L277.25 286.656H274.756L274.132 281.255ZM274.756 28.423L277.25 26.5533L284.94 27.592L276.834 25.7222L274.756 28.423ZM275.587 619.679L283.277 620.095L287.641 617.81L294.915 628.405L287.641 616.771L275.587 619.679ZM276.21 258.61H301.15L310.295 261.103L319.024 258.194L276.21 258.61ZM278.081 651.257L283.485 650.842V647.518H278.081V651.257ZM279.12 164.084L282.445 163.045L280.575 161.175L279.12 164.084ZM279.12 70.804L282.03 77.452L280.575 69.3497L284.94 73.297L283.9 70.804L286.394 69.7652L287.434 73.5047L290.759 70.1807L292.214 77.8675L291.798 68.311H279.328V70.804H279.12ZM279.536 336.101L279.951 340.463L282.861 340.048L279.536 336.101ZM280.367 284.163L282.238 284.579L283.277 280.632L280.367 279.593V284.163ZM280.367 64.156L289.096 63.7405L281.406 61.2475L280.367 64.156ZM280.367 60.2087L292.006 61.663V57.7157L280.367 57.3002V60.2087ZM281.822 208.75H289.096L283.277 206.88L281.822 208.75ZM281.822 129.389L284.316 131.882L289.72 130.844L289.304 126.896L281.822 129.389ZM282.861 19.9053L285.147 13.2573L283.277 11.803L282.861 19.9053ZM283.277 152.034L287.641 154.527V152.657L283.277 152.034ZM284.316 317.819L286.186 319.688L289.096 317.819L290.967 322.182L293.461 319.688L290.135 316.365L284.316 317.819ZM284.316 223.085L284.732 224.954L286.602 221.215L285.147 220.176L284.316 223.085ZM284.316 138.115L284.732 141.439L287.226 139.985V137.076L284.316 138.115ZM285.771 384.091L286.186 391.362H292.421L292.006 384.091H285.771ZM285.771 297.252L292.421 294.343L288.68 293.927L285.771 297.252ZM287.226 369.133L297.825 368.717L297.41 363.316H287.226V369.133ZM287.226 82.2302L292.421 83.6845L293.461 81.8147L287.226 82.2302ZM289.096 787.334L291.59 800.837V781.517L289.096 787.334ZM289.096 342.333L290.135 344.203L294.915 347.112L322.35 347.527L294.915 346.488L289.096 342.333ZM289.72 94.903L294.5 95.3185L290.551 92.41L289.72 94.903ZM290.135 337.139L293.461 339.425L292.421 341.294L294.292 342.749L293.876 336.932L297.202 336.516L300.111 332.153L295.331 334.647L291.59 330.284L293.461 335.477L290.135 337.139ZM290.967 380.767H300.111V378.274H294.292V374.95L291.798 374.534L290.967 380.767ZM290.967 351.059L292.006 358.33L299.28 357.914V351.682L290.967 351.059ZM290.967 326.96L296.163 329.868L297.617 328.414L293.669 323.22L290.967 326.96ZM291.798 1L292.421 3.493L293.876 1H291.798ZM292.421 4.53175L295.747 7.02475L298.657 1.20775L302.398 2.2465L303.645 1.20775H295.331L297.202 2.662L296.163 5.5705L292.421 4.53175ZM293.045 400.919L293.461 406.112H301.15V402.788L293.045 400.919ZM293.876 141.023H299.072V138.115L294.292 137.699L293.876 141.023ZM293.876 87.2162L295.747 89.086L312.581 88.0472L311.127 86.1775L310.087 88.0472L303.852 86.1775L299.488 88.0472L298.033 84.7232L296.994 87.2162H293.876ZM293.876 63.5327H304.892L302.398 59.17L294.292 61.0397L293.876 63.5327ZM294.5 391.362H297.41L301.15 384.091H294.5V391.362V391.362ZM294.5 304.315L302.19 301.822L299.28 299.952L294.5 304.315ZM294.5 75.1667H298.864L295.539 73.7125V70.804L298.449 69.7652L296.994 68.311H294.5V75.1667V75.1667ZM296.37 323.012L304.06 319.273L305.099 321.143L301.15 325.505L303.645 326.96L308.009 316.365L312.789 314.91L307.593 312.417L306.139 316.78L303.645 312.833L304.06 317.195L301.566 318.65L299.696 313.872L296.37 318.65L300.735 319.688L296.37 323.012ZM296.786 285.617L300.111 288.11L302.398 286.656L300.527 284.163L301.982 280.839L305.307 281.878L302.813 279.593L296.994 280.008L296.786 285.617ZM297.41 341.918L297.825 344.826L300.319 342.957L302.605 344.826V334.647L299.696 338.594L301.15 341.502L297.41 341.918ZM297.41 221.63L298.449 223.916L304.684 224.331L297.41 221.63ZM298.241 249.469L303.437 249.884L302.398 247.391L298.241 249.469ZM298.241 132.298L300.735 131.882V128.974H298.241V132.298ZM301.15 75.5822H304.476L305.931 78.4907V74.5435L301.982 73.5047L302.398 69.7652L308.633 68.7265L300.943 68.311V75.5822H301.15ZM301.15 23.2293H310.711V20.7363H301.15V23.2293ZM302.19 7.2325L304.06 7.648L306.97 0.792252H304.892L302.19 7.2325ZM302.605 378.274H305.515L303.021 372.457L302.605 378.274ZM302.605 307.223L303.645 310.132L306.97 309.093L303.645 306.185L302.605 307.223ZM302.605 126.481L303.645 133.752L306.97 133.337L307.385 127.104L302.605 126.481ZM303.021 299.537L303.437 302.445L305.931 302.861V298.498L309.256 296.005L303.021 299.537ZM303.021 193.792L305.931 194.831L306.97 188.183L309.464 187.144L305.515 184.235L303.021 193.792ZM304.06 405.282L304.476 414.422L307.801 414.838L305.307 413.799L304.892 403.619L308.217 400.711L308.633 405.489H311.958L311.542 395.933L304.268 398.426L304.06 405.282ZM305.515 751.808L309.464 749.939L310.503 747.03L305.515 751.808ZM305.515 29.8772L308.009 35.071V29.254L305.515 29.8772ZM306.97 293.304H311.334L309.464 292.265L310.503 289.357L306.97 293.304ZM307.801 344.618L322.142 346.073L315.907 344.618V340.256L321.726 340.671V338.802L314.036 338.386L312.997 333.608L312.581 337.97L307.801 339.009L312.581 340.048V342.333L307.801 344.618ZM308.425 385.13L310.919 390.947V384.299L308.425 385.13ZM308.84 80.9837L312.166 82.438V79.5295L308.84 80.9837ZM310.711 164.915L314.66 165.953V160.136L310.711 164.915ZM311.127 1L311.542 8.27125V1H311.127ZM314.66 380.352H322.765L322.35 372.665H314.66V380.352V380.352ZM316.53 58.339L324.636 59.7932L321.726 56.8847L316.53 58.339ZM317.985 77.452L326.714 79.7372L331.91 78.283L323.804 77.2442L319.024 72.466L317.985 77.452ZM317.985 30.916H321.31V26.5533H335.235V30.916L337.106 25.099H344.795L325.675 24.0603V16.3735L329 15.958V19.6975H341.47V15.5425L341.055 19.4898H330.039V13.6728L323.389 16.5813L323.804 25.7222H317.985V30.916ZM320.895 134.168L326.09 135.206L325.675 132.713L320.895 134.168ZM322.765 251.962L327.961 253.416L326.922 249.053L322.765 251.962ZM322.765 115.47L325.675 118.794L323.804 115.886L325.259 111.107L333.988 106.745H329.208L324.22 111.107L322.765 115.47ZM322.765 38.1872L335.651 45.4585L339.392 54.184L345.211 53.7685H340.847L335.027 43.5887L323.389 37.7718L322.765 38.1872ZM323.181 728.748L324.22 742.252L342.094 733.526L339.6 727.709L323.181 728.748ZM323.181 346.696L326.506 348.566H350.615L323.181 346.696ZM323.181 271.283L325.051 273.152L329.416 271.698L327.545 269.205L323.181 271.283ZM323.804 319.688L328.169 321.558L325.259 324.467L326.298 330.284L327.753 325.09L332.118 326.96L331.079 321.766L335.443 324.051L336.898 322.182L332.949 320.312V317.403L338.768 319.896L334.404 314.702L334.82 310.755L330.455 313.248L329 318.65L323.804 319.688ZM324.22 37.1485L330.455 36.733L340.639 42.55L329.208 33.409L324.22 37.1485ZM325.259 719.607L339.184 720.023L341.678 718.153V709.427L337.729 709.012L325.675 711.92L325.259 719.607ZM325.259 64.987L327.13 66.8567L328.169 62.494L326.298 55.2227L325.259 64.987ZM325.675 245.729H330.871L329 239.497L332.325 235.134L338.976 233.264L333.78 229.525V224.123L325.675 245.729ZM326.09 379.728H328.585V383.675H332.949V378.274L326.09 379.728ZM327.545 407.151L327.961 414.422L335.235 414.007L334.82 407.359H327.545V407.151ZM330.039 273.152L332.325 275.645L331.91 271.283H333.78L331.286 269.413L330.039 273.152ZM330.039 192.338L331.494 199.609H346.458L345.003 196.285L339.184 194.415L336.274 188.598L330.039 192.338ZM330.039 150.164L332.325 152.657L333.78 148.295L330.039 150.164ZM330.039 72.2582L331.91 73.297L336.69 66.0257L335.651 62.0785L330.039 72.2582ZM330.455 635.053L330.871 647.102L331.91 642.324L330.455 635.053ZM330.871 116.509L339.6 116.093V104.044L330.871 116.509ZM331.494 339.425L342.094 340.879V336.516H335.859L339.184 333.192L334.82 333.608L333.365 331.115L336.69 329.245L333.365 327.791L331.494 339.425ZM331.91 253.001L338.56 253.416L338.145 250.508L332.949 249.053L331.91 253.001ZM332.949 88.6705L334.404 93.0332L343.133 85.3465L339.184 83.4767L332.949 88.6705ZM334.404 60.6243L335.859 57.7157L334.404 55.4305V60.6243ZM336.274 366.848H345.003V363.939H336.69L336.274 366.848ZM337.729 75.9977L340.639 76.4132L344.588 72.0505L339.808 71.635L337.729 75.9977ZM337.729 60.2087L340.639 59.17L337.729 57.3002V60.2087ZM339.184 414.007L345.835 414.422L345.419 407.151H339.184V414.007ZM340.639 167.823L360.383 168.239L361.422 177.795L360.383 167.615H340.639V167.823ZM341.055 67.8955L344.38 66.4412L343.341 62.0785L340.847 63.5327V67.8955H341.055ZM342.509 709.012L342.925 718.153L352.485 717.114V709.012H342.509ZM342.509 600.359L352.07 598.904L342.925 598.489L342.509 600.359ZM342.509 558.601H350.615V552.368H342.509V554.238H345.835V557.147L342.509 558.601ZM342.509 549.46L350.199 549.876V548.006L342.509 549.46ZM342.509 112.146L342.925 119.417H357.265L358.305 116.093L354.564 114.224L356.85 102.174H348.121V111.107L342.509 112.146ZM342.925 43.381L345.419 44.4197L347.29 32.3703H344.795L342.925 43.381ZM343.964 96.1495L345.835 97.1882L348.744 93.8642L347.29 91.9945L343.964 96.1495ZM345.419 61.2475L358.305 64.156L357.889 60.832L347.29 58.9622L345.419 61.2475ZM345.419 53.5607L351.238 52.9375L354.564 49.6135L353.109 47.7437L349.16 44.8353L347.705 47.1205L350.199 51.8987L345.419 53.5607ZM346.25 303.484H365.579L367.449 347.735L351.654 348.773L368.073 347.735L366.202 303.484L460.351 298.706H446.842L446.426 291.019L446.01 298.706H401.742L389.272 301.199L388.233 292.473L372.437 292.058L368.489 293.097L369.528 301.822L366.202 302.861L365.787 292.681V303.276L346.25 303.484ZM347.29 127.104L347.705 129.597L351.03 129.182L347.29 127.104ZM347.705 363.939L355.811 366.432V361.654H347.705V363.939ZM349.16 400.919L350.615 414.422L357.889 414.007L349.16 400.919ZM349.16 136.661L354.564 136.245L350.615 132.298V135.622L349.16 136.661ZM350.199 460.958H370.775L359.76 459.92L359.344 453.687L352.07 454.103L350.199 460.958ZM350.615 67.8955L353.94 70.804L352.901 73.7125L355.395 70.3885L350.615 67.8955ZM351.238 15.5425L351.654 31.3315L353.94 17.8278L351.238 15.5425ZM352.07 154.943H357.889L356.019 150.164H352.07V154.943ZM353.109 711.505L353.525 720.23H359.344L368.489 714.413L366.202 711.089L353.109 711.505ZM353.525 555.692L360.175 556.731L356.85 552.784H353.94L353.525 555.692ZM353.94 471.554H357.265V465.321H353.94V471.554ZM354.979 127.52L358.928 128.558L358.513 125.65L354.979 127.52ZM357.889 19.9053L361.838 24.268L367.034 21.3595L370.359 25.7222L370.775 23.2293L381.374 22.8138V20.3208H374.724V17.8278L357.889 16.789V19.9053ZM358.305 47.1205L364.955 48.1593L365.371 52.9375H367.865L374.1 43.381L376.594 44.4197L374.724 42.9655L380.127 33.8245L376.386 34.8632L372.437 40.6803L368.489 41.0957L368.904 36.3175L364.955 36.733V42.9655L358.72 44.4197L358.305 47.1205ZM360.383 70.804L362.877 71.2195L366.202 64.987L367.657 66.0257L372.437 55.015H370.567L360.383 70.804ZM361.214 196.285L361.63 199.193L361.214 179.042V196.285ZM361.214 118.794L362.254 122.118L364.54 121.703L361.214 118.794ZM362.254 150.58L363.293 156.397L366.202 153.073V148.295L362.254 148.71V150.58ZM362.669 162.006L365.163 166.784L379.504 165.33L377.633 156.189L375.763 158.682L369.112 157.228L367.242 160.552L362.877 159.098V162.006H362.669ZM364.748 1L365.579 7.85575V1H364.748ZM365.163 245.729L374.724 245.314L383.453 240.12L385.739 241.159L386.154 255.078L376.178 255.494H386.154L387.194 261.726L387.609 237.627L408.393 237.212L409.432 256.325L409.016 236.588L423.357 236.173L431.462 231.395L432.917 254.039L431.878 230.979L444.348 229.109L443.932 220.384V228.486L431.046 230.356L423.357 235.757L402.781 236.173L401.742 227.447V236.588L386.362 237.004L385.947 230.356L368.696 230.771L376.802 231.81L378.672 241.367L375.763 244.275L365.163 245.729ZM365.163 69.7652L368.489 72.0505V68.311L365.163 69.7652ZM365.579 114.431L371.814 121.079H375.763L375.347 113.808L365.579 114.431ZM366.618 80.9837L370.983 81.3992V84.3077H376.386L376.802 80.5682L403.612 79.5295L378.049 77.0365L366.618 80.9837ZM369.943 64.987H375.139V61.663H384.284L380.959 60.6243L379.919 54.8072V60.6243H373.684L369.943 64.987ZM371.398 210.62L372.437 214.982H376.802L377.841 210.62L376.386 207.711L371.398 210.62ZM372.853 184.651L379.088 184.235L373.892 182.781L372.853 184.651ZM373.684 58.7545H378.049L375.139 56.2615L373.684 58.7545ZM374.308 1L375.763 7.2325L378.257 6.817L377.425 1H374.308ZM375.763 46.705H381.166L381.582 52.9375L381.166 40.057L386.362 40.4725L388.856 43.381L387.401 47.3282L390.727 46.9128L393.221 42.1345L391.35 39.6415L397.585 38.6028L389.895 37.564V41.9268L387.401 39.0182H380.751L375.763 46.705ZM378.049 110.692L384.284 112.562V110.276L378.049 110.692ZM379.504 716.283L383.453 720.23L394.052 719.815H403.612L412.757 713.998L413.173 717.945L416.914 718.361V714.413L421.278 713.998L423.149 718.361V712.544L430.839 709.635L417.953 707.765L422.733 705.272L428.552 706.727L429.592 698.624L427.098 696.131L438.736 682.212L430.007 690.938L426.682 688.445L429.592 691.769L418.576 704.649L410.887 701.741L418.161 705.065L417.122 706.934L402.158 702.156L381.998 706.103L380.959 709.012L391.558 711.92L398.209 706.103L404.859 707.973L408.808 712.336L411.094 710.882L408.808 713.79H380.543L379.504 716.283ZM382.829 19.9053L388.233 21.3595L389.688 18.451L382.829 19.9053ZM383.868 73.297L390.519 72.8815L383.868 71.0117V73.297ZM386.154 111.523L397.17 110.484L390.519 107.576L388.648 95.1107L386.154 111.523ZM386.154 66.0257L393.844 68.311L391.974 66.8567L393.429 63.9482L388.648 59.5855L386.154 66.0257ZM387.609 375.365L388.648 384.922L394.468 386.792L393.013 395.517L398.417 380.144L405.067 385.337L414.212 382.429L412.341 377.235L405.067 371.418H388.233L387.609 375.365ZM389.688 27.592L391.142 29.4618L402.158 29.0463L403.197 37.7718V26.1378L401.326 28.6308L391.142 29.0463L395.507 19.9053L389.688 27.592ZM391.142 283.125L392.182 286.448L398.001 286.033L394.883 279.385L391.142 278.97V283.125ZM391.974 190.468L393.013 195.246L398.417 194.831L398.001 184.651L392.182 185.066V190.468H391.974ZM391.974 32.7858L392.389 35.2788L396.13 34.8632V32.9935H391.974V32.7858ZM395.923 394.686L410.263 399.464L411.302 394.271L416.706 392.401L409.432 388.038L407.561 396.14L398.832 392.401L395.923 394.686ZM395.923 68.9342L399.248 70.3885L396.754 72.6737L400.703 72.2582L400.287 67.48L395.923 68.9342ZM395.923 18.451L401.742 19.4898L403.197 24.6835L402.781 14.5038L402.365 17.8278L395.923 18.451ZM397.793 64.5715L402.573 65.6102L402.158 61.663L397.793 64.5715ZM398.832 41.5112L400.287 43.381L402.781 39.4337L403.82 46.705L403.405 38.6028L398.832 41.5112ZM403.612 2.03875L415.251 1.62325L414.835 1H412.757V1.20775L403.612 2.03875ZM404.028 19.9053H407.977L409.016 24.268L410.471 19.9053L415.251 20.3208L416.29 23.6448L418.161 18.8665H420.655V16.9967H414.42L404.028 19.9053ZM405.067 600.359L407.561 598.489L405.067 594.542V600.359ZM405.067 46.705L407.561 49.6135L413.38 47.1205L412.965 44.8353L405.067 46.705ZM405.899 81.8147L409.64 81.3992L405.899 78.9062V81.8147ZM406.522 36.1097L410.471 36.5253V32.1625H406.522V36.1097ZM406.938 112.562L414.628 112.977L414.212 111.107L406.938 112.562ZM408.393 68.9342L413.588 72.2582L414.004 68.5187V66.649L408.185 67.0645V68.9342H408.393ZM408.808 517.259L410.679 521.621L412.549 520.167L411.094 505.832L408.808 507.287V517.259V517.259ZM409.847 96.7727L410.887 104.044L413.796 100.304L409.847 96.7727ZM412.134 86.593L416.082 85.5542V90.3325L417.953 84.1H413.173L412.757 81.607L412.134 86.593ZM412.757 110.276L418.992 102.59L422.317 103.628L417.953 104.044L414.004 108.822L418.369 104.459L427.513 104.044L423.564 102.59L436.034 103.628L433.125 101.759L418.784 102.174L412.549 107.368V110.276H412.757ZM413.588 328.414L419.408 332.153L420.447 330.284L413.588 328.414ZM415.667 1.62325L426.474 1H425.227L423.357 1.20775V1H422.317V1.20775L415.667 1.62325ZM416.498 66.4412L420.447 68.7265L424.188 67.6877V65.818L416.498 66.4412ZM416.498 32.3703L416.914 35.6943H421.694V32.7858L416.498 32.3703ZM419.408 399.464L427.098 399.049L428.552 390.947L435.203 391.985L427.929 388.662L423.149 389.7L426.89 392.193L426.474 395.102L419.408 399.464ZM421.278 92.41H426.058L421.694 90.5402L421.278 92.41ZM421.278 18.8665H428.968L427.929 27.592L429.799 27.1765L430.215 19.0743H442.269L436.45 17.62L436.034 15.127L434.995 18.0355L421.278 18.8665ZM423.357 84.3077H432.917L435.411 90.1247L435.827 78.0752L442.477 77.6597H435.827L434.787 80.5682L430.839 80.9837L433.748 82.0225L432.709 83.8922H429.384L428.968 79.945L427.929 82.8535L423.357 84.3077ZM424.188 71.2195L425.643 72.6737L435.827 69.3497L431.046 67.8955L424.188 71.2195ZM424.811 289.565L429.592 290.603L429.176 288.734L424.811 289.565ZM424.811 50.6522L428.137 49.6135L427.721 45.6662L424.811 50.6522ZM427.098 119.833H432.917L431.046 116.509L427.098 119.833ZM428.552 42.9655H435.203L434.787 37.7718L428.968 39.226L428.552 42.9655ZM428.968 60.6243L431.878 61.0397L430.839 54.8072H428.968V60.6243ZM430.423 169.277L437.697 168.862L437.281 162.214L430.631 162.629V169.277H430.423ZM433.956 49.198H436.242L435.203 45.2507L433.956 49.198ZM436.242 103.836L439.152 110.484H443.932L438.113 107.576L439.152 102.797L436.242 103.836ZM440.191 65.4025L440.607 71.635L444.555 71.2195V65.4025H440.191ZM442.477 85.1387L443.516 87.6317H449.336L443.516 86.1775L444.971 83.6845L449.336 84.1L444.555 82.6457V76.8287L442.477 85.1387ZM449.128 678.265L454.324 679.719L455.363 677.849L449.128 678.265ZM449.751 691.145L454.532 695.093L451.206 689.899L449.751 691.145ZM451.206 15.958L457.441 15.5425L454.116 13.0495L451.206 15.958ZM451.622 34.24L453.492 38.6028V34.24H451.622ZM454.947 684.913L461.182 692.6L460.767 688.237L454.947 684.913ZM455.986 38.6028L459.935 44.4197L462.845 40.4725L459.935 34.24L455.986 38.6028ZM457.025 63.1172L459.935 66.4412L466.17 63.9482L478.64 64.3637L476.146 59.5855L465.547 62.494L460.351 60.001L457.025 63.1172ZM457.441 677.849L460.767 676.811L463.26 679.304L462.845 675.98L457.441 677.849ZM457.857 14.5038L461.182 16.9967L464.508 14.5038V12.2185L457.857 14.5038ZM461.182 298.498L564.06 294.551L552.005 305.562L548.68 316.988L548.264 314.702L537.665 320.935V325.713L540.159 324.674L526.65 333.815L537.665 327.583L546.81 327.167L547.225 319.065L573.62 294.135L548.057 294.551L547.017 261.934L547.433 294.551L461.182 298.498ZM462.221 29.4618L472.821 30.5005L473.237 45.874L472.821 29.0463L462.221 29.4618ZM462.637 40.4725L466.378 40.888L465.962 38.395L462.637 40.4725ZM465.547 654.789L472.821 657.282L481.55 656.243L473.444 651.465L467.209 651.881L465.547 654.789ZM468.041 185.274L471.366 194.415H474.276L473.86 185.274H468.041ZM470.95 82.8535L476.146 83.269L474.276 78.0752L476.146 76.2055H473.652L470.95 82.8535ZM474.276 166.992L475.315 171.355H486.954L484.044 163.253L474.899 161.383L474.276 166.992ZM474.691 12.634L477.601 14.0883V8.8945L474.691 12.634ZM477.601 197.116L491.526 196.7L492.565 210.204L492.149 195.869L477.601 197.116ZM480.926 77.0365L481.965 79.5295L484.875 78.4907V75.9977L480.926 77.0365ZM481.342 150.995L484.667 151.411L484.252 148.087H481.758L481.342 150.995ZM486.746 232.849L491.11 239.081L495.89 238.666L488.2 230.564L486.746 232.849ZM487.785 73.7125L489.24 78.4907L490.695 77.0365V73.7125H487.785ZM490.071 116.509L494.02 117.963L493.604 115.055L490.071 116.509ZM491.11 414.838L496.93 414.422V412.553L491.11 412.968V414.838ZM503.58 242.405H511.27L503.58 240.536V242.405ZM503.996 124.611L510.647 127.935L518.336 126.896L517.297 125.027L503.996 124.611ZM507.321 356.252L508.36 362.9L511.686 362.485L514.18 357.291L513.764 354.383L507.321 356.252ZM511.686 242.821L513.14 245.106H522.285L521.87 242.821H511.686ZM515.635 384.091L518.544 387.415L517.505 390.323L521.454 388.454L518.544 382.637L515.635 384.091ZM515.635 335.685L523.74 336.101L524.779 349.604L525.818 335.27L515.635 335.685ZM520.83 141.854L527.065 142.27L526.026 137.492H528.52L527.481 134.999L522.077 136.037L520.83 141.854ZM522.285 540.319L525.61 539.28L523.117 536.372L522.285 540.319ZM530.391 136.661L541.406 138.115V136.245L530.391 136.661ZM531.014 404.243L532.885 407.567H541.614L549.303 407.151L549.719 404.243L548.68 399.88L531.43 400.295L531.014 404.243ZM533.924 152.034L539.328 149.541L533.924 145.802V152.034ZM539.12 342.749L541.614 346.073L547.433 344.618L547.017 331.115L539.743 331.53L539.12 342.749ZM540.159 351.059L548.264 350.643L543.9 349.189L540.159 351.059ZM543.484 113.6L545.978 109.861L543.484 104.459V113.6ZM544.523 117.963L550.343 119.002L545.978 116.509L544.523 117.963ZM546.394 252.377L546.81 255.701L554.084 253.832L555.538 246.145V243.652H549.719V251.754L546.394 252.377ZM550.135 332.153L550.55 339.84H558.656V330.284L553.876 335.062L552.421 333.608L555.331 330.699L550.135 332.153ZM553.045 113.185L556.37 114.224V110.9L553.876 110.484L555.331 111.523L553.045 113.185ZM553.668 421.694L554.707 440.391L570.087 439.976L574.867 435.613L570.503 429.796L570.087 421.07H565.722L567.177 430.627H561.15L558.656 428.757L558.24 421.07L553.668 421.694ZM559.28 127.935L562.605 128.974L563.02 133.752L564.891 132.713L563.852 127.935L568.216 126.065L572.997 130.428L569.671 122.326L559.28 127.935ZM560.734 77.452L571.75 85.1387L568.424 88.4627L572.789 85.1387L565.099 77.8675L560.734 77.452ZM561.15 137.492L565.515 138.53L572.165 134.168H563.228L561.15 137.492ZM562.189 104.459L562.605 107.783L570.295 108.199L571.334 106.329H581.518L581.102 96.7727H573.412L580.063 97.1882V100.512L573.828 101.551L580.478 102.59V105.914H571.75L570.71 98.6425L569.671 104.459H562.189V104.459ZM566.554 458.673H571.957L572.373 463.036L578.192 461.166L574.867 454.518L566.554 458.673ZM567.593 326.96L569.879 326.544L569.463 321.766L567.593 326.96ZM570.503 117.963L572.789 109.238L574.243 116.924H581.933L581.518 108.822V115.47L579.024 115.886L577.985 108.614L578.4 114.847L575.075 115.886L573.62 109.238L570.295 108.199V117.963H570.503ZM571.334 466.36L573.204 474.462L577.985 474.047L580.271 469.684L578.816 466.36H571.334V466.36ZM571.75 287.903L583.804 287.487V282.293L576.53 282.709L575.49 284.579L578.816 284.994L571.75 287.903ZM574.243 132.713L580.063 133.752L581.518 138.115L583.388 135.622L582.973 129.805L574.243 132.713ZM579.024 496.691H587.129L586.713 491.498H580.478L579.024 496.691ZM586.713 124.196L596.897 125.234V123.365L586.713 124.196ZM587.129 13.6728L589.623 14.0883L589.208 7.85575L587.129 13.6728ZM599.807 156.397L600.846 149.749L605.626 149.333L599.807 148.918V156.397ZM611.653 132.298L618.928 134.168L617.057 128.351H611.861V132.298H611.653ZM612.277 150.58L622.877 150.164V153.488L618.512 154.527L623.292 155.981V158.89L624.747 155.15L627.657 156.812L626.202 154.319L630.151 152.45L624.331 154.319L623.916 149.957L630.151 149.541L612.277 150.58ZM613.108 147.256L629.943 146.84L621.214 146.425V141.023L620.798 146.425L613.108 147.256ZM618.928 134.168L621.422 140.4L620.383 134.583L618.928 134.168ZM634.307 141.854L634.723 150.995L651.973 150.58L651.558 141.854H634.307ZM634.723 187.144L639.503 186.728L639.088 180.496L634.723 177.172V187.144ZM635.347 197.739L641.582 198.155L641.166 190.052H635.347V197.739ZM639.711 29.4618L641.997 31.3315L642.413 38.6028L646.777 39.0182L643.452 37.564L641.582 28.423L639.711 29.4618ZM640.542 153.488L645.738 158.682L653.844 154.943V151.619L640.542 153.488ZM641.582 168.446L650.311 178.003L655.091 177.587L641.582 168.446ZM643.868 197.739L649.063 197.324L643.868 195.869V197.739ZM653.012 37.564L657.377 37.1485L653.012 35.6943V37.564ZM653.636 168.862L675.251 171.77V168.862L657.377 164.084H654.467L653.636 168.862ZM655.506 44.4197L656.546 41.0957H659.455L660.91 44.4197L660.494 40.4725H655.714V44.4197H655.506ZM656.546 437.067H659.871L659.455 434.159H656.546V437.067V437.067ZM656.961 178.003L663.612 185.274L666.106 184.859L656.961 178.003ZM658.416 85.762L663.612 93.8642L673.796 98.6425L662.365 89.5015L667.145 86.593L672.341 88.0472V85.5542H658.416V85.762ZM659.247 213.944L664.028 212.905L662.988 210.62L659.247 213.944ZM660.702 280.839L661.741 283.748L665.067 282.709L660.702 280.839ZM661.326 175.094L668.6 179.457L676.29 179.042L661.326 175.094ZM669.016 208.75H679.199L671.094 201.479H669.223V208.75H669.016ZM672.341 40.057L680.446 39.6415V37.7718L672.341 40.057ZM673.796 65.4025L674.211 69.7652L678.992 69.3497V65.4025H673.796ZM673.796 57.3002L674.211 60.2087L681.486 58.7545L681.07 56.8847L673.796 57.3002ZM674.211 98.6425L682.94 102.59L689.175 94.903L694.579 93.8642L694.163 90.1247L685.019 94.4875L675.874 91.579L683.564 98.227L682.525 100.72L674.211 98.6425ZM680.862 38.1872L681.278 42.9655L682.733 41.5112V38.1872H680.862ZM682.525 60.6243L682.94 75.5822L687.721 76.621L687.305 60.2087L682.525 60.6243ZM696.242 63.5327H701.645L702.061 66.4412H704.555L706.01 62.494L704.555 48.7825H702.685L701.645 57.9235H696.242V63.5327ZM698.32 89.917L698.736 112.977L707.465 113.393L703.516 89.917L701.645 89.5015L703.516 82.8535H698.32V87.2162L701.23 87.6317L698.32 89.917ZM700.606 192.753L702.892 193.169L703.308 200.44L705.802 200.855L721.182 195.038L710.582 194.623L704.347 190.26L700.606 192.753ZM706.426 101.966H712.661L712.245 95.3185H707.049L709.959 99.6812L706.426 101.966ZM709.335 107.368L709.751 113.6L714.115 113.185L713.076 110.276H715.57L717.441 114.016V104.459L716.402 106.952L712.661 105.498L709.335 107.368ZM715.986 160.552L721.182 160.136L723.676 154.735L715.986 160.552ZM720.35 357.291L721.39 360.2L726.793 352.513L720.35 357.291ZM721.39 363.524L734.899 348.566L731.989 344.618L733.86 347.942L731.366 348.981L729.495 346.073L730.95 349.397L721.39 363.524ZM724.715 181.742L726.17 194.207L729.079 190.883L734.275 190.468V183.82L731.781 181.535L724.715 181.742ZM725.131 113.6H730.534L727.209 106.952L725.338 107.368V113.6H725.131ZM725.131 103.005L730.534 104.875L728.664 98.227H725.754L725.131 103.005ZM726.585 90.5402L732.82 90.1247V82.0225L731.781 88.255H726.585V90.5402ZM726.585 62.0785H731.781L732.197 73.7125L740.302 72.6737L738.848 61.2475L731.158 61.663L728.248 59.3777L726.585 62.0785ZM728.456 282.293L728.872 286.656H735.522V282.293H728.456ZM733.86 178.418L740.51 178.003L740.926 181.742L744.251 176.549L739.471 169.901H734.691L738.64 174.263L733.86 178.418ZM737.808 89.917H741.549L741.134 86.1775L737.808 86.593V89.917ZM739.055 284.579L742.796 279.8L740.926 277.307L739.055 284.579ZM739.055 121.287L746.33 119.417L746.745 128.558H742.381V135.83H748.616L748.2 129.805H752.98L752.565 126.481H748.2L747.784 115.47L739.055 121.287ZM743.42 92.41H747.784V89.5015L743.42 89.917V92.41ZM747.784 179.457H757.968L750.694 190.883L751.733 198.155L754.643 205.426L755.058 205.634V205.841L760.878 209.789L761.917 214.567V214.359L763.372 221.215L760.462 217.475L758.592 216.021L758.176 217.891L760.462 221.215L760.67 221.63L763.164 224.954L763.58 221.63L767.944 225.37L762.748 209.581L756.513 205.218L752.772 195.662L752.357 190.883L757.553 185.69L762.541 171.77L767.528 169.277L767.113 160.552H762.748L763.164 157.643L761.709 162.006H759.423V159.513L757.968 162.006L759.423 164.915V162.422L762.333 163.46V166.369L758.592 166.784L763.372 167.2V169.693L752.357 170.732L762.956 170.316L762.125 171.355L752.772 173.225L760.462 174.263L760.047 176.133H753.396L760.047 176.549L759.007 178.418L751.318 178.834V168.239L750.486 167.823V167.2H748.616V179.457H747.784ZM751.941 195.662L752.772 198.362L752.149 196.908L751.941 195.662ZM749.239 227.447H753.604L755.058 222.254L754.019 227.447L756.929 223.708L756.513 227.447H758.384L758.8 223.085L754.435 218.306L749.239 227.447ZM752.149 132.298L756.929 135.622L759.839 133.129L752.149 132.298ZM752.565 164.499L755.89 164.084V160.76H752.565V164.499ZM752.565 158.267H755.474V155.358H752.565V158.267ZM757.345 116.924L757.76 127.935H760.67L761.086 135.622V127.935H762.956L761.917 116.924H757.345ZM760.67 313.04L763.164 318.442L766.074 315.949L765.035 313.04L761.709 311.171L760.67 313.04ZM762.748 157.851H767.528L764.203 157.436L767.528 154.527H764.203L764.619 148.295L762.748 157.851ZM765.035 238.043L771.685 237.627V243.444L768.36 241.574L769.399 252.17L777.089 250.715L776.673 258.818L777.089 256.325L779.998 258.194L781.869 256.325L786.649 257.363V254.039L789.559 256.325L789.143 250.508L792.468 255.701L789.559 248.43L793.923 226.409L796.417 224.954V218.722L803.692 220.176L803.276 216.437L800.366 206.88L799.951 216.437L796.625 217.475L793.3 205.426L783.116 205.01L781.661 218.514L777.297 216.021L775.842 217.891L786.441 218.93L790.806 213.736L793.092 214.151L789.767 219.968V221.838L793.716 221.423L793.3 225.162L784.155 224.747L776.465 222.877L772.101 225.37L772.517 233.472L765.866 233.888L765.035 238.043ZM782.908 311.586L786.233 310.547L785.194 308.055L782.908 311.586ZM786.649 257.156L795.794 258.61L806.809 252.377L786.649 257.156ZM790.598 127.935L791.637 133.129L795.586 130.22L794.131 128.351L791.637 130.22L790.598 127.935ZM792.053 271.698L792.468 274.191L794.339 270.244L796.21 272.114L797.664 267.751L794.339 267.335L792.053 271.698ZM796.417 667.254L802.652 667.67L804.107 664.761L800.782 665.8L799.743 663.93L796.417 667.254ZM797.249 480.695L801.613 480.279L800.158 478.409L797.249 480.695ZM797.249 119.417L799.743 120.872L797.872 122.326L798.911 125.234H800.366V120.041L797.249 119.417ZM799.327 164.499L801.821 172.186L809.927 169.693L812.421 170.732L810.966 172.601L815.746 171.563L812.836 169.693L815.122 168.654V165.33L810.342 169.693L799.327 164.499ZM799.743 640.247L802.652 637.754L801.198 636.299L799.743 640.247ZM801.613 128.351L804.938 130.22V133.544H811.173V131.882H806.809L808.264 120.872L806.809 123.78H803.484L801.613 128.351ZM801.613 98.227L802.029 105.914L806.809 104.875L806.393 92.8255L803.068 91.3712L801.613 98.227ZM802.237 639.416L806.601 636.923L805.562 635.053L802.237 639.416ZM803.068 645.025L805.562 651.257L807.017 648.764L805.978 643.986L803.068 645.025ZM803.068 141.023L805.562 148.71H812.213L805.562 144.971L807.433 140.608L803.068 141.023ZM807.017 632.975L808.887 634.845L809.303 632.352L810.342 634.222L813.252 633.183L812.836 631.313L807.017 632.975ZM811.797 635.468L813.252 636.923L814.707 634.43L815.122 632.56L813.252 633.599L811.797 635.468ZM814.707 162.006L818.656 159.513L817.616 157.643L814.707 162.006ZM815.122 156.397H819.487L819.071 152.657L815.122 156.397ZM815.538 141.439L823.643 144.347L821.15 146.84L823.02 150.164L830.71 146.84L829.255 142.062L827.8 143.932L826.345 141.439H815.538V141.439ZM819.903 163.045L822.189 159.721L819.903 157.228V163.045ZM825.722 529.308L828.216 530.347L830.086 527.023L825.722 529.308ZM826.761 81.8147L830.086 89.086L834.035 89.5015L838.815 86.1775L839.231 81.3992L826.761 81.8147ZM831.957 41.5112L837.776 41.0957L833.827 38.6028L831.957 41.5112ZM832.373 26.1378H836.737V24.268L832.373 26.1378ZM840.062 37.1485L841.102 41.0957H844.427L840.062 37.1485Z" fill="#292929"/>
</svg>
