<svg width="810" height="831" viewBox="0 0 810 831" fill="none" xmlns="http://www.w3.org/2000/svg">
<path d="M0.397949 11.2185L1.43712 26.592L12.0366 25.5533L14.5306 22.6448L20.35 24.099L22.2204 18.282L23.2596 24.93L31.3651 23.8913L32.4043 17.6588L33.4434 22.0215L44.4586 23.0603V16.8278H11.2053V11.2185H0.397949ZM1.85278 52.9763H10.5818L11.6209 44.2508L12.0366 51.522H25.1301L26.1693 44.2508L28.6633 44.6663L29.7025 51.9375H38.8471V48.6135H45.29L44.8743 31.3703L15.9854 31.7858V33.6555L11.6209 34.071V42.7965L2.06062 42.381V52.9763H1.85278ZM67.3203 736.889L75.4258 736.474L75.0101 731.696H70.2299L67.3203 736.889ZM86.0253 577.753H87.8958L86.441 582.116H97.0405L96.6248 574.429H86.0253V577.753V577.753ZM86.441 598.528L86.8566 612.863H97.4561V598.528H86.441ZM86.441 590.218H97.0405V587.933H86.441V590.218V590.218ZM92.8838 733.565H98.0796L97.6639 731.072L92.8838 731.488V733.565ZM93.7151 139.4L94.7543 165.369H152.532L152.948 139.4L147.128 138.569L145.258 133.791L139.023 133.376L138.399 137.115L137.36 134.622L123.435 131.298L94.1308 135.661L93.7151 139.4ZM97.0405 574.429L97.4561 585.024H105.146V579.207L101.197 577.753V574.844L97.0405 574.429ZM98.0796 613.278L109.095 612.863L108.679 607.669H98.0796V613.278ZM98.0796 607.669L108.679 607.253V602.06H98.0796V607.669ZM106.185 787.788H111.381L109.51 784.464L111.381 782.594H106.601L108.471 784.88L106.185 787.788ZM109.095 550.33H114.914L115.33 545.136H118.655L118.239 537.034V529.347H109.095V550.33V550.33ZM109.51 559.471H130.294L126.968 551.369H109.718V559.471H109.51ZM110.55 585.855L117.2 587.725L119.071 579.623L113.251 574.844L110.55 585.855ZM110.55 499.016L110.965 516.259H118.239L118.655 527.893L129.255 527.477L128.839 513.974H123.643L120.733 505.248H118.447L118.032 501.509L110.55 499.016ZM111.173 593.542L118.863 593.126L116.369 590.218L112.004 587.309L111.173 593.542ZM112.42 604.137L112.836 609.954L114.706 609.539L117.2 609.954V607.461L123.02 608.915L124.89 601.644L120.526 599.151L116.785 600.19L117.824 603.098H119.694L116.369 605.591L115.33 603.098L112.42 604.137ZM113.875 488.42H120.11L128.215 488.005L127.8 483.642H114.291L113.875 488.42ZM118.655 539.735H127.8L127.384 531.009H118.655V539.735ZM121.149 622.004L126.968 624.912L128.008 628.236L130.502 625.328L127.176 620.965L121.357 619.926V622.004H121.149ZM121.565 635.923L129.255 631.976L128.839 629.483L126.345 627.613L125.306 624.704L122.396 625.12L121.565 635.923ZM122.604 489.875L124.059 495.276H128.423V489.459L122.604 489.875ZM123.643 581.077H130.917L130.502 573.806H126.761L123.643 581.077ZM124.059 640.701H130.294L133.619 633.014H136.113L136.529 627.197L132.58 625.328L130.709 627.197L133.203 633.014L127.8 634.884L124.059 640.701ZM126.968 586.478L127.384 593.75L136.944 595.204L132.164 586.063L126.968 586.478ZM127.8 612.447L143.595 610.993L144.011 607.046L145.466 597.905L132.58 597.489V601.436H128.839L127.8 612.447ZM144.219 607.046L138.815 607.461L135.074 606.007L136.529 602.683L144.219 607.046ZM128.839 483.642L129.255 493.199L150.454 493.614V483.434H128.839V483.642ZM129.878 527.27H141.932V523.53L135.697 523.115V518.336H129.878V527.27ZM131.749 621.588H143.387V619.095H131.749V621.588ZM132.164 623.458L138.399 625.743L142.764 624.289L141.725 621.796L132.164 623.458ZM133.203 613.278L135.697 615.563H146.713V613.278H133.203ZM133.619 585.855L137.984 595.412L141.725 593.957H152.324L152.74 578.584L147.544 582.531L133.619 585.855ZM136.944 629.275L142.764 632.599L139.438 637.377L150.454 638.416L141.725 626.782L136.944 629.275ZM137.984 122.573L143.387 121.534V124.027H147.752L146.297 121.534L150.661 114.263L138.191 117.587V122.573H137.984ZM141.725 35.733H150.454L150.038 28.0463L142.764 27.0075L141.725 35.733ZM142.348 49.029L143.387 52.9763L149.622 52.5608L148.999 47.7825L145.258 46.7438L142.348 49.029ZM142.348 46.7438L148.583 45.705L149.622 39.4725L142.348 37.6028V46.7438ZM142.764 522.076L143.179 527.893L151.285 527.477V522.076H142.764V522.076ZM144.219 720.893L144.634 724.84L145.673 727.748L146.089 729.618H152.74V724.84L149.83 720.893H144.219V720.893ZM144.634 302.9L146.089 324.506H163.339L162.508 303.315L144.634 302.9ZM145.258 627.821L152.532 633.638L150.038 628.859L152.948 627.821L151.908 625.328L145.258 627.821ZM145.673 1.03875H156.273L156.065 0H145.673V1.03875ZM146.089 341.749H157.104L158.143 344.657L163.339 334.062L163.755 324.921H156.065L156.481 330.738H145.881V341.749H146.089ZM146.713 612.863L153.987 612.447V605.176L153.571 596.45H148.375L147.96 607.461L146.713 612.863ZM148.999 21.8138L150.454 26.592L156.273 25.5533L155.857 14.958L151.077 15.9968L148.999 21.8138ZM149.622 52.5608L160.222 52.9763L159.183 48.6135L153.363 46.7438L150.454 47.1593L149.622 52.5608ZM150.869 45.2895L154.195 46.3283L157.104 38.6415L152.324 38.226L150.869 45.2895ZM150.869 27.423L152.324 38.0183L157.52 36.564L157.936 34.071L153.571 26.3843L150.869 27.423ZM154.818 609.954H165.418L163.547 597.074L160.637 596.658L161.677 593.334L158.767 590.01L162.508 587.517L162.092 583.57L157.312 581.7L155.442 583.57L157.312 599.359L163.131 601.229H155.026V609.954H154.818ZM156.689 751.847L157.728 771.168L158.143 773.038H164.794V762.027L173.939 761.612L173.523 751.016L156.689 751.847ZM158.767 44.2508L163.131 49.4445L163.547 40.719L160.014 39.4725L158.767 44.2508ZM162.092 37.6028L167.912 38.6415L168.327 29.085L163.963 30.5393L162.092 37.6028ZM162.508 25.9688L169.782 25.5533L167.288 20.775L162.924 20.3595L162.508 25.9688ZM165.002 599.982L170.821 597.489L170.406 593.542L166.665 593.126L167.08 589.179L165.002 599.982ZM165.002 259.064L166.041 279.632H188.071L187.032 257.61L165.002 259.064ZM165.833 763.274L166.249 772.415L180.174 771.999L174.354 770.545L174.77 763.274H165.833ZM168.327 613.278L174.562 615.148L179.966 611.824L178.927 605.176H177.056L176.641 611.408L173.315 613.901L169.574 610.993L168.327 613.278ZM169.782 716.738L171.653 719.646L176.848 721.1L184.123 722.139L186.617 723.593L188.487 721.1L181.836 716.738H169.782V716.738ZM170.198 48.198L176.848 48.6135V52.5608H180.174L178.303 41.9655L173.107 41.55L170.198 48.198ZM172.692 39.4725L178.511 39.888V31.1625L175.186 32.6168L172.692 39.4725ZM172.692 21.8138L173.731 29.085L178.303 27.0075L177.888 18.9053L173.523 17.8665L172.692 21.8138ZM180.382 767.013L180.797 772.207L202.412 771.168L201.996 754.756H196.593L195.138 749.562L184.954 749.978L185.37 766.805H180.382V767.013ZM181.836 256.156H187.032V251.378H181.836V256.156ZM191.812 337.386L192.228 346.943H199.502L206.776 346.527V337.386H191.812ZM193.267 741.252L197.008 742.291V748.939H201.373V738.759L193.267 741.252ZM195.138 738.344L201.373 737.305L200.957 722.97L199.087 724.009V735.643L195.138 738.344ZM201.996 727.748L202.412 737.305H205.322L210.517 739.798L213.011 741.252L214.882 738.759L214.466 735.851H210.102L209.686 727.748H201.996V727.748ZM201.996 724.424L207.192 722.555V716.738L201.996 717.153V724.424ZM202.412 738.759L202.828 748.939L213.427 748.523L210.933 741.252L207.608 739.382L204.698 738.967H202.412V738.759ZM203.867 601.229H210.102V596.866L203.867 598.736V601.229ZM209.063 638.416L213.843 640.701L221.948 640.286L220.909 634.469H210.31L209.063 638.416ZM214.051 727.748L214.466 733.565L223.195 733.15L224.65 728.372L214.051 727.748ZM223.611 736.474L226.936 737.928L227.975 735.435V727.125H225.066L223.611 736.474ZM229.43 165.992L229.846 167.862L230.885 212.113L232.756 256.779L233.171 270.698L247.512 266.959H311.94L316.72 265.505L310.485 265.92L310.07 258.233L321.708 257.195L306.329 256.779L303.835 234.758L321.085 235.173L320.669 211.697H306.329L303.419 193L305.289 191.961L307.16 196.739H311.524L308.199 192.792L313.395 188.014L312.979 179.912H315.889L314.85 168.901L318.175 167.031H298.431L274.946 165.992H229.43V165.992ZM272.036 812.718L278.271 814.588V812.718H272.036ZM272.66 29.916H275.985V24.5145H281.804L281.389 15.3735L273.283 15.789L272.66 29.916ZM277.44 818.951L277.855 821.859L280.765 821.444L277.44 818.951ZM279.31 29.916H293.235V25.5533H279.31V29.916ZM281.181 36.1485L293.235 42.381L299.054 52.5608H303.419L308.199 51.1065L305.705 46.3283L307.16 44.043L311.109 46.9515L313.603 45.0818L313.187 43.212L315.058 43.6275V31.578H308.407L309.862 30.5393L309.238 14.5425L303.835 14.958L304.25 30.3315H306.744L305.289 31.3703L303.419 43.4198L300.925 42.381L302.795 31.3703L287 32.409L297.6 40.5113L288.455 35.733L281.181 36.1485ZM293.859 781.14L296.768 789.242L299.262 788.827V783.633L296.353 783.218H299.262V781.14H293.859ZM293.859 772.83L296.353 774.7V770.753L293.859 772.83ZM294.274 813.341L299.47 812.926V810.433H294.274V813.341ZM294.274 809.81H296.768V804.616H294.274V809.81ZM294.274 804.2H299.47L296.56 802.331L299.47 800.461L296.56 800.045L299.47 798.591L294.274 800.045V804.2ZM294.274 793.605L295.313 797.968H303.003L302.588 796.098L296.353 796.514L299.262 792.151L294.274 793.605ZM296.56 775.323L296.976 780.517H298.847L298.431 775.323H296.56ZM299.054 775.323L304.25 776.777V774.908L299.054 775.323ZM299.054 774.284H304.25V772.415H299.054V774.284ZM299.47 812.718L300.509 816.042L305.289 815.627V813.134H302.795L305.289 812.718V810.225H299.886L299.47 812.718ZM299.47 791.528H304.666V789.242H299.47V791.528ZM299.47 788.827H304.666V786.542H299.47V788.827ZM299.47 785.918H304.666L299.47 784.049V785.918ZM299.47 784.049L304.25 783.633V781.763L299.47 782.179V784.049ZM299.47 781.556L304.25 781.14V779.063L299.47 779.478V781.556ZM299.47 779.063L304.25 778.647L299.47 777.193V779.063ZM300.094 807.94H305.497V804.616L303.003 806.07L300.094 807.94ZM300.094 801.707L304.874 803.577V799.838H300.094V801.707ZM300.094 794.021L302.588 795.89L304.874 797.76V793.813H300.094V794.021ZM300.094 794.021L304.874 793.605L300.094 792.151V794.021ZM304.874 781.971L310.277 783.425V781.556L304.874 781.971ZM304.874 781.14H310.277V779.063H304.874V781.14ZM304.874 778.647H310.277V776.777H305.497L304.874 778.647ZM304.874 774.284L310.277 773.869L309.862 771.999L305.082 772.415V774.284H304.874ZM304.874 770.545L310.277 771.584L309.862 769.714L304.874 770.545ZM305.289 804.2L305.705 810.017H308.199V804.2H305.289ZM305.289 803.577H310.485V797.76H305.705L310.485 797.345V794.021H305.289L308.615 795.475L305.289 795.89V799.838H308.199L305.289 801.707H308.615L305.289 803.577ZM305.289 791.528L310.485 791.112L305.289 789.242V791.528ZM305.289 788.827H310.07V786.542H305.289V788.827ZM305.289 785.918H310.07V784.049H305.289V785.918ZM305.289 776.777L310.07 776.362V774.492L305.289 774.908V776.777ZM305.705 815.627H310.901V813.134H305.705V815.627ZM305.705 812.718H310.901V810.225H305.705V812.718ZM307.16 135.661L308.199 141.478L317.759 141.062V135.661L312.564 135.245L310.693 133.376L308.823 134.83L307.16 135.661ZM308.615 809.81L311.109 810.225L316.305 807.94H308.615V809.81ZM309.238 14.5425L312.148 17.0355L309.862 30.5393H315.058L314.434 14.5425H309.238ZM310.485 786.334L310.901 788.619L315.681 788.204L315.265 785.918L310.485 786.334ZM310.485 784.049L315.265 785.918V783.425L310.485 784.049ZM310.485 783.425H315.265L315.681 781.556H310.277V783.425H310.485ZM310.485 781.14L315.889 780.725L310.485 779.27V781.14ZM310.485 778.647H315.889L315.473 776.777H310.693V778.647H310.485ZM310.485 776.154H315.265V774.284H310.485V776.154ZM310.485 773.869H315.265V771.999H310.485V773.869ZM311.109 810.433L311.524 815.627H314.018L313.603 809.81L311.109 810.433ZM311.109 806.07L316.305 807.524V805.655L311.109 806.07ZM311.109 803.577L311.524 805.447L316.305 805.031L311.109 803.577ZM311.109 803.162H316.305V800.876H311.109V803.162ZM311.109 793.605H315.889V791.528L311.109 793.605ZM311.109 791.112H315.889V788.619L311.109 789.035V791.112ZM312.979 800.253H316.305L312.979 797.76V800.253ZM314.018 809.81L314.434 815.627L316.928 815.211L316.512 809.81H314.018ZM316.305 791.112H322.124L321.708 788.619H316.512V791.112H316.305ZM316.305 786.334H321.5V784.464H316.72L316.305 786.334ZM316.305 782.594L316.72 784.464L321.5 784.049L321.085 780.101H318.591L316.097 781.971L319.422 782.387H316.305V782.594ZM316.305 780.101L321.085 779.686L316.305 778.232V780.101ZM316.305 777.608L326.904 777.193L321.5 775.323L328.775 774.908L323.994 773.038L325.865 771.168L323.994 772.622L322.955 769.298L322.54 771.791L319.214 769.298V772.622L316.305 774.077L318.799 776.57L316.305 777.608ZM316.928 809.81L317.344 815.627L319.838 815.211L319.422 809.81H316.928ZM316.928 809.394H319.214V803.577H316.928V809.394ZM316.928 803.162H319.214L318.799 799.838H316.928V803.162ZM316.928 797.968L321.708 799.422V797.552L316.928 797.968ZM316.928 797.345H321.708V795.475L316.928 797.345ZM316.928 795.475L321.708 795.059L316.928 793.605V795.475ZM319.214 799.838L319.63 803.162L321.085 801.292V803.162H326.904V799.838H319.214ZM319.838 809.81L320.253 815.211H322.54L322.124 809.81H319.838ZM319.838 809.394H322.124V803.577H319.838V809.394ZM321.708 780.101L322.124 781.971L326.904 780.101H321.708ZM321.708 779.686H327.112V777.816H321.708V779.686ZM322.124 784.049H326.904V782.179H322.124V784.049ZM322.54 815.211H325.034V809.394L322.54 809.81V815.211ZM322.54 809.394H325.034V803.577H322.54V809.394ZM322.54 799.422L337.504 799.007L335.01 795.267L326.904 797.137L322.54 797.552V799.422ZM325.449 815.211H327.943V809.394H325.449V815.211ZM325.449 809.394L327.943 808.979V803.785H325.449V809.394ZM326.904 799.838L327.32 803.162L334.594 802.746V799.422L326.904 799.838ZM326.904 795.059L336.049 794.644V791.32H326.904V795.059ZM327.528 786.334L327.943 788.204L332.723 787.788L327.528 786.334ZM327.528 785.918H332.723V784.049H327.943L327.528 785.918ZM327.528 781.971L327.943 783.841L332.723 783.425L327.528 781.971ZM327.528 779.686L332.308 779.27L327.528 777.816V779.686ZM328.359 815.211H330.853V809.394H328.359V815.211ZM328.359 808.979H330.853V803.162L328.359 803.577V808.979ZM331.269 815.211H333.555V809.394H331.269V815.211ZM331.269 808.979H333.555V803.162H331.269V808.979ZM332.723 774.908H338.127V772.83H332.723V774.908ZM333.139 787.788H338.543L337.504 785.918L333.139 787.788ZM333.763 803.162L334.178 808.979H336.464V803.162H333.763ZM334.178 814.796H336.464V809.394H334.178V814.796ZM335.01 802.746H337.919L337.504 799.422H335.01V802.746V802.746ZM338.543 776.154L338.958 782.802H340.829V776.154H338.543ZM338.543 775.739H340.829L338.543 770.337V775.739ZM338.958 783.425L339.374 789.242H341.245L340.829 783.425H338.958ZM339.374 798.799L339.79 806.486H341.66L341.245 798.383L339.374 798.799ZM339.374 795.059H341.245V789.866H339.374V795.059ZM339.374 722.97L351.844 722.555V718.815L341.245 719.231L339.374 722.97ZM339.998 813.757L341.868 812.303V807.109H339.998V813.757ZM342.284 776.154L342.699 782.802H344.57V775.531L342.284 776.154ZM342.284 775.739L344.778 775.323L344.362 770.96L342.284 775.739ZM342.699 795.059H345.193V789.866H342.699V795.059ZM342.699 789.242H344.57V783.01L342.699 783.425V789.242ZM343.323 807.109L345.817 813.757V806.486L343.323 807.109ZM343.323 806.07H345.817L345.401 798.383H343.531V806.07H343.323ZM343.739 175.549L359.534 175.133L359.118 164.538L343.739 164.954V175.549ZM346.648 814.172H349.558V811.679H346.648V814.172ZM346.648 808.979H349.142V806.486H346.648V808.979ZM349.558 809.394L354.754 811.264V808.771L349.558 809.394ZM349.558 808.979L354.754 808.563V806.693H349.558V808.979ZM349.974 814.172H354.754V811.679H349.974V814.172ZM354.338 718.607L354.754 721.931H361.404V718.607H354.338ZM355.377 814.172L362.651 813.757L362.236 811.472L355.585 811.887V814.172H355.377ZM355.377 811.264L362.028 810.848V808.979H355.377V811.264ZM355.377 808.355H362.028V806.07L355.377 806.486V808.355ZM385.513 44.874L385.929 48.8213L391.748 48.4058L393.203 44.4585V41.9655H386.552L385.513 44.874ZM386.137 31.3703L387.176 38.0183L392.995 36.564L391.54 30.3315L386.137 31.3703ZM409.622 831H414.818L414.402 829.13L409.622 829.546V831ZM409.622 829.13L414.402 828.715L409.622 827.261V829.13ZM424.586 73.128L425.001 84.5543H429.782V89.748L441.836 89.3325L440.797 84.1388H445.161L444.746 72.7125L424.586 73.128ZM428.327 15.9968L437.471 15.5813L437.056 4.986L430.821 5.4015V10.1798H428.535V15.9968H428.327ZM449.941 194.662L450.357 208.997H456.592L455.553 194.039L449.941 194.662ZM505.849 764.728L509.797 763.274L505.849 762.235V764.728ZM515.409 822.482L515.825 825.391L523.099 822.482H515.409ZM552.819 658.568L558.223 658.152V650.258L552.819 650.673V658.568ZM565.912 40.9268L576.096 41.3423V46.536L597.711 45.4973L595.217 23.8913H588.982L589.398 35.5253L565.912 36.564V40.9268V40.9268ZM566.328 810.433L567.783 812.926L571.732 810.017L566.328 810.433ZM569.238 12.6728L571.108 23.6835L586.488 24.099V19.7363H591.268L591.684 23.6835L646.552 22.2293L644.266 19.7363L643.85 2.493H636.16L635.121 0.62325L631.796 5.817L625.145 2.9085L574.641 1.03875L575.057 12.6728H569.238ZM571.732 801.292L573.602 803.785L575.057 802.331L573.602 799.838L571.732 801.292ZM574.018 804.2L575.888 806.486L593.762 791.112L574.018 804.2ZM574.018 799.838L575.473 801.707L577.343 800.253L575.888 798.383L574.018 799.838ZM578.382 795.89L580.253 798.383L582.123 796.929L580.253 794.436L578.382 795.89ZM580.876 794.021L582.747 796.514L584.617 795.059L582.747 792.566L580.876 794.021ZM583.163 792.566L586.488 793.605L584.617 790.697L583.163 792.566ZM584.617 789.242L587.111 793.19L589.398 791.735L586.488 787.996L584.617 789.242ZM587.111 787.373L589.398 791.32L591.892 789.866L588.982 785.918L587.111 787.373ZM589.398 785.295L591.892 789.242L594.386 787.788L591.476 783.841L589.398 785.295ZM594.178 789.242L597.087 790.697L595.633 789.242L599.997 784.464L594.178 789.242ZM597.087 615.148L608.103 614.732V610.37L597.087 610.785V615.148ZM597.711 28.4618L598.127 40.9268L602.907 44.2508L624.937 45.705V40.5113H635.952L636.368 45.705L638.654 45.2895L641.564 34.2788L620.78 36.7718L612.052 34.2788L610.597 28.0463L607.271 28.4618L606.856 35.733L602.491 36.7718L599.166 27.6308L597.711 28.4618ZM606.232 557.186L617.247 556.77V554.693L606.232 555.108V557.186ZM608.31 603.722H612.675L613.091 601.852H608.31V603.722ZM608.31 601.229L613.091 599.359H608.31V601.229ZM608.31 598.943L613.091 599.359L614.13 596.866V594.996H608.31V598.943ZM608.31 594.581H614.545V592.711L608.31 594.581ZM619.326 750.393L628.055 767.221L632.835 751.432L631.796 749.562L619.326 750.393ZM632.211 570.482H638.446L632.211 568.612V570.482ZM634.705 534.541L637.199 539.735H641.564L641.148 536.411L644.473 535.372L642.603 532.463L634.705 534.541ZM653.826 177.003L661.516 178.873L667.751 175.549L674.402 179.288L679.805 172.64L674.402 167.447L668.167 168.901L660.892 176.172L662.763 169.94L653.826 177.003ZM665.465 683.913L668.374 687.653L677.519 687.237L680.013 684.952L677.519 681.005L667.959 681.42L665.465 683.913ZM673.57 709.466L675.025 713.829L704.329 726.71L705.784 722.347L704.745 720.893L677.311 708.012L673.57 709.466ZM680.221 702.818L682.715 704.688L704.745 715.699L708.07 714.66L708.486 710.713L706.823 709.882L706.616 709.051L685.001 699.079L683.338 699.91L681.26 699.079L680.637 701.364L680.221 701.572L680.429 701.78L680.221 702.818ZM695.808 504.625L696.224 517.505L704.953 517.921V504.002L695.808 504.625ZM709.11 508.157L710.149 517.713L728.438 517.298L726.568 507.741L709.11 508.157ZM716.384 296.667L717.423 308.717L720.748 307.678L720.333 296.044L716.384 296.667ZM717.423 718.607L719.917 733.981L723.866 735.851L727.815 732.527V729.203L725.944 716.738L722.619 713.414L717.423 718.607ZM734.673 662.307L737.583 665.631L748.598 664.177L747.559 659.814H736.128L734.673 662.307ZM745.688 416.747L749.429 413.423L752.755 392.855L749.429 392.44L745.688 416.747ZM746.727 426.303L751.923 429.627L759.613 429.212L767.303 425.888L776.032 417.785L777.487 412.592L773.538 412.176L771.667 417.37L763.562 424.018L746.727 426.303ZM754.417 384.13L756.911 389.324L767.095 394.102L767.511 367.094L765.64 364.809L760.86 366.679L754.417 384.13ZM768.758 362.524L770.213 394.31L777.902 401.581L780.812 403.451L785.177 394.31L776.448 363.563L774.162 361.693L768.758 362.524ZM774.162 409.475L777.487 412.384L778.526 405.736L777.071 403.866L774.162 409.475ZM774.993 94.3185L787.878 95.3573L788.294 92.8643L774.993 94.3185ZM775.616 107.822H786.632L787.047 105.953L776.032 104.914L775.616 107.822ZM775.616 102.421L787.047 103.46L787.463 100.551L775.616 102.421ZM775.616 98.058L787.671 99.5123L788.71 97.6425L775.616 98.058ZM776.448 90.3713L784.137 91.41L781.228 87.0473L776.448 90.3713ZM780.812 262.388L799.517 260.934V257.61L791.412 258.026V255.533H788.502L780.812 262.388ZM781.228 80.8148L781.643 86.0085L784.969 90.3713L793.074 91.8255L800.348 85.593V79.776L797.023 80.1915L796.607 84.9698L791.827 88.2938L787.878 87.8783L784.553 80.607H781.228V80.8148ZM781.228 20.3595L781.643 29.085L786.008 29.5005L799.933 28.4618L803.258 19.7363H790.372L786.632 21.606L781.228 20.3595ZM782.267 34.2788L782.683 50.0678L790.372 65.0258L794.737 63.156L792.867 60.663L798.062 42.7965L795.776 29.916L782.267 30.3315V34.2788ZM784.137 267.374L799.102 266.336L798.686 262.596L791.412 263.012L784.761 264.881L784.137 267.374ZM787.463 106.368H790.372L792.243 93.903L789.333 93.4875L788.294 97.8503L787.463 106.368ZM791.412 106.368L794.321 106.784L796.192 99.0968L795.153 105.745L798.062 106.784L799.933 91.8255V89.3325L797.023 91.2023L795.984 98.4735V92.241L793.074 92.6565L791.412 106.368ZM792.451 65.8568L793.49 69.1808L802.635 70.2195L803.05 65.8568L798.27 63.987L792.451 65.8568ZM796.192 57.7545L798.062 58.17L797.647 61.9095L804.297 62.9483L807.207 55.2615L809.701 21.1905H806.791L803.882 29.2928L796.607 30.3315L799.102 42.7965L796.192 57.7545Z" fill="#F9F9F9"/>
</svg>
