<svg width="420" height="516" viewBox="0 0 420 516" fill="none" xmlns="http://www.w3.org/2000/svg">
<path d="M396.403 464.186H394.533L396.403 464.602M81.1202 209.9V206.992L80.081 205.538L79.0419 204.083L61.7917 196.397L81.1202 209.9ZM397.443 123.476L397.027 120.568L397.443 123.476ZM394.533 103.325V101.455V103.325ZM394.949 109.557L393.078 110.596L394.949 112.05L395.364 110.18L394.949 109.557ZM394.117 101.87V104.363V101.87ZM393.494 94.1837L393.078 91.2752L393.494 94.1837ZM418.434 464.81L414.485 466.679L418.434 464.81ZM249.673 479.975L245.932 485.169L245.516 487.039L249.673 479.975ZM1.72786 40.3765L2.14354 44.116L1.72786 40.3765ZM1.72786 13.9922V15.862V13.9922ZM2.14354 1.3195L1.10437 7.13649L2.14354 1.3195ZM6.50803 50.9717V48.4787V50.9717ZM3.1827 39.7532L3.59836 42.2462L3.1827 39.7532ZM3.59836 16.693V13.7845V16.693ZM245.932 487.247V485.377L247.803 482.468L248.842 479.975L245.932 487.247ZM409.913 471.873L409.497 474.782L410.536 472.912L409.913 471.873ZM412.822 474.782V472.289V474.782ZM404.093 464.186L406.587 463.148L404.093 464.186ZM72.3912 197.435L72.8069 194.527L72.3912 197.435ZM248.842 514.254L246.348 501.374L248.842 514.254Z" stroke="#737373" stroke-width="1.8225" stroke-linecap="round" stroke-linejoin="round"/>
</svg>
