<svg width="31" height="31" viewBox="0 0 31 31" fill="none" xmlns="http://www.w3.org/2000/svg">
<path d="M29.518 0H17.6618C16.8477 0 15.7075 0.472271 15.1325 1.0473L0.432779 15.747C0.155606 16.0255 0 16.4024 0 16.7953C0 17.1882 0.155606 17.5651 0.432779 17.8436L13.1564 30.5672C13.4349 30.8444 13.8118 31 14.2047 31C14.5976 31 14.9745 30.8444 15.253 30.5672L29.9527 15.8675C30.5297 15.2905 31 14.1523 31 13.3382V1.48202C30.9984 1.08945 30.8418 0.713395 30.5642 0.435799C30.2866 0.158203 29.9106 0.00156096 29.518 0V0ZM22.1079 11.8562C21.7185 11.8561 21.333 11.7792 20.9733 11.6301C20.6136 11.481 20.2868 11.2625 20.0116 10.987C19.7363 10.7116 19.518 10.3847 19.3691 10.0249C19.2202 9.66512 19.1437 9.27954 19.1438 8.89016C19.1439 8.50079 19.2208 8.11525 19.3699 7.75557C19.519 7.39588 19.7375 7.06909 20.013 6.79386C20.2884 6.51862 20.6153 6.30032 20.9751 6.15144C21.3349 6.00255 21.7205 5.92599 22.1098 5.92612C22.8962 5.92638 23.6503 6.23902 24.2061 6.79525C24.762 7.35149 25.0741 8.10576 25.0739 8.89214C25.0736 9.67851 24.761 10.4326 24.2047 10.9884C23.6485 11.5443 22.8942 11.8564 22.1079 11.8562Z" fill="white"/>
</svg>
