<svg width="626" height="67" viewBox="0 0 626 67" fill="none" xmlns="http://www.w3.org/2000/svg">
<path d="M279.331 35.6461L281.202 35.2306M594.199 1.99059L589.418 5.31454L594.199 1.99059ZM90.4107 27.7516V23.3888V27.7516ZM590.042 6.1456L599.187 10.5083L600.641 13.8323L601.681 14.2478L590.042 6.1456ZM594.822 6.1456L597.732 4.69132L599.187 0.951843L594.822 6.1456ZM269.355 34.1919L270.81 37.1003L269.355 34.1919ZM275.59 28.3748L273.096 27.9594L270.81 27.5438L275.59 28.3748ZM269.771 19.2338L267.9 25.0508L264.991 26.5051L269.771 19.2338ZM288.06 32.7376L285.566 31.6988L288.06 32.7376ZM310.714 24.0121L304.895 26.5051L310.714 24.0121ZM304.895 29.4136L310.09 26.5051L304.895 29.4136ZM602.928 16.3253V18.1951L604.798 19.2338L602.928 16.3253ZM610.617 29.8291L609.578 25.0508L606.253 18.8183L605.837 16.9486L610.617 29.8291ZM624.127 58.0831L621.633 58.4986L619.346 55.1746L615.398 55.5901L613.527 54.1358L612.488 48.9421L610.617 47.0723L611.033 45.2026V43.1251L624.127 58.0831ZM610.617 6.1456L602.512 3.23704L610.617 6.1456ZM604.382 8.63856L605.422 7.18435L604.382 8.63856ZM582.768 8.2231L580.482 9.67731L582.768 8.2231ZM1.45801 27.7516L2.49717 25.2586L6.44601 23.8044L1.45801 27.7516ZM91.4498 43.1251L89.5793 44.1638L88.1245 46.6569L91.4498 43.1251ZM112.441 35.6461L108.077 37.1003L112.441 35.6461ZM87.9167 24.4276L88.3323 27.7516L87.9167 24.4276ZM251.481 26.5051H249.611H251.481ZM226.541 31.2833L229.451 30.8678L226.541 31.2833ZM228.828 26.9206H226.334H228.828ZM271.641 63.9001V65.7698V63.9001ZM274.551 43.1251L275.59 38.7623L274.551 43.1251ZM274.135 43.1251V41.2554V43.1251ZM271.641 33.1531L274.967 33.5686L271.641 33.1531Z" stroke="#737373" stroke-width="1.8225" stroke-linecap="round" stroke-linejoin="round"/>
</svg>
