<svg width="420" height="514" viewBox="0 0 420 514" fill="none" xmlns="http://www.w3.org/2000/svg">
<path d="M397.403 463.186H395.533L397.403 463.602M82.1202 208.9V205.992L81.081 204.538L80.0419 203.083L62.7917 195.397L82.1202 208.9ZM398.443 122.476L398.027 119.568L398.443 122.476ZM395.533 102.325V100.455V102.325ZM395.949 108.557L394.078 109.596L395.949 111.05L396.364 109.18L395.949 108.557ZM395.117 100.87V103.363V100.87ZM394.494 93.1837L394.078 90.2752L394.494 93.1837ZM419.434 463.81L415.485 465.679L419.434 463.81ZM250.673 478.975L246.932 484.169L246.516 486.039L250.673 478.975ZM2.72786 39.3765L3.14354 43.116L2.72786 39.3765ZM2.72786 12.9922V14.862V12.9922ZM3.14354 0.319504L2.10437 6.13649L3.14354 0.319504ZM7.50803 49.9717V47.4787V49.9717ZM4.1827 38.7532L4.59836 41.2462L4.1827 38.7532ZM4.59836 15.693V12.7845V15.693ZM246.932 486.247V484.377L248.803 481.468L249.842 478.975L246.932 486.247ZM410.913 470.873L410.497 473.782L411.536 471.912L410.913 470.873ZM413.822 473.782V471.289V473.782ZM405.093 463.186L407.587 462.148L405.093 463.186ZM73.3912 196.435L73.8069 193.527L73.3912 196.435ZM249.842 513.254L247.348 500.374L249.842 513.254Z" stroke="#404040" stroke-width="2.43" stroke-linejoin="bevel"/>
</svg>
