<svg width="626" height="599" viewBox="0 0 626 599" fill="none" xmlns="http://www.w3.org/2000/svg">
<path d="M101.143 130.116L100.728 142.581L96.3633 144.451L93.4536 138.634L101.143 130.116ZM101.143 130.116L103.637 127.623L108.002 122.429L109.041 121.39L111.535 119.521L101.143 130.116ZM495.403 550.186H497.274M161.831 283.02L169.936 281.15L178.042 281.566L186.147 278.657L184.277 270.97L182.822 269.101L178.873 261.414L178.457 247.079L177.418 236.484L177.003 231.706L161.831 283.02ZM178.665 275.333L177.21 277.203L178.25 281.566L176.795 286.344L173.469 286.759L171.599 283.435L178.665 275.333ZM171.807 280.527L173.262 278.657L177.003 277.203L171.807 280.527ZM151.647 284.059H156.011L164.117 285.097L176.587 292.369L178.873 299.017L151.647 284.059ZM180.536 309.82L180.12 295.9L180.536 309.82ZM178.042 261.414L175.548 272.009L161.623 280.735L178.042 261.414ZM179.497 281.981L186.147 278.657L179.497 281.981ZM186.355 277.618L180.536 275.749L186.355 277.618ZM160.792 282.604H154.141L152.27 283.02H149.361L160.792 282.604ZM179.081 274.294V261.414V274.294ZM188.641 594.022V584.257V594.022ZM493.533 187.455L493.117 185.585L492.702 180.391L493.533 187.455ZM493.117 187.87L490.623 178.314L489.584 176.86L482.933 169.173L493.117 187.87ZM444.9 67.791L445.315 60.1042L444.9 67.791ZM434.924 49.509L431.598 49.9245L434.924 49.509ZM187.186 548.317L186.771 550.81L187.186 548.317ZM1.59131 385.856L2.00697 374.222L9.28114 371.314L1.59131 385.856ZM495.819 206.568L494.78 200.335L493.741 198.05L495.819 206.568ZM494.988 200.335V206.568L496.027 214.255L494.988 200.335ZM498.313 213.216L498.729 205.529L506.834 197.842L514.108 192.025L508.289 193.064L503.925 192.025L501.015 198.673L498.313 213.216ZM498.729 220.487L496.235 209.476L498.729 220.487ZM516.187 178.314L510.991 183.092L508.081 186.416L503.301 190.779L516.187 178.314ZM494.364 195.973L493.325 189.325L494.364 195.973ZM493.117 190.156L494.156 195.349L492.286 192.441H484.596L493.117 190.156ZM490.623 178.314L492.078 187.039L488.753 191.818L490.623 178.314ZM102.598 120.144L103.014 116.404L102.598 102.693L104.053 116.197L105.924 118.066L110.288 118.482L113.613 115.158L124.629 104.978L130.448 99.7845L136.683 95.0062L102.598 120.144ZM100.728 101.862V115.366V119.728L102.183 125.961L100.728 101.862ZM101.143 117.235L100.728 119.728V126.376L101.143 117.235ZM195.5 281.15L184.485 270.97L195.5 281.15ZM505.587 549.148L507.458 548.109L508.912 546.655L509.952 544.785L511.407 541.876L510.991 534.19L510.575 530.866L505.587 549.148ZM509.328 558.912L513.693 552.679L522.837 553.095H526.163H528.033L509.328 558.912ZM500.807 547.901L492.702 549.355L487.506 549.771H484.18L500.807 547.901ZM508.912 533.982V539.176V543.954V546.862V533.982ZM484.388 550.186H486.882H493.533H484.388ZM508.497 560.782L509.952 565.56V568.884L510.991 571.792L508.497 560.782ZM102.183 102.277V105.186L102.598 117.235L102.183 102.277ZM507.458 548.317L497.274 548.732L492.494 549.148L507.458 548.317ZM86.803 141.75L97.8181 133.024L86.803 141.75ZM71.839 155.669L88.6735 139.88L96.779 132.193L98.2338 130.739L71.839 155.669ZM100.728 115.366L100.312 124.507L94.4928 133.648L100.728 115.366ZM100.728 71.5305L101.143 83.58V87.3195L100.728 71.5305ZM100.312 78.1785V93.1365L100.728 99.7845L100.312 78.1785ZM508.497 514.661L508.912 517.985L509.328 523.802L509.744 529.619L508.497 514.661ZM105.924 118.274L104.469 111.626L103.43 104.355L103.014 101.862L105.924 118.274ZM103.637 134.894L105.092 148.398L105.508 136.764L103.637 134.894ZM104.469 146.528V172.497V146.528ZM347.842 565.975L350.336 563.482L347.842 565.975ZM352.206 564.729L348.881 566.183L352.206 564.729ZM102.598 99.9922L102.183 95.214L102.598 99.9922ZM345.348 587.166L345.763 584.257L344.724 576.571V576.155V573.247L345.348 587.166ZM522.837 553.095H517.018L511.822 558.289V554.549L522.837 553.095ZM495.403 550.81H498.729L503.093 550.394L495.403 550.81ZM108.002 22.917L117.147 11.4907L120.056 8.99774L108.002 22.917ZM120.472 5.25824L112.782 15.8535L120.472 5.25824ZM526.578 552.679L522.837 551.641L519.512 550.602L513.277 548.109L511.407 541.876L526.578 552.679ZM498.729 550.81L501.223 551.225L506.003 552.679L508.912 558.081L498.729 550.81ZM183.445 408.501V410.371V412.24V408.501ZM170.352 283.435L176.587 292.161L170.352 283.435ZM105.924 212.8L106.963 223.396L105.924 212.8ZM107.378 226.72L107.794 217.579L107.378 226.72ZM113.613 115.366L109.249 116.404L104.469 111.626L113.613 115.366ZM88.6735 139.88L71.839 154.215L70.3841 155.669L88.6735 139.88ZM551.726 152.761L550.271 153.799L551.726 152.761ZM589.136 109.964L587.681 111.418L582.485 116.612L589.136 109.964ZM575.211 123.883L581.862 118.066L575.211 123.883ZM623.844 11.4907L623.429 9.621L623.844 11.4907ZM622.805 1.311V7.95899V1.311ZM508.912 539.176L506.003 546.447L497.274 548.94L508.912 539.176ZM509.328 529.619V523.802V519.024V529.619ZM519.512 550.81H517.642H519.512ZM499.352 244.171V240.847V244.171ZM498.729 244.171V247.079V244.171ZM127.538 104.147L105.092 128.246V130.116L105.508 134.479L127.538 104.147ZM492.078 177.275L482.933 168.134L492.078 177.275ZM187.81 583.426L186.355 596.93L187.81 583.426ZM187.81 544.369L187.394 542.5V539.176L187.81 544.369ZM419.544 51.7942H423.285L432.43 51.3787H433.469L442.198 48.0547L444.068 55.326L444.484 66.7522L419.544 51.7942ZM493.117 185.377L496.027 183.923L494.988 186.832L493.117 185.377ZM344.932 576.155L344.516 573.247L344.932 576.155ZM345.971 588.62V584.257V588.62ZM183.861 402.268L183.445 398.321L183.861 402.268ZM511.199 565.56L511.614 560.782L511.199 565.56Z" stroke="#404040" stroke-width="2.43" stroke-linejoin="round"/>
</svg>
