<svg width="614" height="101" viewBox="0 0 614 101" fill="none" xmlns="http://www.w3.org/2000/svg">
<path d="M269.991 50.336H263.34M608.343 36.0013L607.304 34.547L606.265 33.5082L608.343 36.0013ZM599.822 17.3038V20.2123L599.407 24.9906L599.822 17.3038ZM601.693 25.406L602.732 27.899L604.602 29.3532L612.708 29.7688L610.422 30.1843L601.693 25.406ZM607.512 26.4448L604.187 24.1595L603.771 22.7053L602.732 20.42L601.693 18.5503V18.1348L601.277 16.6806L600.861 15.6418L607.512 26.4448ZM594.419 28.3145L591.509 29.3532L587.56 31.223L594.419 28.3145ZM92.9167 69.6568L91.8775 76.928L94.3715 93.3403L94.7872 97.0797V99.5728L92.9167 69.6568ZM95.4107 50.7515V56.984L94.995 64.6707L95.4107 50.7515ZM11.2382 47.012L17.4732 45.1423H18.0967H22.0455L11.2382 47.012ZM600.654 7.53951L600.238 1.72253L600.654 7.53951ZM95.4107 46.5965V32.6773V30.8075L94.995 18.7581V13.5643L95.4107 46.5965ZM93.5402 50.7515V55.1143L93.9559 60.308L94.3715 66.956L93.5402 50.7515ZM278.096 80.252L279.135 70.6955V66.125L278.096 80.252ZM286.41 58.0228H288.28H294.099L298.048 57.6072L300.542 56.5685H300.958L302.413 56.153L307.816 52.829L310.31 51.3748L286.41 58.0228ZM276.226 50.336V52.2057L275.81 59.8925L276.849 65.7095L277.265 71.5265V76.3047L276.226 50.336ZM279.135 70.4878L279.551 66.125L279.135 70.4878ZM231.542 49.9205H228.216H223.02L219.279 50.336L208.264 51.3748L231.542 49.9205ZM241.518 52.4135L248.792 52.829L254.611 51.7903L261.885 52.829L271.03 54.2832L274.355 57.1918L275.81 60.1003V61.97L276.226 65.9172L276.641 76.928V82.745V84.6147V87.1078L241.518 52.4135ZM275.81 50.336L269.991 49.2973L268.12 48.8818L266.25 49.2973H264.379H256.689L254.403 50.336H252.533L242.349 51.3748L275.81 50.336ZM278.096 87.3155L279.135 81.4985L279.551 74.8505L280.59 65.7095L281.629 61.7622L282.045 60.7235L282.461 60.308L283.5 59.8925H285.994L292.229 58.8538L295.139 58.4382L302.413 56.153L306.777 54.2832L310.103 52.4135L278.096 87.3155ZM95.4107 82.1218L98.736 70.6955L115.986 63.0088L129.911 59.0615L95.4107 82.1218ZM94.3715 14.3953L93.3324 26.4448V29.7688V40.364L92.9167 47.4275L94.3715 14.3953ZM93.9559 60.5157L90.6305 72.9807L93.1245 85.4457L93.9559 60.5157ZM275.81 42.6493L274.771 48.4663L269.991 49.505L263.34 50.5438H254.195L254.611 51.998L275.81 42.6493ZM322.78 43.688L315.506 47.012L322.78 43.688ZM275.81 33.5082L275.394 38.702L274.979 42.026L275.81 33.5082ZM309.895 49.505L299.295 55.322L293.06 55.7375L309.895 49.505ZM302.205 54.2832L299.295 55.322L290.566 54.9065L283.916 53.4523L302.205 54.2832ZM606.473 36.8323L607.928 39.3253L606.473 37.4555V36.8323ZM610.837 39.7407L609.383 31.6385L610.837 39.7407ZM1.67787 61.97L1.26221 59.8925L6.45804 50.7515L1.67787 61.97ZM92.501 50.336L83.772 53.2445L80.4467 61.3468L83.3564 64.6707L87.7209 64.2553L93.5402 55.1143L92.501 50.336ZM175.634 50.7515H169.399L141.965 53.2445L134.691 54.6988L127.417 56.153L117.233 58.4382L175.634 50.7515ZM113.284 59.8925L107.465 61.3468L100.814 62.3855L95.6185 57.1918L113.284 59.8925ZM107.465 61.3468L96.4499 66.125L107.465 61.3468ZM276.641 88.7697L277.057 91.055L276.641 88.7697ZM280.59 51.3748L290.774 54.6988L278.304 50.7515L277.888 48.2585L276.849 42.026L276.434 30.5998L280.59 51.3748ZM315.091 49.505L330.47 43.2725L315.091 49.505ZM254.611 49.505L245.882 49.9205H241.933H236.737H233.828L254.611 49.505ZM234.451 53.66L252.741 53.2445L255.235 53.66H263.34L271.03 54.0755L276.849 55.9453L234.451 53.66ZM222.397 52.4135H225.307L231.542 54.2832L222.397 52.4135ZM280.59 65.7095L279.135 60.5157L277.265 53.8678L277.681 51.998L280.59 65.7095ZM279.967 56.5685L284.331 58.4382L292.021 58.8538L279.967 56.5685ZM280.59 61.97L284.331 58.646L280.59 61.97ZM279.135 64.2553V60.308V64.2553ZM275.187 38.9098V42.2338V38.9098ZM263.132 53.66L274.147 56.984L263.132 53.66Z" stroke="#737373" stroke-width="1.8225" stroke-linecap="round" stroke-linejoin="round"/>
</svg>
