<svg width="31" height="28" viewBox="0 0 31 28" fill="none" xmlns="http://www.w3.org/2000/svg">
<path d="M29.0966 9.57444L26.9762 3.19045C26.6686 2.26097 26.077 1.45242 25.2853 0.879679C24.4937 0.306936 23.5423 -0.00086832 22.5665 1.83987e-06H8.43355C7.45765 -0.00086832 6.5063 0.306936 5.71467 0.879679C4.92304 1.45242 4.33139 2.26097 4.0238 3.19045L1.9034 9.57444C1.33954 9.81122 0.858019 10.21 0.519354 10.7207C0.180688 11.2313 -7.45395e-07 11.831 0 12.4444V20.2222C0 21.3702 0.6262 22.3627 1.55 22.9024V26.4444C1.55 26.857 1.7133 27.2527 2.00398 27.5444C2.29467 27.8361 2.68891 28 3.1 28H4.65C5.06109 28 5.45533 27.8361 5.74602 27.5444C6.0367 27.2527 6.2 26.857 6.2 26.4444V23.3333H24.8V26.4444C24.8 26.857 24.9633 27.2527 25.254 27.5444C25.5447 27.8361 25.9389 28 26.35 28H27.9C28.3111 28 28.7053 27.8361 28.996 27.5444C29.2867 27.2527 29.45 26.857 29.45 26.4444V22.9024C29.9203 22.6318 30.3111 22.2415 30.5832 21.771C30.8554 21.3005 30.9991 20.7663 31 20.2222V12.4444C31 11.831 30.8193 11.2313 30.4806 10.7207C30.142 10.21 29.6605 9.81122 29.0966 9.57444ZM8.43355 3.11111H22.5649C23.233 3.11111 23.825 3.53733 24.0358 4.17511L25.7502 9.33333H5.24985L6.9626 4.17511C7.06544 3.86524 7.26286 3.59571 7.52688 3.40474C7.79089 3.21376 8.1081 3.11103 8.43355 3.11111ZM5.425 18.6667C5.11957 18.6666 4.81716 18.6061 4.53502 18.4887C4.25289 18.3713 3.99655 18.1993 3.78066 17.9825C3.56476 17.7657 3.39353 17.5083 3.27674 17.2251C3.15996 16.9418 3.0999 16.6383 3.1 16.3318C3.1001 16.0253 3.16036 15.7218 3.27734 15.4386C3.39431 15.1555 3.56571 14.8982 3.78175 14.6815C3.99779 14.4649 4.25424 14.293 4.53646 14.1758C4.81867 14.0586 5.12112 13.9983 5.42655 13.9984C6.04338 13.9986 6.63487 14.2448 7.07089 14.6826C7.50692 15.1205 7.75176 15.7143 7.75155 16.3333C7.75134 16.9524 7.50611 17.546 7.0698 17.9836C6.63349 18.4212 6.04183 18.6669 5.425 18.6667ZM25.575 18.6667C25.2696 18.6666 24.9672 18.6061 24.685 18.4887C24.4029 18.3713 24.1466 18.1993 23.9307 17.9825C23.7148 17.7657 23.5435 17.5083 23.4267 17.2251C23.31 16.9418 23.2499 16.6383 23.25 16.3318C23.2501 16.0253 23.3104 15.7218 23.4273 15.4386C23.5443 15.1555 23.7157 14.8982 23.9318 14.6815C24.1478 14.4649 24.4042 14.293 24.6865 14.1758C24.9687 14.0586 25.2711 13.9983 25.5765 13.9984C26.1934 13.9986 26.7849 14.2448 27.2209 14.6826C27.6569 15.1205 27.9018 15.7143 27.9015 16.3333C27.9013 16.9524 27.6561 17.546 27.2198 17.9836C26.7835 18.4212 26.1918 18.6669 25.575 18.6667Z" fill="white"/>
</svg>
