<svg width="101" height="211" viewBox="0 0 101 211" fill="none" xmlns="http://www.w3.org/2000/svg">
<path d="M5.88982 1.24524L15.0345 12.256L13.164 15.1645L14.6188 20.3582L11.7091 24.0977L13.164 34.2775L6.92899 49.651L1.10962 56.299L5.05844 70.2182L11.2934 73.5422L14.6188 88.5002L22.7243 92.2397M99.207 208.787L84.8665 209.826L82.9959 202.555L84.8665 153.11L72.8121 139.191L71.3573 118.001L67.4084 90.1622L99.207 208.787ZM71.3573 118.001L61.1734 120.494L58.8873 128.18L54.5228 130.673L44.339 145.631H38.104L31.869 141.269L25.634 141.684L23.3478 133.997L17.9441 128.18L17.5284 118.624L71.3573 118.001Z" stroke="#292929" stroke-width="1.8552" stroke-linecap="round"/>
</svg>
