<svg width="46" height="342" viewBox="0 0 46 342" fill="none" xmlns="http://www.w3.org/2000/svg">
<path d="M9.05533 330.699L8.01616 333.608M35.0345 227.447L31.7091 236.588L26.5133 254.87L26.0976 263.596L23.6037 266.504L21.7332 273.776L19.2391 282.501L17.7843 286.241L17.3687 288.734L14.8746 296.836L14.459 297.875V299.329L35.0345 227.447ZM38.5676 1L39.6068 20.7362L40.6459 43.7965L41.0616 66.8567L41.4773 78.4907L41.8929 113.185L42.9321 128.974L43.9713 146.84L44.387 173.225L38.5676 1ZM41.8929 113.185L41.4773 91.9945V78.4907L41.8929 113.185ZM1.36548 341.294L6.14568 336.101L9.05533 330.907L10.5101 328.414L11.5493 323.636L13.0041 310.132L1.36548 341.294ZM17.7843 286.033L22.5645 269.205L23.6037 266.297L17.7843 286.033ZM37.1128 218.306L38.5676 212.905L37.1128 218.306ZM40.8538 205.426L37.9441 215.606L40.8538 205.426Z" stroke="#7F7F7F" stroke-width="1.84" stroke-linejoin="bevel"/>
</svg>
