<svg width="118" height="45" viewBox="0 0 118 45" fill="none" xmlns="http://www.w3.org/2000/svg">
<path d="M117.369 37.6385L109.263 38.054L103.028 38.4695L77.0488 39.5083H74.5549L60.63 40.547H56.4734L48.7835 40.9625L7.42468 42.8323H4.93069L0.150513 43.2478M111.134 42.8323L107.808 41.3781L103.028 38.4695L95.3382 34.1068L93.4677 32.6525L91.5972 31.6138L89.1032 30.575L87.2327 29.1207L81.829 25.7968L79.9585 25.3813L77.0488 23.927L74.5549 22.4728L73.1 21.434L70.1904 19.5643L66.865 17.6945L65.8259 17.279L64.7867 16.8635L60.0065 13.955L53.7715 10.631L38.8075 1.90552L111.134 42.8323Z" stroke="white" stroke-width="2.5175"/>
</svg>
