<svg width="301" height="650" viewBox="0 0 301 650" fill="none" xmlns="http://www.w3.org/2000/svg">
<path d="M1.38684 649.388L2.84167 648.349L4.29649 647.31L5.75132 646.895L9.49233 646.479H9.90799L11.3628 646.064H12.402L18.2213 640.87M257.23 389.908L259.516 385.13L257.23 389.908ZM15.3117 496.691L14.896 500.015L15.3117 501.885V505.209V496.691ZM18.2213 636.923L18.637 634.014L18.2213 631.729V629.236L17.8057 625.289L18.2213 636.923ZM246.63 416.708L242.681 425.849L246.63 416.708ZM273.441 22.8137L273.025 1L273.441 22.8137ZM14.896 491.29V495.237V491.29ZM102.394 307.223L103.849 306.185L106.343 304.315L108.213 302.861L116.319 295.174L119.228 292.265L102.394 307.223ZM13.0255 401.542L12.6098 398.633L13.0255 401.542ZM297.549 323.636V324.674L297.134 326.129L296.094 328.622L297.549 323.636ZM168.277 246.768L169.732 245.314L168.277 246.768ZM13.8568 442.676V439.768V435.821V442.676ZM294.224 333.608L292.353 336.101L294.224 333.608ZM300.459 299.121L299.004 310.132L300.459 299.121Z" stroke="white" stroke-width="0.92" stroke-linecap="round" stroke-linejoin="bevel"/>
</svg>
