<svg width="91" height="91" viewBox="0 0 91 91" fill="none" xmlns="http://www.w3.org/2000/svg">
<path d="M73.9374 85.3125H68.2499V76.7812H56.8749C53.105 76.7775 49.4906 75.2782 46.8249 72.6125C44.1592 69.9468 42.66 66.3324 42.6562 62.5625V58.9225L36.0701 56.73C35.6662 56.5952 35.2978 56.3715 34.9919 56.0753C34.6861 55.7791 34.4506 55.4181 34.303 55.0188C34.1553 54.6194 34.0992 54.1921 34.1388 53.7682C34.1783 53.3443 34.3126 52.9347 34.5316 52.5696L42.6562 39.0248V31.2812C42.6637 24.4957 45.3626 17.9902 50.1607 13.192C54.9589 8.39392 61.4644 5.69503 68.2499 5.6875H82.4687V11.375H68.2499C62.9723 11.381 57.9126 13.4802 54.1807 17.2121C50.4489 20.9439 48.3497 26.0036 48.3437 31.2812V39.8125C48.343 40.3276 48.2025 40.8328 47.937 41.2742L41.2343 52.4558L46.4014 54.1763C46.9674 54.3654 47.4595 54.7279 47.8081 55.2122C48.1566 55.6965 48.344 56.2783 48.3437 56.875V62.5625C48.3459 64.8244 49.2455 66.9931 50.8449 68.5925C52.4444 70.1919 54.613 71.0915 56.8749 71.0938H71.0937C71.8479 71.0938 72.5712 71.3934 73.1045 71.9267C73.6378 72.46 73.9374 73.1833 73.9374 73.9375V85.3125Z" fill="white"/>
<path d="M54.0312 34.125H65.4062V39.8125H54.0312V34.125Z" fill="white"/>
<path d="M26.5379 71.7108C24.4508 69.8437 22.7812 67.5572 21.638 65.0007C20.4949 62.4443 19.9041 59.6754 19.9041 56.875C19.9041 54.0746 20.4949 51.3057 21.638 48.7493C22.7812 46.1928 24.4508 43.9063 26.5379 42.0392L30.3315 46.2763C28.8406 47.61 27.648 49.2433 26.8314 51.0693C26.0148 52.8954 25.5928 54.8732 25.5928 56.8736C25.5928 58.8739 26.0148 60.8517 26.8314 62.6778C27.648 64.5039 28.8406 66.1371 30.3315 67.4708L26.5379 71.7108Z" fill="white"/>
<path d="M18.2001 81.9C14.3161 78.9855 11.1638 75.207 8.99276 70.8636C6.82168 66.5201 5.69141 61.7309 5.69141 56.875C5.69141 52.0191 6.82168 47.2299 8.99276 42.8865C11.1638 38.543 14.3161 34.7645 18.2001 31.85L21.6126 36.4C18.4334 38.7839 15.853 41.8754 14.0758 45.4295C12.2985 48.9836 11.3732 52.9027 11.3732 56.8764C11.3732 60.8501 12.2985 64.7693 14.0758 68.3234C15.853 71.8775 18.4334 74.9689 21.6126 77.3529L18.2001 81.9Z" fill="white"/>
</svg>
