<svg width="403" height="653" viewBox="0 0 403 653" fill="none" xmlns="http://www.w3.org/2000/svg">
<path d="M0 652.284H17.458L12.2622 618.213L0 618.629V652.284ZM30.9672 225.981L31.3828 248.626H54.0367L53.621 225.981H30.9672ZM112.646 0.156998L113.061 16.5692L133.637 16.1538V0.364752H112.646V0.156998ZM154.42 372.653L156.914 383.248H162.734L170.008 382.209L162.318 366.42L154.42 372.653ZM181.854 90.9438L182.893 103.824H201.183L199.312 91.3592L181.854 90.9438ZM226.538 43.369L229.032 44.4077L249.192 25.7102L248.153 22.8017L226.538 23.2173V43.369ZM316.946 43.9923L341.47 44.4077L342.509 41.9148L326.714 23.6327L317.154 22.594V43.9923H316.946ZM367.449 32.7738L397.17 31.735L395.715 21.5552L367.449 22.594V32.7738ZM379.919 234.291L381.79 252.573H387.609L388.025 248.626L402.989 247.172V234.291H379.919Z" fill="#DDEADB"/>
</svg>
